<svg width="57" height="56" viewBox="0 0 57 56" fill="none" xmlns="http://www.w3.org/2000/svg">
<path d="M22.5867 2.99585L20.4539 20.0157H25.1352L30.5055 3.9846L22.5867 2.99585ZM32.6164 3.87085L27.2133 20.0157L43.5867 20.0266L47.3383 8.80366L32.6164 3.87085ZM20.3555 5.0346L12.4914 5.8921L14.0336 20.0157H18.4852L20.3555 5.0346ZM7.66797 16.7344C6.41016 16.7344 5.57016 17.6969 5.34156 18.6157C5.22781 19.0751 5.29234 19.4469 5.42141 19.6548C5.54937 19.8516 5.72656 20.0157 6.35547 20.0157H12.0539L11.693 16.7344H7.66797ZM46.7586 16.7344L45.6648 20.0157H50.8602C50.5758 19.4688 50.4555 18.8891 50.532 18.3094C50.6086 17.7407 50.8273 17.2266 51.1117 16.7344H46.7586ZM5.15234 21.9844V48.9891C5.15234 49.5469 5.4575 50.2032 5.95844 50.7063C6.46047 51.2094 7.12109 51.5157 7.66797 51.5157L49.668 51.5266C50.2148 51.5266 50.8711 51.2204 51.3742 50.7173C51.8773 50.2141 52.1836 49.5579 52.1836 49.0001V41.2344H42.668C37.8555 41.2344 37.8555 32.2657 42.668 32.2657H52.1836V21.9954L5.15234 21.9844ZM42.668 34.2344C40.4805 34.2344 40.4805 39.2657 42.668 39.2657H45.107C44.1227 38.8501 43.4336 37.8766 43.4336 36.7501C43.4336 35.6235 44.1227 34.6501 45.107 34.2344H42.668ZM47.2289 34.2344C48.2133 34.6501 48.9023 35.6235 48.9023 36.7501C48.9023 37.8766 48.2133 38.8501 47.2289 39.2657H53.9336V34.2344H47.2289ZM46.168 35.9844C45.7305 35.9844 45.4023 36.3126 45.4023 36.7501C45.4023 37.1876 45.7305 37.5157 46.168 37.5157C46.6055 37.5157 46.9336 37.1876 46.9336 36.7501C46.9336 36.3126 46.6055 35.9844 46.168 35.9844Z" fill="#C6C6C6"/>
</svg>
