<svg width="56" height="56" viewBox="0 0 56 56" fill="none" xmlns="http://www.w3.org/2000/svg">
<path d="M2.05469 2.13281V10.8452C6.942 11.4557 10.9706 13.5758 14.814 16.0029L12.107 18.1973L23.2395 23.8744L20.1836 11.6484L17.3502 13.9453C15.1381 9.56922 12.6714 5.44359 9.3932 2.13281H2.05469ZM32.3927 2.13281C30.6838 5.27898 29.1982 8.49034 27.823 11.7749L24.521 11.0742L27.3582 23.3516L34.6928 13.2344L31.4562 12.5475C35.0973 8.74705 38.8496 5.13264 43.2755 2.13281H32.3927ZM53.9943 12.397C49.8393 12.6685 46.1149 14.5492 42.5066 16.8711L41.1427 13.3131L32.3859 22.3741L44.8649 23.0234L43.4157 19.2431C46.942 19.141 50.468 19.4429 53.9943 21.581V12.397ZM32.7722 26.4003C32.1947 26.4134 31.6555 26.6645 30.9196 27.4497L30.2018 28.2119L29.4566 27.4769C28.6487 26.6806 28.0111 26.4608 27.3648 26.4892C26.7186 26.5176 25.9588 26.8575 25.109 27.5453L24.4289 28.0955L23.7829 27.5077C22.8095 26.627 21.9799 26.366 21.1853 26.4071C20.6069 26.437 20.0067 26.6549 19.4079 27.036L23.8888 35.0956C25.5791 36.1294 29.033 36.5182 31.4083 35.3212L35.7389 27.2992C34.9175 26.9643 34.1792 26.6209 33.5411 26.4892C33.3101 26.4414 33.0958 26.4065 32.8882 26.4003C32.8495 26.3993 32.8109 26.3993 32.7722 26.4003ZM22.9318 36.9211C20.9592 38.3147 19.3753 40.7183 18.7618 44.2388C18.1674 47.6509 19.104 49.9553 20.7614 51.5258C22.419 53.0964 24.907 53.9033 27.4333 53.8705C29.9599 53.8377 32.4794 52.9616 34.1735 51.3618C35.8677 49.762 36.8259 47.4871 36.2825 44.2319C35.7206 40.8679 34.27 38.5282 32.4336 37.1123C29.3184 38.759 25.4233 38.409 22.9318 36.9208V36.9211Z" fill="#C6C6C6"/>
</svg>
