<svg width="57" height="56" viewBox="0 0 57 56" fill="none" xmlns="http://www.w3.org/2000/svg">
<path d="M15.7807 20.2757C18.3415 20.2757 20.7974 19.2585 22.6082 17.4477C24.4189 15.637 25.4362 13.1811 25.4362 10.6203C25.4362 8.0595 24.4189 5.6036 22.6082 3.79286C20.7974 1.98211 18.3415 0.964844 15.7807 0.964844C13.22 0.964844 10.7641 1.98211 8.95331 3.79286C7.14256 5.6036 6.1253 8.0595 6.1253 10.6203C6.1253 13.1811 7.14256 15.637 8.95331 17.4477C10.7641 19.2585 13.22 20.2757 15.7807 20.2757ZM32.8593 17.3019C34.8369 16.7113 36.8899 16.412 38.9538 16.4136C41.0177 16.412 43.0708 16.7113 45.0483 17.3019C45.9376 16.1608 46.4886 14.7929 46.6385 13.3541C46.7884 11.9152 46.5313 10.4631 45.8963 9.16328C45.2613 7.86341 44.2741 6.76798 43.0471 6.00173C41.82 5.23549 40.4024 4.82923 38.9557 4.82923C37.5091 4.82923 36.0915 5.23549 34.8644 6.00173C33.6373 6.76798 32.6501 7.86341 32.0152 9.16328C31.3802 10.4631 31.1231 11.9152 31.273 13.3541C31.4229 14.7929 31.9739 16.1608 32.8632 17.3019M22.5666 24.1379H6.1253C4.58883 24.1379 3.11529 24.7483 2.02884 25.8347C0.942392 26.9212 0.332031 28.3947 0.332031 29.9312V30.2208C0.332031 30.2208 0.332031 41.5177 15.7807 41.5177C16.5763 41.5177 17.332 41.4881 18.0478 41.4289C17.8237 40.1836 17.7112 38.9208 17.7118 37.6555C17.7118 32.5188 19.5348 27.807 22.5666 24.1379ZM38.9538 55.0353C42.7667 55.035 46.4737 53.7808 49.5035 51.4659C52.5334 49.1511 54.7179 45.9042 55.7205 42.2254C56.723 38.5467 56.488 34.6404 55.0517 31.1083C53.6153 27.5763 51.0573 24.6147 47.7718 22.6798C44.4863 20.7449 40.6557 19.9441 36.8702 20.4009C33.0848 20.8576 29.5546 22.5466 26.8236 25.2074C24.0927 27.8683 22.3125 31.3534 21.7575 35.1257C21.2025 38.898 21.9034 42.7481 23.7523 46.0828L21.6474 52.9922C21.5659 53.2658 21.5598 53.5562 21.6299 53.8329C21.6999 54.1096 21.8434 54.3623 22.0453 54.5641C22.2471 54.7659 22.4997 54.9094 22.7764 54.9795C23.0531 55.0495 23.3436 55.0434 23.6171 54.9619L30.5304 52.8609C33.1085 54.2881 36.0071 55.0363 38.9538 55.0353ZM29.2984 33.7934C29.2984 33.2812 29.5018 32.79 29.864 32.4279C30.2261 32.0657 30.7173 31.8623 31.2295 31.8623H46.6782C47.1903 31.8623 47.6815 32.0657 48.0436 32.4279C48.4058 32.79 48.6092 33.2812 48.6092 33.7934C48.6092 34.3055 48.4058 34.7967 48.0436 35.1588C47.6815 35.521 47.1903 35.7244 46.6782 35.7244H31.2295C30.7173 35.7244 30.2261 35.521 29.864 35.1588C29.5018 34.7967 29.2984 34.3055 29.2984 33.7934ZM31.2295 43.4488C30.7173 43.4488 30.2261 43.2453 29.864 42.8832C29.5018 42.521 29.2984 42.0299 29.2984 41.5177C29.2984 41.0056 29.5018 40.5144 29.864 40.1522C30.2261 39.7901 30.7173 39.5866 31.2295 39.5866H38.9538C39.466 39.5866 39.9571 39.7901 40.3193 40.1522C40.6814 40.5144 40.8849 41.0056 40.8849 41.5177C40.8849 42.0299 40.6814 42.521 40.3193 42.8832C39.9571 43.2453 39.466 43.4488 38.9538 43.4488H31.2295Z" fill="#C6C6C6"/>
</svg>
