<svg width="20" height="20" viewBox="0 0 20 20" fill="none" xmlns="http://www.w3.org/2000/svg">
<path d="M3.33335 5.00008C2.29169 6.39175 1.66669 8.12508 1.66669 10.0001C1.66669 14.6001 5.40002 18.3334 10 18.3334C14.6 18.3334 18.3334 14.6001 18.3334 10.0001C18.3334 5.40008 14.6 1.66675 10 1.66675C8.80835 1.66675 7.66669 1.91675 6.64169 2.37508" stroke="#007600" stroke-width="1.5" stroke-linecap="round" stroke-linejoin="round"/>
<g clip-path="url(#clip0_2590_7173)">
<path fill-rule="evenodd" clip-rule="evenodd" d="M14.8752 7.34263C15.0041 7.47156 15.0765 7.6464 15.0765 7.8287C15.0765 8.011 15.0041 8.18583 14.8752 8.31476L9.7222 13.4678C9.6541 13.5359 9.57325 13.5899 9.48427 13.6268C9.39529 13.6637 9.29991 13.6826 9.2036 13.6826C9.10728 13.6826 9.01191 13.6637 8.92292 13.6268C8.83394 13.5899 8.75309 13.5359 8.68499 13.4678L6.12474 10.908C6.05908 10.8446 6.0067 10.7687 5.97067 10.6848C5.93464 10.601 5.91568 10.5108 5.91488 10.4195C5.91409 10.3282 5.93148 10.2377 5.96605 10.1532C6.00062 10.0687 6.05167 9.99191 6.11622 9.92736C6.18077 9.86281 6.25753 9.81176 6.34202 9.77719C6.42651 9.74262 6.51704 9.72523 6.60833 9.72602C6.69962 9.72682 6.78983 9.74578 6.87371 9.78181C6.95758 9.81784 7.03345 9.87022 7.09687 9.93588L9.20337 12.0424L13.9027 7.34263C13.9665 7.27875 14.0423 7.22807 14.1258 7.19349C14.2092 7.15891 14.2986 7.14111 14.389 7.14111C14.4793 7.14111 14.5687 7.15891 14.6521 7.19349C14.7356 7.22807 14.8114 7.27875 14.8752 7.34263Z" fill="#007600"/>
</g>
<defs>
<clipPath id="clip0_2590_7173">
<rect width="11" height="11" fill="white" transform="translate(5 5)"/>
</clipPath>
</defs>
</svg>
