<svg width="1063" height="948" viewBox="0 0 1063 948" fill="none" xmlns="http://www.w3.org/2000/svg">
<g clip-path="url(#clip0_2525_3709)">
<g opacity="0.02">
<path d="M465.476 1035.6C445.079 1035.6 422.892 1034.38 398.729 1031.97C140.055 1006.04 154.187 894.543 169.178 776.509L169.625 772.879C176.225 720.817 183.72 661.827 161.869 610.291C134.387 545.733 78.4535 486.993 24.3471 430.192C-56.4581 345.324 -126.226 272.065 -73.8721 205.29C-12.9046 127.293 92.9589 92.3266 171.042 76.7272C261.953 58.5511 363.118 57.609 435.086 74.2613C507.725 91.1074 534.834 133.639 556.648 167.802C575.33 197.116 590.096 220.252 625.371 220.834C658.037 221.361 691.261 220.363 716.543 219.449C730.228 218.95 743.913 218.368 757.524 217.786C873.567 212.882 983.234 208.255 1046.59 250.703C1080.11 273.174 1097.86 306.838 1100.81 353.664C1106.1 438.144 1092.27 494.086 1055.98 534.982C1021.72 573.579 969.363 597.407 903.063 627.581C868.496 643.319 829.305 661.135 787.094 683.688C705.729 727.272 689.061 797.262 672.989 864.924C661.094 914.88 649.87 962.094 612.88 994.29C580.96 1022.08 533.342 1035.6 465.513 1035.6H465.476ZM316.879 63.7878C269.411 63.7878 219.07 68.5535 171.564 78.0572C93.7793 93.6011 -11.5995 128.402 -72.2687 205.983C-124.026 271.982 -54.5564 344.936 25.876 429.389C80.0569 486.272 136.102 545.123 163.659 609.876C185.622 661.689 178.127 720.844 171.49 773.018L171.042 776.647C163.472 836.413 156.313 892.853 183.049 938.349C213.141 989.552 281.753 1018.87 398.99 1030.61C502.84 1041 570.333 1029.17 611.425 993.431C648.08 961.512 659.267 914.52 671.088 864.73C687.234 796.791 703.977 726.497 785.938 682.608C828.224 660.026 867.452 642.183 902.019 626.445C1036.18 565.405 1110.05 531.796 1098.9 353.775C1095.96 307.337 1078.43 273.977 1045.28 251.783C982.488 209.723 873.232 214.351 757.561 219.227C743.951 219.809 730.265 220.391 716.58 220.89C691.261 221.804 657.999 222.801 625.26 222.275C588.828 221.665 573.092 197.006 554.895 168.439C533.268 134.497 506.345 92.2712 434.489 75.6189C400.444 67.75 359.799 63.8155 316.805 63.8155L316.879 63.7878Z" fill="url(#paint0_linear_2525_3709)"/>
</g>
<g opacity="0.05">
<path d="M464.99 1024.13C445.003 1024.13 423.301 1022.94 399.622 1020.58C146.244 995.259 159.631 885.925 173.838 770.163L174.21 767.115C180.512 716.106 187.635 658.28 166.38 607.797C139.681 544.818 85.4627 487.463 33.0343 432.02C-45.6455 348.787 -113.661 276.886 -62.0153 211.413C-2.27834 135.217 101.273 101.026 177.604 85.7595C266.463 67.9713 365.428 67.0292 435.905 83.2381C506.866 99.641 533.49 141.119 554.894 174.451C573.24 203.073 587.745 225.655 622.275 226.264C654.157 226.819 686.673 225.876 711.433 225.018C724.671 224.547 737.908 223.992 751.109 223.466C864.654 218.811 971.897 214.406 1033.95 255.967C1066.76 277.967 1084.17 310.911 1087.08 356.711C1092.34 439.308 1078.88 494.002 1043.45 534.067C1010.04 571.86 958.883 595.246 894.112 624.865C860.515 640.243 822.405 657.643 781.387 679.615C702.185 722.312 685.629 790.611 669.632 856.666C657.774 905.653 646.587 951.952 610.119 983.539C578.61 1010.86 531.737 1024.1 465.027 1024.1L464.99 1024.13ZM320.533 73.0971C273.996 73.0971 224.663 77.7797 178.126 87.0895C102.094 102.301 -0.973228 136.326 -60.4119 212.106C-111.461 276.803 -43.781 348.371 34.5632 431.245C87.0661 486.798 141.396 544.236 168.17 607.409C189.536 658.142 182.377 716.106 176.075 767.254L175.702 770.302C168.505 828.903 161.719 884.263 188.082 928.872C217.764 979.05 285.033 1007.76 399.884 1019.23C501.832 1029.39 568.169 1017.76 608.665 982.68C644.798 951.37 655.947 905.265 667.768 856.472C683.839 790.14 700.433 721.536 780.269 678.534C821.361 656.535 859.47 639.107 893.105 623.729C1024.1 563.825 1096.29 530.826 1085.22 356.795C1082.31 311.382 1065.12 278.742 1032.68 257.02C971.188 215.819 864.355 220.196 751.183 224.851C738.02 225.405 724.745 225.932 711.508 226.403C686.71 227.29 654.194 228.204 622.238 227.677C586.552 227.04 571.115 202.962 553.216 175.061C531.998 141.978 505.56 100.805 435.383 84.5681C402.121 76.9208 362.483 73.0971 320.533 73.0971Z" fill="url(#paint1_linear_2525_3709)"/>
</g>
<g opacity="0.07">
<path d="M464.465 1012.69C444.926 1012.69 423.671 1011.52 400.552 1009.25C152.431 984.537 165.109 877.336 178.571 763.874L178.869 761.408C184.835 711.424 191.622 654.789 170.964 605.387C145.048 544.015 92.5449 488.045 41.7573 433.933C-34.8716 352.251 -101.06 281.707 -50.1228 217.537C8.38361 143.142 109.586 109.727 184.164 94.7925C271.01 77.4199 367.775 76.4224 436.722 92.2157C506.005 108.203 532.145 148.628 553.139 181.101C571.187 209.031 585.431 231.058 619.215 231.695C650.351 232.25 682.121 231.391 706.322 230.559C719.112 230.116 731.902 229.617 744.655 229.091C855.664 224.658 960.521 220.474 1021.26 261.204C1053.37 282.76 1070.41 314.984 1073.36 359.732C1078.54 440.278 1065.49 493.642 1031.03 532.821C998.519 569.755 948.775 592.669 885.757 621.679C852.942 636.78 815.728 653.93 775.642 675.57C698.379 717.27 681.972 783.962 666.124 848.465C654.304 896.482 643.154 941.839 607.245 972.844C576.183 999.665 530.057 1012.69 464.465 1012.69ZM324.184 82.4072C278.617 82.4072 230.253 87.0067 184.649 96.1224C110.406 111.001 9.65144 144.25 -48.5194 218.23C-98.8596 281.652 -32.9699 351.835 43.2861 433.129C94.1483 487.325 146.726 543.377 172.754 604.971C193.524 654.623 186.737 711.424 180.733 761.519L180.435 763.985C173.648 821.45 167.197 875.729 193.188 919.396C222.422 968.549 288.387 996.645 400.813 1007.87C500.822 1017.79 565.966 1006.37 605.828 971.93C641.402 941.23 652.514 896.039 664.297 848.216C680.22 783.463 696.701 716.494 774.561 674.462C814.684 652.794 851.936 635.643 884.787 620.515C1012.24 561.831 1082.42 529.496 1071.49 359.815C1068.58 315.455 1051.73 283.536 1020 262.229C959.85 221.887 855.366 226.043 744.73 230.449C731.977 230.947 719.187 231.474 706.397 231.917C682.159 232.748 650.351 233.607 619.14 233.053C584.238 232.388 569.024 208.892 551.423 181.656C530.579 149.432 504.663 109.311 436.163 93.4902C403.722 86.0646 365.053 82.3518 324.147 82.3518L324.184 82.4072Z" fill="url(#paint2_linear_2525_3709)"/>
</g>
<g opacity="0.1">
<path d="M463.984 1001.22C444.855 1001.22 424.085 1000.08 401.488 997.864C158.625 973.731 170.594 868.719 183.273 757.529L183.496 755.645C189.164 706.713 195.578 651.243 175.554 602.921C150.421 543.128 99.6707 488.572 50.5983 435.817C-23.9051 355.77 -88.2286 286.612 -38.2241 223.66C19.3129 151.177 118.166 118.538 190.917 103.908C275.712 86.8681 370.202 85.8429 437.584 101.193C505.189 116.765 530.806 156.109 551.427 187.751C569.139 214.988 583.16 236.489 616.161 237.126C646.514 237.708 677.576 236.877 701.254 236.101C713.597 235.685 725.977 235.214 738.282 234.743C846.793 230.559 949.263 226.597 1008.66 266.468C1040.1 287.554 1056.77 319.057 1059.71 362.78C1064.86 441.386 1052.18 493.504 1018.62 531.796C986.963 567.926 938.487 590.369 877.109 618.825C845.19 633.621 809.019 650.384 770.052 671.525C694.915 712.31 678.62 777.34 662.846 840.208C651.063 887.256 639.914 931.698 604.564 962.094C573.912 988.443 528.531 1001.22 464.059 1001.22H463.984ZM-37.441 223.993L-36.6579 224.353C-86.0286 286.556 -22.0406 355.382 52.0526 435.041C101.2 487.879 152.024 542.518 177.269 602.533C197.442 651.104 190.991 706.713 185.323 755.783L185.1 757.667C178.686 813.969 172.608 867.168 198.226 909.948C227.013 958.076 291.672 985.59 401.712 996.506C499.819 1006.18 563.77 994.955 603.072 961.207C638.087 931.089 649.199 886.84 660.945 839.987C676.755 776.841 693.125 711.534 768.896 670.416C807.901 649.248 844.108 632.485 876.065 617.661C1000.24 560.14 1068.63 528.443 1057.81 362.863C1054.9 319.528 1038.42 288.33 1007.4 267.493C948.555 228.01 846.458 231.945 738.357 236.101C726.051 236.572 713.709 237.043 701.329 237.459C677.613 238.234 646.514 239.066 616.123 238.484C581.967 237.819 567.051 214.877 549.749 188.305C529.315 156.913 503.884 117.845 437.062 102.467C370.016 87.1729 275.898 88.2257 191.439 105.183C118.986 119.729 20.6553 152.202 -36.5834 224.297L-37.3664 223.937L-37.441 223.993Z" fill="url(#paint3_linear_2525_3709)"/>
</g>
<g opacity="0.12">
<path d="M463.498 989.774C444.816 989.774 424.493 988.693 402.418 986.532C164.813 963.008 176.074 860.13 187.969 751.212L188.118 749.937C193.749 699.537 199.566 647.419 180.101 600.51C155.863 542.103 106.679 488.821 59.173 437.313C-13.1303 358.984 -75.5148 291.377 -26.3679 229.784C30.013 159.102 126.48 127.238 197.478 112.969C280.222 96.3163 372.512 95.2634 438.365 110.198C504.329 125.326 529.425 163.646 549.635 194.429C567.049 220.973 580.772 241.919 613.064 242.584C642.634 243.166 672.987 242.418 696.144 241.698C708.076 241.31 719.971 240.867 731.829 240.423C888.592 234.605 1036.63 229.063 1045.95 365.883C1051.02 442.522 1038.76 493.393 1006.09 530.826C975.289 566.125 928.081 588.125 868.307 615.999C837.283 630.462 802.156 646.837 764.308 667.507C691.259 707.351 675.075 770.718 659.414 832.007C647.668 878.084 636.556 921.613 601.728 951.399C571.524 977.25 526.852 989.801 463.498 989.801V989.774ZM-25.5476 230.116L-24.7645 230.476C-73.3148 291.322 -11.2286 358.596 60.6646 436.509C108.283 488.129 157.504 541.493 181.854 600.095C201.431 647.253 195.613 699.509 189.946 750.048L189.796 751.323C183.756 806.488 178.088 858.606 203.295 900.5C231.672 947.603 294.989 974.507 402.642 985.174C498.81 994.595 561.642 983.595 600.311 950.512C634.803 921.003 645.878 877.669 657.587 831.757C673.286 770.219 689.544 706.575 763.189 666.399C801.075 645.729 836.276 629.326 867.3 614.835C988.191 558.45 1054.79 527.418 1044.05 365.938C1034.8 230.532 887.66 235.99 731.867 241.809C720.009 242.252 708.076 242.695 696.181 243.083C673.024 243.804 642.634 244.552 612.989 243.97C579.578 243.277 564.924 220.917 547.957 195.038C527.933 164.505 503.024 126.49 437.843 111.528C372.326 96.6765 280.409 97.7294 198 114.326C127.337 128.54 31.3181 160.238 -24.7645 230.504L-25.5476 230.144V230.116Z" fill="url(#paint4_linear_2525_3709)"/>
</g>
<g opacity="0.15">
<path d="M462.976 978.33C444.705 978.33 424.867 977.277 403.314 975.171C170.966 952.257 181.482 851.513 192.631 744.866L192.706 744.201C198.001 694.854 203.482 643.845 184.614 598.072C161.159 541.216 113.69 489.32 67.8248 439.114C-2.27848 362.419 -62.8358 296.198 -14.472 235.879C40.753 166.998 134.908 135.883 204.153 121.918C284.959 105.626 375.049 104.545 439.223 119.147C503.584 133.777 528.195 171.071 547.958 201.023C564.999 226.874 578.498 247.294 609.97 247.987C638.794 248.597 668.401 247.904 690.999 247.239C702.484 246.879 713.931 246.463 725.342 246.075C878.339 240.589 1022.91 235.408 1032.19 368.931C1037.23 443.63 1025.33 493.254 993.562 529.8C963.619 564.269 917.679 585.853 859.508 613.145C829.415 627.276 795.296 643.291 758.566 663.434C687.605 702.363 671.534 764.068 656.022 823.75C644.276 868.858 633.201 911.472 598.932 940.648C569.138 966 525.249 978.302 462.976 978.302V978.33ZM-13.6889 236.239L-12.9059 236.599C-60.6731 296.171 -0.41404 362.059 69.3164 438.338C115.294 488.627 162.8 540.606 186.367 597.656C205.347 643.678 199.865 694.827 194.533 744.312L194.458 744.977C188.828 799.007 183.495 850.044 208.33 891.024C236.259 937.101 298.271 963.423 403.538 973.786C497.804 982.985 559.443 972.151 597.515 939.733C631.448 910.834 642.486 868.387 654.194 823.473C669.781 763.541 685.927 701.559 757.448 662.298C794.215 642.127 828.371 626.084 858.501 611.953C976.11 556.732 1040.88 526.309 1030.29 368.958C1021.08 236.821 877.481 241.975 725.379 247.433C713.969 247.849 702.484 248.264 690.999 248.597C668.364 249.262 638.719 249.954 609.82 249.345C577.193 248.624 562.836 226.846 546.168 201.605C526.554 171.875 502.13 134.885 438.552 120.449C374.676 105.931 284.996 107.011 204.526 123.248C135.616 137.157 41.9463 168.079 -12.9804 236.572L-13.7635 236.211L-13.6889 236.239Z" fill="url(#paint5_linear_2525_3709)"/>
</g>
<g opacity="0.17">
<path d="M462.49 966.859C444.629 966.859 425.238 965.834 404.245 963.783C177.155 941.451 186.962 842.868 197.328 738.494C202.325 690.088 207.433 640.215 189.162 595.606C166.49 540.329 120.736 489.791 76.5116 440.915C8.53371 365.855 -50.1592 301.019 -2.57841 242.002C51.4906 174.922 143.296 144.61 210.752 130.978C289.544 115.046 377.397 113.966 440.042 128.124C502.725 142.311 526.851 178.552 546.204 207.673C562.275 231.834 576.147 252.697 606.91 253.418C634.952 254.027 663.851 253.418 685.926 252.781C696.963 252.448 707.964 252.088 718.927 251.7C868.232 246.574 1009.22 241.725 1018.51 371.951C1023.5 444.711 1011.98 493.088 981.143 528.748C952.057 562.412 907.385 583.525 850.855 610.263C821.658 624.061 788.582 639.716 752.971 659.361C684.099 697.348 668.176 757.418 652.776 815.493C641.067 859.631 630.03 901.331 596.283 929.897C566.937 954.779 523.756 966.831 462.565 966.831L462.49 966.859ZM-1.79535 242.363L-1.01227 242.723C-47.9964 300.992 10.3982 365.495 78.0031 440.167C122.34 489.126 168.168 539.72 190.914 595.218C209.298 640.076 204.152 690.089 199.155 738.466C193.897 791.498 188.901 841.455 213.362 881.547C240.844 926.628 301.588 952.312 404.431 962.426C496.796 971.375 557.279 960.763 594.754 929.01C628.165 900.693 639.165 859.188 650.837 815.243C666.312 756.919 682.309 696.6 751.741 658.28C787.389 638.608 820.539 622.953 849.736 609.127C964.064 555.07 1027.05 525.284 1016.57 372.034C1007.39 243.194 867.299 247.987 718.927 253.085C707.964 253.473 696.926 253.833 685.888 254.166C663.813 254.776 634.84 255.413 606.761 254.803C574.916 254.055 560.784 232.831 544.451 208.282C525.247 179.411 501.345 143.447 439.408 129.454C377.098 115.351 289.618 116.46 211.162 132.308C144.005 145.885 52.6839 176.058 -1.04956 242.723L-1.83264 242.363H-1.79535Z" fill="url(#paint6_linear_2525_3709)"/>
</g>
<g opacity="0.2">
<path d="M462.009 955.416C444.595 955.416 425.652 954.418 405.18 952.451C183.348 930.729 192.372 834.556 201.955 732.731L202.03 732.01C206.654 685.129 211.427 636.641 193.714 593.195C171.826 539.47 127.787 490.317 85.1661 442.771C19.3138 369.319 -37.5147 305.896 9.28301 248.153C62.1961 182.902 151.615 153.338 217.356 140.039C294.134 124.495 379.787 123.386 440.866 137.129C501.908 150.872 525.512 186.061 544.455 214.35C560.228 237.846 573.839 258.128 603.819 258.876C631.115 259.514 659.305 258.932 680.783 258.378C691.374 258.073 701.926 257.74 712.479 257.38C858.055 252.614 995.54 248.098 1004.75 375.026C1009.67 445.847 998.523 492.95 968.617 527.75C940.389 560.584 896.985 581.253 842.058 607.437C813.756 620.903 781.725 636.198 747.195 655.343C680.411 692.416 664.6 750.824 649.349 807.292C637.677 850.46 626.64 891.245 593.415 919.23C564.479 943.613 522.044 955.444 461.972 955.444L462.009 955.416ZM10.0661 248.486L10.8491 248.846C-35.3519 305.841 21.2155 368.931 86.695 441.995C129.391 489.625 173.504 538.861 195.467 592.78C213.254 636.475 208.481 685.074 203.857 732.093L203.782 732.814C194.274 833.974 185.287 929.509 405.367 951.066C495.83 959.794 555.119 949.376 591.998 918.288C624.887 890.58 635.85 849.989 647.484 806.987C662.847 750.269 678.695 691.613 746.039 654.207C780.606 635.034 812.675 619.739 840.977 606.246C952.024 553.324 1013.21 524.176 1002.81 375.054C993.676 249.511 857.086 253.972 712.479 258.71C701.964 259.043 691.374 259.403 680.783 259.708C659.268 260.262 631.04 260.844 603.67 260.206C572.571 259.43 558.736 238.788 542.702 214.904C523.909 186.864 500.491 151.953 440.232 138.404C379.451 124.716 294.208 125.852 217.766 141.313C152.398 154.557 63.3894 183.955 10.8119 248.818L10.0288 248.458L10.0661 248.486Z" fill="url(#paint7_linear_2525_3709)"/>
</g>
<g opacity="0.22">
<path d="M461.483 943.973C444.479 943.973 426.021 943.003 406.034 941.091C189.422 919.95 197.737 826.216 206.5 726.995L206.612 725.638C210.863 680.114 215.263 633.011 198.185 590.757C177.117 538.584 134.756 490.816 93.7757 444.628C30.0861 372.782 -24.9525 310.745 21.0994 254.277C72.8566 190.827 159.926 162.066 223.877 149.071C298.641 133.915 382.057 132.779 441.608 146.107C500.972 159.406 524.091 193.542 542.661 221C558.098 243.831 571.448 263.559 600.682 264.307C627.008 264.944 653.334 264.473 675.633 263.919C685.776 263.642 695.881 263.337 705.987 263.033C847.834 258.627 981.813 254.443 990.986 378.074C995.871 446.955 985.095 492.811 956.084 526.753C928.714 558.783 886.577 579.009 833.254 604.611C805.884 617.772 774.822 632.651 741.448 651.298C676.752 687.457 661.091 744.174 645.951 799.035C634.28 841.233 623.28 881.104 590.614 908.479C562.088 932.391 520.399 943.973 461.445 943.973H461.483ZM21.9571 254.609L22.7402 254.97C-22.6778 310.69 32.0251 372.394 95.3791 443.824C136.434 490.096 178.869 537.974 200.012 590.314C217.202 632.817 212.765 680.031 208.514 725.693L208.402 727.051C199.676 825.606 191.436 918.704 406.295 939.678C494.819 948.157 552.99 937.933 589.272 907.51C621.602 880.412 632.565 840.707 644.161 798.702C659.375 743.592 675.111 686.598 740.367 650.134C773.778 631.46 804.877 616.553 832.247 603.392C940.05 551.634 999.414 523.123 989.122 378.102C980.023 255.829 846.939 259.985 706.024 264.363C695.919 264.667 685.813 265 675.671 265.249C653.334 265.803 626.971 266.274 600.608 265.637C570.292 264.834 556.719 244.773 540.983 221.554C522.562 194.346 499.667 160.487 441.085 147.381C381.833 134.109 298.828 135.245 224.362 150.374C160.747 163.285 74.0871 191.907 22.7029 254.942L21.9198 254.582L21.9571 254.609Z" fill="url(#paint8_linear_2525_3709)"/>
</g>
<g opacity="0.24">
<path d="M461 932.502C444.406 932.502 426.433 931.56 406.968 929.731C311.024 920.421 253.897 896.482 227.161 854.394C202.997 816.38 207.137 768.03 211.126 721.232L211.425 717.685C215.154 674.018 219.032 628.883 202.736 588.263C182.451 537.67 141.769 491.259 102.466 446.401C40.9021 376.162 -12.272 315.511 32.9969 260.345C83.5608 198.723 168.319 170.711 230.479 158.076C303.23 143.281 384.446 142.117 442.43 155.056C500.154 167.913 522.751 201.023 540.91 227.622C556.05 249.788 569.101 268.934 597.59 269.71C623.133 270.347 648.788 269.932 670.49 269.461C680.185 269.211 689.843 268.934 699.501 268.657C837.619 264.612 968.056 260.76 977.229 381.094C982.077 448.036 971.673 492.617 943.557 525.7C917.007 556.899 876.176 576.682 824.456 601.729C797.981 614.558 767.963 629.077 735.708 647.225C673.1 682.441 657.588 737.524 642.56 790.778C630.926 832.007 619.963 870.963 587.82 897.729C559.741 921.142 518.761 932.502 460.888 932.502H461ZM33.8545 260.733L34.6376 261.093C-10.0346 315.511 42.8412 375.83 104.07 445.681C143.484 490.622 184.204 537.088 204.564 587.903C220.933 628.772 217.055 674.046 213.326 717.824L213.028 721.37C204.825 817.322 197.069 907.981 407.229 928.401C493.889 936.63 550.867 926.628 586.552 896.87C618.36 870.354 629.285 831.591 640.882 790.528C655.984 737.025 671.571 681.693 734.739 646.172C767.031 627.996 797.086 613.45 823.561 600.621C928.082 550.027 985.656 522.126 975.476 381.233C966.415 262.257 836.836 266.053 699.65 270.098C689.992 270.375 680.334 270.68 670.639 270.901C648.862 271.4 623.17 271.816 597.59 271.151C568.02 270.32 554.707 250.841 539.307 228.287C520.364 200.552 498.923 169.132 441.945 156.442C384.259 143.585 303.417 144.749 231.001 159.489C169.139 172.069 84.8659 199.915 34.6003 261.148L33.8172 260.788L33.8545 260.733Z" fill="url(#paint9_linear_2525_3709)"/>
</g>
<g opacity="0.27">
<path d="M459.546 921.004C443.885 921.004 426.732 920.145 407.901 918.371C314.529 909.339 258.745 886.092 232.382 845.168C208.405 808.012 212.171 760.993 215.788 715.497L216.124 711.174C219.517 668.921 223.022 625.254 207.361 585.826C187.859 536.783 148.892 491.786 111.192 448.285C51.7536 379.654 0.406689 320.388 44.9298 266.496C130.657 162.704 334.926 140.039 443.325 164.034C499.371 176.447 521.483 208.505 539.233 234.245C554.074 255.746 566.864 274.31 594.57 275.113C619.367 275.778 644.313 275.418 665.456 274.975C674.704 274.753 683.914 274.504 693.125 274.254C827.514 270.542 954.446 267.051 963.582 384.115C968.355 449.117 958.361 492.451 931.14 524.675C905.448 555.07 865.885 574.382 815.768 598.876C790.225 611.372 761.252 625.503 730.115 643.153C669.595 677.427 654.195 730.847 639.316 782.494C618.845 853.508 599.417 920.948 459.509 920.976L459.546 921.004ZM353.012 156.664C245.358 156.664 111.603 188.417 46.4959 267.217C2.60674 320.36 53.6181 379.294 112.721 447.537C150.495 491.149 189.537 536.229 209.113 585.438C224.887 625.087 221.344 668.893 217.951 711.258L217.615 715.58C213.998 760.882 210.269 807.708 234.022 844.559C260.087 885.012 315.424 908.009 408.087 916.986C492.845 924.994 548.667 915.157 583.756 886.065C615.041 860.158 625.93 822.282 637.489 782.217C652.442 730.32 667.917 676.651 728.959 642.044C760.133 624.367 789.144 610.208 814.724 597.712C915.964 548.254 971.748 521.018 961.68 384.198C952.656 268.491 826.619 271.955 693.125 275.64C683.914 275.889 674.704 276.139 665.456 276.36C644.276 276.804 619.292 277.164 594.458 276.499C565.633 275.64 552.62 256.743 537.517 234.854C519.022 208.006 498.028 177.583 442.729 165.336C417.223 159.684 386.311 156.636 352.974 156.636L353.012 156.664Z" fill="url(#paint10_linear_2525_3709)"/>
</g>
<g opacity="0.29">
<path d="M459.1 909.532C443.849 909.532 427.144 908.729 408.797 907.011C317.961 898.255 263.557 875.674 237.566 835.941C213.776 799.617 217.281 751.904 220.413 709.789L220.786 704.663C223.807 663.822 226.939 621.596 211.911 583.387C193.192 535.924 155.941 492.312 119.882 450.142C62.5689 383.117 13.0864 325.236 56.8637 272.619C140.54 171.986 338.992 149.875 444.222 173.039C498.627 185.008 520.217 216.013 537.556 240.922C552.062 261.758 564.591 279.74 591.551 280.599C611.016 281.153 632.904 281.153 660.424 280.599C669.597 280.405 678.732 280.184 687.868 279.962C817.97 276.776 940.874 273.783 949.935 387.218C954.671 450.28 945.05 492.368 918.724 523.705C893.89 553.269 855.594 572.166 807.118 596.077C782.47 608.241 754.541 622.011 724.523 639.135C666.091 672.495 650.84 724.252 636.111 774.292C615.677 843.644 596.249 909.56 459.175 909.56L459.1 909.532ZM356.966 166.001C252.333 166.001 122.008 196.867 58.3926 273.34C15.2492 325.208 64.4334 382.757 121.411 449.394C157.544 491.647 194.908 535.342 213.664 582.999C228.803 621.43 225.671 663.767 222.613 704.718L222.24 709.844C219.145 751.794 215.678 799.34 239.207 835.332C264.936 874.621 318.894 896.953 409.021 905.626C491.877 913.384 546.506 903.769 581.035 875.341C611.761 850.017 622.65 813.083 634.172 773.96C648.976 723.67 664.302 671.663 723.293 637.999C753.348 620.848 781.314 607.049 806 594.886C903.995 546.564 957.952 519.965 947.996 387.273C939.01 275.169 817 278.161 687.831 281.32C678.695 281.541 669.559 281.763 660.386 281.957C632.83 282.511 610.941 282.511 591.402 281.957C563.36 281.098 550.607 262.756 535.804 241.532C517.719 215.57 497.21 186.144 443.588 174.341C418.94 168.91 389.146 165.973 356.928 165.973L356.966 166.001Z" fill="url(#paint11_linear_2525_3709)"/>
</g>
<g opacity="0.32">
<path d="M458.651 898.089C443.809 898.089 427.551 897.314 409.727 895.651C321.464 887.2 268.402 865.284 242.747 826.715C219.143 791.249 222.275 744.922 224.998 704.053L225.408 698.152C228.093 658.724 230.852 617.938 216.421 580.977C198.522 535.093 162.911 492.867 128.494 452.053C73.3432 386.636 25.6878 330.113 68.682 278.77C150.308 181.323 342.98 159.739 444.965 182.043C497.692 193.57 518.76 223.549 535.727 247.627C549.934 267.798 562.202 285.226 588.416 286.058C612.207 286.806 636.631 286.501 655.238 286.168C664.001 286.002 672.727 285.808 681.452 285.614C807.937 282.788 927.411 280.128 936.174 390.266C941.021 451.333 931.848 492.146 906.454 522.652C882.477 551.413 845.412 569.838 798.503 593.168C774.712 604.999 747.715 618.437 718.779 635.089C662.435 667.507 647.333 717.602 632.753 766.035C612.319 833.752 592.928 898.117 458.688 898.117L458.651 898.089ZM69.4651 279.103L70.2482 279.463C27.8506 330.085 75.2076 386.248 130.06 451.278C164.552 492.174 200.238 534.483 218.211 580.561C232.716 617.772 229.957 658.669 227.235 698.207L226.825 704.109C224.103 744.811 221.008 790.944 244.388 826.105C269.744 864.231 322.359 885.898 409.914 894.293C490.868 901.83 544.378 892.382 578.274 864.619C608.478 839.904 619.329 803.856 630.851 765.73C645.543 717.048 660.682 666.731 717.548 633.981C746.559 617.301 773.556 603.863 797.384 592.004C892.21 544.846 944.452 518.856 934.235 390.349C925.583 281.541 807.004 284.201 681.452 287C672.727 287.194 664.001 287.388 655.238 287.554C636.594 287.886 612.132 288.191 588.267 287.443C560.972 286.584 548.48 268.824 534.012 248.265C516.374 223.161 496.35 194.734 444.369 183.373C342.943 161.18 151.352 182.653 70.2109 279.519L69.4278 279.158L69.4651 279.103Z" fill="url(#paint12_linear_2525_3709)"/>
</g>
<g opacity="0.34">
<path d="M458.725 886.701C444.108 886.701 428.148 885.926 410.622 884.291C219.479 866.364 224.625 780.942 229.621 698.318L230.032 691.64C232.381 653.626 234.805 614.309 220.97 578.538C203.855 534.234 169.922 493.393 137.145 453.938C84.1197 390.099 38.3288 334.961 80.5772 284.894C160.152 190.633 347.007 169.547 445.786 191.021C496.834 202.131 517.418 231.03 533.974 254.277C547.846 273.783 559.853 290.657 585.321 291.488C608.328 292.236 632.044 292.015 650.129 291.738C658.445 291.599 666.798 291.433 675.076 291.267C797.794 288.828 913.725 286.529 922.414 393.341C927.224 452.469 918.461 492.035 893.925 521.655C870.806 549.584 835.008 567.566 789.702 590.342C766.807 601.84 740.854 614.891 713.036 631.044C658.78 662.548 643.828 711.008 629.359 757.917C608.962 823.972 589.609 886.757 458.688 886.757L458.725 886.701ZM364.869 184.676C266.314 184.676 142.813 213.741 82.1806 285.614C40.5288 334.961 86.0587 389.739 138.748 453.189C171.6 492.756 205.607 533.652 222.797 578.15C236.706 614.142 234.282 653.57 231.933 691.696L231.523 698.373C226.564 780.388 221.492 865.173 410.92 882.933C489.973 890.331 542.29 881.16 575.626 854.09C605.308 829.984 616.159 794.823 627.644 757.584C642.187 710.454 657.214 661.744 711.992 629.936C739.884 613.755 765.837 600.704 788.77 589.178C880.352 543.156 930.766 517.803 920.661 393.397C912.085 287.914 797.011 290.214 675.225 292.624C666.947 292.791 658.594 292.957 650.279 293.095C632.156 293.372 608.44 293.622 585.358 292.846C558.846 291.959 546.615 274.808 532.445 254.914C515.218 230.698 495.678 203.267 445.375 192.351C422.517 187.391 394.886 184.703 364.943 184.703L364.869 184.676Z" fill="url(#paint13_linear_2525_3709)"/>
</g>
<g opacity="0.37">
<path d="M458.315 875.258C444.108 875.258 428.596 874.51 411.555 872.931C328.4 865.2 278.06 844.669 253.114 808.372C231.598 777.063 231.785 739.048 234.246 692.582L234.656 685.101C236.669 648.5 238.758 610.624 225.557 576.1C209.225 533.375 176.97 493.947 145.833 455.822C94.9339 393.563 50.9702 339.81 92.5102 291.017C169.997 199.915 351.109 179.384 446.681 199.998C496.089 210.665 516.151 238.539 532.297 260.927C545.87 279.768 557.616 296.06 582.301 296.919C604.6 297.695 627.57 297.528 645.059 297.279C652.964 297.168 660.869 297.03 668.737 296.891C787.726 294.813 900.115 292.874 908.729 396.361C913.502 453.55 905.112 491.869 881.508 520.629C859.247 547.755 824.717 565.294 781.014 587.488C759.014 598.654 734.105 611.316 707.406 626.971C655.239 657.532 640.435 704.358 626.153 749.632C605.793 814.052 586.44 875.286 458.353 875.286L458.315 875.258ZM368.784 194.013C273.25 194.013 153.217 222.164 94.039 291.738C53.133 339.81 96.7984 393.23 147.4 455.101C178.648 493.31 210.94 532.793 227.347 575.712C240.622 610.457 238.534 648.444 236.52 685.157L236.11 692.638C231.896 772.186 227.534 854.422 411.816 871.573C488.967 878.749 540.127 869.772 572.904 843.339C602.064 819.815 612.878 785.569 624.326 749.3C638.72 703.776 653.598 656.729 706.25 625.863C733.023 610.18 757.97 597.518 779.97 586.324C868.271 541.438 916.933 516.723 906.902 396.417C898.363 294.231 786.869 296.171 668.812 298.221C660.944 298.36 653.038 298.498 645.133 298.609C627.607 298.858 604.6 299.025 582.227 298.249C556.46 297.362 544.49 280.765 530.656 261.536C513.839 238.207 494.821 211.774 446.159 201.273C424.159 196.535 397.609 193.985 368.859 193.985L368.784 194.013Z" fill="url(#paint14_linear_2525_3709)"/>
</g>
<g opacity="0.39">
<path d="M457.904 863.815C444.107 863.815 429.005 863.095 412.486 861.571C331.867 854.145 282.907 834.307 258.296 799.146C237.004 768.668 236.892 730.265 238.869 686.847L239.242 678.563C240.92 643.346 242.672 606.966 230.068 573.634C214.519 532.489 183.979 494.474 154.409 457.706C105.635 397.027 63.5358 344.632 104.33 297.113C147.884 246.381 218.509 223.023 270.117 212.356C330.749 199.832 398.689 198.53 447.426 208.948C495.156 219.172 514.733 245.993 530.469 267.549C543.744 285.725 555.191 301.436 579.131 302.322C600.684 303.126 622.908 302.987 639.875 302.821C647.37 302.738 654.828 302.627 662.285 302.516C777.508 300.826 886.355 299.219 894.932 399.409C899.667 454.658 891.65 491.731 868.941 519.605C847.537 545.899 814.275 562.995 772.176 584.662C751.108 595.496 727.206 607.77 701.625 622.926C651.546 652.545 636.929 697.709 622.759 741.376C602.399 804.161 583.084 863.843 457.83 863.843L457.904 863.815ZM372.736 203.323C280.222 203.323 163.619 230.587 105.933 297.861C65.7731 344.687 107.611 396.749 156.05 457.013C185.657 493.864 216.272 531.962 231.896 573.274C244.574 606.8 242.821 643.319 241.143 678.618L240.77 686.903C237.265 763.985 233.648 843.7 412.747 860.213C487.997 867.168 538.038 858.385 570.182 832.617C598.82 809.675 609.596 776.343 621.044 741.043C635.251 697.154 649.98 651.742 700.544 621.818C726.161 606.662 750.101 594.36 771.207 583.498C856.263 539.748 903.135 515.67 893.179 399.465C884.714 300.577 776.725 302.184 662.397 303.874C654.94 303.985 647.444 304.095 639.987 304.179C622.983 304.373 600.721 304.483 579.131 303.68C554.147 302.765 542.439 286.751 528.903 268.186C512.533 245.743 493.963 220.308 446.979 210.25C425.873 205.734 400.405 203.295 372.774 203.295L372.736 203.323Z" fill="url(#paint15_linear_2525_3709)"/>
</g>
<g opacity="0.41">
<path d="M457.456 852.372C444.032 852.372 429.415 851.679 413.381 850.21C335.335 843.062 287.717 823.916 263.479 789.919C242.336 760.244 241.889 723.088 243.455 681.111C243.567 678.091 243.679 675.071 243.828 672.023C245.207 638.22 246.587 603.281 234.617 571.196C219.851 531.657 190.952 495.055 163.023 459.645C116.411 400.545 76.1391 349.508 116.188 303.236C158.548 254.305 226.861 231.723 276.679 221.388C335.298 209.224 401.038 207.922 448.209 217.925C494.298 227.705 513.353 253.501 528.678 274.199C541.618 291.71 552.842 306.838 576.035 307.752C596.694 308.556 617.314 308.5 634.766 308.362C641.813 308.307 648.861 308.223 655.909 308.14C767.403 306.81 872.669 305.563 881.246 402.457C885.944 455.766 878.337 491.592 856.523 518.607C835.94 544.098 803.983 560.75 763.45 581.835C743.277 592.336 720.419 604.223 695.957 618.853C647.966 647.53 633.498 691.031 619.514 733.091C599.192 794.269 579.839 852.372 457.419 852.372H457.456ZM117.008 303.596L117.791 303.984C78.3392 349.535 118.35 400.24 164.663 458.952C192.667 494.418 221.604 531.103 236.445 570.835C248.489 603.115 247.072 638.165 245.73 672.079C245.618 675.127 245.468 678.147 245.357 681.167C243.79 722.95 244.238 759.912 265.157 789.309C289.059 822.863 336.267 841.787 413.642 848.88C487.027 855.586 535.875 847.024 567.459 821.921C595.575 799.589 606.351 767.143 617.762 732.814C631.82 690.532 646.363 646.809 694.838 617.827C719.337 603.17 742.233 591.256 762.406 580.755C844.218 538.141 889.3 514.672 879.419 402.595C870.992 307.032 766.582 308.251 655.983 309.581C648.935 309.664 641.888 309.747 634.84 309.803C617.389 309.941 596.731 309.997 575.998 309.193C551.76 308.251 540.35 292.818 527.112 274.947C511.153 253.39 493.067 228.952 447.761 219.338C359.163 200.524 190.691 219.864 117.791 304.067L117.008 303.679V303.596Z" fill="url(#paint16_linear_2525_3709)"/>
</g>
<g opacity="0.44">
<path d="M457.047 840.929C444.033 840.929 429.826 840.264 414.314 838.851C338.803 832.007 292.528 813.526 268.7 780.693C247.706 751.794 246.961 715.885 248.117 675.349C248.228 672.051 248.303 668.754 248.415 665.429C249.459 633.039 250.578 599.568 239.204 568.73C225.221 530.771 198 495.582 171.711 461.557C127.226 404.036 88.8179 354.357 128.158 309.332C169.325 262.201 235.289 240.396 283.355 230.393C339.959 218.617 403.5 217.26 449.142 226.874C493.553 236.212 511.377 259.929 527.076 280.821C539.717 297.667 550.642 312.214 573.09 313.128C593.04 313.931 612.915 313.959 629.769 313.876C636.407 313.848 643.044 313.793 649.645 313.71C757.372 312.74 859.134 311.853 867.636 405.449C872.297 456.819 865.063 491.398 844.144 517.554C824.418 542.242 793.692 558.45 754.799 578.982C735.558 589.15 713.744 600.649 690.401 614.752C644.499 642.487 630.217 684.326 616.383 724.779C596.06 784.322 576.745 840.873 457.121 840.873L457.047 840.929ZM128.866 309.72L129.649 310.108C90.906 354.412 129.09 403.759 173.277 460.892C199.641 495 226.936 530.272 240.957 568.37C252.405 599.402 251.286 633.011 250.242 665.485C250.13 668.81 250.018 672.107 249.944 675.404C247.483 761.353 257.849 823.279 414.537 837.493C429.863 838.878 443.921 839.543 456.786 839.543C575.253 839.543 594.382 783.491 614.518 724.502C628.39 683.827 642.746 641.767 689.134 613.727C712.514 599.596 734.365 588.07 753.644 577.901C832.212 536.423 875.504 513.592 865.697 405.588C857.307 313.322 756.403 314.208 649.57 315.151C642.97 315.206 636.332 315.261 629.695 315.317C612.803 315.4 592.891 315.4 572.904 314.569C549.449 313.599 538.3 298.748 525.36 281.541C509.848 260.871 492.248 237.431 448.545 228.232C363.153 210.25 200.424 229.063 129.612 310.108L128.829 309.72H128.866Z" fill="url(#paint17_linear_2525_3709)"/>
</g>
<g opacity="0.46">
<path d="M456.6 829.486C443.996 829.486 430.237 828.848 415.209 827.491C343.279 821.035 297.041 802.72 273.847 771.466C253.04 743.398 251.958 707.268 252.667 669.613C252.741 666.039 252.816 662.465 252.928 658.863C253.673 627.886 254.457 595.884 243.717 566.264C230.517 529.912 204.974 496.164 180.251 463.497C137.891 407.528 101.348 359.206 139.979 315.428C179.99 270.126 243.568 249.096 289.881 239.426C345.33 227.844 405.141 226.514 449.888 235.852C492.659 244.774 509.961 267.466 525.249 287.499C537.592 303.68 548.257 317.644 569.921 318.586C586.813 319.307 605.197 319.612 624.587 319.445C629.584 319.39 634.581 319.362 639.577 319.307C745.366 318.226 845.263 317.201 853.84 408.525C863.647 513.204 821.846 535.592 745.963 576.211C727.617 586.02 706.847 597.158 684.622 610.735C640.808 637.528 626.713 677.704 613.065 716.55C592.742 774.459 573.427 829.486 456.6 829.486ZM140.762 315.843L141.545 316.231C103.548 359.289 139.83 407.306 181.892 462.86C206.652 495.582 232.27 529.413 245.507 565.932C256.321 595.717 255.538 627.858 254.792 658.918C254.718 662.52 254.606 666.094 254.531 669.669C253.823 707.129 254.867 743.066 275.487 770.829C298.681 802.055 343.13 819.65 415.433 826.133C567.908 839.821 588.976 779.778 611.275 716.217C624.96 677.177 639.13 636.78 683.429 609.682C705.691 596.077 726.498 584.939 744.844 575.103C820.168 534.761 861.671 512.539 851.975 408.636C843.548 318.614 744.471 319.639 639.615 320.72C634.618 320.775 629.621 320.831 624.624 320.859C605.197 321.025 586.776 320.72 569.847 320C547.138 319.002 536.25 304.733 523.646 288.219C508.544 268.436 491.428 245.993 449.403 237.237C367.181 220.114 210.269 238.373 141.545 316.259L140.762 315.871V315.843Z" fill="url(#paint18_linear_2525_3709)"/>
</g>
<g opacity="0.49">
<path d="M456.19 818.042C443.959 818.042 430.684 817.433 416.142 816.13C346.71 809.952 301.888 792.33 279.067 762.267C258.372 735.003 256.992 700.174 257.328 663.905C257.328 660.054 257.44 656.203 257.477 652.323C257.924 622.787 258.409 592.226 248.267 563.853C235.849 529.136 211.947 496.801 188.865 465.519C148.668 411.102 113.952 364.11 151.874 321.579C190.692 278.078 251.958 257.824 296.481 248.486C349.879 237.292 407.528 235.935 450.746 244.857C491.838 253.335 508.693 275.03 523.534 294.176C535.578 309.692 545.945 323.075 566.864 324.045C583.308 324.793 601.021 325.125 619.479 325.042C623.991 325.042 628.503 324.987 632.977 324.959C735.112 324.211 831.579 323.546 840.118 411.6C849.85 512.179 809.839 533.929 737.2 573.44C719.786 582.916 700.023 593.639 678.955 606.717C637.191 632.568 623.319 671.081 609.858 708.293C589.536 764.594 570.22 818.07 456.153 818.07L456.19 818.042ZM152.658 321.967L153.441 322.355C116.114 364.193 150.607 410.852 190.506 464.854C213.662 496.192 237.602 528.609 250.094 563.493C260.311 592.032 259.826 622.676 259.379 652.323C259.304 656.203 259.267 660.054 259.23 663.905C258.894 699.98 260.274 734.615 280.745 761.574C303.268 791.249 347.642 808.649 416.44 814.745C430.759 816.02 443.922 816.629 456.004 816.629C568.877 816.629 588.007 763.652 608.143 707.905C621.641 670.472 635.625 631.764 677.836 605.636C698.942 592.558 718.742 581.808 736.156 572.332C808.273 533.126 847.986 511.514 838.328 411.711C829.938 324.931 734.292 325.624 633.089 326.344C628.577 326.372 624.103 326.4 619.591 326.428C601.095 326.538 583.346 326.206 566.827 325.43C544.901 324.433 534.273 310.717 521.968 294.869C507.313 275.944 490.682 254.526 450.298 246.187C369.269 229.479 221.046 246.63 153.478 322.355L152.695 321.967H152.658Z" fill="url(#paint19_linear_2525_3709)"/>
</g>
<g opacity="0.51">
<path d="M455.744 806.599C443.923 806.599 431.058 806.017 417.075 804.77C350.178 798.896 306.737 781.967 284.251 753.04C263.705 726.58 261.953 693.053 261.915 658.17C261.915 654.041 261.915 649.885 261.953 645.701C262.139 617.578 262.326 588.485 252.78 561.387C241.145 528.277 218.884 497.411 197.405 467.514C159.333 414.621 126.482 368.959 163.733 327.674C229.66 254.637 373.223 237.846 451.53 253.806C490.982 261.841 507.314 282.539 521.745 300.798C533.454 315.649 543.597 328.45 563.77 329.42C581.482 330.279 599.269 330.473 614.371 330.528C619.703 330.528 625.036 330.556 630.331 330.584C726.835 330.75 818.006 330.916 826.359 414.593C836.017 511.098 797.758 532.239 728.364 570.614C711.845 579.73 693.163 590.092 673.213 602.616C633.538 627.525 619.853 664.348 606.615 699.953C586.292 754.62 566.977 806.571 455.706 806.571L455.744 806.599ZM164.516 328.09L165.3 328.478C128.644 369.069 161.272 414.399 199.083 466.905C220.636 496.856 242.935 527.806 254.607 561.055C264.19 588.319 264.004 617.495 263.854 645.701C263.854 649.885 263.817 654.041 263.817 658.142C263.892 732.786 275.265 790.889 417.299 803.385C561.607 816.075 582.638 759.496 604.9 699.592C618.212 663.794 631.971 626.749 672.094 601.563C692.081 589.012 710.8 578.649 727.357 569.506C796.23 531.408 834.19 510.433 824.606 414.704C816.366 332.301 726.052 332.135 630.405 331.969C625.11 331.969 619.778 331.969 614.446 331.914C599.344 331.858 581.482 331.664 563.733 330.805C542.59 329.78 532.223 316.674 520.216 301.491C505.972 283.453 489.826 263.033 451.12 255.136C373.372 239.287 230.779 255.939 165.337 328.45L164.554 328.062L164.516 328.09Z" fill="url(#paint20_linear_2525_3709)"/>
</g>
<g opacity="0.54">
<path d="M455.296 795.156C443.885 795.156 431.468 794.602 417.969 793.438C353.571 787.841 311.546 771.632 289.434 743.842C269.037 718.212 266.949 684.631 266.539 652.462C266.501 648.057 266.464 643.623 266.464 639.135C266.389 612.425 266.278 584.828 257.366 558.977C246.477 527.501 225.894 498.076 205.981 469.62C170.072 418.25 139.048 373.918 175.628 333.853C239.43 264.002 377.362 247.738 452.387 262.839C490.198 270.458 506.046 290.131 520.029 307.531C531.44 321.69 541.284 333.936 560.712 334.934C577.641 335.82 594.756 336.042 609.299 336.181C614.184 336.208 619.069 336.236 623.954 336.291C716.729 336.846 804.358 337.344 812.711 417.724C822.294 510.129 783.662 531.879 719.637 567.926C704.05 576.71 686.375 586.657 667.582 598.626C629.995 622.593 616.533 657.727 603.519 691.724C583.197 744.784 563.881 795.184 455.333 795.211L455.296 795.156ZM177.194 334.601C141.21 373.974 172.011 418.001 207.659 468.955C227.609 497.494 248.267 527.002 259.193 558.617C268.179 584.634 268.254 612.314 268.366 639.107C268.366 643.568 268.366 648.001 268.44 652.407C269.335 724.225 280.932 780.111 418.23 792.025C558.474 804.189 579.505 749.328 601.729 691.28C614.818 657.089 628.354 621.762 666.389 597.518C685.257 585.493 702.932 575.546 718.519 566.763C784.185 529.801 820.355 509.436 810.846 417.779C802.643 338.674 715.834 338.148 623.954 337.621C619.069 337.594 614.184 337.566 609.299 337.511C594.756 337.4 577.603 337.15 560.6 336.264C540.203 335.211 530.135 322.687 518.463 308.196C504.666 291.045 489.005 271.594 451.94 264.141C377.473 249.124 240.548 265.277 177.231 334.601H177.194Z" fill="url(#paint21_linear_2525_3709)"/>
</g>
<g opacity="0.56">
<path d="M454.848 783.713C443.81 783.713 431.878 783.186 418.864 782.078C285.071 770.635 272.803 714 271.125 646.727C271.013 642.016 270.939 637.278 270.864 632.485C270.528 607.216 270.156 581.087 261.84 556.539C251.735 526.725 232.792 498.741 214.446 471.698C180.662 421.852 151.502 378.795 187.449 339.949C249.125 273.285 381.389 257.547 453.133 271.788C489.266 278.965 504.629 297.667 518.202 314.153C529.314 327.647 538.897 339.312 557.542 340.337C573.725 341.223 590.17 341.528 604.079 341.694C608.516 341.75 612.953 341.805 617.391 341.833C706.437 342.747 790.561 343.634 798.839 420.716C808.348 509.048 771.581 530.161 710.725 565.1C696.071 573.523 679.44 583.055 661.765 594.498C626.266 617.495 613.028 650.966 600.238 683.328C579.878 734.781 560.562 783.657 454.773 783.685L454.848 783.713ZM398.169 268.353C326.947 268.353 236.745 289.216 189.015 340.752C153.702 378.906 182.638 421.631 216.161 471.089C234.545 498.214 253.525 526.227 263.667 556.206C272.057 580.921 272.393 607.133 272.729 632.485C272.803 637.251 272.84 642.016 272.99 646.699C273.735 677.371 276.159 709.373 296.183 733.895C317.587 760.134 357.785 775.456 419.051 780.693C431.878 781.801 443.699 782.299 454.587 782.299C559.257 782.299 578.349 733.922 598.523 682.968C611.387 650.412 624.699 616.747 660.609 593.5C678.321 582.029 694.952 572.47 709.644 564.047C772.066 528.194 806.483 508.438 797.049 420.855C788.883 345.019 705.617 344.16 617.428 343.246C612.991 343.191 608.553 343.163 604.116 343.107C590.17 342.941 573.688 342.636 557.467 341.75C537.853 340.669 528.046 328.727 516.673 314.929C503.286 298.665 488.11 280.211 452.685 273.174C436.949 270.043 418.342 268.38 398.169 268.38V268.353Z" fill="url(#paint22_linear_2525_3709)"/>
</g>
<g opacity="0.59">
<path d="M454.401 772.27C443.773 772.27 432.288 771.771 419.797 770.718C290.739 759.829 278.21 705.522 275.749 640.991C275.563 635.976 275.451 630.933 275.302 625.835C274.742 602.007 274.108 577.375 266.427 554.1C257.105 525.95 239.765 499.461 223.023 473.859C191.401 425.51 164.069 383.727 199.381 346.1C258.932 282.65 385.528 267.411 453.991 280.821C488.483 287.582 503.361 305.259 516.487 320.858C527.264 333.687 536.586 344.742 554.522 345.795C569.959 346.71 585.695 347.042 599.045 347.291C603.035 347.347 607.025 347.43 611.015 347.485C696.332 348.788 776.951 350.007 785.192 423.82C794.626 508.078 759.76 528.554 701.962 562.44C688.24 570.503 672.653 579.619 656.134 590.536C622.686 612.591 609.71 644.372 597.18 675.099C576.821 724.973 557.468 772.325 454.364 772.325L454.401 772.27ZM200.164 346.46L200.91 346.848C166.231 383.81 193.303 425.233 224.701 473.194C241.481 498.879 258.857 525.423 268.254 553.712C276.01 577.125 276.607 601.868 277.203 625.752C277.315 630.85 277.464 635.893 277.651 640.88C280.075 704.774 292.492 758.499 420.02 769.277C432.326 770.302 443.699 770.801 454.177 770.801C556.125 770.801 575.255 723.92 595.428 674.573C608.069 643.651 621.12 611.677 654.941 589.4C671.497 578.483 687.084 569.34 700.844 561.249C760.059 526.504 792.687 507.358 783.364 423.847C775.235 351.309 695.474 350.09 610.977 348.788C606.987 348.732 602.997 348.677 599.008 348.594C585.621 348.372 569.885 348.012 554.373 347.097C535.542 345.989 525.958 334.657 514.921 321.523C501.982 306.146 487.29 288.69 453.506 282.068C385.565 268.768 259.976 283.869 200.873 346.82L200.127 346.432L200.164 346.46Z" fill="url(#paint23_linear_2525_3709)"/>
</g>
<g opacity="0.61">
<path d="M453.951 760.798C443.734 760.798 432.697 760.327 420.727 759.33C296.442 749.023 283.615 697.016 280.408 635.228C280.147 629.908 279.923 624.533 279.737 619.13C278.954 596.742 278.096 573.606 271.011 551.634C262.435 525.146 246.736 500.181 231.522 476.02C202.027 429.139 176.558 388.631 211.274 352.195C268.699 291.932 389.628 277.219 454.846 289.77C487.66 296.088 502.091 312.795 514.807 327.508C525.285 339.644 534.346 350.145 551.499 351.198C566.117 352.112 581.181 352.528 594.009 352.805L604.599 353.027C686.224 354.717 763.338 356.296 771.542 426.812C780.901 507.025 747.9 526.836 693.235 559.669C680.445 567.372 665.902 576.072 650.539 586.407C619.179 607.493 606.463 637.583 594.158 666.676C573.761 714.942 554.371 760.798 453.989 760.798H453.951ZM212.057 352.583L212.803 352.971C178.721 388.742 203.966 428.89 233.2 475.411C248.452 499.627 264.188 524.675 272.801 551.302C279.961 573.412 280.781 596.631 281.601 619.102C281.788 624.505 281.974 629.88 282.273 635.2C285.48 696.351 298.121 747.776 420.95 757.972C549.15 768.612 570.144 718.905 592.368 666.26C604.748 636.973 617.538 606.717 649.271 585.382C664.709 575.019 679.214 566.292 692.042 558.589C748.087 524.952 778.925 506.416 769.677 426.923C761.586 357.654 685.292 356.074 604.524 354.412C600.982 354.329 597.477 354.273 593.934 354.19C581.107 353.913 566.005 353.498 551.35 352.583C533.265 351.447 523.98 340.697 513.241 328.256C500.712 313.737 486.505 297.279 454.399 291.1C389.702 278.632 269.781 293.234 212.841 352.999L212.095 352.611L212.057 352.583Z" fill="url(#paint24_linear_2525_3709)"/>
</g>
<g opacity="0.63">
<path d="M453.506 749.355C443.699 749.355 433.108 748.912 421.661 747.97C302.261 738.244 288.912 686.376 285.034 629.492C284.661 623.868 284.363 618.021 284.102 612.369C283.095 591.45 282.088 569.783 275.562 549.14C267.769 524.37 253.636 500.902 239.989 478.209C212.656 432.769 189.052 393.507 223.171 358.263C254.792 325.596 301.963 310.024 335.933 302.682C377.1 293.788 421.884 292.319 455.668 298.692C486.842 304.594 500.751 320.276 513.056 334.13C523.236 345.601 531.999 355.493 548.406 356.601C562.315 357.515 576.671 357.986 588.865 358.346L598.075 358.596C676.009 360.674 749.58 362.613 757.784 429.832C767.069 506 735.932 525.173 684.362 556.954C672.504 564.269 659.043 572.553 644.798 582.334C615.526 602.45 603.109 630.822 591.065 658.28C570.63 704.968 551.203 749.327 453.468 749.327L453.506 749.355ZM410.213 296.309C348.127 296.309 267.918 314.485 224.7 359.122C191.177 393.729 214.595 432.63 241.704 477.683C255.389 500.431 269.522 523.954 277.39 548.863C283.952 569.644 284.959 591.339 285.966 612.341C286.227 617.966 286.525 623.812 286.898 629.437C289.061 661.107 294.132 686.293 311.807 706.159C332.13 728.99 368.114 742.207 421.884 746.584C546.094 756.698 567.125 708.708 589.349 657.865C601.431 630.24 613.923 601.674 643.568 581.337C657.849 571.528 671.311 563.244 683.206 555.901C736.044 523.345 765.167 505.418 755.957 429.97C747.902 363.943 675.114 362.032 598.038 359.981L588.827 359.732C576.597 359.399 562.203 358.928 548.257 357.986C530.955 356.85 521.931 346.682 511.49 334.906C499.408 321.274 485.686 305.813 455.221 300.05C442.244 297.584 426.881 296.282 410.213 296.282V296.309Z" fill="url(#paint25_linear_2525_3709)"/>
</g>
<g opacity="0.66">
<path d="M453.021 737.912C443.624 737.912 433.481 737.497 422.556 736.61C307.855 727.439 294.244 678.009 289.62 623.757C289.098 617.772 288.725 611.566 288.39 605.581C287.234 586.13 286.003 566.015 280.112 546.73C273.064 523.678 260.535 501.761 248.416 480.565C223.246 436.537 201.469 398.495 235.104 364.415C265.532 333.549 310.316 318.753 342.533 311.743C381.687 303.237 424.308 301.74 456.526 307.697C486.022 313.156 499.483 327.869 511.341 340.836C521.222 351.614 529.724 360.951 545.386 362.06C558.474 363.002 571.6 363.5 583.831 363.916L591.624 364.165C665.866 366.631 735.97 368.931 744.136 432.88C753.346 505.003 724.075 523.539 675.599 554.294C664.673 561.221 652.256 569.09 639.205 578.262C611.984 597.38 599.902 624.062 588.156 649.885C567.684 695.021 548.22 737.885 453.058 737.885L453.021 737.912ZM412.898 305.536C355.212 305.536 279.59 321.607 236.558 365.246C203.557 398.689 225.148 436.399 250.094 480.038C262.25 501.29 274.817 523.262 281.901 546.426C287.83 565.849 289.061 586.02 290.254 605.526C290.627 611.511 291 617.717 291.485 623.674C296.034 677.288 309.533 726.192 422.779 735.225C543.111 744.867 564.105 698.512 586.366 649.442C598.15 623.48 610.343 596.604 637.862 577.264C650.988 568.037 663.405 560.168 674.331 553.242C724 521.766 751.333 504.421 742.234 433.019C734.217 370.261 664.897 367.961 591.475 365.551L583.681 365.301C572.01 364.913 558.325 364.387 545.162 363.445C528.643 362.281 519.88 352.694 509.775 341.639C498.103 328.866 484.866 314.403 456.041 309.083C443.81 306.811 429.044 305.564 412.898 305.564V305.536Z" fill="url(#paint26_linear_2525_3709)"/>
</g>
<g opacity="0.68">
<path d="M452.535 726.469C443.548 726.469 433.89 726.081 423.45 725.277C374.153 721.426 340.519 709.401 320.607 688.509C301.776 668.754 296.779 642.986 294.206 618.077C293.535 611.732 293.05 605.137 292.602 598.765C291.26 580.81 289.918 562.246 284.623 544.319C278.321 523.04 267.358 502.703 256.73 483.03C234.655 442.134 213.811 403.51 246.923 370.566C295.213 322.521 393.73 305.231 457.271 316.73C485.126 321.773 498.102 335.46 509.513 347.568C519.059 357.682 527.337 366.409 542.215 367.545C554.558 368.488 567.012 369.042 578.609 369.54L584.948 369.79C655.499 372.644 722.135 375.304 730.301 436.011C739.474 504.088 712.029 522.043 666.648 551.745C656.655 558.284 645.319 565.682 633.424 574.299C608.291 592.42 596.508 617.384 585.135 641.545C564.588 685.129 545.086 726.524 452.498 726.524L452.535 726.469ZM415.954 314.652C357.112 314.652 286.785 333.244 248.415 371.369C215.936 403.704 235.625 440.222 258.446 482.476C269.073 502.176 280.111 522.569 286.412 543.987C291.745 561.997 293.124 580.644 294.43 598.654C294.914 605.027 295.399 611.621 296.033 617.938C301.328 668.92 315.05 715.413 423.599 723.892C540.015 733.008 561.046 688.315 583.345 641.046C594.793 616.747 606.65 591.616 632.082 573.274C644.051 564.657 655.387 557.231 665.381 550.692C711.88 520.269 737.498 503.506 728.436 436.122C720.419 376.606 654.567 373.946 584.836 371.147L578.497 370.898C566.863 370.427 554.371 369.845 541.991 368.903C526.255 367.712 517.791 358.734 507.946 348.344C496.723 336.458 483.97 322.992 456.786 318.06C444.294 315.788 430.423 314.652 415.88 314.652H415.954Z" fill="url(#paint27_linear_2525_3709)"/>
</g>
<g opacity="0.71">
<path d="M452.051 715.026C443.475 715.026 434.301 714.666 424.383 713.917C319.19 705.91 304.685 659.334 298.831 612.342C298.01 605.609 297.414 598.903 296.78 591.783C295.325 575.352 293.834 558.34 289.135 541.854C283.579 522.348 274.145 503.645 265.009 485.552C244.985 445.93 226.117 408.497 258.782 376.661C305.021 331.637 398.243 315.123 458.092 325.679C484.306 330.307 496.761 342.997 507.761 354.218C517.008 363.639 524.988 371.785 539.121 372.949C550.606 373.891 562.426 374.528 573.501 375.054L578.349 375.276C645.245 378.518 708.413 381.566 716.579 439.003C725.678 503.091 700.097 520.408 657.774 549.141C648.75 555.264 638.496 562.219 627.72 570.198C604.675 587.322 593.264 610.568 582.264 633.039C561.643 675.099 542.104 715.026 452.014 715.026H452.051ZM420.02 323.989C364.31 323.989 297.19 341.556 260.274 377.52C228.205 408.747 246.067 444.129 266.762 485.081C275.935 503.229 285.406 521.96 290.963 541.577C295.698 558.173 297.19 575.214 298.607 591.699C299.241 598.82 299.8 605.526 300.658 612.231C306.437 658.669 320.756 704.663 424.532 712.56C537.145 721.149 558.213 678.119 580.512 632.596C591.587 609.959 603.072 586.574 626.414 569.256C637.191 561.249 647.483 554.294 656.507 548.143C699.836 518.746 723.739 502.564 714.752 439.197C706.772 382.923 644.35 379.903 578.274 376.689L573.427 376.467C562.352 375.913 550.494 375.304 538.972 374.362C524.019 373.142 515.815 364.775 506.307 355.077C495.493 344.05 483.225 331.581 457.682 327.065C446.197 325.042 433.444 324.017 420.02 324.017V323.989Z" fill="url(#paint28_linear_2525_3709)"/>
</g>
<g opacity="0.73">
<path d="M451.567 703.582C443.4 703.582 434.675 703.25 425.315 702.557C334.591 695.824 311.434 660.857 303.455 606.606C302.41 599.457 301.665 592.253 300.882 584.662C299.353 569.783 297.787 554.405 293.685 539.415C288.875 521.765 280.932 504.753 273.25 488.267C255.314 449.837 238.348 413.54 270.678 382.785C314.865 340.752 402.792 325.07 458.912 334.657C483.486 338.868 495.456 350.561 506.046 360.896C514.995 369.623 522.714 377.188 536.063 378.351C546.169 379.238 556.311 379.875 568.43 380.596L571.749 380.79C634.991 384.419 694.728 387.855 702.894 442.051C711.956 502.149 688.203 518.884 648.9 546.619C640.808 552.327 631.635 558.783 622.089 566.125C601.133 582.196 590.132 603.697 579.542 624.505C558.847 665.069 539.196 703.555 451.567 703.555V703.582ZM424.122 333.327C371.582 333.327 307.631 349.896 272.169 383.643C240.473 413.817 256.47 448.119 275.003 487.824C282.722 504.337 290.702 521.405 295.512 539.138C299.614 554.239 301.217 569.644 302.709 584.551C303.492 592.143 304.238 599.319 305.282 606.467C313.15 660.026 336.008 694.577 425.464 701.199C434.712 701.892 443.326 702.225 451.343 702.225C537.891 702.225 557.318 664.155 577.753 624.062C588.417 603.143 599.455 581.503 620.709 565.211C630.33 557.841 639.503 551.357 647.595 545.649C687.83 517.277 709.979 501.65 701.03 442.245C693.05 389.185 634.059 385.805 571.6 382.203L568.281 382.009C556.125 381.316 545.982 380.651 535.84 379.764C521.67 378.518 513.727 370.759 504.554 361.754C494.188 351.614 482.405 340.115 458.502 336.014C447.987 334.213 436.353 333.327 424.122 333.327Z" fill="url(#paint29_linear_2525_3709)"/>
</g>
<g opacity="0.76">
<path d="M451.044 692.139C443.325 692.139 435.084 691.834 426.21 691.197C339.997 685.018 316.617 650.633 308.078 600.87C306.773 593.251 305.878 585.52 304.908 577.347C303.342 564.102 301.739 550.415 298.271 536.949C294.206 521.211 287.681 505.944 281.416 491.176C265.531 453.882 250.541 418.638 282.61 388.88C325.306 349.286 406.223 334.767 459.77 343.606C482.702 347.402 494.187 358.125 504.33 367.573C512.944 375.608 520.402 382.563 533.043 383.782C543.297 384.752 553.663 385.472 563.359 386.137L565.037 386.248C624.662 390.265 681.005 394.089 689.172 445.071C698.158 501.206 676.27 517.36 639.95 544.153C632.828 549.417 624.774 555.347 616.384 562.052C597.515 577.07 587 596.825 576.857 615.915C556.05 655.011 536.324 692.111 451.044 692.111V692.139ZM284.027 389.767C252.555 418.943 266.762 452.219 283.169 490.761C289.471 505.556 295.996 520.879 300.098 536.672C303.603 550.193 305.207 563.908 306.773 577.208C307.742 585.382 308.637 593.085 309.942 600.676C318.37 649.746 341.414 683.688 426.433 689.784C531.588 697.348 552.768 657.532 575.179 615.389C585.396 596.188 595.949 576.321 615.078 561.11C623.506 554.405 631.597 548.448 638.72 543.183C675.822 515.78 696.294 500.708 687.382 445.237C679.402 395.364 623.767 391.595 564.925 387.633L563.247 387.522C553.514 386.857 543.148 386.137 532.856 385.167C519.507 383.893 511.452 376.412 502.95 368.46C492.994 359.177 481.696 348.649 459.434 344.991C406.409 336.263 326.35 350.616 284.138 389.767H284.027Z" fill="url(#paint30_linear_2525_3709)"/>
</g>
<g opacity="0.78">
<path d="M449.74 680.641C442.655 680.641 435.16 680.363 427.143 679.809C345.107 674.129 322.063 641.85 312.703 595.135C311.062 586.934 309.944 578.566 308.788 569.727C307.259 558.201 305.693 546.259 302.821 534.483C299.465 520.768 294.357 507.358 289.435 494.39C275.601 458.094 262.549 423.819 294.506 395.004C335.076 358.43 410.81 344.714 460.591 352.611C481.883 355.991 492.883 365.717 502.616 374.306C510.931 381.649 518.128 387.994 529.986 389.213C539.383 390.182 548.742 390.931 558.288 391.706C614.334 396.14 667.284 400.323 675.488 448.119C684.474 500.32 664.338 515.947 631.039 541.826C624.588 546.841 617.951 551.994 610.754 557.979C593.974 571.916 584.018 589.843 574.397 607.216C554.336 643.346 533.64 680.613 449.777 680.613L449.74 680.641ZM431.17 351.835C384.857 351.835 328.737 366.299 295.886 395.89C264.563 424.124 277.465 458.066 291.15 494.03C296.109 507.025 301.218 520.463 304.574 534.262C307.445 546.093 309.049 558.035 310.578 569.616C311.734 578.455 312.852 586.795 314.493 594.969C323.703 641.046 346.45 672.882 427.255 678.479C528.867 685.489 550.085 647.225 572.57 606.745C582.265 589.289 592.296 571.223 609.263 557.12C616.497 551.136 623.171 545.954 629.585 540.939C663.63 514.478 682.386 499.904 673.549 448.341C665.532 401.626 613.29 397.497 557.99 393.119C548.407 392.371 539.01 391.596 529.613 390.626C517.047 389.324 509.291 382.48 501.087 375.22C491.541 366.797 480.765 357.266 460.106 353.996C451.157 352.583 441.387 351.863 431.096 351.863L431.17 351.835Z" fill="url(#paint31_linear_2525_3709)"/>
</g>
<g opacity="0.8">
<path d="M449.254 669.197C442.617 669.197 435.569 668.948 428.074 668.477C345.591 663.018 326.089 627.276 317.326 589.427C315.275 580.533 313.933 571.362 312.516 561.664C311.099 551.994 309.644 541.964 307.37 532.045C304.722 520.463 300.956 509.048 297.265 498.02C285.481 462.554 274.369 429.084 306.363 401.127C344.808 367.545 415.396 354.661 461.373 361.588C481.025 364.553 491.578 373.308 500.863 381.039C508.88 387.689 515.778 393.424 526.853 394.671C535.616 395.668 544.528 396.472 553.142 397.275C602.475 401.847 653.449 406.557 661.727 451.194C670.677 499.544 652.368 514.645 621.977 539.692C616.57 544.125 611.014 548.725 605.011 553.962C590.356 566.735 580.997 582.861 571.973 598.432C551.799 633.261 530.955 669.197 449.18 669.197H449.254ZM307.817 402.013C276.42 429.416 287.42 462.582 299.092 497.688C302.783 508.743 306.549 520.186 309.234 531.823C311.509 541.798 312.963 551.828 314.38 561.526C315.797 571.196 317.14 580.367 319.19 589.206C327.841 626.5 347.045 661.744 428.261 667.119C526.48 673.603 547.772 636.835 570.332 597.906C579.43 582.223 588.79 566.014 603.668 553.075C609.672 547.838 615.265 543.239 620.672 538.778C651.696 513.204 668.775 499.101 659.975 451.388C651.92 407.804 601.617 403.149 552.992 398.661C544.379 397.857 535.467 397.026 526.666 396.056C514.92 394.726 507.463 388.548 499.557 381.981C490.459 374.417 480.13 365.855 461.075 362.974C415.583 356.13 345.852 368.875 307.855 402.041L307.817 402.013Z" fill="url(#paint32_linear_2525_3709)"/>
</g>
<g opacity="0.83">
<path d="M448.694 657.754C442.504 657.754 435.941 657.533 429.005 657.117C350.698 652.213 330.935 617.246 321.948 583.72C319.338 573.939 317.697 563.715 315.982 552.909C314.789 545.317 313.521 537.448 311.917 529.635C309.978 520.38 307.406 511.181 304.907 502.287C295.137 467.431 285.927 434.515 318.257 407.278C355.956 375.553 420.54 364.692 462.192 370.593C480.24 373.142 490.308 380.928 499.183 387.8C506.864 393.729 513.502 398.855 523.794 400.13C531.289 401.044 539.008 401.875 546.465 402.679L548.069 402.845C590.988 407.5 639.688 412.764 648.003 454.242C656.953 498.768 640.396 513.426 612.914 537.725C608.589 541.549 604.114 545.511 599.341 549.916C586.812 561.471 578.198 575.712 569.883 589.455C549.523 623.092 528.529 657.782 448.656 657.782L448.694 657.754ZM438.775 370.399C399.472 370.399 350.474 382.203 319.674 408.165C287.941 434.902 297.076 467.487 306.734 501.982C309.233 510.904 311.806 520.103 313.745 529.385C315.385 537.226 316.616 545.095 317.846 552.715C319.562 563.521 321.165 573.717 323.775 583.443C332.613 616.498 352.078 650.91 429.154 655.732C524.166 661.661 546.577 624.671 568.242 588.846C576.595 575.02 585.246 560.722 597.924 549.002C602.697 544.597 607.172 540.634 611.535 536.811C639.613 512.013 655.051 498.353 646.213 454.436C638.084 413.983 590.131 408.774 547.845 404.203L546.242 404.036C538.784 403.233 531.028 402.402 523.533 401.46C512.607 400.102 505.447 394.588 497.878 388.714C489.189 382.009 479.345 374.389 461.894 371.923C454.809 370.926 447.016 370.399 438.812 370.399H438.775Z" fill="url(#paint33_linear_2525_3709)"/>
</g>
<g opacity="0.85">
<path d="M448.099 646.311C442.357 646.311 436.316 646.117 429.902 645.757C355.51 641.379 335.598 607.243 326.574 577.984C323.181 566.984 321.242 555.208 319.154 542.768C318.296 537.669 317.438 532.405 316.469 527.141C315.238 520.519 313.71 513.869 312.255 507.468C304.425 472.834 297.041 440.139 330.154 413.346C365.616 384.696 425.054 374.555 463.015 379.543C479.459 381.704 489.042 388.52 497.544 394.505C504.592 399.492 511.229 404.23 520.775 405.505C526.481 406.28 532.223 407.001 537.966 407.721L543 408.358C588.343 414.122 626.49 421.769 634.32 457.235C643.344 498.048 628.466 512.345 603.781 536.007C600.574 539.083 597.218 542.297 593.713 545.788C583.346 556.04 575.628 568.259 568.17 580.117C547.661 612.702 526.481 646.311 448.099 646.311ZM330.862 413.817L331.534 414.288C299.018 440.582 306.326 472.945 314.082 507.219C315.537 513.647 317.028 520.297 318.296 526.947C319.266 532.211 320.161 537.476 321.018 542.574C323.069 554.987 325.008 566.707 328.401 577.652C337.313 606.44 356.89 640.049 430.089 644.344C522.267 649.746 544.752 614.031 566.529 579.508C574.024 567.621 581.78 555.319 592.258 544.957C595.764 541.465 599.157 538.224 602.364 535.176C627.534 511.015 641.405 497.688 632.531 457.484C624.886 422.849 588.94 415.618 542.739 409.744L537.705 409.107C531.962 408.386 526.182 407.666 520.477 406.89C510.409 405.532 503.548 400.656 496.314 395.53C487.625 389.379 478.639 383.006 462.754 380.928C425.278 375.996 366.585 386.026 331.571 414.316L330.9 413.845L330.862 413.817Z" fill="url(#paint34_linear_2525_3709)"/>
</g>
<g opacity="0.88">
<path d="M447.463 634.868C442.168 634.868 436.649 634.702 430.832 634.397C376.912 631.46 345.253 611.732 331.195 572.277C326.572 559.337 324.297 545.068 321.873 529.967L321.016 524.703C320.456 521.239 319.86 517.804 319.263 514.368C313.148 479.318 307.405 446.18 342.084 419.47C375.644 393.618 428.743 384.336 463.87 388.52C478.748 390.294 487.884 396.14 495.976 401.321C502.688 405.616 509.027 409.661 517.752 410.963C521.332 411.49 524.949 412.044 528.566 412.57C531.698 413.041 534.831 413.485 537.963 413.956C576.967 419.802 612.653 427.726 620.633 460.31C629.769 497.577 617.239 510.821 594.53 534.871C592.442 537.06 590.317 539.332 588.079 541.743C579.95 550.499 573.35 560.584 566.974 570.365C546.241 602.09 524.837 634.868 447.537 634.868H447.463ZM342.718 419.941L343.389 420.412C309.344 446.651 315.049 479.456 321.09 514.174C321.687 517.61 322.283 521.045 322.843 524.509L323.7 529.773C326.124 544.818 328.399 559.032 332.985 571.889C347.006 611.233 377.247 630.075 430.981 632.984C520.773 637.86 543.37 603.226 565.259 569.728C571.672 559.891 578.31 549.75 586.513 540.912C588.751 538.529 590.913 536.229 592.964 534.04C615.412 510.295 627.755 497.217 618.768 460.504C610.975 428.779 575.923 420.993 537.553 415.258C534.421 414.787 531.288 414.316 528.156 413.873C524.539 413.346 520.922 412.82 517.342 412.266C508.169 410.88 501.644 406.724 494.745 402.319C486.467 397.026 477.928 391.568 463.571 389.85C428.93 385.722 376.539 394.893 343.426 420.384L342.755 419.913L342.718 419.941Z" fill="url(#paint35_linear_2525_3709)"/>
</g>
<g opacity="0.9">
<path d="M446.755 623.424C441.982 623.424 436.985 623.314 431.765 623.036C381.872 620.598 350.475 602.117 335.82 566.569C330.19 552.936 327.579 537.226 325.566 522.264C321.203 489.846 316.244 453.106 353.98 425.593C381.984 405.172 427.514 393.646 464.654 397.525C478.003 398.91 486.393 403.621 494.485 408.165C500.824 411.739 506.79 415.091 514.658 416.421L516.075 416.671C521.631 417.613 527.262 418.555 532.855 419.552C565.819 425.399 598.67 433.628 606.874 463.386C616.234 497.355 605.121 510.599 584.948 534.649L582.375 537.725C576.558 544.652 571.636 552.05 566.415 559.891C545.496 591.201 523.943 623.48 446.792 623.48L446.755 623.424ZM354.614 426.091L355.248 426.59C318.145 453.633 323.067 490.013 327.393 522.126C329.407 537.005 332.017 552.659 337.61 566.181C352.004 601.12 382.842 619.268 431.877 621.679C520.103 626.001 542.774 592.059 564.737 559.226C569.771 551.717 574.955 543.959 580.809 536.949L583.382 533.874C603.332 510.128 614.295 497.05 605.084 463.635C597.104 434.681 564.812 426.646 532.445 420.882C526.852 419.885 521.259 418.943 515.702 418.001L514.285 417.751C506.045 416.366 499.892 412.903 493.404 409.245C485.498 404.812 477.332 400.213 464.467 398.855C427.812 395.004 382.954 406.419 355.36 426.535L354.726 426.036L354.614 426.091Z" fill="url(#paint36_linear_2525_3709)"/>
</g>
<g opacity="0.93">
<path d="M445.45 611.954C441.348 611.954 437.097 611.871 432.659 611.677C386.608 609.709 355.583 592.614 340.406 560.833C335.111 549.75 331.718 536.312 330.04 519.771C327.057 490.29 328.996 456.791 365.8 431.661C392.126 413.706 432.137 403.593 465.399 406.447C477.332 407.472 485.386 411.323 493.179 415.036C499.071 417.835 504.59 420.495 511.526 421.797C517.79 422.988 522.936 424.013 527.709 425.039C556.832 431.245 584.91 440.555 593.077 466.323C602.511 496.053 593.934 509.824 576.632 533.541C573.314 538.085 570.256 542.74 566.974 547.672C546.95 577.873 524.428 611.926 445.375 611.926L445.45 611.954ZM366.471 432.187L367.105 432.686C330.86 457.401 328.996 490.512 331.942 519.66C333.62 536.09 336.939 549.39 342.196 560.362C357.075 591.561 387.577 608.352 432.771 610.263C521.072 614.059 543.557 579.979 565.371 547.063C568.652 542.131 571.71 537.476 575.066 532.904C592.145 509.491 600.609 495.915 591.324 466.683C583.382 441.608 555.825 432.52 527.262 426.396C522.489 425.371 517.343 424.346 511.116 423.155C503.919 421.797 498.251 419.082 492.247 416.228C484.64 412.598 476.772 408.83 465.25 407.832C432.51 405.006 393.096 414.981 367.143 432.686L366.509 432.187H366.471Z" fill="url(#paint37_linear_2525_3709)"/>
</g>
<g opacity="0.95">
<path d="M444.553 600.51C441.011 600.51 437.356 600.455 433.628 600.316C391.342 598.82 360.728 583.193 345.103 555.125C339.025 544.236 335.52 531.519 334.663 517.305C333.246 494.28 339.622 461.779 377.806 437.784C402.342 422.379 437.058 413.595 466.293 415.452C477.107 416.144 485.086 419.192 492.842 422.157C498.026 424.152 502.873 426.008 508.616 427.255C513.65 428.336 518.274 429.444 522.786 430.635C544.562 436.315 570.702 445.819 579.502 469.371C588.563 493.587 584.014 508.05 571.112 529.468L569.658 531.851C550.305 564.103 528.453 600.51 444.591 600.51H444.553ZM458.35 416.588C431.39 416.588 401 424.983 378.999 438.837C341.375 462.471 335.147 494.529 336.527 517.249C337.385 531.297 340.853 543.848 346.819 554.599C362.145 582.14 392.199 597.463 433.702 598.931C437.394 599.07 441.011 599.125 444.479 599.125C527.223 599.125 548.776 563.161 567.905 531.297L569.36 528.886C582.075 507.773 586.55 493.532 577.638 469.731C569.061 446.789 543.444 437.479 522.114 431.938C517.64 430.774 513.016 429.666 508.019 428.585C502.127 427.311 496.944 425.316 491.948 423.376C484.378 420.467 476.547 417.474 466.106 416.809C463.571 416.643 460.96 416.56 458.35 416.56V416.588Z" fill="url(#paint38_linear_2525_3709)"/>
</g>
<g opacity="0.98">
<path d="M442.84 589.067C440.118 589.067 437.359 589.039 434.562 588.956C396.416 587.959 365.503 573.551 349.73 549.445C342.869 538.972 339.326 527.335 339.214 514.866C338.916 488.932 358.269 461.723 389.704 443.907C412.674 430.885 441.61 423.625 467.041 424.456C477.892 424.817 486.469 427.31 495.567 429.97C498.774 430.912 502.093 431.882 505.486 432.741C509.625 433.794 513.727 434.958 517.68 436.26C542.216 444.212 558.362 456.376 565.708 472.446C574.098 490.816 574.023 506.166 565.409 525.423C552.06 555.264 525.958 589.122 442.84 589.122V589.067ZM390.263 444.434L390.822 444.988C359.835 462.554 340.78 489.32 341.041 514.838C341.191 527.085 344.659 538.528 351.371 548.836C366.808 572.498 397.161 586.601 434.562 587.571C522.975 589.87 549.972 555.291 563.582 524.924C572.047 505.972 572.159 490.899 563.881 472.834C556.721 457.179 540.911 445.265 516.896 437.479C513.018 436.204 508.954 435.041 504.852 434.016C501.384 433.129 498.066 432.159 494.859 431.217C485.909 428.613 477.445 426.147 466.929 425.786C441.871 424.955 413.419 432.131 390.785 444.96L390.226 444.406L390.263 444.434Z" fill="url(#paint39_linear_2525_3709)"/>
</g>
<path d="M440.304 578.317C438.701 578.317 437.098 578.317 435.457 578.289C400.927 577.818 369.53 564.712 353.57 544.07C345.851 534.123 342.234 523.428 342.831 512.345C343.912 491.398 367.33 466.101 401.114 449.393C439.447 430.441 480.278 427.449 513.093 441.192C529.835 448.202 543.931 460.227 552.768 475.106C561.643 490.013 564.44 506.416 560.599 521.35C556.199 538.639 535.615 578.317 440.267 578.317H440.304ZM468.905 435.457C447.576 435.457 424.979 440.915 403.165 451.693C370.835 467.68 347.567 492.645 346.523 512.428C345.963 523.012 349.431 533.181 356.777 542.685C372.103 562.468 402.27 575.047 435.494 575.49C503.621 576.405 547.846 556.483 556.944 520.796C560.599 506.416 557.914 490.595 549.338 476.187C540.798 461.862 527.262 450.28 511.228 443.575C498.214 438.116 483.821 435.429 468.868 435.429L468.905 435.457Z" fill="url(#paint40_linear_2525_3709)"/>
</g>
<defs>
<linearGradient id="paint0_linear_2525_3709" x1="-91.9946" y1="549.002" x2="1101.89" y2="549.002" gradientUnits="userSpaceOnUse">
<stop stop-color="#9232DD"/>
<stop offset="0.99" stop-color="#FAC434"/>
<stop offset="1" stop-color="#FAC434"/>
</linearGradient>
<linearGradient id="paint1_linear_2525_3709" x1="-80.0259" y1="547.921" x2="1088.16" y2="547.921" gradientUnits="userSpaceOnUse">
<stop stop-color="#9436D8"/>
<stop offset="0.99" stop-color="#F8C039"/>
<stop offset="1" stop-color="#F8C039"/>
</linearGradient>
<linearGradient id="paint2_linear_2525_3709" x1="-68.0216" y1="546.841" x2="1074.44" y2="546.841" gradientUnits="userSpaceOnUse">
<stop stop-color="#9739D4"/>
<stop offset="0.99" stop-color="#F5BD3D"/>
<stop offset="1" stop-color="#F5BD3D"/>
</linearGradient>
<linearGradient id="paint3_linear_2525_3709" x1="-55.9364" y1="545.788" x2="1060.76" y2="545.788" gradientUnits="userSpaceOnUse">
<stop stop-color="#9A3DD0"/>
<stop offset="0.99" stop-color="#F2B941"/>
<stop offset="1" stop-color="#F2B941"/>
</linearGradient>
<linearGradient id="paint4_linear_2525_3709" x1="-43.8938" y1="544.735" x2="1047.03" y2="544.735" gradientUnits="userSpaceOnUse">
<stop stop-color="#9C41CB"/>
<stop offset="0.99" stop-color="#F0B546"/>
<stop offset="1" stop-color="#EFB546"/>
</linearGradient>
<linearGradient id="paint5_linear_2525_3709" x1="-31.886" y1="543.627" x2="1033.31" y2="543.627" gradientUnits="userSpaceOnUse">
<stop stop-color="#9F45C7"/>
<stop offset="0.99" stop-color="#EDB14A"/>
<stop offset="1" stop-color="#EDB14A"/>
</linearGradient>
<linearGradient id="paint6_linear_2525_3709" x1="-19.8805" y1="542.546" x2="1019.59" y2="542.546" gradientUnits="userSpaceOnUse">
<stop stop-color="#A248C3"/>
<stop offset="0.99" stop-color="#EAAE4E"/>
<stop offset="1" stop-color="#EAAE4E"/>
</linearGradient>
<linearGradient id="paint7_linear_2525_3709" x1="-7.86994" y1="541.465" x2="1005.87" y2="541.465" gradientUnits="userSpaceOnUse">
<stop stop-color="#A44CBE"/>
<stop offset="0.99" stop-color="#E8AA53"/>
<stop offset="1" stop-color="#E7AA53"/>
</linearGradient>
<linearGradient id="paint8_linear_2525_3709" x1="4.13294" y1="540.413" x2="992.18" y2="540.413" gradientUnits="userSpaceOnUse">
<stop stop-color="#A750BA"/>
<stop offset="0.99" stop-color="#E5A657"/>
<stop offset="1" stop-color="#E5A657"/>
</linearGradient>
<linearGradient id="paint9_linear_2525_3709" x1="16.105" y1="539.332" x2="978.46" y2="539.332" gradientUnits="userSpaceOnUse">
<stop stop-color="#AA54B6"/>
<stop offset="0.99" stop-color="#E2A25B"/>
<stop offset="1" stop-color="#E2A25B"/>
</linearGradient>
<linearGradient id="paint10_linear_2525_3709" x1="28.1124" y1="538.141" x2="964.738" y2="538.141" gradientUnits="userSpaceOnUse">
<stop stop-color="#AD57B2"/>
<stop offset="0.99" stop-color="#DF9F5F"/>
<stop offset="1" stop-color="#DF9E60"/>
</linearGradient>
<linearGradient id="paint11_linear_2525_3709" x1="40.0837" y1="537.088" x2="951.054" y2="537.088" gradientUnits="userSpaceOnUse">
<stop stop-color="#AF5BAD"/>
<stop offset="0.99" stop-color="#DD9B64"/>
<stop offset="1" stop-color="#DD9B64"/>
</linearGradient>
<linearGradient id="paint12_linear_2525_3709" x1="52.0511" y1="536.035" x2="937.404" y2="536.035" gradientUnits="userSpaceOnUse">
<stop stop-color="#B25FA9"/>
<stop offset="0.99" stop-color="#DA9768"/>
<stop offset="1" stop-color="#DA9768"/>
</linearGradient>
<linearGradient id="paint13_linear_2525_3709" x1="64.0209" y1="535.01" x2="923.719" y2="535.01" gradientUnits="userSpaceOnUse">
<stop stop-color="#B563A5"/>
<stop offset="0.99" stop-color="#D7936C"/>
<stop offset="1" stop-color="#D7936D"/>
</linearGradient>
<linearGradient id="paint14_linear_2525_3709" x1="75.9538" y1="533.957" x2="909.997" y2="533.957" gradientUnits="userSpaceOnUse">
<stop stop-color="#B766A0"/>
<stop offset="0.99" stop-color="#D59071"/>
<stop offset="1" stop-color="#D48F71"/>
</linearGradient>
<linearGradient id="paint15_linear_2525_3709" x1="87.8855" y1="532.877" x2="896.311" y2="532.877" gradientUnits="userSpaceOnUse">
<stop stop-color="#BA6A9C"/>
<stop offset="0.99" stop-color="#D28C75"/>
<stop offset="1" stop-color="#D28C75"/>
</linearGradient>
<linearGradient id="paint16_linear_2525_3709" x1="99.8176" y1="531.823" x2="882.626" y2="531.823" gradientUnits="userSpaceOnUse">
<stop stop-color="#BD6E98"/>
<stop offset="0.99" stop-color="#CF8879"/>
<stop offset="1" stop-color="#CF887A"/>
</linearGradient>
<linearGradient id="paint17_linear_2525_3709" x1="111.751" y1="530.743" x2="868.904" y2="530.743" gradientUnits="userSpaceOnUse">
<stop stop-color="#BF7293"/>
<stop offset="0.99" stop-color="#CD847E"/>
<stop offset="1" stop-color="#CC847E"/>
</linearGradient>
<linearGradient id="paint18_linear_2525_3709" x1="123.647" y1="529.607" x2="855.257" y2="529.607" gradientUnits="userSpaceOnUse">
<stop stop-color="#C2758F"/>
<stop offset="0.99" stop-color="#CA8182"/>
<stop offset="1" stop-color="#CA8082"/>
</linearGradient>
<linearGradient id="paint19_linear_2525_3709" x1="135.542" y1="528.526" x2="841.572" y2="528.526" gradientUnits="userSpaceOnUse">
<stop stop-color="#C5798B"/>
<stop offset="0.99" stop-color="#C77D86"/>
<stop offset="1" stop-color="#C77C87"/>
</linearGradient>
<linearGradient id="paint20_linear_2525_3709" x1="147.401" y1="527.446" x2="827.888" y2="527.446" gradientUnits="userSpaceOnUse">
<stop stop-color="#C77D86"/>
<stop offset="0.99" stop-color="#C5798B"/>
<stop offset="1" stop-color="#C4798B"/>
</linearGradient>
<linearGradient id="paint21_linear_2525_3709" x1="159.221" y1="526.393" x2="814.128" y2="526.393" gradientUnits="userSpaceOnUse">
<stop stop-color="#CA8182"/>
<stop offset="0.99" stop-color="#C2758F"/>
<stop offset="1" stop-color="#C17590"/>
</linearGradient>
<linearGradient id="paint22_linear_2525_3709" x1="171.041" y1="525.34" x2="800.442" y2="525.34" gradientUnits="userSpaceOnUse">
<stop stop-color="#CD847E"/>
<stop offset="0.99" stop-color="#BF7293"/>
<stop offset="1" stop-color="#BF7194"/>
</linearGradient>
<linearGradient id="paint23_linear_2525_3709" x1="182.788" y1="524.287" x2="786.758" y2="524.287" gradientUnits="userSpaceOnUse">
<stop stop-color="#CF8879"/>
<stop offset="0.99" stop-color="#BD6E98"/>
<stop offset="1" stop-color="#BC6D98"/>
</linearGradient>
<linearGradient id="paint24_linear_2525_3709" x1="194.532" y1="523.234" x2="773.108" y2="523.234" gradientUnits="userSpaceOnUse">
<stop stop-color="#D28C75"/>
<stop offset="0.99" stop-color="#BA6A9C"/>
<stop offset="1" stop-color="#B9699D"/>
</linearGradient>
<linearGradient id="paint25_linear_2525_3709" x1="206.242" y1="522.098" x2="759.425" y2="522.098" gradientUnits="userSpaceOnUse">
<stop stop-color="#D59071"/>
<stop offset="0.99" stop-color="#B766A0"/>
<stop offset="1" stop-color="#B766A1"/>
</linearGradient>
<linearGradient id="paint26_linear_2525_3709" x1="217.839" y1="521.018" x2="745.777" y2="521.018" gradientUnits="userSpaceOnUse">
<stop stop-color="#D7936C"/>
<stop offset="0.99" stop-color="#B563A5"/>
<stop offset="1" stop-color="#B462A5"/>
</linearGradient>
<linearGradient id="paint27_linear_2525_3709" x1="229.659" y1="519.881" x2="732.128" y2="519.881" gradientUnits="userSpaceOnUse">
<stop stop-color="#DA9768"/>
<stop offset="0.99" stop-color="#B25FA9"/>
<stop offset="1" stop-color="#B15EAA"/>
</linearGradient>
<linearGradient id="paint28_linear_2525_3709" x1="241.107" y1="518.801" x2="718.481" y2="518.801" gradientUnits="userSpaceOnUse">
<stop stop-color="#DD9B64"/>
<stop offset="0.99" stop-color="#AF5BAD"/>
<stop offset="1" stop-color="#AE5AAE"/>
</linearGradient>
<linearGradient id="paint29_linear_2525_3709" x1="252.48" y1="517.748" x2="704.833" y2="517.748" gradientUnits="userSpaceOnUse">
<stop stop-color="#DF9F5F"/>
<stop offset="0.99" stop-color="#AD57B2"/>
<stop offset="1" stop-color="#AC57B2"/>
</linearGradient>
<linearGradient id="paint30_linear_2525_3709" x1="263.667" y1="516.639" x2="691.223" y2="516.639" gradientUnits="userSpaceOnUse">
<stop stop-color="#E2A25B"/>
<stop offset="0.99" stop-color="#AA54B6"/>
<stop offset="1" stop-color="#A953B7"/>
</linearGradient>
<linearGradient id="paint31_linear_2525_3709" x1="274.668" y1="515.559" x2="677.613" y2="515.559" gradientUnits="userSpaceOnUse">
<stop stop-color="#E5A657"/>
<stop offset="0.99" stop-color="#A750BA"/>
<stop offset="1" stop-color="#A64FBB"/>
</linearGradient>
<linearGradient id="paint32_linear_2525_3709" x1="285.407" y1="514.506" x2="664.039" y2="514.506" gradientUnits="userSpaceOnUse">
<stop stop-color="#E8AA53"/>
<stop offset="0.99" stop-color="#A44CBE"/>
<stop offset="1" stop-color="#A44BBF"/>
</linearGradient>
<linearGradient id="paint33_linear_2525_3709" x1="295.734" y1="513.398" x2="650.464" y2="513.398" gradientUnits="userSpaceOnUse">
<stop stop-color="#EAAE4E"/>
<stop offset="0.99" stop-color="#A248C3"/>
<stop offset="1" stop-color="#A147C4"/>
</linearGradient>
<linearGradient id="paint34_linear_2525_3709" x1="305.581" y1="512.317" x2="636.968" y2="512.317" gradientUnits="userSpaceOnUse">
<stop stop-color="#EDB14A"/>
<stop offset="0.99" stop-color="#9F45C7"/>
<stop offset="1" stop-color="#9E44C8"/>
</linearGradient>
<linearGradient id="paint35_linear_2525_3709" x1="314.639" y1="511.209" x2="623.616" y2="511.209" gradientUnits="userSpaceOnUse">
<stop stop-color="#F0B546"/>
<stop offset="0.99" stop-color="#9C41CB"/>
<stop offset="1" stop-color="#9C40CC"/>
</linearGradient>
<linearGradient id="paint36_linear_2525_3709" x1="322.583" y1="510.101" x2="610.23" y2="510.101" gradientUnits="userSpaceOnUse">
<stop stop-color="#F2B941"/>
<stop offset="0.99" stop-color="#9A3DD0"/>
<stop offset="1" stop-color="#993CD1"/>
</linearGradient>
<linearGradient id="paint37_linear_2525_3709" x1="329.108" y1="508.992" x2="597.029" y2="508.992" gradientUnits="userSpaceOnUse">
<stop stop-color="#F5BD3D"/>
<stop offset="0.99" stop-color="#9739D4"/>
<stop offset="1" stop-color="#9638D5"/>
</linearGradient>
<linearGradient id="paint38_linear_2525_3709" x1="334.476" y1="507.856" x2="584.163" y2="507.856" gradientUnits="userSpaceOnUse">
<stop stop-color="#F8C039"/>
<stop offset="0.99" stop-color="#9436D8"/>
<stop offset="1" stop-color="#9335D9"/>
</linearGradient>
<linearGradient id="paint39_linear_2525_3709" x1="339.177" y1="506.72" x2="571.898" y2="506.72" gradientUnits="userSpaceOnUse">
<stop stop-color="#FAC434"/>
<stop offset="0.99" stop-color="#9232DD"/>
<stop offset="1" stop-color="#9131DE"/>
</linearGradient>
<linearGradient id="paint40_linear_2525_3709" x1="342.756" y1="505.501" x2="562.277" y2="505.501" gradientUnits="userSpaceOnUse">
<stop stop-color="#FDC830"/>
<stop offset="1" stop-color="#8E2DE2"/>
</linearGradient>
<clipPath id="clip0_2525_3709">
<rect width="1063" height="948" fill="white"/>
</clipPath>
</defs>
</svg>
