<svg width="44" height="44" viewBox="0 0 44 44" fill="none" xmlns="http://www.w3.org/2000/svg">
<rect width="44" height="44" rx="8" fill="#FEECEB"/>
<path d="M17.154 26.846L23.462 23.462L26.846 17.154L20.538 20.538L17.154 26.846ZM22 23C21.7167 23 21.4793 22.904 21.288 22.712C21.0967 22.52 21.0007 22.2827 21 22C21 21.7167 21.096 21.4793 21.288 21.288C21.48 21.0967 21.7173 21.0007 22 21C22.2833 21 22.521 21.096 22.713 21.288C22.905 21.48 23.0007 21.7173 23 22C23 22.2833 22.904 22.521 22.712 22.713C22.52 22.905 22.2827 23.0007 22 23ZM22.003 31C20.759 31 19.589 30.764 18.493 30.292C17.3977 29.8193 16.4447 29.178 15.634 28.368C14.8233 27.5587 14.1817 26.6067 13.709 25.512C13.2363 24.4173 13 23.2477 13 22.003C13 20.759 13.236 19.589 13.708 18.493C14.1807 17.3977 14.822 16.4447 15.632 15.634C16.4413 14.8233 17.3933 14.1817 18.488 13.709C19.5827 13.2363 20.7523 13 21.997 13C23.241 13 24.411 13.236 25.507 13.708C26.6023 14.1807 27.5553 14.822 28.366 15.632C29.1767 16.4413 29.8183 17.3933 30.291 18.488C30.7637 19.5827 31 20.7523 31 21.997C31 23.241 30.764 24.411 30.292 25.507C29.8193 26.6023 29.178 27.5553 28.368 28.366C27.5587 29.1767 26.6067 29.8183 25.512 30.291C24.4173 30.7637 23.2477 31 22.003 31ZM22 30C24.2333 30 26.125 29.225 27.675 27.675C29.225 26.125 30 24.2333 30 22C30 19.7667 29.225 17.875 27.675 16.325C26.125 14.775 24.2333 14 22 14C19.7667 14 17.875 14.775 16.325 16.325C14.775 17.875 14 19.7667 14 22C14 24.2333 14.775 26.125 16.325 27.675C17.875 29.225 19.7667 30 22 30Z" fill="#F04438"/>
</svg>
