<svg width="40" height="40" viewBox="0 0 40 40" fill="none" xmlns="http://www.w3.org/2000/svg">
<rect width="40" height="40" rx="8" fill="#FEF9EC"/>
<g clip-path="url(#clip0_1790_2033)">
<path d="M17.0833 22.2222C17.0833 23.2961 17.9539 24.1667 19.0278 24.1667H20.8333C21.9839 24.1667 22.9167 23.2339 22.9167 22.0833C22.9167 20.9327 21.9839 20 20.8333 20H19.1667C18.0161 20 17.0833 19.0672 17.0833 17.9167C17.0833 16.7661 18.0161 15.8333 19.1667 15.8333H20.9722C22.0461 15.8333 22.9167 16.7039 22.9167 17.7778M20 14.5833V15.8333M20 24.1667V25.4167M28.3333 20C28.3333 24.6024 24.6024 28.3333 20 28.3333C15.3976 28.3333 11.6667 24.6024 11.6667 20C11.6667 15.3976 15.3976 11.6667 20 11.6667C24.6024 11.6667 28.3333 15.3976 28.3333 20Z" stroke="#FBB03B" stroke-width="2" stroke-linecap="round" stroke-linejoin="round"/>
</g>
<defs>
<clipPath id="clip0_1790_2033">
<rect width="20" height="20" fill="white" transform="translate(10 10)"/>
</clipPath>
</defs>
</svg>
