<svg width="135" height="21" viewBox="0 0 135 21" fill="none" xmlns="http://www.w3.org/2000/svg">
<rect width="135" height="21" rx="4" fill="url(#paint0_linear_5129_5766)" fill-opacity="0.3"/>
<path d="M4.68557 6.11204H6.7423L8.91457 11.4118H9.007L11.1793 6.11204H13.236V14H11.6183V8.8659H11.5529L9.51155 13.9615H8.41001L6.3687 8.84664H6.30322V14H4.68557V6.11204ZM18.4747 11.4811V8.08403H20.1154V14H18.5401V12.9254H18.4785C18.345 13.2721 18.1229 13.5507 17.8122 13.7612C17.5041 13.9718 17.1279 14.077 16.6837 14.077C16.2883 14.077 15.9404 13.9872 15.6399 13.8074C15.3395 13.6277 15.1046 13.3722 14.9351 13.041C14.7682 12.7097 14.6835 12.313 14.6809 11.8508V8.08403H16.3217V11.5581C16.3242 11.9073 16.4179 12.1834 16.6028 12.3862C16.7877 12.5891 17.0355 12.6905 17.3462 12.6905C17.5439 12.6905 17.7288 12.6455 17.9008 12.5557C18.0728 12.4632 18.2115 12.3271 18.3168 12.1474C18.4246 11.9677 18.4772 11.7456 18.4747 11.4811ZM26.4518 9.77101L24.9497 9.86345C24.924 9.73506 24.8688 9.61951 24.7841 9.51681C24.6993 9.41153 24.5876 9.32808 24.449 9.26646C24.3129 9.20226 24.1498 9.17017 23.9598 9.17017C23.7056 9.17017 23.4912 9.22409 23.3166 9.33193C23.142 9.43721 23.0547 9.57843 23.0547 9.7556C23.0547 9.89683 23.1112 10.0162 23.2242 10.1138C23.3372 10.2114 23.531 10.2897 23.8058 10.3487L24.8765 10.5644C25.4517 10.6825 25.8805 10.8725 26.1629 11.1345C26.4454 11.3964 26.5866 11.7404 26.5866 12.1667C26.5866 12.5544 26.4723 12.8946 26.2438 13.1873C26.0178 13.48 25.7072 13.7086 25.3117 13.8729C24.9189 14.0347 24.4657 14.1155 23.9521 14.1155C23.169 14.1155 22.545 13.9525 22.0803 13.6264C21.6181 13.2977 21.3472 12.851 21.2676 12.2861L22.8814 12.2013C22.9302 12.4401 23.0483 12.6224 23.2358 12.7482C23.4232 12.8715 23.6633 12.9331 23.956 12.9331C24.2436 12.9331 24.4747 12.8779 24.6493 12.7675C24.8264 12.6545 24.9163 12.5095 24.9189 12.3323C24.9163 12.1834 24.8534 12.0614 24.7301 11.9664C24.6069 11.8688 24.4169 11.7944 24.1601 11.743L23.1356 11.5389C22.5579 11.4233 22.1278 11.223 21.8453 10.938C21.5655 10.653 21.4255 10.2897 21.4255 9.84804C21.4255 9.46802 21.5282 9.14064 21.7336 8.8659C21.9416 8.59115 22.2331 8.37932 22.6079 8.23039C22.9854 8.08147 23.427 8.007 23.9329 8.007C24.6801 8.007 25.2681 8.16492 25.6969 8.48074C26.1283 8.79657 26.3799 9.22666 26.4518 9.77101ZM27.7214 14V8.08403H29.3622V14H27.7214ZM28.5457 7.32143C28.3017 7.32143 28.0925 7.24055 27.9179 7.07878C27.7458 6.91445 27.6598 6.71802 27.6598 6.4895C27.6598 6.26354 27.7458 6.06968 27.9179 5.90791C28.0925 5.74358 28.3017 5.66141 28.5457 5.66141C28.7896 5.66141 28.9976 5.74358 29.1696 5.90791C29.3442 6.06968 29.4315 6.26354 29.4315 6.4895C29.4315 6.71802 29.3442 6.91445 29.1696 7.07878C28.9976 7.24055 28.7896 7.32143 28.5457 7.32143ZM33.4512 14.1155C32.8452 14.1155 32.324 13.9872 31.8875 13.7304C31.4535 13.4711 31.1197 13.1116 30.8861 12.652C30.655 12.1923 30.5394 11.6634 30.5394 11.0651C30.5394 10.4592 30.6563 9.92764 30.8899 9.47059C31.1261 9.01097 31.4612 8.65278 31.8952 8.39601C32.3291 8.13667 32.8452 8.007 33.4435 8.007C33.9596 8.007 34.4115 8.10072 34.7992 8.28816C35.187 8.47561 35.4938 8.7388 35.7197 9.07773C35.9457 9.41667 36.0702 9.81466 36.0933 10.2717H34.545C34.5014 9.97642 34.3858 9.73891 34.1984 9.55917C34.0135 9.37687 33.7709 9.28571 33.4704 9.28571C33.2162 9.28571 32.9941 9.35504 32.8041 9.4937C32.6167 9.62979 32.4703 9.82878 32.3651 10.0907C32.2598 10.3526 32.2071 10.6697 32.2071 11.042C32.2071 11.4195 32.2585 11.7404 32.3612 12.0049C32.4665 12.2694 32.6141 12.4709 32.8041 12.6096C32.9941 12.7482 33.2162 12.8176 33.4704 12.8176C33.6579 12.8176 33.8261 12.7791 33.975 12.702C34.1265 12.625 34.251 12.5133 34.3486 12.3669C34.4487 12.218 34.5142 12.0396 34.545 11.8316H36.0933C36.0677 12.2835 35.9444 12.6815 35.7236 13.0256C35.5053 13.3671 35.2036 13.6341 34.8185 13.8267C34.4333 14.0193 33.9776 14.1155 33.4512 14.1155ZM40.6811 5.7423L38.1391 15.1863H36.7256L39.2676 5.7423H40.6811ZM43.1245 6.11204L45.031 12.105H45.1042L47.0146 6.11204H48.8633L46.1441 14H43.995L41.2719 6.11204H43.1245ZM49.8836 14V8.08403H51.5244V14H49.8836ZM50.7078 7.32143C50.4639 7.32143 50.2546 7.24055 50.08 7.07878C49.908 6.91445 49.822 6.71802 49.822 6.4895C49.822 6.26354 49.908 6.06968 50.08 5.90791C50.2546 5.74358 50.4639 5.66141 50.7078 5.66141C50.9518 5.66141 51.1597 5.74358 51.3318 5.90791C51.5064 6.06968 51.5937 6.26354 51.5937 6.4895C51.5937 6.71802 51.5064 6.91445 51.3318 7.07878C51.1597 7.24055 50.9518 7.32143 50.7078 7.32143ZM55.1203 14.0963C54.671 14.0963 54.264 13.9807 53.8994 13.7496C53.5374 13.516 53.2498 13.1732 53.0367 12.7213C52.8261 12.2668 52.7208 11.7096 52.7208 11.0497C52.7208 10.3718 52.83 9.80824 53.0482 9.35889C53.2665 8.90698 53.5566 8.56933 53.9187 8.34594C54.2833 8.11998 54.6826 8.007 55.1165 8.007C55.4477 8.007 55.7238 8.06349 55.9446 8.17647C56.168 8.28688 56.3477 8.42554 56.4838 8.59244C56.6224 8.75677 56.7277 8.91853 56.7996 9.07773H56.8497V6.11204H58.4866V14H56.8689V13.0525H56.7996C56.7226 13.2169 56.6135 13.3799 56.4722 13.5417C56.3336 13.7009 56.1526 13.8331 55.9292 13.9384C55.7083 14.0437 55.4387 14.0963 55.1203 14.0963ZM55.6403 12.7906C55.9048 12.7906 56.1282 12.7187 56.3105 12.5749C56.4953 12.4286 56.6366 12.2244 56.7341 11.9625C56.8343 11.7006 56.8843 11.3938 56.8843 11.042C56.8843 10.6902 56.8356 10.3847 56.738 10.1253C56.6404 9.86601 56.4992 9.66573 56.3143 9.52451C56.1294 9.38329 55.9048 9.31267 55.6403 9.31267C55.3707 9.31267 55.1435 9.38585 54.9586 9.53221C54.7737 9.67857 54.6338 9.88142 54.5388 10.1408C54.4438 10.4001 54.3963 10.7005 54.3963 11.042C54.3963 11.3861 54.4438 11.6904 54.5388 11.9548C54.6363 12.2167 54.7763 12.4222 54.9586 12.5711C55.1435 12.7174 55.3707 12.7906 55.6403 12.7906ZM62.6334 14.1155C62.0248 14.1155 61.501 13.9923 61.0619 13.7458C60.6254 13.4967 60.289 13.145 60.0528 12.6905C59.8166 12.2334 59.6985 11.6929 59.6985 11.069C59.6985 10.4604 59.8166 9.92635 60.0528 9.46674C60.289 9.00712 60.6216 8.64893 61.0504 8.39216C61.4817 8.13539 61.9876 8.007 62.5679 8.007C62.9582 8.007 63.3215 8.06991 63.6579 8.19573C63.9968 8.31898 64.2921 8.50514 64.5437 8.7542C64.7979 9.00327 64.9956 9.31653 65.1369 9.69398C65.2781 10.0689 65.3487 10.5079 65.3487 11.0112V11.4618H60.3532V10.445H63.8042C63.8042 10.2088 63.7529 9.99953 63.6502 9.81723C63.5475 9.63492 63.4049 9.49241 63.2226 9.38971C63.0429 9.28443 62.8336 9.23179 62.5948 9.23179C62.3458 9.23179 62.1249 9.28957 61.9324 9.40511C61.7424 9.51809 61.5934 9.67087 61.4856 9.86345C61.3778 10.0535 61.3225 10.2653 61.32 10.4989V11.4657C61.32 11.7584 61.3739 12.0113 61.4817 12.2244C61.5922 12.4376 61.7475 12.6019 61.9478 12.7174C62.1481 12.833 62.3856 12.8908 62.6603 12.8908C62.8426 12.8908 63.0095 12.8651 63.161 12.8137C63.3125 12.7624 63.4422 12.6853 63.55 12.5826C63.6579 12.4799 63.74 12.3541 63.7965 12.2052L65.314 12.3053C65.237 12.6699 65.0791 12.9883 64.8403 13.2605C64.6041 13.5301 64.2985 13.7407 63.9236 13.8922C63.5513 14.0411 63.1212 14.1155 62.6334 14.1155ZM69.1941 14.1155C68.5958 14.1155 68.0784 13.9884 67.6419 13.7342C67.208 13.4775 66.8729 13.1206 66.6366 12.6635C66.4004 12.2039 66.2823 11.6711 66.2823 11.0651C66.2823 10.454 66.4004 9.91993 66.6366 9.46288C66.8729 9.00327 67.208 8.64636 67.6419 8.39216C68.0784 8.13539 68.5958 8.007 69.1941 8.007C69.7923 8.007 70.3084 8.13539 70.7424 8.39216C71.1789 8.64636 71.5153 9.00327 71.7515 9.46288C71.9877 9.91993 72.1058 10.454 72.1058 11.0651C72.1058 11.6711 71.9877 12.2039 71.7515 12.6635C71.5153 13.1206 71.1789 13.4775 70.7424 13.7342C70.3084 13.9884 69.7923 14.1155 69.1941 14.1155ZM69.2018 12.8445C69.4739 12.8445 69.7012 12.7675 69.8835 12.6134C70.0658 12.4568 70.2032 12.2437 70.2956 11.9741C70.3906 11.7045 70.4381 11.3976 70.4381 11.0536C70.4381 10.7095 70.3906 10.4027 70.2956 10.1331C70.2032 9.86345 70.0658 9.65033 69.8835 9.4937C69.7012 9.33707 69.4739 9.25875 69.2018 9.25875C68.927 9.25875 68.6959 9.33707 68.5085 9.4937C68.3236 9.65033 68.1837 9.86345 68.0887 10.1331C67.9962 10.4027 67.95 10.7095 67.95 11.0536C67.95 11.3976 67.9962 11.7045 68.0887 11.9741C68.1837 12.2437 68.3236 12.4568 68.5085 12.6134C68.6959 12.7675 68.927 12.8445 69.2018 12.8445ZM80.1962 8.3806C80.1654 8.06991 80.0331 7.82855 79.7995 7.65651C79.5658 7.48448 79.2487 7.39846 78.8481 7.39846C78.576 7.39846 78.3462 7.43697 78.1587 7.51401C77.9713 7.58847 77.8275 7.69246 77.7274 7.82598C77.6298 7.9595 77.581 8.11099 77.581 8.28046C77.5759 8.42169 77.6054 8.54493 77.6696 8.65021C77.7363 8.75549 77.8275 8.84664 77.943 8.92367C78.0586 8.99813 78.1921 9.06361 78.3436 9.1201C78.4951 9.17402 78.6569 9.22024 78.8289 9.25875L79.5376 9.42822C79.8816 9.50525 80.1975 9.60796 80.4851 9.73634C80.7726 9.86473 81.0217 10.0226 81.2323 10.2101C81.4428 10.3975 81.6059 10.6183 81.7214 10.8725C81.8395 11.1268 81.8999 11.4182 81.9024 11.7468C81.8999 12.2296 81.7766 12.6481 81.5327 13.0025C81.2913 13.3542 80.9421 13.6277 80.4851 13.8228C80.0306 14.0154 79.4824 14.1117 78.8404 14.1117C78.2037 14.1117 77.649 14.0141 77.1766 13.819C76.7067 13.6238 76.3395 13.335 76.075 12.9524C75.8131 12.5672 75.6758 12.0909 75.6629 11.5235H77.2767C77.2947 11.7879 77.3704 12.0088 77.504 12.1859C77.64 12.3605 77.8211 12.4928 78.047 12.5826C78.2756 12.6699 78.5336 12.7136 78.8212 12.7136C79.1036 12.7136 79.3488 12.6725 79.5568 12.5903C79.7674 12.5082 79.9304 12.3939 80.046 12.2475C80.1615 12.1012 80.2193 11.933 80.2193 11.743C80.2193 11.5658 80.1667 11.4169 80.0614 11.2962C79.9587 11.1755 79.8072 11.0728 79.6069 10.9881C79.4092 10.9034 79.1665 10.8263 78.879 10.757L78.0201 10.5413C77.355 10.3796 76.8299 10.1266 76.4448 9.78256C76.0596 9.43849 75.8683 8.97502 75.8709 8.39216C75.8683 7.91457 75.9954 7.49732 76.2522 7.14041C76.5115 6.7835 76.8672 6.5049 77.3191 6.30462C77.771 6.10434 78.2845 6.0042 78.8597 6.0042C79.4451 6.0042 79.9561 6.10434 80.3926 6.30462C80.8317 6.5049 81.1732 6.7835 81.4171 7.14041C81.6611 7.49732 81.7869 7.91071 81.7946 8.3806H80.1962ZM86.2418 8.08403V9.31653H82.6791V8.08403H86.2418ZM83.4879 6.66667H85.1287V12.1821C85.1287 12.3336 85.1518 12.4517 85.198 12.5364C85.2442 12.6186 85.3084 12.6764 85.3906 12.7097C85.4753 12.7431 85.5729 12.7598 85.6833 12.7598C85.7603 12.7598 85.8373 12.7534 85.9144 12.7405C85.9914 12.7251 86.0505 12.7136 86.0915 12.7059L86.3496 13.9268C86.2674 13.9525 86.1519 13.982 86.003 14.0154C85.854 14.0514 85.673 14.0732 85.4599 14.0809C85.0645 14.0963 84.7178 14.0437 84.42 13.923C84.1247 13.8023 83.8949 13.6148 83.7306 13.3606C83.5662 13.1064 83.4853 12.7855 83.4879 12.3978V6.66667ZM87.4122 14V8.08403H89.0029V9.11625H89.0645C89.1724 8.74907 89.3534 8.47176 89.6076 8.28431C89.8618 8.0943 90.1545 7.9993 90.4858 7.9993C90.5679 7.9993 90.6565 8.00443 90.7515 8.01471C90.8465 8.02498 90.93 8.0391 91.0019 8.05707V9.51295C90.9248 9.48985 90.8183 9.4693 90.6822 9.45133C90.5461 9.43336 90.4216 9.42437 90.3086 9.42437C90.0672 9.42437 89.8515 9.47701 89.6615 9.58228C89.4741 9.68499 89.3252 9.82878 89.2148 10.0137C89.1069 10.1985 89.053 10.4116 89.053 10.653V14H87.4122ZM94.3726 14.1155C93.764 14.1155 93.2402 13.9923 92.8011 13.7458C92.3646 13.4967 92.0282 13.145 91.792 12.6905C91.5558 12.2334 91.4377 11.6929 91.4377 11.069C91.4377 10.4604 91.5558 9.92635 91.792 9.46674C92.0282 9.00712 92.3608 8.64893 92.7896 8.39216C93.2209 8.13539 93.7268 8.007 94.3071 8.007C94.6974 8.007 95.0607 8.06991 95.3971 8.19573C95.736 8.31898 96.0313 8.50514 96.2829 8.7542C96.5371 9.00327 96.7348 9.31653 96.8761 9.69398C97.0173 10.0689 97.0879 10.5079 97.0879 11.0112V11.4618H92.0924V10.445H95.5434C95.5434 10.2088 95.4921 9.99953 95.3894 9.81723C95.2867 9.63492 95.1441 9.49241 94.9618 9.38971C94.7821 9.28443 94.5728 9.23179 94.334 9.23179C94.085 9.23179 93.8642 9.28957 93.6716 9.40511C93.4816 9.51809 93.3326 9.67087 93.2248 9.86345C93.117 10.0535 93.0617 10.2653 93.0592 10.4989V11.4657C93.0592 11.7584 93.1131 12.0113 93.2209 12.2244C93.3314 12.4376 93.4867 12.6019 93.687 12.7174C93.8873 12.833 94.1248 12.8908 94.3995 12.8908C94.5818 12.8908 94.7487 12.8651 94.9002 12.8137C95.0517 12.7624 95.1814 12.6853 95.2892 12.5826C95.3971 12.4799 95.4792 12.3541 95.5357 12.2052L97.0532 12.3053C96.9762 12.6699 96.8183 12.9883 96.5795 13.2605C96.3433 13.5301 96.0377 13.7407 95.6628 13.8922C95.2905 14.0411 94.8604 14.1155 94.3726 14.1155ZM99.9473 14.1117C99.5698 14.1117 99.2335 14.0462 98.9382 13.9153C98.6429 13.7817 98.4092 13.5853 98.2372 13.326C98.0677 13.0641 97.983 12.738 97.983 12.3477C97.983 12.019 98.0433 11.743 98.164 11.5196C98.2847 11.2962 98.449 11.1165 98.657 10.9804C98.865 10.8443 99.1012 10.7416 99.3657 10.6723C99.6327 10.6029 99.9126 10.5542 100.205 10.5259C100.549 10.49 100.827 10.4566 101.037 10.4258C101.248 10.3924 101.401 10.3436 101.496 10.2794C101.591 10.2152 101.638 10.1202 101.638 9.9944V9.97129C101.638 9.72736 101.561 9.53863 101.407 9.40511C101.256 9.27159 101.04 9.20483 100.76 9.20483C100.465 9.20483 100.23 9.27031 100.055 9.40126C99.8805 9.52965 99.765 9.69141 99.7085 9.88655L98.191 9.76331C98.268 9.40383 98.4195 9.09314 98.6455 8.83123C98.8714 8.56676 99.1628 8.36391 99.5198 8.22269C99.8792 8.0789 100.295 8.007 100.768 8.007C101.096 8.007 101.411 8.04552 101.711 8.12255C102.014 8.19958 102.283 8.31898 102.516 8.48074C102.752 8.64251 102.939 8.85049 103.075 9.10469C103.211 9.35633 103.279 9.65803 103.279 10.0098V14H101.723V13.1796H101.677C101.582 13.3645 101.455 13.5275 101.295 13.6688C101.136 13.8074 100.945 13.9165 100.721 13.9961C100.498 14.0732 100.24 14.1117 99.9473 14.1117ZM100.417 12.9793C100.659 12.9793 100.872 12.9318 101.057 12.8368C101.241 12.7393 101.386 12.6083 101.492 12.444C101.597 12.2796 101.65 12.0935 101.65 11.8855V11.2577C101.598 11.2911 101.528 11.3219 101.438 11.3501C101.351 11.3758 101.252 11.4002 101.141 11.4233C101.031 11.4439 100.92 11.4631 100.81 11.4811C100.7 11.4965 100.599 11.5106 100.51 11.5235C100.317 11.5517 100.149 11.5966 100.005 11.6583C99.8613 11.7199 99.7496 11.8033 99.67 11.9086C99.5904 12.0113 99.5506 12.1397 99.5506 12.2938C99.5506 12.5172 99.6314 12.6879 99.7932 12.806C99.9575 12.9216 100.166 12.9793 100.417 12.9793ZM104.653 14V8.08403H106.217V9.1278H106.287C106.41 8.78116 106.615 8.5077 106.903 8.30742C107.19 8.10714 107.534 8.007 107.935 8.007C108.341 8.007 108.686 8.10843 108.971 8.31127C109.256 8.51155 109.446 8.78373 109.541 9.1278H109.603C109.723 8.78887 109.942 8.51797 110.257 8.31513C110.576 8.10971 110.952 8.007 111.386 8.007C111.938 8.007 112.386 8.18289 112.73 8.53466C113.077 8.88387 113.25 9.37943 113.25 10.0214V14H111.613V10.3449C111.613 10.0162 111.526 9.76972 111.351 9.60539C111.177 9.44106 110.958 9.35889 110.697 9.35889C110.399 9.35889 110.166 9.4539 109.999 9.64391C109.833 9.83135 109.749 10.0791 109.749 10.3873V14H108.158V10.3102C108.158 10.0201 108.075 9.78898 107.908 9.61695C107.744 9.44491 107.527 9.35889 107.257 9.35889C107.075 9.35889 106.91 9.40511 106.764 9.49755C106.62 9.58742 106.506 9.71452 106.421 9.87885C106.337 10.0406 106.294 10.2306 106.294 10.4489V14H104.653ZM114.648 14V8.08403H116.289V14H114.648ZM115.472 7.32143C115.228 7.32143 115.019 7.24055 114.844 7.07878C114.672 6.91445 114.586 6.71802 114.586 6.4895C114.586 6.26354 114.672 6.06968 114.844 5.90791C115.019 5.74358 115.228 5.66141 115.472 5.66141C115.716 5.66141 115.924 5.74358 116.096 5.90791C116.271 6.06968 116.358 6.26354 116.358 6.4895C116.358 6.71802 116.271 6.91445 116.096 7.07878C115.924 7.24055 115.716 7.32143 115.472 7.32143ZM119.345 10.5798V14H117.705V8.08403H119.268V9.1278H119.338C119.469 8.78373 119.688 8.51155 119.996 8.31127C120.304 8.10843 120.678 8.007 121.117 8.007C121.528 8.007 121.886 8.09687 122.192 8.27661C122.497 8.45635 122.735 8.71312 122.904 9.04692C123.074 9.37815 123.158 9.77358 123.158 10.2332V14H121.518V10.5259C121.52 10.1639 121.428 9.88142 121.24 9.67857C121.053 9.47316 120.795 9.37045 120.466 9.37045C120.245 9.37045 120.05 9.41795 119.881 9.51295C119.714 9.60796 119.583 9.74662 119.488 9.92892C119.395 10.1087 119.348 10.3256 119.345 10.5798ZM127.218 16.3417C126.687 16.3417 126.231 16.2686 125.851 16.1222C125.474 15.9784 125.173 15.782 124.95 15.5329C124.727 15.2838 124.581 15.004 124.515 14.6933L126.032 14.4891C126.078 14.6073 126.152 14.7177 126.252 14.8204C126.352 14.9231 126.484 15.0053 126.648 15.0669C126.815 15.1311 127.018 15.1632 127.257 15.1632C127.614 15.1632 127.908 15.0759 128.139 14.9013C128.373 14.7292 128.489 14.4404 128.489 14.0347V12.9524H128.42C128.348 13.1167 128.24 13.2721 128.097 13.4184C127.953 13.5648 127.768 13.6842 127.542 13.7766C127.316 13.869 127.046 13.9153 126.733 13.9153C126.289 13.9153 125.885 13.8126 125.52 13.6071C125.158 13.3992 124.869 13.082 124.653 12.6558C124.44 12.227 124.334 11.6852 124.334 11.0305C124.334 10.3603 124.443 9.80054 124.661 9.35119C124.879 8.90184 125.169 8.56548 125.532 8.34209C125.896 8.1187 126.295 8.007 126.729 8.007C127.061 8.007 127.338 8.06349 127.561 8.17647C127.785 8.28688 127.964 8.42554 128.1 8.59244C128.239 8.75677 128.346 8.91853 128.42 9.07773H128.482V8.08403H130.111V14.0578C130.111 14.561 129.988 14.9821 129.741 15.3211C129.495 15.66 129.153 15.9142 128.717 16.0837C128.283 16.2557 127.783 16.3417 127.218 16.3417ZM127.253 12.6828C127.518 12.6828 127.741 12.6173 127.923 12.4863C128.108 12.3528 128.249 12.1628 128.347 11.9163C128.447 11.6673 128.497 11.3694 128.497 11.0228C128.497 10.6761 128.448 10.3757 128.351 10.1215C128.253 9.86473 128.112 9.66573 127.927 9.52451C127.742 9.38329 127.518 9.31267 127.253 9.31267C126.984 9.31267 126.756 9.38585 126.571 9.53221C126.387 9.676 126.247 9.87628 126.152 10.1331C126.057 10.3898 126.009 10.6864 126.009 11.0228C126.009 11.3643 126.057 11.6595 126.152 11.9086C126.249 12.1551 126.389 12.3464 126.571 12.4825C126.756 12.616 126.984 12.6828 127.253 12.6828Z" fill="white"/>
<defs>
<linearGradient id="paint0_linear_5129_5766" x1="67.5" y1="0" x2="67.5" y2="21" gradientUnits="userSpaceOnUse">
<stop stop-color="#E22BCC"/>
<stop offset="1" stop-color="#FBB03B"/>
</linearGradient>
</defs>
</svg>
