<svg width="88" height="21" viewBox="0 0 88 21" fill="none" xmlns="http://www.w3.org/2000/svg">
<rect width="88" height="21" rx="4" fill="#34C759" fill-opacity="0.3"/>
<path d="M8.96464 8.3806C8.93382 8.06991 8.80159 7.82855 8.56793 7.65651C8.33427 7.48448 8.01716 7.39846 7.6166 7.39846C7.34442 7.39846 7.11461 7.43697 6.92717 7.51401C6.73973 7.58847 6.59594 7.69246 6.4958 7.82598C6.39823 7.9595 6.34944 8.11099 6.34944 8.28046C6.3443 8.42169 6.37383 8.54493 6.43803 8.65021C6.50479 8.75549 6.59594 8.84664 6.71148 8.92367C6.82703 8.99813 6.96055 9.06361 7.11204 9.1201C7.26354 9.17402 7.4253 9.22024 7.59734 9.25875L8.30602 9.42822C8.65009 9.50525 8.96592 9.60796 9.2535 9.73634C9.54108 9.86473 9.79015 10.0226 10.0007 10.2101C10.2113 10.3975 10.3743 10.6183 10.4898 10.8725C10.608 11.1268 10.6683 11.4182 10.6709 11.7468C10.6683 12.2296 10.5451 12.6481 10.3011 13.0025C10.0598 13.3542 9.71055 13.6277 9.2535 13.8228C8.79902 14.0154 8.25082 14.1117 7.60889 14.1117C6.97211 14.1117 6.41748 14.0141 5.94503 13.819C5.47514 13.6238 5.10796 13.335 4.84349 12.9524C4.58158 12.5672 4.44421 12.0909 4.43137 11.5235H6.04517C6.06314 11.7879 6.13889 12.0088 6.27241 12.1859C6.4085 12.3605 6.58952 12.4928 6.81548 12.5826C7.044 12.6699 7.30205 12.7136 7.58964 12.7136C7.87208 12.7136 8.1173 12.6725 8.32528 12.5903C8.53583 12.5082 8.69888 12.3939 8.81443 12.2475C8.92997 12.1012 8.98775 11.933 8.98775 11.743C8.98775 11.5658 8.93511 11.4169 8.82983 11.2962C8.72712 11.1755 8.57563 11.0728 8.37535 10.9881C8.17764 10.9034 7.93499 10.8263 7.64741 10.757L6.78852 10.5413C6.12348 10.3796 5.59839 10.1266 5.21324 9.78256C4.82808 9.43849 4.63679 8.97502 4.63936 8.39216C4.63679 7.91457 4.76389 7.49732 5.02066 7.14041C5.28 6.7835 5.63562 6.5049 6.08754 6.30462C6.53945 6.10434 7.05299 6.0042 7.62815 6.0042C8.21359 6.0042 8.72456 6.10434 9.16106 6.30462C9.60014 6.5049 9.94164 6.7835 10.1856 7.14041C10.4295 7.49732 10.5553 7.91071 10.563 8.3806H8.96464ZM15.0102 8.08403V9.31653H11.4475V8.08403H15.0102ZM12.2564 6.66667H13.8971V12.1821C13.8971 12.3336 13.9202 12.4517 13.9664 12.5364C14.0127 12.6186 14.0769 12.6764 14.159 12.7097C14.2438 12.7431 14.3413 12.7598 14.4517 12.7598C14.5288 12.7598 14.6058 12.7534 14.6828 12.7405C14.7599 12.7251 14.8189 12.7136 14.86 12.7059L15.1181 13.9268C15.0359 13.9525 14.9203 13.982 14.7714 14.0154C14.6225 14.0514 14.4415 14.0732 14.2283 14.0809C13.8329 14.0963 13.4863 14.0437 13.1884 13.923C12.8931 13.8023 12.6633 13.6148 12.499 13.3606C12.3347 13.1064 12.2538 12.7855 12.2564 12.3978V6.66667ZM16.1807 14V8.08403H17.7714V9.11625H17.833C17.9408 8.74907 18.1219 8.47176 18.3761 8.28431C18.6303 8.0943 18.923 7.9993 19.2542 7.9993C19.3364 7.9993 19.425 8.00443 19.52 8.01471C19.615 8.02498 19.6984 8.0391 19.7703 8.05707V9.51295C19.6933 9.48985 19.5867 9.4693 19.4506 9.45133C19.3146 9.43336 19.19 9.42437 19.077 9.42437C18.8357 9.42437 18.62 9.47701 18.43 9.58228C18.2425 9.68499 18.0936 9.82878 17.9832 10.0137C17.8754 10.1985 17.8214 10.4116 17.8214 10.653V14H16.1807ZM23.141 14.1155C22.5325 14.1155 22.0086 13.9923 21.5696 13.7458C21.1331 13.4967 20.7967 13.145 20.5605 12.6905C20.3242 12.2334 20.2061 11.6929 20.2061 11.069C20.2061 10.4604 20.3242 9.92635 20.5605 9.46674C20.7967 9.00712 21.1292 8.64893 21.558 8.39216C21.9894 8.13539 22.4952 8.007 23.0755 8.007C23.4658 8.007 23.8291 8.06991 24.1655 8.19573C24.5044 8.31898 24.7997 8.50514 25.0514 8.7542C25.3056 9.00327 25.5033 9.31653 25.6445 9.69398C25.7857 10.0689 25.8563 10.5079 25.8563 11.0112V11.4618H20.8609V10.445H24.3119C24.3119 10.2088 24.2605 9.99953 24.1578 9.81723C24.0551 9.63492 23.9126 9.49241 23.7303 9.38971C23.5505 9.28443 23.3413 9.23179 23.1025 9.23179C22.8534 9.23179 22.6326 9.28957 22.44 9.40511C22.25 9.51809 22.1011 9.67087 21.9932 9.86345C21.8854 10.0535 21.8302 10.2653 21.8276 10.4989V11.4657C21.8276 11.7584 21.8815 12.0113 21.9894 12.2244C22.0998 12.4376 22.2551 12.6019 22.4554 12.7174C22.6557 12.833 22.8932 12.8908 23.168 12.8908C23.3503 12.8908 23.5172 12.8651 23.6687 12.8137C23.8202 12.7624 23.9498 12.6853 24.0577 12.5826C24.1655 12.4799 24.2477 12.3541 24.3042 12.2052L25.8217 12.3053C25.7446 12.6699 25.5867 12.9883 25.3479 13.2605C25.1117 13.5301 24.8062 13.7407 24.4313 13.8922C24.059 14.0411 23.6289 14.1155 23.141 14.1155ZM28.7157 14.1117C28.3383 14.1117 28.0019 14.0462 27.7066 13.9153C27.4113 13.7817 27.1777 13.5853 27.0056 13.326C26.8362 13.0641 26.7514 12.738 26.7514 12.3477C26.7514 12.019 26.8118 11.743 26.9325 11.5196C27.0531 11.2962 27.2175 11.1165 27.4255 10.9804C27.6334 10.8443 27.8697 10.7416 28.1341 10.6723C28.4012 10.6029 28.6811 10.5542 28.9738 10.5259C29.3178 10.49 29.5952 10.4566 29.8057 10.4258C30.0163 10.3924 30.169 10.3436 30.264 10.2794C30.359 10.2152 30.4065 10.1202 30.4065 9.9944V9.97129C30.4065 9.72736 30.3295 9.53863 30.1755 9.40511C30.024 9.27159 29.8083 9.20483 29.5284 9.20483C29.2331 9.20483 28.9982 9.27031 28.8236 9.40126C28.649 9.52965 28.5334 9.69141 28.4769 9.88655L26.9594 9.76331C27.0365 9.40383 27.1879 9.09314 27.4139 8.83123C27.6399 8.56676 27.9313 8.36391 28.2882 8.22269C28.6477 8.0789 29.0636 8.007 29.5361 8.007C29.8648 8.007 30.1793 8.04552 30.4797 8.12255C30.7827 8.19958 31.051 8.31898 31.2847 8.48074C31.5209 8.64251 31.7071 8.85049 31.8432 9.10469C31.9793 9.35633 32.0473 9.65803 32.0473 10.0098V14H30.4913V13.1796H30.4451C30.3501 13.3645 30.223 13.5275 30.0638 13.6688C29.9046 13.8074 29.7133 13.9165 29.4899 13.9961C29.2665 14.0732 29.0084 14.1117 28.7157 14.1117ZM29.1856 12.9793C29.427 12.9793 29.6401 12.9318 29.825 12.8368C30.0098 12.7393 30.1549 12.6083 30.2602 12.444C30.3655 12.2796 30.4181 12.0935 30.4181 11.8855V11.2577C30.3667 11.2911 30.2961 11.3219 30.2063 11.3501C30.119 11.3758 30.0201 11.4002 29.9097 11.4233C29.7993 11.4439 29.6889 11.4631 29.5785 11.4811C29.4681 11.4965 29.3679 11.5106 29.278 11.5235C29.0855 11.5517 28.9173 11.5966 28.7735 11.6583C28.6297 11.7199 28.518 11.8033 28.4384 11.9086C28.3588 12.0113 28.319 12.1397 28.319 12.2938C28.319 12.5172 28.3999 12.6879 28.5617 12.806C28.726 12.9216 28.934 12.9793 29.1856 12.9793ZM33.4219 14V8.08403H34.9856V9.1278H35.055C35.1782 8.78116 35.3836 8.5077 35.6712 8.30742C35.9588 8.10714 36.3029 8.007 36.7034 8.007C37.1091 8.007 37.4545 8.10843 37.7395 8.31127C38.0245 8.51155 38.2145 8.78373 38.3095 9.1278H38.3712C38.4918 8.78887 38.7101 8.51797 39.0259 8.31513C39.3443 8.10971 39.7205 8.007 40.1544 8.007C40.7065 8.007 41.1545 8.18289 41.4986 8.53466C41.8452 8.88387 42.0186 9.37943 42.0186 10.0214V14H40.3817V10.3449C40.3817 10.0162 40.2944 9.76972 40.1197 9.60539C39.9451 9.44106 39.7269 9.35889 39.465 9.35889C39.1671 9.35889 38.9348 9.4539 38.7679 9.64391C38.601 9.83135 38.5175 10.0791 38.5175 10.3873V14H36.9268V10.3102C36.9268 10.0201 36.8434 9.78898 36.6765 9.61695C36.5121 9.44491 36.2952 9.35889 36.0256 9.35889C35.8433 9.35889 35.6789 9.40511 35.5326 9.49755C35.3888 9.58742 35.2745 9.71452 35.1898 9.87885C35.105 10.0406 35.0627 10.2306 35.0627 10.4489V14H33.4219ZM49.1749 8.08403V9.31653H45.6122V8.08403H49.1749ZM46.4211 6.66667H48.0618V12.1821C48.0618 12.3336 48.0849 12.4517 48.1311 12.5364C48.1774 12.6186 48.2416 12.6764 48.3237 12.7097C48.4085 12.7431 48.506 12.7598 48.6164 12.7598C48.6935 12.7598 48.7705 12.7534 48.8475 12.7405C48.9246 12.7251 48.9836 12.7136 49.0247 12.7059L49.2828 13.9268C49.2006 13.9525 49.085 13.982 48.9361 14.0154C48.7872 14.0514 48.6062 14.0732 48.3931 14.0809C47.9976 14.0963 47.651 14.0437 47.3531 13.923C47.0579 13.8023 46.828 13.6148 46.6637 13.3606C46.4994 13.1064 46.4185 12.7855 46.4211 12.3978V6.66667ZM52.9548 14.1155C52.3565 14.1155 51.8392 13.9884 51.4026 13.7342C50.9687 13.4775 50.6336 13.1206 50.3974 12.6635C50.1612 12.2039 50.0431 11.6711 50.0431 11.0651C50.0431 10.454 50.1612 9.91993 50.3974 9.46288C50.6336 9.00327 50.9687 8.64636 51.4026 8.39216C51.8392 8.13539 52.3565 8.007 52.9548 8.007C53.5531 8.007 54.0692 8.13539 54.5031 8.39216C54.9396 8.64636 55.276 9.00327 55.5122 9.46288C55.7485 9.91993 55.8666 10.454 55.8666 11.0651C55.8666 11.6711 55.7485 12.2039 55.5122 12.6635C55.276 13.1206 54.9396 13.4775 54.5031 13.7342C54.0692 13.9884 53.5531 14.1155 52.9548 14.1155ZM52.9625 12.8445C53.2347 12.8445 53.4619 12.7675 53.6442 12.6134C53.8265 12.4568 53.9639 12.2437 54.0564 11.9741C54.1514 11.7045 54.1989 11.3976 54.1989 11.0536C54.1989 10.7095 54.1514 10.4027 54.0564 10.1331C53.9639 9.86345 53.8265 9.65033 53.6442 9.4937C53.4619 9.33707 53.2347 9.25875 52.9625 9.25875C52.6878 9.25875 52.4567 9.33707 52.2692 9.4937C52.0844 9.65033 51.9444 9.86345 51.8494 10.1331C51.757 10.4027 51.7108 10.7095 51.7108 11.0536C51.7108 11.3976 51.757 11.7045 51.8494 11.9741C51.9444 12.2437 52.0844 12.4568 52.2692 12.6134C52.4567 12.7675 52.6878 12.8445 52.9625 12.8445ZM59.6779 14V6.11204H64.993V7.48704H61.3456V9.3666H64.7195V10.7416H61.3456V12.625H65.0084V14H59.6779ZM68.0767 14.1117C67.6993 14.1117 67.3629 14.0462 67.0676 13.9153C66.7723 13.7817 66.5387 13.5853 66.3666 13.326C66.1972 13.0641 66.1124 12.738 66.1124 12.3477C66.1124 12.019 66.1728 11.743 66.2935 11.5196C66.4142 11.2962 66.5785 11.1165 66.7865 10.9804C66.9945 10.8443 67.2307 10.7416 67.4952 10.6723C67.7622 10.6029 68.0421 10.5542 68.3348 10.5259C68.6789 10.49 68.9562 10.4566 69.1667 10.4258C69.3773 10.3924 69.53 10.3436 69.6251 10.2794C69.7201 10.2152 69.7676 10.1202 69.7676 9.9944V9.97129C69.7676 9.72736 69.6905 9.53863 69.5365 9.40511C69.385 9.27159 69.1693 9.20483 68.8894 9.20483C68.5941 9.20483 68.3592 9.27031 68.1846 9.40126C68.01 9.52965 67.8944 9.69141 67.8379 9.88655L66.3204 9.76331C66.3975 9.40383 66.549 9.09314 66.7749 8.83123C67.0009 8.56676 67.2923 8.36391 67.6492 8.22269C68.0087 8.0789 68.4247 8.007 68.8971 8.007C69.2258 8.007 69.5403 8.04552 69.8407 8.12255C70.1437 8.19958 70.4121 8.31898 70.6457 8.48074C70.8819 8.64251 71.0681 8.85049 71.2042 9.10469C71.3403 9.35633 71.4083 9.65803 71.4083 10.0098V14H69.8523V13.1796H69.8061C69.7111 13.3645 69.584 13.5275 69.4248 13.6688C69.2656 13.8074 69.0743 13.9165 68.8509 13.9961C68.6275 14.0732 68.3695 14.1117 68.0767 14.1117ZM68.5466 12.9793C68.788 12.9793 69.0011 12.9318 69.186 12.8368C69.3709 12.7393 69.5159 12.6083 69.6212 12.444C69.7265 12.2796 69.7791 12.0935 69.7791 11.8855V11.2577C69.7278 11.2911 69.6571 11.3219 69.5673 11.3501C69.48 11.3758 69.3811 11.4002 69.2707 11.4233C69.1603 11.4439 69.0499 11.4631 68.9395 11.4811C68.8291 11.4965 68.7289 11.5106 68.6391 11.5235C68.4465 11.5517 68.2783 11.5966 68.1345 11.6583C67.9907 11.7199 67.879 11.8033 67.7994 11.9086C67.7198 12.0113 67.68 12.1397 67.68 12.2938C67.68 12.5172 67.7609 12.6879 67.9227 12.806C68.087 12.9216 68.295 12.9793 68.5466 12.9793ZM72.7829 14V8.08403H74.3736V9.11625H74.4352C74.5431 8.74907 74.7241 8.47176 74.9783 8.28431C75.2325 8.0943 75.5252 7.9993 75.8565 7.9993C75.9386 7.9993 76.0272 8.00443 76.1222 8.01471C76.2172 8.02498 76.3007 8.0391 76.3726 8.05707V9.51295C76.2955 9.48985 76.189 9.4693 76.0529 9.45133C75.9168 9.43336 75.7923 9.42437 75.6793 9.42437C75.4379 9.42437 75.2222 9.47701 75.0322 9.58228C74.8448 9.68499 74.6959 9.82878 74.5855 10.0137C74.4776 10.1985 74.4237 10.4116 74.4237 10.653V14H72.7829ZM78.9633 10.5798V14H77.3225V8.08403H78.8863V9.1278H78.9556C79.0866 8.78373 79.3061 8.51155 79.6142 8.31127C79.9223 8.10843 80.2959 8.007 80.735 8.007C81.1458 8.007 81.504 8.09687 81.8096 8.27661C82.1151 8.45635 82.3527 8.71312 82.5221 9.04692C82.6916 9.37815 82.7763 9.77358 82.7763 10.2332V14H81.1356V10.5259C81.1381 10.1639 81.0457 9.88142 80.8583 9.67857C80.6708 9.47316 80.4128 9.37045 80.0841 9.37045C79.8633 9.37045 79.6681 9.41795 79.4987 9.51295C79.3318 9.60796 79.2008 9.74662 79.1058 9.92892C79.0134 10.1087 78.9659 10.3256 78.9633 10.5798Z" fill="white"/>
</svg>
