<svg width="73" height="21" viewBox="0 0 73 21" fill="none" xmlns="http://www.w3.org/2000/svg">
<rect width="73" height="21" rx="4" fill="url(#paint0_linear_5129_5776)" fill-opacity="0.3"/>
<path d="M6.04517 14H4.25805L6.98109 6.11204H9.13025L11.8494 14H10.0623L8.08648 7.91457H8.02486L6.04517 14ZM5.93347 10.8995H10.1548V12.2013H5.93347V10.8995ZM16.6635 11.4811V8.08403H18.3042V14H16.729V12.9254H16.6673C16.5338 13.2721 16.3117 13.5507 16.001 13.7612C15.6929 13.9718 15.3167 14.077 14.8725 14.077C14.4771 14.077 14.1292 13.9872 13.8287 13.8074C13.5283 13.6277 13.2934 13.3722 13.1239 13.041C12.957 12.7097 12.8723 12.313 12.8697 11.8508V8.08403H14.5105V11.5581C14.513 11.9073 14.6068 12.1834 14.7916 12.3862C14.9765 12.5891 15.2243 12.6905 15.535 12.6905C15.7327 12.6905 15.9176 12.6455 16.0896 12.5557C16.2616 12.4632 16.4003 12.3271 16.5056 12.1474C16.6134 11.9677 16.666 11.7456 16.6635 11.4811ZM19.7183 14V8.08403H21.309V9.11625H21.3706C21.4785 8.74907 21.6595 8.47176 21.9137 8.28431C22.1679 8.0943 22.4606 7.9993 22.7919 7.9993C22.874 7.9993 22.9626 8.00443 23.0576 8.01471C23.1526 8.02498 23.2361 8.0391 23.308 8.05707V9.51295C23.2309 9.48985 23.1244 9.4693 22.9883 9.45133C22.8522 9.43336 22.7277 9.42437 22.6147 9.42437C22.3733 9.42437 22.1576 9.47701 21.9676 9.58228C21.7802 9.68499 21.6313 9.82878 21.5209 10.0137C21.413 10.1985 21.3591 10.4116 21.3591 10.653V14H19.7183ZM25.7755 14.1117C25.398 14.1117 25.0616 14.0462 24.7664 13.9153C24.4711 13.7817 24.2374 13.5853 24.0654 13.326C23.8959 13.0641 23.8112 12.738 23.8112 12.3477C23.8112 12.019 23.8715 11.743 23.9922 11.5196C24.1129 11.2962 24.2772 11.1165 24.4852 10.9804C24.6932 10.8443 24.9294 10.7416 25.1939 10.6723C25.4609 10.6029 25.7408 10.5542 26.0335 10.5259C26.3776 10.49 26.6549 10.4566 26.8654 10.4258C27.076 10.3924 27.2288 10.3436 27.3238 10.2794C27.4188 10.2152 27.4663 10.1202 27.4663 9.9944V9.97129C27.4663 9.72736 27.3893 9.53863 27.2352 9.40511C27.0837 9.27159 26.868 9.20483 26.5881 9.20483C26.2928 9.20483 26.0579 9.27031 25.8833 9.40126C25.7087 9.52965 25.5932 9.69141 25.5367 9.88655L24.0192 9.76331C24.0962 9.40383 24.2477 9.09314 24.4736 8.83123C24.6996 8.56676 24.991 8.36391 25.3479 8.22269C25.7074 8.0789 26.1234 8.007 26.5958 8.007C26.9245 8.007 27.239 8.04552 27.5395 8.12255C27.8425 8.19958 28.1108 8.31898 28.3444 8.48074C28.5807 8.64251 28.7668 8.85049 28.9029 9.10469C29.039 9.35633 29.107 9.65803 29.107 10.0098V14H27.551V13.1796H27.5048C27.4098 13.3645 27.2827 13.5275 27.1235 13.6688C26.9643 13.8074 26.773 13.9165 26.5496 13.9961C26.3262 14.0732 26.0682 14.1117 25.7755 14.1117ZM26.2453 12.9793C26.4867 12.9793 26.6998 12.9318 26.8847 12.8368C27.0696 12.7393 27.2146 12.6083 27.3199 12.444C27.4252 12.2796 27.4778 12.0935 27.4778 11.8855V11.2577C27.4265 11.2911 27.3559 11.3219 27.266 11.3501C27.1787 11.3758 27.0798 11.4002 26.9694 11.4233C26.859 11.4439 26.7486 11.4631 26.6382 11.4811C26.5278 11.4965 26.4277 11.5106 26.3378 11.5235C26.1452 11.5517 25.977 11.5966 25.8332 11.6583C25.6894 11.7199 25.5777 11.8033 25.4981 11.9086C25.4185 12.0113 25.3787 12.1397 25.3787 12.2938C25.3787 12.5172 25.4596 12.6879 25.6214 12.806C25.7857 12.9216 25.9937 12.9793 26.2453 12.9793ZM32.1224 6.11204V14H30.4817V6.11204H32.1224ZM35.1792 6.11204V14H33.5384V6.11204H35.1792ZM37.6082 16.2185C37.4002 16.2185 37.205 16.2018 37.0227 16.1684C36.843 16.1376 36.6941 16.0978 36.5759 16.049L36.9457 14.8242C37.1383 14.8833 37.3116 14.9154 37.4657 14.9205C37.6223 14.9257 37.7571 14.8897 37.8701 14.8127C37.9856 14.7356 38.0793 14.6047 38.1512 14.4198L38.2475 14.1695L36.1253 8.08403H37.8508L39.0756 12.4286H39.1372L40.3736 8.08403H42.1106L39.8112 14.6394C39.7008 14.9577 39.5506 15.2351 39.3606 15.4713C39.1732 15.7101 38.9357 15.8937 38.6481 16.0221C38.3605 16.153 38.0139 16.2185 37.6082 16.2185ZM48.4909 14H45.6947V6.11204H48.514C49.3074 6.11204 49.9904 6.26996 50.563 6.58578C51.1356 6.89904 51.576 7.34967 51.8841 7.93767C52.1948 8.52568 52.3501 9.22922 52.3501 10.0483C52.3501 10.87 52.1948 11.5761 51.8841 12.1667C51.576 12.7572 51.133 13.2104 50.5553 13.5263C49.9801 13.8421 49.292 14 48.4909 14ZM47.3624 12.5711H48.4216C48.9145 12.5711 49.3292 12.4838 49.6656 12.3092C50.0045 12.132 50.2587 11.8585 50.4282 11.4888C50.6002 11.1165 50.6863 10.6363 50.6863 10.0483C50.6863 9.46545 50.6002 8.98915 50.4282 8.6194C50.2587 8.24965 50.0058 7.97747 49.6695 7.80287C49.3331 7.62827 48.9184 7.54097 48.4254 7.54097H47.3624V12.5711ZM54.6019 14H52.8148L55.5379 6.11204H57.687L60.4062 14H58.6191L56.6432 7.91457H56.5816L54.6019 14ZM54.4902 10.8995H58.7115V12.2013H54.4902V10.8995ZM68.3352 10.056C68.3352 10.9162 68.1721 11.648 67.846 12.2514C67.5225 12.8548 67.0809 13.3157 66.5211 13.6341C65.9639 13.9499 65.3374 14.1078 64.6415 14.1078C63.9406 14.1078 63.3115 13.9486 62.7543 13.6303C62.1971 13.3119 61.7567 12.851 61.4332 12.2475C61.1097 11.6441 60.9479 10.9136 60.9479 10.056C60.9479 9.19584 61.1097 8.46405 61.4332 7.86064C61.7567 7.25724 62.1971 6.79762 62.7543 6.48179C63.3115 6.1634 63.9406 6.0042 64.6415 6.0042C65.3374 6.0042 65.9639 6.1634 66.5211 6.48179C67.0809 6.79762 67.5225 7.25724 67.846 7.86064C68.1721 8.46405 68.3352 9.19584 68.3352 10.056ZM66.6443 10.056C66.6443 9.49883 66.5609 9.02894 66.394 8.64636C66.2297 8.26377 65.9973 7.97362 65.6969 7.77591C65.3964 7.5782 65.0447 7.47934 64.6415 7.47934C64.2384 7.47934 63.8866 7.5782 63.5862 7.77591C63.2858 7.97362 63.0521 8.26377 62.8852 8.64636C62.7209 9.02894 62.6387 9.49883 62.6387 10.056C62.6387 10.6132 62.7209 11.0831 62.8852 11.4657C63.0521 11.8483 63.2858 12.1384 63.5862 12.3361C63.8866 12.5338 64.2384 12.6327 64.6415 12.6327C65.0447 12.6327 65.3964 12.5338 65.6969 12.3361C65.9973 12.1384 66.2297 11.8483 66.394 11.4657C66.5609 11.0831 66.6443 10.6132 66.6443 10.056Z" fill="white"/>
<defs>
<linearGradient id="paint0_linear_5129_5776" x1="36.5" y1="3.25284e-09" x2="36.4843" y2="11.3308" gradientUnits="userSpaceOnUse">
<stop stop-color="#D28C75"/>
<stop offset="1" stop-color="#EFB546"/>
</linearGradient>
</defs>
</svg>
