<svg width="92" height="21" viewBox="0 0 92 21" fill="none" xmlns="http://www.w3.org/2000/svg">
<rect width="92" height="21" rx="4" fill="#8A2BE2" fill-opacity="0.3"/>
<path d="M4.68557 14V6.11204H9.90826V7.48704H6.35329V9.3666H9.56163V10.7416H6.35329V14H4.68557ZM11.0056 14V8.08403H12.5963V9.11625H12.6579C12.7657 8.74907 12.9467 8.47176 13.2009 8.28431C13.4551 8.0943 13.7479 7.9993 14.0791 7.9993C14.1613 7.9993 14.2498 8.00443 14.3449 8.01471C14.4399 8.02498 14.5233 8.0391 14.5952 8.05707V9.51295C14.5182 9.48985 14.4116 9.4693 14.2755 9.45133C14.1394 9.43336 14.0149 9.42437 13.9019 9.42437C13.6606 9.42437 13.4449 9.47701 13.2549 9.58228C13.0674 9.68499 12.9185 9.82878 12.8081 10.0137C12.7002 10.1985 12.6463 10.4116 12.6463 10.653V14H11.0056ZM17.0627 14.1117C16.6852 14.1117 16.3489 14.0462 16.0536 13.9153C15.7583 13.7817 15.5246 13.5853 15.3526 13.326C15.1831 13.0641 15.0984 12.738 15.0984 12.3477C15.0984 12.019 15.1587 11.743 15.2794 11.5196C15.4001 11.2962 15.5644 11.1165 15.7724 10.9804C15.9804 10.8443 16.2166 10.7416 16.4811 10.6723C16.7482 10.6029 17.028 10.5542 17.3207 10.5259C17.6648 10.49 17.9421 10.4566 18.1527 10.4258C18.3632 10.3924 18.516 10.3436 18.611 10.2794C18.706 10.2152 18.7535 10.1202 18.7535 9.9944V9.97129C18.7535 9.72736 18.6765 9.53863 18.5224 9.40511C18.3709 9.27159 18.1552 9.20483 17.8754 9.20483C17.5801 9.20483 17.3451 9.27031 17.1705 9.40126C16.9959 9.52965 16.8804 9.69141 16.8239 9.88655L15.3064 9.76331C15.3834 9.40383 15.5349 9.09314 15.7609 8.83123C15.9868 8.56676 16.2783 8.36391 16.6352 8.22269C16.9946 8.0789 17.4106 8.007 17.8831 8.007C18.2117 8.007 18.5263 8.04552 18.8267 8.12255C19.1297 8.19958 19.398 8.31898 19.6317 8.48074C19.8679 8.64251 20.0541 8.85049 20.1901 9.10469C20.3262 9.35633 20.3943 9.65803 20.3943 10.0098V14H18.8383V13.1796H18.792C18.697 13.3645 18.5699 13.5275 18.4107 13.6688C18.2515 13.8074 18.0602 13.9165 17.8369 13.9961C17.6135 14.0732 17.3554 14.1117 17.0627 14.1117ZM17.5326 12.9793C17.7739 12.9793 17.9871 12.9318 18.1719 12.8368C18.3568 12.7393 18.5019 12.6083 18.6072 12.444C18.7124 12.2796 18.7651 12.0935 18.7651 11.8855V11.2577C18.7137 11.2911 18.6431 11.3219 18.5532 11.3501C18.4659 11.3758 18.3671 11.4002 18.2567 11.4233C18.1463 11.4439 18.0358 11.4631 17.9254 11.4811C17.815 11.4965 17.7149 11.5106 17.625 11.5235C17.4324 11.5517 17.2643 11.5966 17.1205 11.6583C16.9767 11.7199 16.865 11.8033 16.7854 11.9086C16.7058 12.0113 16.666 12.1397 16.666 12.2938C16.666 12.5172 16.7469 12.6879 16.9086 12.806C17.073 12.9216 17.2809 12.9793 17.5326 12.9793ZM24.4419 14.1155C23.8359 14.1155 23.3146 13.9872 22.8781 13.7304C22.4442 13.4711 22.1104 13.1116 21.8767 12.652C21.6456 12.1923 21.5301 11.6634 21.5301 11.0651C21.5301 10.4592 21.6469 9.92764 21.8806 9.47059C22.1168 9.01097 22.4519 8.65278 22.8858 8.39601C23.3198 8.13667 23.8359 8.007 24.4342 8.007C24.9503 8.007 25.4022 8.10072 25.7899 8.28816C26.1776 8.47561 26.4845 8.7388 26.7104 9.07773C26.9364 9.41667 27.0609 9.81466 27.084 10.2717H25.5357C25.492 9.97642 25.3765 9.73891 25.1891 9.55917C25.0042 9.37687 24.7615 9.28571 24.4611 9.28571C24.2069 9.28571 23.9848 9.35504 23.7948 9.4937C23.6074 9.62979 23.461 9.82878 23.3557 10.0907C23.2504 10.3526 23.1978 10.6697 23.1978 11.042C23.1978 11.4195 23.2492 11.7404 23.3519 12.0049C23.4571 12.2694 23.6048 12.4709 23.7948 12.6096C23.9848 12.7482 24.2069 12.8176 24.4611 12.8176C24.6486 12.8176 24.8167 12.7791 24.9657 12.702C25.1172 12.625 25.2417 12.5133 25.3393 12.3669C25.4394 12.218 25.5049 12.0396 25.5357 11.8316H27.084C27.0583 12.2835 26.9351 12.6815 26.7143 13.0256C26.496 13.3671 26.1943 13.6341 25.8092 13.8267C25.424 14.0193 24.9682 14.1155 24.4419 14.1155ZM31.3829 8.08403V9.31653H27.8202V8.08403H31.3829ZM28.6291 6.66667H30.2698V12.1821C30.2698 12.3336 30.2929 12.4517 30.3391 12.5364C30.3854 12.6186 30.4496 12.6764 30.5317 12.7097C30.6165 12.7431 30.714 12.7598 30.8244 12.7598C30.9015 12.7598 30.9785 12.7534 31.0555 12.7405C31.1326 12.7251 31.1916 12.7136 31.2327 12.7059L31.4908 13.9268C31.4086 13.9525 31.293 13.982 31.1441 14.0154C30.9952 14.0514 30.8142 14.0732 30.6011 14.0809C30.2056 14.0963 29.859 14.0437 29.5611 13.923C29.2659 13.8023 29.036 13.6148 28.8717 13.3606C28.7074 13.1064 28.6265 12.7855 28.6291 12.3978V6.66667ZM32.5534 14V8.08403H34.1942V14H32.5534ZM33.3776 7.32143C33.1337 7.32143 32.9244 7.24055 32.7498 7.07878C32.5778 6.91445 32.4918 6.71802 32.4918 6.4895C32.4918 6.26354 32.5778 6.06968 32.7498 5.90791C32.9244 5.74358 33.1337 5.66141 33.3776 5.66141C33.6216 5.66141 33.8295 5.74358 34.0016 5.90791C34.1762 6.06968 34.2635 6.26354 34.2635 6.4895C34.2635 6.71802 34.1762 6.91445 34.0016 7.07878C33.8295 7.24055 33.6216 7.32143 33.3776 7.32143ZM38.2831 14.1155C37.6849 14.1155 37.1675 13.9884 36.731 13.7342C36.297 13.4775 35.9619 13.1206 35.7257 12.6635C35.4895 12.2039 35.3714 11.6711 35.3714 11.0651C35.3714 10.454 35.4895 9.91993 35.7257 9.46288C35.9619 9.00327 36.297 8.64636 36.731 8.39216C37.1675 8.13539 37.6849 8.007 38.2831 8.007C38.8814 8.007 39.3975 8.13539 39.8315 8.39216C40.268 8.64636 40.6043 9.00327 40.8406 9.46288C41.0768 9.91993 41.1949 10.454 41.1949 11.0651C41.1949 11.6711 41.0768 12.2039 40.8406 12.6635C40.6043 13.1206 40.268 13.4775 39.8315 13.7342C39.3975 13.9884 38.8814 14.1155 38.2831 14.1155ZM38.2908 12.8445C38.563 12.8445 38.7903 12.7675 38.9726 12.6134C39.1549 12.4568 39.2922 12.2437 39.3847 11.9741C39.4797 11.7045 39.5272 11.3976 39.5272 11.0536C39.5272 10.7095 39.4797 10.4027 39.3847 10.1331C39.2922 9.86345 39.1549 9.65033 38.9726 9.4937C38.7903 9.33707 38.563 9.25875 38.2908 9.25875C38.0161 9.25875 37.785 9.33707 37.5976 9.4937C37.4127 9.65033 37.2728 9.86345 37.1777 10.1331C37.0853 10.4027 37.0391 10.7095 37.0391 11.0536C37.0391 11.3976 37.0853 11.7045 37.1777 11.9741C37.2728 12.2437 37.4127 12.4568 37.5976 12.6134C37.785 12.7675 38.0161 12.8445 38.2908 12.8445ZM44.0042 10.5798V14H42.3635V8.08403H43.9272V9.1278H43.9965C44.1275 8.78373 44.347 8.51155 44.6551 8.31127C44.9633 8.10843 45.3369 8.007 45.7759 8.007C46.1868 8.007 46.545 8.09687 46.8505 8.27661C47.1561 8.45635 47.3936 8.71312 47.563 9.04692C47.7325 9.37815 47.8172 9.77358 47.8172 10.2332V14H46.1765V10.5259C46.1791 10.1639 46.0866 9.88142 45.8992 9.67857C45.7117 9.47316 45.4537 9.37045 45.125 9.37045C44.9042 9.37045 44.7091 9.41795 44.5396 9.51295C44.3727 9.60796 44.2417 9.74662 44.1467 9.92892C44.0543 10.1087 44.0068 10.3256 44.0042 10.5798ZM50.8991 14.1117C50.5216 14.1117 50.1852 14.0462 49.89 13.9153C49.5947 13.7817 49.361 13.5853 49.189 13.326C49.0195 13.0641 48.9348 12.738 48.9348 12.3477C48.9348 12.019 48.9951 11.743 49.1158 11.5196C49.2365 11.2962 49.4008 11.1165 49.6088 10.9804C49.8168 10.8443 50.053 10.7416 50.3175 10.6723C50.5845 10.6029 50.8644 10.5542 51.1571 10.5259C51.5012 10.49 51.7785 10.4566 51.989 10.4258C52.1996 10.3924 52.3524 10.3436 52.4474 10.2794C52.5424 10.2152 52.5899 10.1202 52.5899 9.9944V9.97129C52.5899 9.72736 52.5129 9.53863 52.3588 9.40511C52.2073 9.27159 51.9916 9.20483 51.7117 9.20483C51.4164 9.20483 51.1815 9.27031 51.0069 9.40126C50.8323 9.52965 50.7168 9.69141 50.6603 9.88655L49.1428 9.76331C49.2198 9.40383 49.3713 9.09314 49.5972 8.83123C49.8232 8.56676 50.1146 8.36391 50.4715 8.22269C50.831 8.0789 51.247 8.007 51.7194 8.007C52.0481 8.007 52.3626 8.04552 52.6631 8.12255C52.9661 8.19958 53.2344 8.31898 53.468 8.48074C53.7043 8.64251 53.8904 8.85049 54.0265 9.10469C54.1626 9.35633 54.2306 9.65803 54.2306 10.0098V14H52.6746V13.1796H52.6284C52.5334 13.3645 52.4063 13.5275 52.2471 13.6688C52.0879 13.8074 51.8966 13.9165 51.6732 13.9961C51.4498 14.0732 51.1918 14.1117 50.8991 14.1117ZM51.3689 12.9793C51.6103 12.9793 51.8234 12.9318 52.0083 12.8368C52.1932 12.7393 52.3382 12.6083 52.4435 12.444C52.5488 12.2796 52.6014 12.0935 52.6014 11.8855V11.2577C52.5501 11.2911 52.4795 11.3219 52.3896 11.3501C52.3023 11.3758 52.2034 11.4002 52.093 11.4233C51.9826 11.4439 51.8722 11.4631 51.7618 11.4811C51.6514 11.4965 51.5513 11.5106 51.4614 11.5235C51.2688 11.5517 51.1006 11.5966 50.9568 11.6583C50.813 11.7199 50.7013 11.8033 50.6217 11.9086C50.5421 12.0113 50.5023 12.1397 50.5023 12.2938C50.5023 12.5172 50.5832 12.6879 50.745 12.806C50.9093 12.9216 51.1173 12.9793 51.3689 12.9793ZM57.246 6.11204V14H55.6053V6.11204H57.246ZM67.9025 6.11204V14H66.462L63.0303 9.03536H62.9725V14H61.3048V6.11204H62.7684L66.1731 11.0728H66.2424V6.11204H67.9025ZM69.382 14V6.11204H74.6047V7.48704H71.0497V9.3666H74.2581V10.7416H71.0497V14H69.382ZM75.5277 7.48704V6.11204H82.006V7.48704H79.5911V14H77.9426V7.48704H75.5277ZM87.2611 9.77101L85.759 9.86345C85.7333 9.73506 85.6781 9.61951 85.5934 9.51681C85.5086 9.41153 85.3969 9.32808 85.2583 9.26646C85.1222 9.20226 84.9591 9.17017 84.7691 9.17017C84.5149 9.17017 84.3005 9.22409 84.1259 9.33193C83.9513 9.43721 83.864 9.57843 83.864 9.7556C83.864 9.89683 83.9205 10.0162 84.0335 10.1138C84.1465 10.2114 84.3403 10.2897 84.6151 10.3487L85.6858 10.5644C86.261 10.6825 86.6898 10.8725 86.9722 11.1345C87.2546 11.3964 87.3959 11.7404 87.3959 12.1667C87.3959 12.5544 87.2816 12.8946 87.0531 13.1873C86.8271 13.48 86.5164 13.7086 86.121 13.8729C85.7282 14.0347 85.275 14.1155 84.7614 14.1155C83.9783 14.1155 83.3543 13.9525 82.8896 13.6264C82.4274 13.2977 82.1565 12.851 82.0769 12.2861L83.6907 12.2013C83.7395 12.4401 83.8576 12.6224 84.045 12.7482C84.2325 12.8715 84.4726 12.9331 84.7653 12.9331C85.0529 12.9331 85.2839 12.8779 85.4585 12.7675C85.6357 12.6545 85.7256 12.5095 85.7282 12.3323C85.7256 12.1834 85.6627 12.0614 85.5394 11.9664C85.4162 11.8688 85.2262 11.7944 84.9694 11.743L83.9449 11.5389C83.3672 11.4233 82.9371 11.223 82.6546 10.938C82.3747 10.653 82.2348 10.2897 82.2348 9.84804C82.2348 9.46802 82.3375 9.14064 82.5429 8.8659C82.7509 8.59115 83.0423 8.37932 83.4172 8.23039C83.7947 8.08147 84.2363 8.007 84.7422 8.007C85.4894 8.007 86.0774 8.16492 86.5062 8.48074C86.9375 8.79657 87.1892 9.22666 87.2611 9.77101Z" fill="white"/>
</svg>
