<svg width="85" height="21" viewBox="0 0 85 21" fill="none" xmlns="http://www.w3.org/2000/svg">
<rect width="85" height="21" rx="4" fill="#007AFF" fill-opacity="0.6"/>
<path d="M4.68557 14V6.11204H7.79762C8.39589 6.11204 8.90558 6.22631 9.32668 6.45483C9.74778 6.68079 10.0687 6.99533 10.2896 7.39846C10.513 7.79902 10.6247 8.2612 10.6247 8.78501C10.6247 9.30882 10.5117 9.77101 10.2857 10.1716C10.0598 10.5721 9.73238 10.8841 9.30357 11.1075C8.87733 11.3309 8.36123 11.4426 7.75525 11.4426H5.77171V10.1061H7.48564C7.80661 10.1061 8.07108 10.0509 8.27906 9.94048C8.48961 9.8275 8.64624 9.67215 8.74895 9.47444C8.85423 9.27416 8.90686 9.04435 8.90686 8.78501C8.90686 8.52311 8.85423 8.29458 8.74895 8.09944C8.64624 7.90173 8.48961 7.74895 8.27906 7.64111C8.06851 7.5307 7.80147 7.47549 7.47794 7.47549H6.35329V14H4.68557ZM11.7634 14V12.7983L14.5711 10.1985C14.8099 9.96744 15.0102 9.75945 15.172 9.57458C15.3363 9.38971 15.4608 9.20868 15.5456 9.03151C15.6303 8.85177 15.6727 8.65791 15.6727 8.44993C15.6727 8.21884 15.62 8.01984 15.5148 7.85294C15.4095 7.68347 15.2657 7.5538 15.0834 7.46394C14.9011 7.3715 14.6944 7.32528 14.4633 7.32528C14.2219 7.32528 14.0114 7.37407 13.8316 7.47164C13.6519 7.56921 13.5132 7.70915 13.4157 7.89146C13.3181 8.07376 13.2693 8.29073 13.2693 8.54237H11.6863C11.6863 8.02626 11.8032 7.5782 12.0368 7.19818C12.2705 6.81816 12.5979 6.52416 13.019 6.31618C13.4401 6.10819 13.9254 6.0042 14.4748 6.0042C15.0397 6.0042 15.5314 6.10434 15.95 6.30462C16.3711 6.50233 16.6985 6.77708 16.9321 7.12885C17.1658 7.48063 17.2826 7.88375 17.2826 8.33823C17.2826 8.63609 17.2236 8.93009 17.1054 9.22024C16.9899 9.51039 16.7832 9.83263 16.4853 10.187C16.1875 10.5387 15.7677 10.9611 15.2259 11.4541L14.0743 12.5826V12.6366H17.3866V14H11.7634ZM18.7429 14V6.11204H21.855C22.4532 6.11204 22.9629 6.22631 23.384 6.45483C23.8051 6.68079 24.1261 6.99533 24.3469 7.39846C24.5703 7.79902 24.682 8.2612 24.682 8.78501C24.682 9.30882 24.569 9.77101 24.3431 10.1716C24.1171 10.5721 23.7897 10.8841 23.3609 11.1075C22.9347 11.3309 22.4186 11.4426 21.8126 11.4426H19.8291V10.1061H21.543C21.864 10.1061 22.1284 10.0509 22.3364 9.94048C22.547 9.8275 22.7036 9.67215 22.8063 9.47444C22.9116 9.27416 22.9642 9.04435 22.9642 8.78501C22.9642 8.52311 22.9116 8.29458 22.8063 8.09944C22.7036 7.90173 22.547 7.74895 22.3364 7.64111C22.1259 7.5307 21.8588 7.47549 21.5353 7.47549H20.4106V14H18.7429ZM28.4789 14V6.11204H33.794V7.48704H30.1466V9.3666H33.5205V10.7416H30.1466V12.625H33.8094V14H28.4789ZM36.5619 8.08403L37.648 10.1523L38.7611 8.08403H40.4442L38.7303 11.042L40.4905 14H38.815L37.648 11.9548L36.5003 14H34.8056L36.5619 11.042L34.8672 8.08403H36.5619ZM43.9815 14.1155C43.3755 14.1155 42.8543 13.9872 42.4178 13.7304C41.9838 13.4711 41.65 13.1116 41.4164 12.652C41.1853 12.1923 41.0697 11.6634 41.0697 11.0651C41.0697 10.4592 41.1866 9.92764 41.4202 9.47059C41.6565 9.01097 41.9915 8.65278 42.4255 8.39601C42.8594 8.13667 43.3755 8.007 43.9738 8.007C44.4899 8.007 44.9418 8.10072 45.3295 8.28816C45.7173 8.47561 46.0241 8.7388 46.2501 9.07773C46.476 9.41667 46.6005 9.81466 46.6237 10.2717H45.0753C45.0317 9.97642 44.9161 9.73891 44.7287 9.55917C44.5438 9.37687 44.3012 9.28571 44.0008 9.28571C43.7466 9.28571 43.5244 9.35504 43.3344 9.4937C43.147 9.62979 43.0006 9.82878 42.8954 10.0907C42.7901 10.3526 42.7375 10.6697 42.7375 11.042C42.7375 11.4195 42.7888 11.7404 42.8915 12.0049C42.9968 12.2694 43.1444 12.4709 43.3344 12.6096C43.5244 12.7482 43.7466 12.8176 44.0008 12.8176C44.1882 12.8176 44.3564 12.7791 44.5053 12.702C44.6568 12.625 44.7813 12.5133 44.8789 12.3669C44.979 12.218 45.0445 12.0396 45.0753 11.8316H46.6237C46.598 12.2835 46.4747 12.6815 46.2539 13.0256C46.0357 13.3671 45.7339 13.6341 45.3488 13.8267C44.9636 14.0193 44.5079 14.1155 43.9815 14.1155ZM49.4166 10.5798V14H47.7758V6.11204H49.3704V9.1278H49.4397C49.5732 8.77859 49.7889 8.50513 50.0868 8.30742C50.3846 8.10714 50.7582 8.007 51.2076 8.007C51.6184 8.007 51.9766 8.09687 52.2821 8.27661C52.5903 8.45378 52.8291 8.70927 52.9985 9.04307C53.1706 9.3743 53.2553 9.77101 53.2527 10.2332V14H51.612V10.5259C51.6145 10.1613 51.5221 9.87757 51.3347 9.67472C51.1498 9.47187 50.8905 9.37045 50.5567 9.37045C50.3333 9.37045 50.1356 9.41795 49.9635 9.51295C49.794 9.60796 49.6605 9.74662 49.563 9.92892C49.468 10.1087 49.4192 10.3256 49.4166 10.5798ZM56.3326 14.1117C55.9552 14.1117 55.6188 14.0462 55.3235 13.9153C55.0282 13.7817 54.7946 13.5853 54.6225 13.326C54.4531 13.0641 54.3683 12.738 54.3683 12.3477C54.3683 12.019 54.4287 11.743 54.5494 11.5196C54.67 11.2962 54.8344 11.1165 55.0423 10.9804C55.2503 10.8443 55.4866 10.7416 55.751 10.6723C56.0181 10.6029 56.298 10.5542 56.5907 10.5259C56.9347 10.49 57.2121 10.4566 57.4226 10.4258C57.6332 10.3924 57.7859 10.3436 57.8809 10.2794C57.9759 10.2152 58.0234 10.1202 58.0234 9.9944V9.97129C58.0234 9.72736 57.9464 9.53863 57.7923 9.40511C57.6409 9.27159 57.4252 9.20483 57.1453 9.20483C56.85 9.20483 56.6151 9.27031 56.4405 9.40126C56.2659 9.52965 56.1503 9.69141 56.0938 9.88655L54.5763 9.76331C54.6533 9.40383 54.8048 9.09314 55.0308 8.83123C55.2568 8.56676 55.5482 8.36391 55.9051 8.22269C56.2646 8.0789 56.6805 8.007 57.153 8.007C57.4817 8.007 57.7962 8.04552 58.0966 8.12255C58.3996 8.19958 58.6679 8.31898 58.9016 8.48074C59.1378 8.64251 59.324 8.85049 59.4601 9.10469C59.5962 9.35633 59.6642 9.65803 59.6642 10.0098V14H58.1082V13.1796H58.062C57.967 13.3645 57.8399 13.5275 57.6807 13.6688C57.5215 13.8074 57.3302 13.9165 57.1068 13.9961C56.8834 14.0732 56.6253 14.1117 56.3326 14.1117ZM56.8025 12.9793C57.0439 12.9793 57.257 12.9318 57.4419 12.8368C57.6267 12.7393 57.7718 12.6083 57.8771 12.444C57.9824 12.2796 58.035 12.0935 58.035 11.8855V11.2577C57.9836 11.2911 57.913 11.3219 57.8232 11.3501C57.7359 11.3758 57.637 11.4002 57.5266 11.4233C57.4162 11.4439 57.3058 11.4631 57.1954 11.4811C57.085 11.4965 56.9848 11.5106 56.8949 11.5235C56.7024 11.5517 56.5342 11.5966 56.3904 11.6583C56.2466 11.7199 56.1349 11.8033 56.0553 11.9086C55.9757 12.0113 55.9359 12.1397 55.9359 12.2938C55.9359 12.5172 56.0168 12.6879 56.1786 12.806C56.3429 12.9216 56.5509 12.9793 56.8025 12.9793ZM62.6796 10.5798V14H61.0388V8.08403H62.6025V9.1278H62.6719C62.8028 8.78373 63.0224 8.51155 63.3305 8.31127C63.6386 8.10843 64.0122 8.007 64.4513 8.007C64.8621 8.007 65.2203 8.09687 65.5259 8.27661C65.8314 8.45635 66.0689 8.71312 66.2384 9.04692C66.4079 9.37815 66.4926 9.77358 66.4926 10.2332V14H64.8518V10.5259C64.8544 10.1639 64.762 9.88142 64.5745 9.67857C64.3871 9.47316 64.129 9.37045 63.8004 9.37045C63.5795 9.37045 63.3844 9.41795 63.2149 9.51295C63.048 9.60796 62.9171 9.74662 62.8221 9.92892C62.7296 10.1087 62.6821 10.3256 62.6796 10.5798ZM70.5527 16.3417C70.0212 16.3417 69.5654 16.2686 69.1854 16.1222C68.808 15.9784 68.5075 15.782 68.2841 15.5329C68.0608 15.2838 67.9157 15.004 67.8489 14.6933L69.3664 14.4891C69.4126 14.6073 69.4858 14.7177 69.586 14.8204C69.6861 14.9231 69.8183 15.0053 69.9827 15.0669C70.1496 15.1311 70.3524 15.1632 70.5912 15.1632C70.9481 15.1632 71.2421 15.0759 71.4732 14.9013C71.7069 14.7292 71.8237 14.4404 71.8237 14.0347V12.9524H71.7544C71.6825 13.1167 71.5746 13.2721 71.4308 13.4184C71.2871 13.5648 71.1022 13.6842 70.8762 13.7766C70.6503 13.869 70.3807 13.9153 70.0674 13.9153C69.6232 13.9153 69.2188 13.8126 68.8542 13.6071C68.4921 13.3992 68.2033 13.082 67.9876 12.6558C67.7745 12.227 67.6679 11.6852 67.6679 11.0305C67.6679 10.3603 67.777 9.80054 67.9953 9.35119C68.2135 8.90184 68.5037 8.56548 68.8657 8.34209C69.2303 8.1187 69.6296 8.007 70.0636 8.007C70.3948 8.007 70.6721 8.06349 70.8955 8.17647C71.1189 8.28688 71.2986 8.42554 71.4347 8.59244C71.5734 8.75677 71.6799 8.91853 71.7544 9.07773H71.816V8.08403H73.4452V14.0578C73.4452 14.561 73.322 14.9821 73.0755 15.3211C72.829 15.66 72.4875 15.9142 72.0509 16.0837C71.617 16.2557 71.1176 16.3417 70.5527 16.3417ZM70.5874 12.6828C70.8518 12.6828 71.0752 12.6173 71.2575 12.4863C71.4424 12.3528 71.5836 12.1628 71.6812 11.9163C71.7813 11.6673 71.8314 11.3694 71.8314 11.0228C71.8314 10.6761 71.7826 10.3757 71.6851 10.1215C71.5875 9.86473 71.4463 9.66573 71.2614 9.52451C71.0765 9.38329 70.8518 9.31267 70.5874 9.31267C70.3178 9.31267 70.0905 9.38585 69.9056 9.53221C69.7208 9.676 69.5808 9.87628 69.4858 10.1331C69.3908 10.3898 69.3433 10.6864 69.3433 11.0228C69.3433 11.3643 69.3908 11.6595 69.4858 11.9086C69.5834 12.1551 69.7233 12.3464 69.9056 12.4825C70.0905 12.616 70.3178 12.6828 70.5874 12.6828ZM77.5486 14.1155C76.9401 14.1155 76.4163 13.9923 75.9772 13.7458C75.5407 13.4967 75.2043 13.145 74.9681 12.6905C74.7319 12.2334 74.6138 11.6929 74.6138 11.069C74.6138 10.4604 74.7319 9.92635 74.9681 9.46674C75.2043 9.00712 75.5369 8.64893 75.9657 8.39216C76.397 8.13539 76.9029 8.007 77.4832 8.007C77.8735 8.007 78.2368 8.06991 78.5731 8.19573C78.9121 8.31898 79.2074 8.50514 79.459 8.7542C79.7132 9.00327 79.9109 9.31653 80.0521 9.69398C80.1934 10.0689 80.264 10.5079 80.264 11.0112V11.4618H75.2685V10.445H78.7195C78.7195 10.2088 78.6682 9.99953 78.5654 9.81723C78.4627 9.63492 78.3202 9.49241 78.1379 9.38971C77.9582 9.28443 77.7489 9.23179 77.5101 9.23179C77.2611 9.23179 77.0402 9.28957 76.8477 9.40511C76.6577 9.51809 76.5087 9.67087 76.4009 9.86345C76.293 10.0535 76.2378 10.2653 76.2353 10.4989V11.4657C76.2353 11.7584 76.2892 12.0113 76.397 12.2244C76.5074 12.4376 76.6628 12.6019 76.8631 12.7174C77.0633 12.833 77.3009 12.8908 77.5756 12.8908C77.7579 12.8908 77.9248 12.8651 78.0763 12.8137C78.2278 12.7624 78.3575 12.6853 78.4653 12.5826C78.5731 12.4799 78.6553 12.3541 78.7118 12.2052L80.2293 12.3053C80.1523 12.6699 79.9944 12.9883 79.7556 13.2605C79.5193 13.5301 79.2138 13.7407 78.8389 13.8922C78.4666 14.0411 78.0365 14.1155 77.5486 14.1155Z" fill="white"/>
</svg>
