
<svg width="80" height="80" viewBox="0 0 80 80" fill="none" xmlns="http://www.w3.org/2000/svg">
<path d="M39.9993 23.3334H24.9993C22.7892 23.3334 20.6696 22.4555 19.1068 20.8927C17.544 19.3299 16.666 17.2102 16.666 15.0001C16.666 12.79 17.544 10.6704 19.1068 9.10756C20.6696 7.54475 22.7892 6.66678 24.9993 6.66678C36.666 6.66678 39.9993 23.3334 39.9993 23.3334Z" fill="url(#paint0_linear_3030_40209)"/>
<path d="M39.9993 23.3334H54.9993C57.2095 23.3334 59.3291 22.4555 60.8919 20.8927C62.4547 19.3299 63.3327 17.2102 63.3327 15.0001C63.3327 12.79 62.4547 10.6704 60.8919 9.10756C59.3291 7.54475 57.2095 6.66678 54.9993 6.66678C43.3327 6.66678 39.9993 23.3334 39.9993 23.3334Z" fill="url(#paint1_linear_3030_40209)"/>
<path d="M62.666 73.3334C66.3997 73.3334 68.2665 73.3334 69.6926 72.6068C70.947 71.9677 71.9669 70.9478 72.6061 69.6934C73.3327 68.2673 73.3327 66.4005 73.3327 62.6668V34.0001C73.3327 30.2664 73.3327 28.3996 72.6061 26.9735C71.9669 25.7191 70.947 24.6992 69.6926 24.0601C68.2665 23.3335 66.3997 23.3335 62.666 23.3335L17.3327 23.3334C13.599 23.3334 11.7322 23.3334 10.3061 24.0601C9.05167 24.6992 8.0318 25.7191 7.39264 26.9735C6.66602 28.3996 6.66602 30.2664 6.66602 34.0001L6.66602 62.6668C6.66602 66.4004 6.66602 68.2673 7.39264 69.6934C8.03179 70.9478 9.05166 71.9677 10.3061 72.6068C11.7322 73.3334 13.599 73.3334 17.3327 73.3334L62.666 73.3334Z" fill="url(#paint2_linear_3030_40209)"/>
<path d="M39.9993 23.3334H24.9993C22.7892 23.3334 20.6696 22.4555 19.1068 20.8927C17.544 19.3299 16.666 17.2102 16.666 15.0001C16.666 12.79 17.544 10.6704 19.1068 9.10756C20.6696 7.54475 22.7892 6.66678 24.9993 6.66678C36.666 6.66678 39.9993 23.3334 39.9993 23.3334ZM39.9993 23.3334H54.9993C57.2095 23.3334 59.3291 22.4555 60.8919 20.8927C62.4547 19.3299 63.3327 17.2102 63.3327 15.0001C63.3327 12.79 62.4547 10.6704 60.8919 9.10756C59.3291 7.54475 57.2095 6.66678 54.9993 6.66678C43.3327 6.66678 39.9993 23.3334 39.9993 23.3334ZM39.9993 23.3334L39.9993 73.3334M6.66602 46.6668H73.3327M6.66602 34.0001L6.66602 62.6668C6.66602 66.4004 6.66602 68.2673 7.39264 69.6934C8.03179 70.9478 9.05166 71.9677 10.3061 72.6068C11.7322 73.3334 13.599 73.3334 17.3327 73.3334L62.666 73.3334C66.3997 73.3334 68.2665 73.3334 69.6926 72.6068C70.947 71.9677 71.9669 70.9478 72.6061 69.6934C73.3327 68.2673 73.3327 66.4005 73.3327 62.6668V34.0001C73.3327 30.2664 73.3327 28.3996 72.6061 26.9735C71.9669 25.7191 70.947 24.6992 69.6926 24.0601C68.2665 23.3335 66.3997 23.3335 62.666 23.3335L17.3327 23.3334C13.599 23.3334 11.7322 23.3334 10.3061 24.0601C9.05167 24.6992 8.0318 25.7191 7.39264 26.9735C6.66602 28.3996 6.66602 30.2664 6.66602 34.0001Z" stroke="#140425" stroke-width="2" stroke-linecap="round" stroke-linejoin="round"/>
<defs>
<linearGradient id="paint0_linear_3030_40209" x1="39.9993" y1="6.66678" x2="39.9993" y2="73.3334" gradientUnits="userSpaceOnUse">
<stop offset="0.442708" stop-color="#E22BCC"/>
<stop offset="1" stop-color="#FBB03B"/>
</linearGradient>
<linearGradient id="paint1_linear_3030_40209" x1="39.9993" y1="6.66678" x2="39.9993" y2="73.3334" gradientUnits="userSpaceOnUse">
<stop offset="0.442708" stop-color="#E22BCC"/>
<stop offset="1" stop-color="#FBB03B"/>
</linearGradient>
<linearGradient id="paint2_linear_3030_40209" x1="39.9993" y1="6.66678" x2="39.9993" y2="73.3334" gradientUnits="userSpaceOnUse">
<stop offset="0.442708" stop-color="#E22BCC"/>
<stop offset="1" stop-color="#FBB03B"/>
</linearGradient>
</defs>
</svg>
