<svg width="1201" height="216" viewBox="0 0 1201 216" fill="none" xmlns="http://www.w3.org/2000/svg">
<g clip-path="url(#clip0_4627_32737)" filter="url(#filter0_i_4627_32737)">
<path d="M49.5 154.7C40.74 154.7 33.42 152.96 27.54 149.48C21.66 145.88 17.22 140.96 14.22 134.72C11.22 128.48 9.72 121.22 9.72 112.94V46.88C9.72 38.36 11.1 30.92 13.86 24.56C16.74 18.08 21.12 13.04 27 9.43999C32.88 5.83999 40.38 4.04 49.5 4.04C58.62 4.04 66.06 5.83999 71.82 9.43999C77.7 13.04 82.02 18.08 84.78 24.56C87.66 30.92 89.1 38.36 89.1 46.88V112.94C89.1 121.1 87.6 128.36 84.6 134.72C81.6 140.96 77.16 145.88 71.28 149.48C65.4 152.96 58.14 154.7 49.5 154.7ZM49.5 127.88C52.38 127.88 54.42 126.98 55.62 125.18C56.94 123.26 57.72 121.1 57.96 118.7C58.32 116.18 58.5 114.02 58.5 112.22V47.6C58.5 45.56 58.38 43.28 58.14 40.76C57.9 38.12 57.12 35.84 55.8 33.92C54.6 31.88 52.5 30.86 49.5 30.86C46.5 30.86 44.34 31.88 43.02 33.92C41.82 35.84 41.1 38.12 40.86 40.76C40.62 43.28 40.5 45.56 40.5 47.6V112.22C40.5 114.02 40.68 116.18 41.04 118.7C41.4 121.1 42.18 123.26 43.38 125.18C44.7 126.98 46.74 127.88 49.5 127.88ZM122.905 152V35.9C121.585 36.62 120.085 37.34 118.405 38.06C116.725 38.78 114.925 39.56 113.005 40.4C111.205 41.12 109.405 41.84 107.605 42.56C105.925 43.28 104.365 44 102.925 44.72V22.4C104.245 21.68 106.105 20.72 108.505 19.52C110.905 18.2 113.485 16.76 116.245 15.2C119.005 13.64 121.585 12.08 123.985 10.52C126.385 8.84 128.185 7.39999 129.385 6.19999H152.965V152H122.905Z" fill="#C9CBCE"/>
<g filter="url(#filter1_d_4627_32737)">
<rect y="120" width="169" height="21" fill="#D9D9D9"/>
</g>
</g>
<path d="M1.6 175V161H3.28V173.48H10.36V175H1.6ZM15.578 175.28C14.898 175.28 14.278 175.16 13.718 174.92C13.158 174.68 12.718 174.333 12.398 173.88C12.078 173.427 11.918 172.873 11.918 172.22C11.918 171.553 12.078 171.007 12.398 170.58C12.718 170.14 13.158 169.813 13.718 169.6C14.278 169.373 14.9046 169.26 15.598 169.26H18.898V168.54C18.898 167.847 18.6913 167.3 18.278 166.9C17.878 166.5 17.278 166.3 16.478 166.3C15.6913 166.3 15.078 166.493 14.638 166.88C14.198 167.253 13.898 167.76 13.738 168.4L12.258 167.92C12.418 167.373 12.6713 166.88 13.018 166.44C13.3646 165.987 13.8246 165.627 14.398 165.36C14.9846 165.08 15.6846 164.94 16.498 164.94C17.7513 164.94 18.7246 165.267 19.418 165.92C20.1113 166.56 20.458 167.467 20.458 168.64V173.06C20.458 173.46 20.6446 173.66 21.018 173.66H21.918V175H20.538C20.098 175 19.7446 174.88 19.478 174.64C19.2113 174.387 19.078 174.053 19.078 173.64V173.54H18.838C18.6913 173.793 18.4913 174.06 18.238 174.34C17.998 174.607 17.6646 174.827 17.238 175C16.8113 175.187 16.258 175.28 15.578 175.28ZM15.758 173.92C16.6913 173.92 17.4446 173.647 18.018 173.1C18.6046 172.54 18.898 171.76 18.898 170.76V170.54H15.658C15.0313 170.54 14.5113 170.68 14.098 170.96C13.698 171.227 13.498 171.633 13.498 172.18C13.498 172.727 13.7046 173.153 14.118 173.46C14.5446 173.767 15.0913 173.92 15.758 173.92ZM27.568 175.18C26.8613 175.18 26.208 175.027 25.608 174.72C25.0213 174.413 24.5546 173.96 24.208 173.36C23.8746 172.747 23.708 172.007 23.708 171.14V165.22H25.288V171.02C25.288 171.993 25.528 172.7 26.008 173.14C26.5013 173.58 27.1613 173.8 27.988 173.8C28.9213 173.8 29.688 173.493 30.288 172.88C30.888 172.267 31.188 171.353 31.188 170.14V165.22H32.768V175H31.228V173.34H30.948C30.7346 173.807 30.368 174.233 29.848 174.62C29.328 174.993 28.568 175.18 27.568 175.18ZM36.0741 175V165.22H37.6141V166.88H37.8941C38.1074 166.413 38.4674 165.993 38.9741 165.62C39.4941 165.233 40.2541 165.04 41.2541 165.04C41.9874 165.04 42.6407 165.193 43.2141 165.5C43.8007 165.807 44.2674 166.26 44.6141 166.86C44.9607 167.46 45.1341 168.2 45.1341 169.08V175H43.5541V169.2C43.5541 168.227 43.3074 167.52 42.8141 167.08C42.3341 166.64 41.6807 166.42 40.8541 166.42C39.9074 166.42 39.1341 166.727 38.5341 167.34C37.9474 167.953 37.6541 168.867 37.6541 170.08V175H36.0741ZM52.8397 175.28C51.893 175.28 51.0397 175.08 50.2797 174.68C49.533 174.267 48.9397 173.68 48.4997 172.92C48.073 172.16 47.8597 171.26 47.8597 170.22V170C47.8597 168.947 48.073 168.047 48.4997 167.3C48.9397 166.54 49.533 165.96 50.2797 165.56C51.0397 165.147 51.893 164.94 52.8397 164.94C53.773 164.94 54.5664 165.113 55.2197 165.46C55.8864 165.807 56.4064 166.267 56.7797 166.84C57.1664 167.413 57.413 168.027 57.5197 168.68L55.9797 169C55.913 168.52 55.753 168.08 55.4997 167.68C55.2597 167.28 54.9197 166.96 54.4797 166.72C54.0397 166.48 53.4997 166.36 52.8597 166.36C52.2064 166.36 51.6197 166.507 51.0997 166.8C50.593 167.093 50.1864 167.513 49.8797 168.06C49.5864 168.607 49.4397 169.26 49.4397 170.02V170.2C49.4397 170.96 49.5864 171.613 49.8797 172.16C50.1864 172.707 50.593 173.127 51.0997 173.42C51.6197 173.713 52.2064 173.86 52.8597 173.86C53.833 173.86 54.573 173.607 55.0797 173.1C55.5997 172.593 55.9197 171.967 56.0397 171.22L57.5997 171.56C57.453 172.2 57.1864 172.807 56.7997 173.38C56.413 173.953 55.8864 174.413 55.2197 174.76C54.5664 175.107 53.773 175.28 52.8397 175.28ZM60.2928 175V161H61.8728V166.78H62.1528C62.2861 166.487 62.4861 166.213 62.7528 165.96C63.0328 165.693 63.3861 165.473 63.8128 165.3C64.2528 165.127 64.8061 165.04 65.4728 165.04C66.2061 165.04 66.8595 165.2 67.4328 165.52C68.0195 165.827 68.4861 166.28 68.8328 166.88C69.1795 167.467 69.3528 168.2 69.3528 169.08V175H67.7728V169.2C67.7728 168.227 67.5261 167.52 67.0328 167.08C66.5528 166.64 65.8995 166.42 65.0728 166.42C64.1261 166.42 63.3528 166.727 62.7528 167.34C62.1661 167.953 61.8728 168.867 61.8728 170.08V175H60.2928ZM72.5584 175V165.22H74.1384V175H72.5584ZM73.3584 163.7C73.0118 163.7 72.7184 163.587 72.4784 163.36C72.2518 163.133 72.1384 162.847 72.1384 162.5C72.1384 162.14 72.2518 161.847 72.4784 161.62C72.7184 161.393 73.0118 161.28 73.3584 161.28C73.7051 161.28 73.9918 161.393 74.2184 161.62C74.4451 161.847 74.5584 162.14 74.5584 162.5C74.5584 162.847 74.4451 163.133 74.2184 163.36C73.9918 163.587 73.7051 163.7 73.3584 163.7ZM77.4608 175V165.22H79.0008V166.88H79.2808C79.4941 166.413 79.8541 165.993 80.3608 165.62C80.8808 165.233 81.6408 165.04 82.6408 165.04C83.3741 165.04 84.0274 165.193 84.6008 165.5C85.1874 165.807 85.6541 166.26 86.0008 166.86C86.3474 167.46 86.5208 168.2 86.5208 169.08V175H84.9408V169.2C84.9408 168.227 84.6941 167.52 84.2008 167.08C83.7208 166.64 83.0674 166.42 82.2408 166.42C81.2941 166.42 80.5208 166.727 79.9208 167.34C79.3341 167.953 79.0408 168.867 79.0408 170.08V175H77.4608ZM89.2464 170.16V169.88C89.2464 168.853 89.4531 167.973 89.8664 167.24C90.2797 166.507 90.8397 165.94 91.5464 165.54C92.2531 165.14 93.0264 164.94 93.8664 164.94C94.8931 164.94 95.6797 165.14 96.2264 165.54C96.7864 165.927 97.1997 166.36 97.4664 166.84H97.7464V165.22H99.2464V177.28C99.2464 177.813 99.0997 178.233 98.8064 178.54C98.5131 178.847 98.0864 179 97.5264 179H90.8864V177.6H97.1064C97.5064 177.6 97.7064 177.4 97.7064 177V173.28H97.4264C97.2664 173.573 97.0397 173.86 96.7464 174.14C96.4531 174.42 96.0731 174.653 95.6064 174.84C95.1397 175.013 94.5597 175.1 93.8664 175.1C93.0264 175.1 92.2531 174.9 91.5464 174.5C90.8397 174.1 90.2797 173.533 89.8664 172.8C89.4531 172.053 89.2464 171.173 89.2464 170.16ZM94.2864 173.7C95.2997 173.7 96.1197 173.38 96.7464 172.74C97.3864 172.1 97.7064 171.22 97.7064 170.1V169.94C97.7064 168.807 97.3864 167.927 96.7464 167.3C96.1197 166.66 95.2997 166.34 94.2864 166.34C93.2864 166.34 92.4597 166.66 91.8064 167.3C91.1664 167.927 90.8464 168.807 90.8464 169.94V170.1C90.8464 171.22 91.1664 172.1 91.8064 172.74C92.4597 173.38 93.2864 173.7 94.2864 173.7ZM111.295 175C110.735 175 110.302 174.847 109.995 174.54C109.702 174.233 109.555 173.813 109.555 173.28V166.6H106.615V165.22H109.555V161.74H111.135V165.22H114.335V166.6H111.135V173.04C111.135 173.44 111.328 173.64 111.715 173.64H113.895V175H111.295ZM116.894 175V161H118.474V166.78H118.754C118.888 166.487 119.088 166.213 119.354 165.96C119.634 165.693 119.988 165.473 120.414 165.3C120.854 165.127 121.408 165.04 122.074 165.04C122.808 165.04 123.461 165.2 124.034 165.52C124.621 165.827 125.088 166.28 125.434 166.88C125.781 167.467 125.954 168.2 125.954 169.08V175H124.374V169.2C124.374 168.227 124.128 167.52 123.634 167.08C123.154 166.64 122.501 166.42 121.674 166.42C120.728 166.42 119.954 166.727 119.354 167.34C118.768 167.953 118.474 168.867 118.474 170.08V175H116.894ZM133.64 175.28C132.653 175.28 131.787 175.073 131.04 174.66C130.293 174.233 129.713 173.64 129.3 172.88C128.887 172.12 128.68 171.24 128.68 170.24V170C128.68 168.987 128.887 168.1 129.3 167.34C129.713 166.58 130.287 165.993 131.02 165.58C131.753 165.153 132.593 164.94 133.54 164.94C134.46 164.94 135.273 165.14 135.98 165.54C136.687 165.927 137.24 166.487 137.64 167.22C138.04 167.953 138.24 168.813 138.24 169.8V170.52H130.26C130.3 171.573 130.64 172.4 131.28 173C131.92 173.587 132.72 173.88 133.68 173.88C134.52 173.88 135.167 173.687 135.62 173.3C136.073 172.913 136.42 172.453 136.66 171.92L138.02 172.58C137.82 172.993 137.54 173.407 137.18 173.82C136.833 174.233 136.373 174.58 135.8 174.86C135.24 175.14 134.52 175.28 133.64 175.28ZM130.28 169.22H136.64C136.587 168.313 136.273 167.607 135.7 167.1C135.14 166.593 134.42 166.34 133.54 166.34C132.647 166.34 131.913 166.593 131.34 167.1C130.767 167.607 130.413 168.313 130.28 169.22ZM145.413 175V173.5H147.373V162.5H145.413V161H150.873C152.713 161 154.133 161.467 155.133 162.4C156.146 163.333 156.653 164.767 156.653 166.7V169.3C156.653 171.247 156.146 172.687 155.133 173.62C154.133 174.54 152.713 175 150.873 175H145.413ZM149.053 173.48H150.873C152.233 173.48 153.259 173.147 153.953 172.48C154.646 171.813 154.993 170.78 154.993 169.38V166.64C154.993 165.213 154.646 164.173 153.953 163.52C153.259 162.867 152.233 162.54 150.873 162.54H149.053V173.48ZM158.039 175L162.359 161H165.319L169.639 175H167.899L166.819 171.46H160.859L159.779 175H158.039ZM161.279 169.94H166.379L163.979 162.02H163.699L161.279 169.94ZM171.797 179V165.22H173.337V166.84H173.617C173.87 166.347 174.277 165.907 174.837 165.52C175.41 165.133 176.203 164.94 177.217 164.94C178.057 164.94 178.823 165.147 179.517 165.56C180.223 165.96 180.783 166.533 181.197 167.28C181.623 168.027 181.837 168.927 181.837 169.98V170.24C181.837 171.28 181.63 172.18 181.217 172.94C180.803 173.7 180.243 174.28 179.537 174.68C178.843 175.08 178.07 175.28 177.217 175.28C176.537 175.28 175.957 175.187 175.477 175C175.01 174.827 174.63 174.6 174.337 174.32C174.043 174.04 173.817 173.753 173.657 173.46H173.377V179H171.797ZM176.797 173.88C177.81 173.88 178.63 173.56 179.257 172.92C179.897 172.267 180.217 171.36 180.217 170.2V170.02C180.217 168.86 179.897 167.96 179.257 167.32C178.63 166.667 177.81 166.34 176.797 166.34C175.797 166.34 174.97 166.667 174.317 167.32C173.677 167.96 173.357 168.86 173.357 170.02V170.2C173.357 171.36 173.677 172.267 174.317 172.92C174.97 173.56 175.797 173.88 176.797 173.88ZM184.668 179V165.22H186.208V166.84H186.488C186.741 166.347 187.148 165.907 187.708 165.52C188.281 165.133 189.074 164.94 190.088 164.94C190.928 164.94 191.694 165.147 192.388 165.56C193.094 165.96 193.654 166.533 194.068 167.28C194.494 168.027 194.708 168.927 194.708 169.98V170.24C194.708 171.28 194.501 172.18 194.088 172.94C193.674 173.7 193.114 174.28 192.408 174.68C191.714 175.08 190.941 175.28 190.088 175.28C189.408 175.28 188.828 175.187 188.348 175C187.881 174.827 187.501 174.6 187.208 174.32C186.914 174.04 186.688 173.753 186.528 173.46H186.248V179H184.668ZM189.668 173.88C190.681 173.88 191.501 173.56 192.128 172.92C192.768 172.267 193.088 171.36 193.088 170.2V170.02C193.088 168.86 192.768 167.96 192.128 167.32C191.501 166.667 190.681 166.34 189.668 166.34C188.668 166.34 187.841 166.667 187.188 167.32C186.548 167.96 186.228 168.86 186.228 170.02V170.2C186.228 171.36 186.548 172.267 187.188 172.92C187.841 173.56 188.668 173.88 189.668 173.88ZM201.479 175.28C200.266 175.28 199.239 175 198.399 174.44C197.572 173.88 197.072 172.993 196.899 171.78L198.399 171.44C198.506 172.08 198.706 172.587 198.999 172.96C199.292 173.32 199.652 173.58 200.079 173.74C200.519 173.887 200.986 173.96 201.479 173.96C202.212 173.96 202.792 173.813 203.219 173.52C203.646 173.227 203.859 172.833 203.859 172.34C203.859 171.833 203.652 171.48 203.239 171.28C202.839 171.067 202.286 170.893 201.579 170.76L200.759 170.62C200.132 170.513 199.559 170.347 199.039 170.12C198.519 169.893 198.106 169.587 197.799 169.2C197.492 168.813 197.339 168.327 197.339 167.74C197.339 166.86 197.679 166.173 198.359 165.68C199.039 165.187 199.939 164.94 201.059 164.94C202.166 164.94 203.059 165.193 203.739 165.7C204.432 166.193 204.879 166.893 205.079 167.8L203.599 168.18C203.479 167.473 203.192 166.98 202.739 166.7C202.286 166.407 201.726 166.26 201.059 166.26C200.392 166.26 199.866 166.387 199.479 166.64C199.092 166.88 198.899 167.24 198.899 167.72C198.899 168.187 199.079 168.533 199.439 168.76C199.812 168.973 200.306 169.133 200.919 169.24L201.739 169.38C202.432 169.5 203.052 169.667 203.599 169.88C204.159 170.08 204.599 170.373 204.919 170.76C205.252 171.147 205.419 171.653 205.419 172.28C205.419 173.24 205.059 173.98 204.339 174.5C203.632 175.02 202.679 175.28 201.479 175.28ZM208.946 175.28C208.559 175.28 208.232 175.153 207.966 174.9C207.712 174.647 207.586 174.32 207.586 173.92C207.586 173.52 207.712 173.193 207.966 172.94C208.232 172.687 208.559 172.56 208.946 172.56C209.346 172.56 209.672 172.687 209.926 172.94C210.179 173.193 210.306 173.52 210.306 173.92C210.306 174.32 210.179 174.647 209.926 174.9C209.672 175.153 209.346 175.28 208.946 175.28ZM208.946 167.66C208.559 167.66 208.232 167.533 207.966 167.28C207.712 167.027 207.586 166.7 207.586 166.3C207.586 165.9 207.712 165.573 207.966 165.32C208.232 165.067 208.559 164.94 208.946 164.94C209.346 164.94 209.672 165.067 209.926 165.32C210.179 165.573 210.306 165.9 210.306 166.3C210.306 166.7 210.179 167.027 209.926 167.28C209.672 167.533 209.346 167.66 208.946 167.66Z" fill="#F5F6F7"/>
<g clip-path="url(#clip1_4627_32737)" filter="url(#filter2_i_4627_32737)">
<path d="M371.168 154.7C362.408 154.7 355.088 152.96 349.208 149.48C343.328 145.88 338.888 140.96 335.888 134.72C332.888 128.48 331.388 121.22 331.388 112.94V46.88C331.388 38.36 332.768 30.92 335.528 24.56C338.408 18.08 342.788 13.04 348.668 9.43999C354.548 5.83999 362.048 4.04 371.168 4.04C380.288 4.04 387.728 5.83999 393.488 9.43999C399.368 13.04 403.688 18.08 406.448 24.56C409.328 30.92 410.768 38.36 410.768 46.88V112.94C410.768 121.1 409.268 128.36 406.268 134.72C403.268 140.96 398.828 145.88 392.948 149.48C387.068 152.96 379.808 154.7 371.168 154.7ZM371.168 127.88C374.048 127.88 376.088 126.98 377.288 125.18C378.608 123.26 379.388 121.1 379.628 118.7C379.988 116.18 380.168 114.02 380.168 112.22V47.6C380.168 45.56 380.048 43.28 379.808 40.76C379.568 38.12 378.788 35.84 377.468 33.92C376.268 31.88 374.168 30.86 371.168 30.86C368.168 30.86 366.008 31.88 364.688 33.92C363.488 35.84 362.768 38.12 362.528 40.76C362.288 43.28 362.168 45.56 362.168 47.6V112.22C362.168 114.02 362.348 116.18 362.708 118.7C363.068 121.1 363.848 123.26 365.048 125.18C366.368 126.98 368.408 127.88 371.168 127.88ZM428.013 152V130.76L462.933 77.12C465.573 73.16 468.033 69.32 470.313 65.6C472.713 61.88 474.633 58.1 476.073 54.26C477.633 50.42 478.413 46.4 478.413 42.2C478.413 38 477.573 34.88 475.893 32.84C474.213 30.8 471.933 29.78 469.053 29.78C465.813 29.78 463.293 30.68 461.493 32.48C459.693 34.28 458.433 36.68 457.713 39.68C457.113 42.68 456.813 46.04 456.813 49.76V56.96H427.653V49.22C427.653 40.58 429.033 32.9 431.793 26.18C434.553 19.34 438.933 14 444.933 10.16C450.933 6.19999 458.793 4.21999 468.513 4.21999C481.593 4.21999 491.433 7.63999 498.033 14.48C504.753 21.2 508.113 30.62 508.113 42.74C508.113 48.62 507.153 54.08 505.233 59.12C503.433 64.16 500.973 69.08 497.853 73.88C494.853 78.56 491.613 83.48 488.133 88.64L461.493 128.42H504.153V152H428.013Z" fill="#C9CBCE"/>
<g filter="url(#filter3_d_4627_32737)">
<rect x="321.668" y="117" width="192" height="21" fill="#D9D9D9"/>
</g>
</g>
<path d="M328.328 175.28C326.661 175.28 325.335 174.8 324.348 173.84C323.361 172.867 322.868 171.453 322.868 169.6V166.4C322.868 164.547 323.361 163.14 324.348 162.18C325.335 161.207 326.661 160.72 328.328 160.72C329.981 160.72 331.248 161.18 332.128 162.1C333.021 163.02 333.468 164.28 333.468 165.88V165.98H331.808V165.82C331.808 164.767 331.521 163.907 330.948 163.24C330.388 162.56 329.515 162.22 328.328 162.22C327.141 162.22 326.215 162.587 325.548 163.32C324.881 164.04 324.548 165.053 324.548 166.36V169.64C324.548 170.947 324.881 171.967 325.548 172.7C326.215 173.42 327.141 173.78 328.328 173.78C329.515 173.78 330.388 173.447 330.948 172.78C331.521 172.1 331.808 171.233 331.808 170.18V169.86H333.468V170.12C333.468 171.72 333.021 172.98 332.128 173.9C331.248 174.82 329.981 175.28 328.328 175.28ZM340.68 175.28C339.693 175.28 338.82 175.073 338.06 174.66C337.313 174.247 336.727 173.667 336.3 172.92C335.887 172.16 335.68 171.267 335.68 170.24V169.98C335.68 168.967 335.887 168.08 336.3 167.32C336.727 166.56 337.313 165.973 338.06 165.56C338.82 165.147 339.693 164.94 340.68 164.94C341.667 164.94 342.533 165.147 343.28 165.56C344.04 165.973 344.627 166.56 345.04 167.32C345.467 168.08 345.68 168.967 345.68 169.98V170.24C345.68 171.267 345.467 172.16 345.04 172.92C344.627 173.667 344.04 174.247 343.28 174.66C342.533 175.073 341.667 175.28 340.68 175.28ZM340.68 173.86C341.72 173.86 342.547 173.533 343.16 172.88C343.787 172.213 344.1 171.32 344.1 170.2V170.02C344.1 168.9 343.787 168.013 343.16 167.36C342.547 166.693 341.72 166.36 340.68 166.36C339.653 166.36 338.827 166.693 338.2 167.36C337.573 168.013 337.26 168.9 337.26 170.02V170.2C337.26 171.32 337.573 172.213 338.2 172.88C338.827 173.533 339.653 173.86 340.68 173.86ZM348.523 175V165.22H350.063V166.88H350.343C350.557 166.413 350.917 165.993 351.423 165.62C351.943 165.233 352.703 165.04 353.703 165.04C354.437 165.04 355.09 165.193 355.663 165.5C356.25 165.807 356.717 166.26 357.063 166.86C357.41 167.46 357.583 168.2 357.583 169.08V175H356.003V169.2C356.003 168.227 355.757 167.52 355.263 167.08C354.783 166.64 354.13 166.42 353.303 166.42C352.357 166.42 351.583 166.727 350.983 167.34C350.397 167.953 350.103 168.867 350.103 170.08V175H348.523ZM360.789 175V165.22H362.329V166.88H362.609C362.822 166.413 363.182 165.993 363.689 165.62C364.209 165.233 364.969 165.04 365.969 165.04C366.702 165.04 367.356 165.193 367.929 165.5C368.516 165.807 368.982 166.26 369.329 166.86C369.676 167.46 369.849 168.2 369.849 169.08V175H368.269V169.2C368.269 168.227 368.022 167.52 367.529 167.08C367.049 166.64 366.396 166.42 365.569 166.42C364.622 166.42 363.849 166.727 363.249 167.34C362.662 167.953 362.369 168.867 362.369 170.08V175H360.789ZM377.535 175.28C376.548 175.28 375.681 175.073 374.935 174.66C374.188 174.233 373.608 173.64 373.195 172.88C372.781 172.12 372.575 171.24 372.575 170.24V170C372.575 168.987 372.781 168.1 373.195 167.34C373.608 166.58 374.181 165.993 374.915 165.58C375.648 165.153 376.488 164.94 377.435 164.94C378.355 164.94 379.168 165.14 379.875 165.54C380.581 165.927 381.135 166.487 381.535 167.22C381.935 167.953 382.135 168.813 382.135 169.8V170.52H374.155C374.195 171.573 374.535 172.4 375.175 173C375.815 173.587 376.615 173.88 377.575 173.88C378.415 173.88 379.061 173.687 379.515 173.3C379.968 172.913 380.315 172.453 380.555 171.92L381.915 172.58C381.715 172.993 381.435 173.407 381.075 173.82C380.728 174.233 380.268 174.58 379.695 174.86C379.135 175.14 378.415 175.28 377.535 175.28ZM374.175 169.22H380.535C380.481 168.313 380.168 167.607 379.595 167.1C379.035 166.593 378.315 166.34 377.435 166.34C376.541 166.34 375.808 166.593 375.235 167.1C374.661 167.607 374.308 168.313 374.175 169.22ZM389.39 175.28C388.444 175.28 387.59 175.08 386.83 174.68C386.084 174.267 385.49 173.68 385.05 172.92C384.624 172.16 384.41 171.26 384.41 170.22V170C384.41 168.947 384.624 168.047 385.05 167.3C385.49 166.54 386.084 165.96 386.83 165.56C387.59 165.147 388.444 164.94 389.39 164.94C390.324 164.94 391.117 165.113 391.77 165.46C392.437 165.807 392.957 166.267 393.33 166.84C393.717 167.413 393.964 168.027 394.07 168.68L392.53 169C392.464 168.52 392.304 168.08 392.05 167.68C391.81 167.28 391.47 166.96 391.03 166.72C390.59 166.48 390.05 166.36 389.41 166.36C388.757 166.36 388.17 166.507 387.65 166.8C387.144 167.093 386.737 167.513 386.43 168.06C386.137 168.607 385.99 169.26 385.99 170.02V170.2C385.99 170.96 386.137 171.613 386.43 172.16C386.737 172.707 387.144 173.127 387.65 173.42C388.17 173.713 388.757 173.86 389.41 173.86C390.384 173.86 391.124 173.607 391.63 173.1C392.15 172.593 392.47 171.967 392.59 171.22L394.15 171.56C394.004 172.2 393.737 172.807 393.35 173.38C392.964 173.953 392.437 174.413 391.77 174.76C391.117 175.107 390.324 175.28 389.39 175.28ZM400.033 175C399.473 175 399.04 174.847 398.733 174.54C398.44 174.233 398.293 173.813 398.293 173.28V166.6H395.353V165.22H398.293V161.74H399.873V165.22H403.073V166.6H399.873V173.04C399.873 173.44 400.067 173.64 400.453 173.64H402.633V175H400.033ZM405.633 175V165.22H407.213V175H405.633ZM406.433 163.7C406.086 163.7 405.793 163.587 405.553 163.36C405.326 163.133 405.213 162.847 405.213 162.5C405.213 162.14 405.326 161.847 405.553 161.62C405.793 161.393 406.086 161.28 406.433 161.28C406.779 161.28 407.066 161.393 407.293 161.62C407.519 161.847 407.633 162.14 407.633 162.5C407.633 162.847 407.519 163.133 407.293 163.36C407.066 163.587 406.779 163.7 406.433 163.7ZM410.535 175V165.22H412.075V166.88H412.355C412.568 166.413 412.928 165.993 413.435 165.62C413.955 165.233 414.715 165.04 415.715 165.04C416.448 165.04 417.102 165.193 417.675 165.5C418.262 165.807 418.728 166.26 419.075 166.86C419.422 167.46 419.595 168.2 419.595 169.08V175H418.015V169.2C418.015 168.227 417.768 167.52 417.275 167.08C416.795 166.64 416.142 166.42 415.315 166.42C414.368 166.42 413.595 166.727 412.995 167.34C412.408 167.953 412.115 168.867 412.115 170.08V175H410.535ZM422.321 170.16V169.88C422.321 168.853 422.527 167.973 422.941 167.24C423.354 166.507 423.914 165.94 424.621 165.54C425.327 165.14 426.101 164.94 426.941 164.94C427.967 164.94 428.754 165.14 429.301 165.54C429.861 165.927 430.274 166.36 430.541 166.84H430.821V165.22H432.321V177.28C432.321 177.813 432.174 178.233 431.881 178.54C431.587 178.847 431.161 179 430.601 179H423.961V177.6H430.181C430.581 177.6 430.781 177.4 430.781 177V173.28H430.501C430.341 173.573 430.114 173.86 429.821 174.14C429.527 174.42 429.147 174.653 428.681 174.84C428.214 175.013 427.634 175.1 426.941 175.1C426.101 175.1 425.327 174.9 424.621 174.5C423.914 174.1 423.354 173.533 422.941 172.8C422.527 172.053 422.321 171.173 422.321 170.16ZM427.361 173.7C428.374 173.7 429.194 173.38 429.821 172.74C430.461 172.1 430.781 171.22 430.781 170.1V169.94C430.781 168.807 430.461 167.927 429.821 167.3C429.194 166.66 428.374 166.34 427.361 166.34C426.361 166.34 425.534 166.66 424.881 167.3C424.241 167.927 423.921 168.807 423.921 169.94V170.1C423.921 171.22 424.241 172.1 424.881 172.74C425.534 173.38 426.361 173.7 427.361 173.7ZM444.115 175V169.66L439.135 161H441.055L444.815 167.72H445.095L448.855 161H450.775L445.795 169.66V175H444.115ZM455.504 175.28C454.518 175.28 453.644 175.073 452.884 174.66C452.138 174.247 451.551 173.667 451.124 172.92C450.711 172.16 450.504 171.267 450.504 170.24V169.98C450.504 168.967 450.711 168.08 451.124 167.32C451.551 166.56 452.138 165.973 452.884 165.56C453.644 165.147 454.518 164.94 455.504 164.94C456.491 164.94 457.358 165.147 458.104 165.56C458.864 165.973 459.451 166.56 459.864 167.32C460.291 168.08 460.504 168.967 460.504 169.98V170.24C460.504 171.267 460.291 172.16 459.864 172.92C459.451 173.667 458.864 174.247 458.104 174.66C457.358 175.073 456.491 175.28 455.504 175.28ZM455.504 173.86C456.544 173.86 457.371 173.533 457.984 172.88C458.611 172.213 458.924 171.32 458.924 170.2V170.02C458.924 168.9 458.611 168.013 457.984 167.36C457.371 166.693 456.544 166.36 455.504 166.36C454.478 166.36 453.651 166.693 453.024 167.36C452.398 168.013 452.084 168.9 452.084 170.02V170.2C452.084 171.32 452.398 172.213 453.024 172.88C453.651 173.533 454.478 173.86 455.504 173.86ZM467.088 175.18C466.381 175.18 465.728 175.027 465.128 174.72C464.541 174.413 464.074 173.96 463.728 173.36C463.394 172.747 463.228 172.007 463.228 171.14V165.22H464.808V171.02C464.808 171.993 465.048 172.7 465.528 173.14C466.021 173.58 466.681 173.8 467.508 173.8C468.441 173.8 469.208 173.493 469.808 172.88C470.408 172.267 470.708 171.353 470.708 170.14V165.22H472.288V175H470.748V173.34H470.468C470.254 173.807 469.888 174.233 469.368 174.62C468.848 174.993 468.088 175.18 467.088 175.18ZM475.594 175V165.22H477.134V166.42H477.414C477.587 165.993 477.854 165.68 478.214 165.48C478.574 165.28 479.047 165.18 479.634 165.18H480.794V166.62H479.534C478.827 166.62 478.254 166.82 477.814 167.22C477.387 167.607 477.174 168.213 477.174 169.04V175H475.594ZM489.493 175L487.213 161H488.893L490.873 173.92H491.153L493.733 161H496.733L499.293 173.92H499.573L501.553 161H503.233L500.953 175H497.953L495.373 162H495.093L492.513 175H489.493ZM508.437 175.28C507.757 175.28 507.137 175.16 506.577 174.92C506.017 174.68 505.577 174.333 505.257 173.88C504.937 173.427 504.777 172.873 504.777 172.22C504.777 171.553 504.937 171.007 505.257 170.58C505.577 170.14 506.017 169.813 506.577 169.6C507.137 169.373 507.764 169.26 508.457 169.26H511.757V168.54C511.757 167.847 511.551 167.3 511.137 166.9C510.737 166.5 510.137 166.3 509.337 166.3C508.551 166.3 507.937 166.493 507.497 166.88C507.057 167.253 506.757 167.76 506.597 168.4L505.117 167.92C505.277 167.373 505.531 166.88 505.877 166.44C506.224 165.987 506.684 165.627 507.257 165.36C507.844 165.08 508.544 164.94 509.357 164.94C510.611 164.94 511.584 165.267 512.277 165.92C512.971 166.56 513.317 167.467 513.317 168.64V173.06C513.317 173.46 513.504 173.66 513.877 173.66H514.777V175H513.397C512.957 175 512.604 174.88 512.337 174.64C512.071 174.387 511.937 174.053 511.937 173.64V173.54H511.697C511.551 173.793 511.351 174.06 511.097 174.34C510.857 174.607 510.524 174.827 510.097 175C509.671 175.187 509.117 175.28 508.437 175.28ZM508.617 173.92C509.551 173.92 510.304 173.647 510.877 173.1C511.464 172.54 511.757 171.76 511.757 170.76V170.54H508.517C507.891 170.54 507.371 170.68 506.957 170.96C506.557 171.227 506.357 171.633 506.357 172.18C506.357 172.727 506.564 173.153 506.977 173.46C507.404 173.767 507.951 173.92 508.617 173.92ZM516.941 175V161H518.521V175H516.941ZM521.844 175V161H523.424V175H521.844ZM531.226 175.28C530.239 175.28 529.373 175.073 528.626 174.66C527.879 174.233 527.299 173.64 526.886 172.88C526.473 172.12 526.266 171.24 526.266 170.24V170C526.266 168.987 526.473 168.1 526.886 167.34C527.299 166.58 527.873 165.993 528.606 165.58C529.339 165.153 530.179 164.94 531.126 164.94C532.046 164.94 532.859 165.14 533.566 165.54C534.273 165.927 534.826 166.487 535.226 167.22C535.626 167.953 535.826 168.813 535.826 169.8V170.52H527.846C527.886 171.573 528.226 172.4 528.866 173C529.506 173.587 530.306 173.88 531.266 173.88C532.106 173.88 532.753 173.687 533.206 173.3C533.659 172.913 534.006 172.453 534.246 171.92L535.606 172.58C535.406 172.993 535.126 173.407 534.766 173.82C534.419 174.233 533.959 174.58 533.386 174.86C532.826 175.14 532.106 175.28 531.226 175.28ZM527.866 169.22H534.226C534.173 168.313 533.859 167.607 533.286 167.1C532.726 166.593 532.006 166.34 531.126 166.34C530.233 166.34 529.499 166.593 528.926 167.1C528.353 167.607 527.999 168.313 527.866 169.22ZM541.772 175C541.212 175 540.778 174.847 540.472 174.54C540.178 174.233 540.032 173.813 540.032 173.28V166.6H537.092V165.22H540.032V161.74H541.612V165.22H544.812V166.6H541.612V173.04C541.612 173.44 541.805 173.64 542.192 173.64H544.372V175H541.772ZM548.231 175.28C547.844 175.28 547.518 175.153 547.251 174.9C546.998 174.647 546.871 174.32 546.871 173.92C546.871 173.52 546.998 173.193 547.251 172.94C547.518 172.687 547.844 172.56 548.231 172.56C548.631 172.56 548.958 172.687 549.211 172.94C549.464 173.193 549.591 173.52 549.591 173.92C549.591 174.32 549.464 174.647 549.211 174.9C548.958 175.153 548.631 175.28 548.231 175.28ZM548.231 167.66C547.844 167.66 547.518 167.533 547.251 167.28C546.998 167.027 546.871 166.7 546.871 166.3C546.871 165.9 546.998 165.573 547.251 165.32C547.518 165.067 547.844 164.94 548.231 164.94C548.631 164.94 548.958 165.067 549.211 165.32C549.464 165.573 549.591 165.9 549.591 166.3C549.591 166.7 549.464 167.027 549.211 167.28C548.958 167.533 548.631 167.66 548.231 167.66Z" fill="#F5F6F7"/>
<g clip-path="url(#clip2_4627_32737)" filter="url(#filter4_i_4627_32737)">
<path d="M706.832 154.7C698.072 154.7 690.752 152.96 684.872 149.48C678.992 145.88 674.552 140.96 671.552 134.72C668.552 128.48 667.052 121.22 667.052 112.94V46.88C667.052 38.36 668.432 30.92 671.192 24.56C674.072 18.08 678.452 13.04 684.332 9.43999C690.212 5.83999 697.712 4.04 706.832 4.04C715.952 4.04 723.392 5.83999 729.152 9.43999C735.032 13.04 739.352 18.08 742.112 24.56C744.992 30.92 746.432 38.36 746.432 46.88V112.94C746.432 121.1 744.932 128.36 741.932 134.72C738.932 140.96 734.492 145.88 728.612 149.48C722.732 152.96 715.472 154.7 706.832 154.7ZM706.832 127.88C709.712 127.88 711.752 126.98 712.952 125.18C714.272 123.26 715.052 121.1 715.292 118.7C715.652 116.18 715.832 114.02 715.832 112.22V47.6C715.832 45.56 715.712 43.28 715.472 40.76C715.232 38.12 714.452 35.84 713.132 33.92C711.932 31.88 709.832 30.86 706.832 30.86C703.832 30.86 701.672 31.88 700.352 33.92C699.152 35.84 698.432 38.12 698.192 40.76C697.952 43.28 697.832 45.56 697.832 47.6V112.22C697.832 114.02 698.012 116.18 698.372 118.7C698.732 121.1 699.512 123.26 700.712 125.18C702.032 126.98 704.072 127.88 706.832 127.88ZM803.277 154.7C793.077 154.7 785.037 152.78 779.157 148.94C773.397 145.1 769.257 139.76 766.737 132.92C764.337 125.96 763.137 117.98 763.137 108.98V103.76H793.197C793.197 103.88 793.197 104.54 793.197 105.74C793.197 106.94 793.197 108.02 793.197 108.98C793.197 113.78 793.497 117.68 794.097 120.68C794.697 123.68 795.777 125.9 797.337 127.34C798.897 128.66 801.057 129.32 803.817 129.32C806.577 129.32 808.617 128.6 809.937 127.16C811.377 125.72 812.337 123.56 812.817 120.68C813.297 117.8 813.537 114.2 813.537 109.88C813.537 102.68 812.517 97.22 810.477 93.5C808.557 89.66 804.477 87.68 798.237 87.56C798.117 87.56 797.457 87.56 796.257 87.56C795.057 87.56 793.857 87.56 792.657 87.56V66.86C793.497 66.86 794.337 66.86 795.177 66.86C796.017 66.86 796.797 66.86 797.517 66.86C803.877 66.86 808.137 65.12 810.297 61.64C812.457 58.16 813.537 52.76 813.537 45.44C813.537 39.8 812.757 35.48 811.197 32.48C809.757 29.48 806.997 27.98 802.917 27.98C798.957 27.98 796.317 29.66 794.997 33.02C793.797 36.38 793.197 40.7 793.197 45.98C793.197 47.18 793.197 48.44 793.197 49.76C793.197 50.96 793.197 52.22 793.197 53.54H763.137V44.72C763.137 35.96 764.697 28.58 767.817 22.58C771.057 16.46 775.617 11.84 781.497 8.71999C787.497 5.59999 794.637 4.04 802.917 4.04C811.317 4.04 818.517 5.53999 824.517 8.53999C830.517 11.54 835.137 15.98 838.377 21.86C841.617 27.62 843.237 34.82 843.237 43.46C843.237 51.98 841.497 59.12 838.017 64.88C834.537 70.64 830.337 74.18 825.417 75.5C828.777 76.7 831.777 78.62 834.417 81.26C837.177 83.9 839.337 87.5 840.897 92.06C842.457 96.5 843.237 102.2 843.237 109.16C843.237 118.04 841.917 125.9 839.277 132.74C836.757 139.58 832.557 144.98 826.677 148.94C820.797 152.78 812.997 154.7 803.277 154.7Z" fill="#C9CBCE"/>
<g filter="url(#filter5_d_4627_32737)">
<rect x="651.332" y="117" width="205" height="21" fill="#D9D9D9"/>
</g>
</g>
<path d="M663.992 175.28C662.952 175.28 662.045 175.093 661.272 174.72C660.499 174.347 659.899 173.793 659.472 173.06C659.045 172.313 658.832 171.4 658.832 170.32V161H660.492V170.34C660.492 171.487 660.799 172.347 661.412 172.92C662.025 173.493 662.885 173.78 663.992 173.78C665.099 173.78 665.959 173.493 666.572 172.92C667.185 172.347 667.492 171.487 667.492 170.34V161H669.172V170.32C669.172 171.4 668.959 172.313 668.532 173.06C668.105 173.793 667.499 174.347 666.712 174.72C665.939 175.093 665.032 175.28 663.992 175.28ZM672.312 179V165.22H673.852V166.84H674.132C674.386 166.347 674.792 165.907 675.352 165.52C675.926 165.133 676.719 164.94 677.732 164.94C678.572 164.94 679.339 165.147 680.032 165.56C680.739 165.96 681.299 166.533 681.712 167.28C682.139 168.027 682.352 168.927 682.352 169.98V170.24C682.352 171.28 682.146 172.18 681.732 172.94C681.319 173.7 680.759 174.28 680.052 174.68C679.359 175.08 678.586 175.28 677.732 175.28C677.052 175.28 676.472 175.187 675.992 175C675.526 174.827 675.146 174.6 674.852 174.32C674.559 174.04 674.332 173.753 674.172 173.46H673.892V179H672.312ZM677.312 173.88C678.326 173.88 679.146 173.56 679.772 172.92C680.412 172.267 680.732 171.36 680.732 170.2V170.02C680.732 168.86 680.412 167.96 679.772 167.32C679.146 166.667 678.326 166.34 677.312 166.34C676.312 166.34 675.486 166.667 674.832 167.32C674.192 167.96 673.872 168.86 673.872 170.02V170.2C673.872 171.36 674.192 172.267 674.832 172.92C675.486 173.56 676.312 173.88 677.312 173.88ZM685.183 175V161H686.763V175H685.183ZM694.606 175.28C693.619 175.28 692.746 175.073 691.986 174.66C691.239 174.247 690.652 173.667 690.226 172.92C689.812 172.16 689.606 171.267 689.606 170.24V169.98C689.606 168.967 689.812 168.08 690.226 167.32C690.652 166.56 691.239 165.973 691.986 165.56C692.746 165.147 693.619 164.94 694.606 164.94C695.592 164.94 696.459 165.147 697.206 165.56C697.966 165.973 698.552 166.56 698.966 167.32C699.392 168.08 699.606 168.967 699.606 169.98V170.24C699.606 171.267 699.392 172.16 698.966 172.92C698.552 173.667 697.966 174.247 697.206 174.66C696.459 175.073 695.592 175.28 694.606 175.28ZM694.606 173.86C695.646 173.86 696.472 173.533 697.086 172.88C697.712 172.213 698.026 171.32 698.026 170.2V170.02C698.026 168.9 697.712 168.013 697.086 167.36C696.472 166.693 695.646 166.36 694.606 166.36C693.579 166.36 692.752 166.693 692.126 167.36C691.499 168.013 691.186 168.9 691.186 170.02V170.2C691.186 171.32 691.499 172.213 692.126 172.88C692.752 173.533 693.579 173.86 694.606 173.86ZM705.449 175.28C704.769 175.28 704.149 175.16 703.589 174.92C703.029 174.68 702.589 174.333 702.269 173.88C701.949 173.427 701.789 172.873 701.789 172.22C701.789 171.553 701.949 171.007 702.269 170.58C702.589 170.14 703.029 169.813 703.589 169.6C704.149 169.373 704.776 169.26 705.469 169.26H708.769V168.54C708.769 167.847 708.562 167.3 708.149 166.9C707.749 166.5 707.149 166.3 706.349 166.3C705.562 166.3 704.949 166.493 704.509 166.88C704.069 167.253 703.769 167.76 703.609 168.4L702.129 167.92C702.289 167.373 702.542 166.88 702.889 166.44C703.236 165.987 703.696 165.627 704.269 165.36C704.856 165.08 705.556 164.94 706.369 164.94C707.622 164.94 708.596 165.267 709.289 165.92C709.982 166.56 710.329 167.467 710.329 168.64V173.06C710.329 173.46 710.516 173.66 710.889 173.66H711.789V175H710.409C709.969 175 709.616 174.88 709.349 174.64C709.082 174.387 708.949 174.053 708.949 173.64V173.54H708.709C708.562 173.793 708.362 174.06 708.109 174.34C707.869 174.607 707.536 174.827 707.109 175C706.682 175.187 706.129 175.28 705.449 175.28ZM705.629 173.92C706.562 173.92 707.316 173.647 707.889 173.1C708.476 172.54 708.769 171.76 708.769 170.76V170.54H705.529C704.902 170.54 704.382 170.68 703.969 170.96C703.569 171.227 703.369 171.633 703.369 172.18C703.369 172.727 703.576 173.153 703.989 173.46C704.416 173.767 704.962 173.92 705.629 173.92ZM717.82 175.28C716.98 175.28 716.206 175.08 715.5 174.68C714.793 174.28 714.233 173.7 713.82 172.94C713.406 172.18 713.2 171.28 713.2 170.24V169.98C713.2 168.94 713.406 168.047 713.82 167.3C714.233 166.54 714.786 165.96 715.48 165.56C716.186 165.147 716.966 164.94 717.82 164.94C718.5 164.94 719.073 165.033 719.54 165.22C720.02 165.393 720.406 165.62 720.7 165.9C720.993 166.167 721.22 166.453 721.38 166.76H721.66V161H723.24V175H721.7V173.38H721.42C721.153 173.873 720.74 174.313 720.18 174.7C719.62 175.087 718.833 175.28 717.82 175.28ZM718.24 173.88C719.253 173.88 720.073 173.56 720.7 172.92C721.34 172.267 721.66 171.36 721.66 170.2V170.02C721.66 168.86 721.34 167.96 720.7 167.32C720.073 166.667 719.253 166.34 718.24 166.34C717.24 166.34 716.413 166.667 715.76 167.32C715.12 167.96 714.8 168.86 714.8 170.02V170.2C714.8 171.36 715.12 172.267 715.76 172.92C716.413 173.56 717.24 173.88 718.24 173.88ZM732.867 179V177.6H738.467C738.854 177.6 739.047 177.4 739.047 177V173.44H738.767C738.634 173.72 738.427 174 738.147 174.28C737.881 174.547 737.527 174.767 737.087 174.94C736.647 175.1 736.094 175.18 735.427 175.18C734.721 175.18 734.067 175.027 733.467 174.72C732.881 174.413 732.414 173.96 732.067 173.36C731.734 172.76 731.567 172.027 731.567 171.16V165.22H733.147V171.04C733.147 172 733.387 172.7 733.867 173.14C734.361 173.58 735.021 173.8 735.847 173.8C736.781 173.8 737.547 173.493 738.147 172.88C738.747 172.267 739.047 171.353 739.047 170.14V165.22H740.627V177.28C740.627 177.813 740.474 178.233 740.167 178.54C739.874 178.847 739.441 179 738.867 179H732.867ZM748.453 175.28C747.467 175.28 746.593 175.073 745.833 174.66C745.087 174.247 744.5 173.667 744.073 172.92C743.66 172.16 743.453 171.267 743.453 170.24V169.98C743.453 168.967 743.66 168.08 744.073 167.32C744.5 166.56 745.087 165.973 745.833 165.56C746.593 165.147 747.467 164.94 748.453 164.94C749.44 164.94 750.307 165.147 751.053 165.56C751.813 165.973 752.4 166.56 752.813 167.32C753.24 168.08 753.453 168.967 753.453 169.98V170.24C753.453 171.267 753.24 172.16 752.813 172.92C752.4 173.667 751.813 174.247 751.053 174.66C750.307 175.073 749.44 175.28 748.453 175.28ZM748.453 173.86C749.493 173.86 750.32 173.533 750.933 172.88C751.56 172.213 751.873 171.32 751.873 170.2V170.02C751.873 168.9 751.56 168.013 750.933 167.36C750.32 166.693 749.493 166.36 748.453 166.36C747.427 166.36 746.6 166.693 745.973 167.36C745.347 168.013 745.033 168.9 745.033 170.02V170.2C745.033 171.32 745.347 172.213 745.973 172.88C746.6 173.533 747.427 173.86 748.453 173.86ZM760.037 175.18C759.33 175.18 758.677 175.027 758.077 174.72C757.49 174.413 757.023 173.96 756.677 173.36C756.343 172.747 756.177 172.007 756.177 171.14V165.22H757.757V171.02C757.757 171.993 757.997 172.7 758.477 173.14C758.97 173.58 759.63 173.8 760.457 173.8C761.39 173.8 762.157 173.493 762.757 172.88C763.357 172.267 763.657 171.353 763.657 170.14V165.22H765.237V175H763.697V173.34H763.417C763.203 173.807 762.837 174.233 762.317 174.62C761.797 174.993 761.037 175.18 760.037 175.18ZM768.543 175V165.22H770.083V166.42H770.363C770.536 165.993 770.803 165.68 771.163 165.48C771.523 165.28 771.996 165.18 772.583 165.18H773.743V166.62H772.483C771.776 166.62 771.203 166.82 770.763 167.22C770.336 167.607 770.123 168.213 770.123 169.04V175H768.543ZM785.159 175.28C783.945 175.28 782.919 175 782.079 174.44C781.252 173.88 780.752 172.993 780.579 171.78L782.079 171.44C782.185 172.08 782.385 172.587 782.679 172.96C782.972 173.32 783.332 173.58 783.759 173.74C784.199 173.887 784.665 173.96 785.159 173.96C785.892 173.96 786.472 173.813 786.899 173.52C787.325 173.227 787.539 172.833 787.539 172.34C787.539 171.833 787.332 171.48 786.919 171.28C786.519 171.067 785.965 170.893 785.259 170.76L784.439 170.62C783.812 170.513 783.239 170.347 782.719 170.12C782.199 169.893 781.785 169.587 781.479 169.2C781.172 168.813 781.019 168.327 781.019 167.74C781.019 166.86 781.359 166.173 782.039 165.68C782.719 165.187 783.619 164.94 784.739 164.94C785.845 164.94 786.739 165.193 787.419 165.7C788.112 166.193 788.559 166.893 788.759 167.8L787.279 168.18C787.159 167.473 786.872 166.98 786.419 166.7C785.965 166.407 785.405 166.26 784.739 166.26C784.072 166.26 783.545 166.387 783.159 166.64C782.772 166.88 782.579 167.24 782.579 167.72C782.579 168.187 782.759 168.533 783.119 168.76C783.492 168.973 783.985 169.133 784.599 169.24L785.419 169.38C786.112 169.5 786.732 169.667 787.279 169.88C787.839 170.08 788.279 170.373 788.599 170.76C788.932 171.147 789.099 171.653 789.099 172.28C789.099 173.24 788.739 173.98 788.019 174.5C787.312 175.02 786.359 175.28 785.159 175.28ZM796.285 175.28C795.299 175.28 794.425 175.073 793.665 174.66C792.919 174.247 792.332 173.667 791.905 172.92C791.492 172.16 791.285 171.267 791.285 170.24V169.98C791.285 168.967 791.492 168.08 791.905 167.32C792.332 166.56 792.919 165.973 793.665 165.56C794.425 165.147 795.299 164.94 796.285 164.94C797.272 164.94 798.139 165.147 798.885 165.56C799.645 165.973 800.232 166.56 800.645 167.32C801.072 168.08 801.285 168.967 801.285 169.98V170.24C801.285 171.267 801.072 172.16 800.645 172.92C800.232 173.667 799.645 174.247 798.885 174.66C798.139 175.073 797.272 175.28 796.285 175.28ZM796.285 173.86C797.325 173.86 798.152 173.533 798.765 172.88C799.392 172.213 799.705 171.32 799.705 170.2V170.02C799.705 168.9 799.392 168.013 798.765 167.36C798.152 166.693 797.325 166.36 796.285 166.36C795.259 166.36 794.432 166.693 793.805 167.36C793.179 168.013 792.865 168.9 792.865 170.02V170.2C792.865 171.32 793.179 172.213 793.805 172.88C794.432 173.533 795.259 173.86 796.285 173.86ZM807.869 175.18C807.162 175.18 806.509 175.027 805.909 174.72C805.322 174.413 804.855 173.96 804.509 173.36C804.175 172.747 804.009 172.007 804.009 171.14V165.22H805.589V171.02C805.589 171.993 805.829 172.7 806.309 173.14C806.802 173.58 807.462 173.8 808.289 173.8C809.222 173.8 809.989 173.493 810.589 172.88C811.189 172.267 811.489 171.353 811.489 170.14V165.22H813.069V175H811.529V173.34H811.249C811.035 173.807 810.669 174.233 810.149 174.62C809.629 174.993 808.869 175.18 807.869 175.18ZM816.375 175V165.22H817.915V166.88H818.195C818.408 166.413 818.768 165.993 819.275 165.62C819.795 165.233 820.555 165.04 821.555 165.04C822.288 165.04 822.942 165.193 823.515 165.5C824.102 165.807 824.568 166.26 824.915 166.86C825.262 167.46 825.435 168.2 825.435 169.08V175H823.855V169.2C823.855 168.227 823.608 167.52 823.115 167.08C822.635 166.64 821.982 166.42 821.155 166.42C820.208 166.42 819.435 166.727 818.835 167.34C818.248 167.953 817.955 168.867 817.955 170.08V175H816.375ZM832.78 175.28C831.94 175.28 831.167 175.08 830.46 174.68C829.754 174.28 829.194 173.7 828.78 172.94C828.367 172.18 828.16 171.28 828.16 170.24V169.98C828.16 168.94 828.367 168.047 828.78 167.3C829.194 166.54 829.747 165.96 830.44 165.56C831.147 165.147 831.927 164.94 832.78 164.94C833.46 164.94 834.034 165.033 834.5 165.22C834.98 165.393 835.367 165.62 835.66 165.9C835.954 166.167 836.18 166.453 836.34 166.76H836.62V161H838.2V175H836.66V173.38H836.38C836.114 173.873 835.7 174.313 835.14 174.7C834.58 175.087 833.794 175.28 832.78 175.28ZM833.2 173.88C834.214 173.88 835.034 173.56 835.66 172.92C836.3 172.267 836.62 171.36 836.62 170.2V170.02C836.62 168.86 836.3 167.96 835.66 167.32C835.034 166.667 834.214 166.34 833.2 166.34C832.2 166.34 831.374 166.667 830.72 167.32C830.08 167.96 829.76 168.86 829.76 170.02V170.2C829.76 171.36 830.08 172.267 830.72 172.92C831.374 173.56 832.2 173.88 833.2 173.88ZM844.988 179L850.868 161H852.448L846.568 179H844.988ZM658.932 207V193H662.192L667.072 205.94H667.332V193H668.992V207H665.732L660.872 194.04H660.592V207H658.932ZM672.213 207V193H680.673V194.52H673.893V199.22H680.133V200.74H673.893V207H672.213ZM686.454 207V194.52H681.954V193H692.634V194.52H688.134V207H686.454ZM694.672 197.64V196.64H695.252C695.732 196.64 695.972 196.4 695.972 195.92V195.28H695.692C695.305 195.28 694.979 195.16 694.712 194.92C694.459 194.68 694.332 194.38 694.332 194.02C694.332 193.633 694.459 193.32 694.712 193.08C694.979 192.84 695.305 192.72 695.692 192.72C696.079 192.72 696.399 192.847 696.652 193.1C696.905 193.353 697.032 193.673 697.032 194.06V195.92C697.032 197.067 696.459 197.64 695.312 197.64H694.672ZM703.713 207.28C702.5 207.28 701.473 207 700.633 206.44C699.807 205.88 699.307 204.993 699.133 203.78L700.633 203.44C700.74 204.08 700.94 204.587 701.233 204.96C701.527 205.32 701.887 205.58 702.313 205.74C702.753 205.887 703.22 205.96 703.713 205.96C704.447 205.96 705.027 205.813 705.453 205.52C705.88 205.227 706.093 204.833 706.093 204.34C706.093 203.833 705.887 203.48 705.473 203.28C705.073 203.067 704.52 202.893 703.813 202.76L702.993 202.62C702.367 202.513 701.793 202.347 701.273 202.12C700.753 201.893 700.34 201.587 700.033 201.2C699.727 200.813 699.573 200.327 699.573 199.74C699.573 198.86 699.913 198.173 700.593 197.68C701.273 197.187 702.173 196.94 703.293 196.94C704.4 196.94 705.293 197.193 705.973 197.7C706.667 198.193 707.113 198.893 707.313 199.8L705.833 200.18C705.713 199.473 705.427 198.98 704.973 198.7C704.52 198.407 703.96 198.26 703.293 198.26C702.627 198.26 702.1 198.387 701.713 198.64C701.327 198.88 701.133 199.24 701.133 199.72C701.133 200.187 701.313 200.533 701.673 200.76C702.047 200.973 702.54 201.133 703.153 201.24L703.973 201.38C704.667 201.5 705.287 201.667 705.833 201.88C706.393 202.08 706.833 202.373 707.153 202.76C707.487 203.147 707.653 203.653 707.653 204.28C707.653 205.24 707.293 205.98 706.573 206.5C705.867 207.02 704.913 207.28 703.713 207.28Z" fill="#F5F6F7"/>
<g clip-path="url(#clip3_4627_32737)" filter="url(#filter6_i_4627_32737)">
<path d="M1028.5 154.7C1019.74 154.7 1012.42 152.96 1006.54 149.48C1000.66 145.88 996.22 140.96 993.22 134.72C990.22 128.48 988.72 121.22 988.72 112.94V46.88C988.72 38.36 990.1 30.92 992.86 24.56C995.74 18.08 1000.12 13.04 1006 9.43999C1011.88 5.83999 1019.38 4.04 1028.5 4.04C1037.62 4.04 1045.06 5.83999 1050.82 9.43999C1056.7 13.04 1061.02 18.08 1063.78 24.56C1066.66 30.92 1068.1 38.36 1068.1 46.88V112.94C1068.1 121.1 1066.6 128.36 1063.6 134.72C1060.6 140.96 1056.16 145.88 1050.28 149.48C1044.4 152.96 1037.14 154.7 1028.5 154.7ZM1028.5 127.88C1031.38 127.88 1033.42 126.98 1034.62 125.18C1035.94 123.26 1036.72 121.1 1036.96 118.7C1037.32 116.18 1037.5 114.02 1037.5 112.22V47.6C1037.5 45.56 1037.38 43.28 1037.14 40.76C1036.9 38.12 1036.12 35.84 1034.8 33.92C1033.6 31.88 1031.5 30.86 1028.5 30.86C1025.5 30.86 1023.34 31.88 1022.02 33.92C1020.82 35.84 1020.1 38.12 1019.86 40.76C1019.62 43.28 1019.5 45.56 1019.5 47.6V112.22C1019.5 114.02 1019.68 116.18 1020.04 118.7C1020.4 121.1 1021.18 123.26 1022.38 125.18C1023.7 126.98 1025.74 127.88 1028.5 127.88ZM1127.28 152V119.24H1082.46V97.1L1120.44 6.19999H1155.36V96.92H1168.86V119.24H1155.36V152H1127.28ZM1105.32 96.92H1127.28V36.26L1105.32 96.92Z" fill="#C9CBCE"/>
<g filter="url(#filter7_d_4627_32737)">
<rect x="979" y="117" width="169" height="21" fill="#D9D9D9"/>
</g>
</g>
<path d="M982.02 175L979.74 161H981.42L983.4 173.92H983.68L986.26 161H989.26L991.82 173.92H992.1L994.08 161H995.76L993.48 175H990.48L987.9 162H987.62L985.04 175H982.02ZM1000.96 175.28C1000.28 175.28 999.665 175.16 999.105 174.92C998.545 174.68 998.105 174.333 997.785 173.88C997.465 173.427 997.305 172.873 997.305 172.22C997.305 171.553 997.465 171.007 997.785 170.58C998.105 170.14 998.545 169.813 999.105 169.6C999.665 169.373 1000.29 169.26 1000.98 169.26H1004.28V168.54C1004.28 167.847 1004.08 167.3 1003.66 166.9C1003.26 166.5 1002.66 166.3 1001.86 166.3C1001.08 166.3 1000.46 166.493 1000.02 166.88C999.585 167.253 999.285 167.76 999.125 168.4L997.645 167.92C997.805 167.373 998.058 166.88 998.405 166.44C998.751 165.987 999.211 165.627 999.785 165.36C1000.37 165.08 1001.07 164.94 1001.88 164.94C1003.14 164.94 1004.11 165.267 1004.8 165.92C1005.5 166.56 1005.84 167.467 1005.84 168.64V173.06C1005.84 173.46 1006.03 173.66 1006.4 173.66H1007.3V175H1005.92C1005.48 175 1005.13 174.88 1004.86 174.64C1004.6 174.387 1004.46 174.053 1004.46 173.64V173.54H1004.22C1004.08 173.793 1003.88 174.06 1003.62 174.34C1003.38 174.607 1003.05 174.827 1002.62 175C1002.2 175.187 1001.64 175.28 1000.96 175.28ZM1001.14 173.92C1002.08 173.92 1002.83 173.647 1003.4 173.1C1003.99 172.54 1004.28 171.76 1004.28 170.76V170.54H1001.04C1000.42 170.54 999.898 170.68 999.485 170.96C999.085 171.227 998.885 171.633 998.885 172.18C998.885 172.727 999.091 173.153 999.505 173.46C999.931 173.767 1000.48 173.92 1001.14 173.92ZM1012.42 175C1011.86 175 1011.43 174.847 1011.12 174.54C1010.83 174.233 1010.68 173.813 1010.68 173.28V166.6H1007.74V165.22H1010.68V161.74H1012.26V165.22H1015.46V166.6H1012.26V173.04C1012.26 173.44 1012.46 173.64 1012.84 173.64H1015.02V175H1012.42ZM1022.17 175.28C1021.23 175.28 1020.37 175.08 1019.61 174.68C1018.87 174.267 1018.27 173.68 1017.83 172.92C1017.41 172.16 1017.19 171.26 1017.19 170.22V170C1017.19 168.947 1017.41 168.047 1017.83 167.3C1018.27 166.54 1018.87 165.96 1019.61 165.56C1020.37 165.147 1021.23 164.94 1022.17 164.94C1023.11 164.94 1023.9 165.113 1024.55 165.46C1025.22 165.807 1025.74 166.267 1026.11 166.84C1026.5 167.413 1026.75 168.027 1026.85 168.68L1025.31 169C1025.25 168.52 1025.09 168.08 1024.83 167.68C1024.59 167.28 1024.25 166.96 1023.81 166.72C1023.37 166.48 1022.83 166.36 1022.19 166.36C1021.54 166.36 1020.95 166.507 1020.43 166.8C1019.93 167.093 1019.52 167.513 1019.21 168.06C1018.92 168.607 1018.77 169.26 1018.77 170.02V170.2C1018.77 170.96 1018.92 171.613 1019.21 172.16C1019.52 172.707 1019.93 173.127 1020.43 173.42C1020.95 173.713 1021.54 173.86 1022.19 173.86C1023.17 173.86 1023.91 173.607 1024.41 173.1C1024.93 172.593 1025.25 171.967 1025.37 171.22L1026.93 171.56C1026.79 172.2 1026.52 172.807 1026.13 173.38C1025.75 173.953 1025.22 174.413 1024.55 174.76C1023.9 175.107 1023.11 175.28 1022.17 175.28ZM1029.62 175V161H1031.2V166.78H1031.48C1031.62 166.487 1031.82 166.213 1032.08 165.96C1032.36 165.693 1032.72 165.473 1033.14 165.3C1033.58 165.127 1034.14 165.04 1034.8 165.04C1035.54 165.04 1036.19 165.2 1036.76 165.52C1037.35 165.827 1037.82 166.28 1038.16 166.88C1038.51 167.467 1038.68 168.2 1038.68 169.08V175H1037.1V169.2C1037.1 168.227 1036.86 167.52 1036.36 167.08C1035.88 166.64 1035.23 166.42 1034.4 166.42C1033.46 166.42 1032.68 166.727 1032.08 167.34C1031.5 167.953 1031.2 168.867 1031.2 170.08V175H1029.62ZM1048.21 179V177.6H1053.81C1054.19 177.6 1054.39 177.4 1054.39 177V173.44H1054.11C1053.97 173.72 1053.77 174 1053.49 174.28C1053.22 174.547 1052.87 174.767 1052.43 174.94C1051.99 175.1 1051.43 175.18 1050.77 175.18C1050.06 175.18 1049.41 175.027 1048.81 174.72C1048.22 174.413 1047.75 173.96 1047.41 173.36C1047.07 172.76 1046.91 172.027 1046.91 171.16V165.22H1048.49V171.04C1048.49 172 1048.73 172.7 1049.21 173.14C1049.7 173.58 1050.36 173.8 1051.19 173.8C1052.12 173.8 1052.89 173.493 1053.49 172.88C1054.09 172.267 1054.39 171.353 1054.39 170.14V165.22H1055.97V177.28C1055.97 177.813 1055.81 178.233 1055.51 178.54C1055.21 178.847 1054.78 179 1054.21 179H1048.21ZM1063.79 175.28C1062.81 175.28 1061.93 175.073 1061.17 174.66C1060.43 174.247 1059.84 173.667 1059.41 172.92C1059 172.16 1058.79 171.267 1058.79 170.24V169.98C1058.79 168.967 1059 168.08 1059.41 167.32C1059.84 166.56 1060.43 165.973 1061.17 165.56C1061.93 165.147 1062.81 164.94 1063.79 164.94C1064.78 164.94 1065.65 165.147 1066.39 165.56C1067.15 165.973 1067.74 166.56 1068.15 167.32C1068.58 168.08 1068.79 168.967 1068.79 169.98V170.24C1068.79 171.267 1068.58 172.16 1068.15 172.92C1067.74 173.667 1067.15 174.247 1066.39 174.66C1065.65 175.073 1064.78 175.28 1063.79 175.28ZM1063.79 173.86C1064.83 173.86 1065.66 173.533 1066.27 172.88C1066.9 172.213 1067.21 171.32 1067.21 170.2V170.02C1067.21 168.9 1066.9 168.013 1066.27 167.36C1065.66 166.693 1064.83 166.36 1063.79 166.36C1062.77 166.36 1061.94 166.693 1061.31 167.36C1060.69 168.013 1060.37 168.9 1060.37 170.02V170.2C1060.37 171.32 1060.69 172.213 1061.31 172.88C1061.94 173.533 1062.77 173.86 1063.79 173.86ZM1075.38 175.18C1074.67 175.18 1074.02 175.027 1073.42 174.72C1072.83 174.413 1072.36 173.96 1072.02 173.36C1071.68 172.747 1071.52 172.007 1071.52 171.14V165.22H1073.1V171.02C1073.1 171.993 1073.34 172.7 1073.82 173.14C1074.31 173.58 1074.97 173.8 1075.8 173.8C1076.73 173.8 1077.5 173.493 1078.1 172.88C1078.7 172.267 1079 171.353 1079 170.14V165.22H1080.58V175H1079.04V173.34H1078.76C1078.54 173.807 1078.18 174.233 1077.66 174.62C1077.14 174.993 1076.38 175.18 1075.38 175.18ZM1083.88 175V165.22H1085.42V166.42H1085.7C1085.88 165.993 1086.14 165.68 1086.5 165.48C1086.86 165.28 1087.34 165.18 1087.92 165.18H1089.08V166.62H1087.82C1087.12 166.62 1086.54 166.82 1086.1 167.22C1085.68 167.607 1085.46 168.213 1085.46 169.04V175H1083.88ZM1101.04 175.28C1100.05 175.28 1099.19 175.073 1098.44 174.66C1097.69 174.233 1097.11 173.64 1096.7 172.88C1096.29 172.12 1096.08 171.24 1096.08 170.24V170C1096.08 168.987 1096.29 168.1 1096.7 167.34C1097.11 166.58 1097.69 165.993 1098.42 165.58C1099.15 165.153 1099.99 164.94 1100.94 164.94C1101.86 164.94 1102.67 165.14 1103.38 165.54C1104.09 165.927 1104.64 166.487 1105.04 167.22C1105.44 167.953 1105.64 168.813 1105.64 169.8V170.52H1097.66C1097.7 171.573 1098.04 172.4 1098.68 173C1099.32 173.587 1100.12 173.88 1101.08 173.88C1101.92 173.88 1102.57 173.687 1103.02 173.3C1103.47 172.913 1103.82 172.453 1104.06 171.92L1105.42 172.58C1105.22 172.993 1104.94 173.407 1104.58 173.82C1104.23 174.233 1103.77 174.58 1103.2 174.86C1102.64 175.14 1101.92 175.28 1101.04 175.28ZM1097.68 169.22H1104.04C1103.99 168.313 1103.67 167.607 1103.1 167.1C1102.54 166.593 1101.82 166.34 1100.94 166.34C1100.05 166.34 1099.31 166.593 1098.74 167.1C1098.17 167.607 1097.81 168.313 1097.68 169.22ZM1111.39 175.28C1110.71 175.28 1110.09 175.16 1109.53 174.92C1108.97 174.68 1108.53 174.333 1108.21 173.88C1107.89 173.427 1107.73 172.873 1107.73 172.22C1107.73 171.553 1107.89 171.007 1108.21 170.58C1108.53 170.14 1108.97 169.813 1109.53 169.6C1110.09 169.373 1110.72 169.26 1111.41 169.26H1114.71V168.54C1114.71 167.847 1114.51 167.3 1114.09 166.9C1113.69 166.5 1113.09 166.3 1112.29 166.3C1111.51 166.3 1110.89 166.493 1110.45 166.88C1110.01 167.253 1109.71 167.76 1109.55 168.4L1108.07 167.92C1108.23 167.373 1108.49 166.88 1108.83 166.44C1109.18 165.987 1109.64 165.627 1110.21 165.36C1110.8 165.08 1111.5 164.94 1112.31 164.94C1113.57 164.94 1114.54 165.267 1115.23 165.92C1115.93 166.56 1116.27 167.467 1116.27 168.64V173.06C1116.27 173.46 1116.46 173.66 1116.83 173.66H1117.73V175H1116.35C1115.91 175 1115.56 174.88 1115.29 174.64C1115.03 174.387 1114.89 174.053 1114.89 173.64V173.54H1114.65C1114.51 173.793 1114.31 174.06 1114.05 174.34C1113.81 174.607 1113.48 174.827 1113.05 175C1112.63 175.187 1112.07 175.28 1111.39 175.28ZM1111.57 173.92C1112.51 173.92 1113.26 173.647 1113.83 173.1C1114.42 172.54 1114.71 171.76 1114.71 170.76V170.54H1111.47C1110.85 170.54 1110.33 170.68 1109.91 170.96C1109.51 171.227 1109.31 171.633 1109.31 172.18C1109.31 172.727 1109.52 173.153 1109.93 173.46C1110.36 173.767 1110.91 173.92 1111.57 173.92ZM1119.9 175V165.22H1121.44V166.42H1121.72C1121.89 165.993 1122.16 165.68 1122.52 165.48C1122.88 165.28 1123.35 165.18 1123.94 165.18H1125.1V166.62H1123.84C1123.13 166.62 1122.56 166.82 1122.12 167.22C1121.69 167.607 1121.48 168.213 1121.48 169.04V175H1119.9ZM1127.44 175V165.22H1128.98V166.88H1129.26C1129.47 166.413 1129.83 165.993 1130.34 165.62C1130.86 165.233 1131.62 165.04 1132.62 165.04C1133.35 165.04 1134 165.193 1134.58 165.5C1135.16 165.807 1135.63 166.26 1135.98 166.86C1136.32 167.46 1136.5 168.2 1136.5 169.08V175H1134.92V169.2C1134.92 168.227 1134.67 167.52 1134.18 167.08C1133.7 166.64 1133.04 166.42 1132.22 166.42C1131.27 166.42 1130.5 166.727 1129.9 167.34C1129.31 167.953 1129.02 168.867 1129.02 170.08V175H1127.44ZM1139.7 175V165.22H1141.28V175H1139.7ZM1140.5 163.7C1140.16 163.7 1139.86 163.587 1139.62 163.36C1139.4 163.133 1139.28 162.847 1139.28 162.5C1139.28 162.14 1139.4 161.847 1139.62 161.62C1139.86 161.393 1140.16 161.28 1140.5 161.28C1140.85 161.28 1141.14 161.393 1141.36 161.62C1141.59 161.847 1141.7 162.14 1141.7 162.5C1141.7 162.847 1141.59 163.133 1141.36 163.36C1141.14 163.587 1140.85 163.7 1140.5 163.7ZM1144.61 175V165.22H1146.15V166.88H1146.43C1146.64 166.413 1147 165.993 1147.51 165.62C1148.03 165.233 1148.79 165.04 1149.79 165.04C1150.52 165.04 1151.17 165.193 1151.75 165.5C1152.33 165.807 1152.8 166.26 1153.15 166.86C1153.49 167.46 1153.67 168.2 1153.67 169.08V175H1152.09V169.2C1152.09 168.227 1151.84 167.52 1151.35 167.08C1150.87 166.64 1150.21 166.42 1149.39 166.42C1148.44 166.42 1147.67 166.727 1147.07 167.34C1146.48 167.953 1146.19 168.867 1146.19 170.08V175H1144.61ZM1156.39 170.16V169.88C1156.39 168.853 1156.6 167.973 1157.01 167.24C1157.42 166.507 1157.98 165.94 1158.69 165.54C1159.4 165.14 1160.17 164.94 1161.01 164.94C1162.04 164.94 1162.82 165.14 1163.37 165.54C1163.93 165.927 1164.34 166.36 1164.61 166.84H1164.89V165.22H1166.39V177.28C1166.39 177.813 1166.24 178.233 1165.95 178.54C1165.66 178.847 1165.23 179 1164.67 179H1158.03V177.6H1164.25C1164.65 177.6 1164.85 177.4 1164.85 177V173.28H1164.57C1164.41 173.573 1164.18 173.86 1163.89 174.14C1163.6 174.42 1163.22 174.653 1162.75 174.84C1162.28 175.013 1161.7 175.1 1161.01 175.1C1160.17 175.1 1159.4 174.9 1158.69 174.5C1157.98 174.1 1157.42 173.533 1157.01 172.8C1156.6 172.053 1156.39 171.173 1156.39 170.16ZM1161.43 173.7C1162.44 173.7 1163.26 173.38 1163.89 172.74C1164.53 172.1 1164.85 171.22 1164.85 170.1V169.94C1164.85 168.807 1164.53 167.927 1163.89 167.3C1163.26 166.66 1162.44 166.34 1161.43 166.34C1160.43 166.34 1159.6 166.66 1158.95 167.3C1158.31 167.927 1157.99 168.807 1157.99 169.94V170.1C1157.99 171.22 1158.31 172.1 1158.95 172.74C1159.6 173.38 1160.43 173.7 1161.43 173.7ZM1173.64 175.28C1172.43 175.28 1171.4 175 1170.56 174.44C1169.74 173.88 1169.24 172.993 1169.06 171.78L1170.56 171.44C1170.67 172.08 1170.87 172.587 1171.16 172.96C1171.46 173.32 1171.82 173.58 1172.24 173.74C1172.68 173.887 1173.15 173.96 1173.64 173.96C1174.38 173.96 1174.96 173.813 1175.38 173.52C1175.81 173.227 1176.02 172.833 1176.02 172.34C1176.02 171.833 1175.82 171.48 1175.4 171.28C1175 171.067 1174.45 170.893 1173.74 170.76L1172.92 170.62C1172.3 170.513 1171.72 170.347 1171.2 170.12C1170.68 169.893 1170.27 169.587 1169.96 169.2C1169.66 168.813 1169.5 168.327 1169.5 167.74C1169.5 166.86 1169.84 166.173 1170.52 165.68C1171.2 165.187 1172.1 164.94 1173.22 164.94C1174.33 164.94 1175.22 165.193 1175.9 165.7C1176.6 166.193 1177.04 166.893 1177.24 167.8L1175.76 168.18C1175.64 167.473 1175.36 166.98 1174.9 166.7C1174.45 166.407 1173.89 166.26 1173.22 166.26C1172.56 166.26 1172.03 166.387 1171.64 166.64C1171.26 166.88 1171.06 167.24 1171.06 167.72C1171.06 168.187 1171.24 168.533 1171.6 168.76C1171.98 168.973 1172.47 169.133 1173.08 169.24L1173.9 169.38C1174.6 169.5 1175.22 169.667 1175.76 169.88C1176.32 170.08 1176.76 170.373 1177.08 170.76C1177.42 171.147 1177.58 171.653 1177.58 172.28C1177.58 173.24 1177.22 173.98 1176.5 174.5C1175.8 175.02 1174.84 175.28 1173.64 175.28ZM1188.73 175C1187.95 175 1187.25 174.853 1186.63 174.56C1186 174.267 1185.51 173.847 1185.15 173.3C1184.79 172.753 1184.61 172.087 1184.61 171.3C1184.61 170.713 1184.72 170.2 1184.95 169.76C1185.17 169.32 1185.47 168.96 1185.83 168.68C1186.2 168.387 1186.59 168.167 1187.01 168.02V167.8C1186.39 167.613 1185.86 167.273 1185.41 166.78C1184.95 166.273 1184.73 165.587 1184.73 164.72C1184.73 163.92 1184.91 163.24 1185.29 162.68C1185.66 162.12 1186.15 161.7 1186.77 161.42C1187.38 161.14 1188.06 161 1188.81 161H1191.33V162.36H1189.01C1188.26 162.36 1187.63 162.567 1187.11 162.98C1186.6 163.38 1186.35 163.993 1186.35 164.82C1186.35 165.38 1186.47 165.84 1186.71 166.2C1186.96 166.56 1187.29 166.827 1187.69 167C1188.09 167.16 1188.53 167.24 1189.01 167.24H1191.77V165.1H1193.35V167.24H1195.31V168.62H1193.35V175H1188.73ZM1188.93 173.64H1191.77V168.62H1188.93C1188.17 168.62 1187.52 168.827 1186.99 169.24C1186.47 169.64 1186.21 170.267 1186.21 171.12C1186.21 171.973 1186.47 172.607 1187.01 173.02C1187.55 173.433 1188.19 173.64 1188.93 173.64ZM985.16 207.28C984.213 207.28 983.36 207.08 982.6 206.68C981.853 206.267 981.26 205.68 980.82 204.92C980.393 204.16 980.18 203.26 980.18 202.22V202C980.18 200.947 980.393 200.047 980.82 199.3C981.26 198.54 981.853 197.96 982.6 197.56C983.36 197.147 984.213 196.94 985.16 196.94C986.093 196.94 986.887 197.113 987.54 197.46C988.207 197.807 988.727 198.267 989.1 198.84C989.487 199.413 989.733 200.027 989.84 200.68L988.3 201C988.233 200.52 988.073 200.08 987.82 199.68C987.58 199.28 987.24 198.96 986.8 198.72C986.36 198.48 985.82 198.36 985.18 198.36C984.527 198.36 983.94 198.507 983.42 198.8C982.913 199.093 982.507 199.513 982.2 200.06C981.907 200.607 981.76 201.26 981.76 202.02V202.2C981.76 202.96 981.907 203.613 982.2 204.16C982.507 204.707 982.913 205.127 983.42 205.42C983.94 205.713 984.527 205.86 985.18 205.86C986.153 205.86 986.893 205.607 987.4 205.1C987.92 204.593 988.24 203.967 988.36 203.22L989.92 203.56C989.773 204.2 989.507 204.807 989.12 205.38C988.733 205.953 988.207 206.413 987.54 206.76C986.887 207.107 986.093 207.28 985.16 207.28ZM997.133 207.28C996.146 207.28 995.273 207.073 994.513 206.66C993.766 206.247 993.18 205.667 992.753 204.92C992.34 204.16 992.133 203.267 992.133 202.24V201.98C992.133 200.967 992.34 200.08 992.753 199.32C993.18 198.56 993.766 197.973 994.513 197.56C995.273 197.147 996.146 196.94 997.133 196.94C998.12 196.94 998.986 197.147 999.733 197.56C1000.49 197.973 1001.08 198.56 1001.49 199.32C1001.92 200.08 1002.13 200.967 1002.13 201.98V202.24C1002.13 203.267 1001.92 204.16 1001.49 204.92C1001.08 205.667 1000.49 206.247 999.733 206.66C998.986 207.073 998.12 207.28 997.133 207.28ZM997.133 205.86C998.173 205.86 999 205.533 999.613 204.88C1000.24 204.213 1000.55 203.32 1000.55 202.2V202.02C1000.55 200.9 1000.24 200.013 999.613 199.36C999 198.693 998.173 198.36 997.133 198.36C996.106 198.36 995.28 198.693 994.653 199.36C994.026 200.013 993.713 200.9 993.713 202.02V202.2C993.713 203.32 994.026 204.213 994.653 204.88C995.28 205.533 996.106 205.86 997.133 205.86ZM1004.98 207V197.22H1006.52V198.88H1006.8C1007.01 198.413 1007.37 197.993 1007.88 197.62C1008.4 197.233 1009.16 197.04 1010.16 197.04C1010.89 197.04 1011.54 197.193 1012.12 197.5C1012.7 197.807 1013.17 198.26 1013.52 198.86C1013.86 199.46 1014.04 200.2 1014.04 201.08V207H1012.46V201.2C1012.46 200.227 1012.21 199.52 1011.72 199.08C1011.24 198.64 1010.58 198.42 1009.76 198.42C1008.81 198.42 1008.04 198.727 1007.44 199.34C1006.85 199.953 1006.56 200.867 1006.56 202.08V207H1004.98ZM1017.24 207V197.22H1018.78V198.88H1019.06C1019.28 198.413 1019.64 197.993 1020.14 197.62C1020.66 197.233 1021.42 197.04 1022.42 197.04C1023.16 197.04 1023.81 197.193 1024.38 197.5C1024.97 197.807 1025.44 198.26 1025.78 198.86C1026.13 199.46 1026.3 200.2 1026.3 201.08V207H1024.72V201.2C1024.72 200.227 1024.48 199.52 1023.98 199.08C1023.5 198.64 1022.85 198.42 1022.02 198.42C1021.08 198.42 1020.3 198.727 1019.7 199.34C1019.12 199.953 1018.82 200.867 1018.82 202.08V207H1017.24ZM1033.99 207.28C1033 207.28 1032.13 207.073 1031.39 206.66C1030.64 206.233 1030.06 205.64 1029.65 204.88C1029.23 204.12 1029.03 203.24 1029.03 202.24V202C1029.03 200.987 1029.23 200.1 1029.65 199.34C1030.06 198.58 1030.63 197.993 1031.37 197.58C1032.1 197.153 1032.94 196.94 1033.89 196.94C1034.81 196.94 1035.62 197.14 1036.33 197.54C1037.03 197.927 1037.59 198.487 1037.99 199.22C1038.39 199.953 1038.59 200.813 1038.59 201.8V202.52H1030.61C1030.65 203.573 1030.99 204.4 1031.63 205C1032.27 205.587 1033.07 205.88 1034.03 205.88C1034.87 205.88 1035.51 205.687 1035.97 205.3C1036.42 204.913 1036.77 204.453 1037.01 203.92L1038.37 204.58C1038.17 204.993 1037.89 205.407 1037.53 205.82C1037.18 206.233 1036.72 206.58 1036.15 206.86C1035.59 207.14 1034.87 207.28 1033.99 207.28ZM1030.63 201.22H1036.99C1036.93 200.313 1036.62 199.607 1036.05 199.1C1035.49 198.593 1034.77 198.34 1033.89 198.34C1032.99 198.34 1032.26 198.593 1031.69 199.1C1031.11 199.607 1030.76 200.313 1030.63 201.22ZM1045.84 207.28C1044.9 207.28 1044.04 207.08 1043.28 206.68C1042.54 206.267 1041.94 205.68 1041.5 204.92C1041.08 204.16 1040.86 203.26 1040.86 202.22V202C1040.86 200.947 1041.08 200.047 1041.5 199.3C1041.94 198.54 1042.54 197.96 1043.28 197.56C1044.04 197.147 1044.9 196.94 1045.84 196.94C1046.78 196.94 1047.57 197.113 1048.22 197.46C1048.89 197.807 1049.41 198.267 1049.78 198.84C1050.17 199.413 1050.42 200.027 1050.52 200.68L1048.98 201C1048.92 200.52 1048.76 200.08 1048.5 199.68C1048.26 199.28 1047.92 198.96 1047.48 198.72C1047.04 198.48 1046.5 198.36 1045.86 198.36C1045.21 198.36 1044.62 198.507 1044.1 198.8C1043.6 199.093 1043.19 199.513 1042.88 200.06C1042.59 200.607 1042.44 201.26 1042.44 202.02V202.2C1042.44 202.96 1042.59 203.613 1042.88 204.16C1043.19 204.707 1043.6 205.127 1044.1 205.42C1044.62 205.713 1045.21 205.86 1045.86 205.86C1046.84 205.86 1047.58 205.607 1048.08 205.1C1048.6 204.593 1048.92 203.967 1049.04 203.22L1050.6 203.56C1050.46 204.2 1050.19 204.807 1049.8 205.38C1049.42 205.953 1048.89 206.413 1048.22 206.76C1047.57 207.107 1046.78 207.28 1045.84 207.28ZM1056.49 207C1055.93 207 1055.49 206.847 1055.19 206.54C1054.89 206.233 1054.75 205.813 1054.75 205.28V198.6H1051.81V197.22H1054.75V193.74H1056.33V197.22H1059.53V198.6H1056.33V205.04C1056.33 205.44 1056.52 205.64 1056.91 205.64H1059.09V207H1056.49ZM1062.09 207V197.22H1063.67V207H1062.09ZM1062.89 195.7C1062.54 195.7 1062.25 195.587 1062.01 195.36C1061.78 195.133 1061.67 194.847 1061.67 194.5C1061.67 194.14 1061.78 193.847 1062.01 193.62C1062.25 193.393 1062.54 193.28 1062.89 193.28C1063.23 193.28 1063.52 193.393 1063.75 193.62C1063.97 193.847 1064.09 194.14 1064.09 194.5C1064.09 194.847 1063.97 195.133 1063.75 195.36C1063.52 195.587 1063.23 195.7 1062.89 195.7ZM1071.51 207.28C1070.52 207.28 1069.65 207.073 1068.89 206.66C1068.14 206.247 1067.55 205.667 1067.13 204.92C1066.71 204.16 1066.51 203.267 1066.51 202.24V201.98C1066.51 200.967 1066.71 200.08 1067.13 199.32C1067.55 198.56 1068.14 197.973 1068.89 197.56C1069.65 197.147 1070.52 196.94 1071.51 196.94C1072.49 196.94 1073.36 197.147 1074.11 197.56C1074.87 197.973 1075.45 198.56 1075.87 199.32C1076.29 200.08 1076.51 200.967 1076.51 201.98V202.24C1076.51 203.267 1076.29 204.16 1075.87 204.92C1075.45 205.667 1074.87 206.247 1074.11 206.66C1073.36 207.073 1072.49 207.28 1071.51 207.28ZM1071.51 205.86C1072.55 205.86 1073.37 205.533 1073.99 204.88C1074.61 204.213 1074.93 203.32 1074.93 202.2V202.02C1074.93 200.9 1074.61 200.013 1073.99 199.36C1073.37 198.693 1072.55 198.36 1071.51 198.36C1070.48 198.36 1069.65 198.693 1069.03 199.36C1068.4 200.013 1068.09 200.9 1068.09 202.02V202.2C1068.09 203.32 1068.4 204.213 1069.03 204.88C1069.65 205.533 1070.48 205.86 1071.51 205.86ZM1079.35 207V197.22H1080.89V198.88H1081.17C1081.38 198.413 1081.74 197.993 1082.25 197.62C1082.77 197.233 1083.53 197.04 1084.53 197.04C1085.26 197.04 1085.92 197.193 1086.49 197.5C1087.08 197.807 1087.54 198.26 1087.89 198.86C1088.24 199.46 1088.41 200.2 1088.41 201.08V207H1086.83V201.2C1086.83 200.227 1086.58 199.52 1086.09 199.08C1085.61 198.64 1084.96 198.42 1084.13 198.42C1083.18 198.42 1082.41 198.727 1081.81 199.34C1081.22 199.953 1080.93 200.867 1080.93 202.08V207H1079.35ZM1095.56 207.28C1094.34 207.28 1093.32 207 1092.48 206.44C1091.65 205.88 1091.15 204.993 1090.98 203.78L1092.48 203.44C1092.58 204.08 1092.78 204.587 1093.08 204.96C1093.37 205.32 1093.73 205.58 1094.16 205.74C1094.6 205.887 1095.06 205.96 1095.56 205.96C1096.29 205.96 1096.87 205.813 1097.3 205.52C1097.72 205.227 1097.94 204.833 1097.94 204.34C1097.94 203.833 1097.73 203.48 1097.32 203.28C1096.92 203.067 1096.36 202.893 1095.66 202.76L1094.84 202.62C1094.21 202.513 1093.64 202.347 1093.12 202.12C1092.6 201.893 1092.18 201.587 1091.88 201.2C1091.57 200.813 1091.42 200.327 1091.42 199.74C1091.42 198.86 1091.76 198.173 1092.44 197.68C1093.12 197.187 1094.02 196.94 1095.14 196.94C1096.24 196.94 1097.14 197.193 1097.82 197.7C1098.51 198.193 1098.96 198.893 1099.16 199.8L1097.68 200.18C1097.56 199.473 1097.27 198.98 1096.82 198.7C1096.36 198.407 1095.8 198.26 1095.14 198.26C1094.47 198.26 1093.94 198.387 1093.56 198.64C1093.17 198.88 1092.98 199.24 1092.98 199.72C1092.98 200.187 1093.16 200.533 1093.52 200.76C1093.89 200.973 1094.38 201.133 1095 201.24L1095.82 201.38C1096.51 201.5 1097.13 201.667 1097.68 201.88C1098.24 202.08 1098.68 202.373 1099 202.76C1099.33 203.147 1099.5 203.653 1099.5 204.28C1099.5 205.24 1099.14 205.98 1098.42 206.5C1097.71 207.02 1096.76 207.28 1095.56 207.28ZM1106.82 202.16V201.88C1106.82 200.853 1107.03 199.973 1107.44 199.24C1107.85 198.507 1108.41 197.94 1109.12 197.54C1109.83 197.14 1110.6 196.94 1111.44 196.94C1112.47 196.94 1113.25 197.14 1113.8 197.54C1114.36 197.927 1114.77 198.36 1115.04 198.84H1115.32V197.22H1116.82V209.28C1116.82 209.813 1116.67 210.233 1116.38 210.54C1116.09 210.847 1115.66 211 1115.1 211H1108.46V209.6H1114.68C1115.08 209.6 1115.28 209.4 1115.28 209V205.28H1115C1114.84 205.573 1114.61 205.86 1114.32 206.14C1114.03 206.42 1113.65 206.653 1113.18 206.84C1112.71 207.013 1112.13 207.1 1111.44 207.1C1110.6 207.1 1109.83 206.9 1109.12 206.5C1108.41 206.1 1107.85 205.533 1107.44 204.8C1107.03 204.053 1106.82 203.173 1106.82 202.16ZM1111.86 205.7C1112.87 205.7 1113.69 205.38 1114.32 204.74C1114.96 204.1 1115.28 203.22 1115.28 202.1V201.94C1115.28 200.807 1114.96 199.927 1114.32 199.3C1113.69 198.66 1112.87 198.34 1111.86 198.34C1110.86 198.34 1110.03 198.66 1109.38 199.3C1108.74 199.927 1108.42 200.807 1108.42 201.94V202.1C1108.42 203.22 1108.74 204.1 1109.38 204.74C1110.03 205.38 1110.86 205.7 1111.86 205.7ZM1120.13 207V197.22H1121.67V198.42H1121.95C1122.13 197.993 1122.39 197.68 1122.75 197.48C1123.11 197.28 1123.59 197.18 1124.17 197.18H1125.33V198.62H1124.07C1123.37 198.62 1122.79 198.82 1122.35 199.22C1121.93 199.607 1121.71 200.213 1121.71 201.04V207H1120.13ZM1131.84 207.28C1130.85 207.28 1129.98 207.073 1129.22 206.66C1128.47 206.247 1127.89 205.667 1127.46 204.92C1127.05 204.16 1126.84 203.267 1126.84 202.24V201.98C1126.84 200.967 1127.05 200.08 1127.46 199.32C1127.89 198.56 1128.47 197.973 1129.22 197.56C1129.98 197.147 1130.85 196.94 1131.84 196.94C1132.83 196.94 1133.69 197.147 1134.44 197.56C1135.2 197.973 1135.79 198.56 1136.2 199.32C1136.63 200.08 1136.84 200.967 1136.84 201.98V202.24C1136.84 203.267 1136.63 204.16 1136.2 204.92C1135.79 205.667 1135.2 206.247 1134.44 206.66C1133.69 207.073 1132.83 207.28 1131.84 207.28ZM1131.84 205.86C1132.88 205.86 1133.71 205.533 1134.32 204.88C1134.95 204.213 1135.26 203.32 1135.26 202.2V202.02C1135.26 200.9 1134.95 200.013 1134.32 199.36C1133.71 198.693 1132.88 198.36 1131.84 198.36C1130.81 198.36 1129.99 198.693 1129.36 199.36C1128.73 200.013 1128.42 200.9 1128.42 202.02V202.2C1128.42 203.32 1128.73 204.213 1129.36 204.88C1129.99 205.533 1130.81 205.86 1131.84 205.86ZM1140.85 207L1138.89 197.22H1140.49L1142.11 205.94H1142.39L1144.53 197.22H1147.15L1149.29 205.94H1149.57L1151.19 197.22H1152.79L1150.83 207H1148.13L1145.97 198.28H1145.71L1143.55 207H1140.85ZM1155.56 203.26V193H1157.18V203.26H1155.56ZM1156.36 207.28C1155.98 207.28 1155.65 207.153 1155.38 206.9C1155.13 206.647 1155 206.32 1155 205.92C1155 205.52 1155.13 205.193 1155.38 204.94C1155.65 204.687 1155.98 204.56 1156.36 204.56C1156.76 204.56 1157.09 204.687 1157.34 204.94C1157.6 205.193 1157.72 205.52 1157.72 205.92C1157.72 206.32 1157.6 206.647 1157.34 206.9C1157.09 207.153 1156.76 207.28 1156.36 207.28Z" fill="#F5F6F7"/>
<defs>
<filter id="filter0_i_4627_32737" x="0" y="0" width="169" height="124" filterUnits="userSpaceOnUse" color-interpolation-filters="sRGB">
<feFlood flood-opacity="0" result="BackgroundImageFix"/>
<feBlend mode="normal" in="SourceGraphic" in2="BackgroundImageFix" result="shape"/>
<feColorMatrix in="SourceAlpha" type="matrix" values="0 0 0 0 0 0 0 0 0 0 0 0 0 0 0 0 0 0 127 0" result="hardAlpha"/>
<feOffset dy="4"/>
<feGaussianBlur stdDeviation="2"/>
<feComposite in2="hardAlpha" operator="arithmetic" k2="-1" k3="1"/>
<feColorMatrix type="matrix" values="0 0 0 0 0 0 0 0 0 0 0 0 0 0 0 0 0 0 0.25 0"/>
<feBlend mode="normal" in2="shape" result="effect1_innerShadow_4627_32737"/>
</filter>
<filter id="filter1_d_4627_32737" x="-15" y="109" width="199" height="51" filterUnits="userSpaceOnUse" color-interpolation-filters="sRGB">
<feFlood flood-opacity="0" result="BackgroundImageFix"/>
<feColorMatrix in="SourceAlpha" type="matrix" values="0 0 0 0 0 0 0 0 0 0 0 0 0 0 0 0 0 0 127 0" result="hardAlpha"/>
<feOffset dy="4"/>
<feGaussianBlur stdDeviation="7.5"/>
<feComposite in2="hardAlpha" operator="out"/>
<feColorMatrix type="matrix" values="0 0 0 0 0 0 0 0 0 0 0 0 0 0 0 0 0 0 0.8 0"/>
<feBlend mode="normal" in2="BackgroundImageFix" result="effect1_dropShadow_4627_32737"/>
<feBlend mode="normal" in="SourceGraphic" in2="effect1_dropShadow_4627_32737" result="shape"/>
</filter>
<filter id="filter2_i_4627_32737" x="321.668" y="0" width="199" height="121" filterUnits="userSpaceOnUse" color-interpolation-filters="sRGB">
<feFlood flood-opacity="0" result="BackgroundImageFix"/>
<feBlend mode="normal" in="SourceGraphic" in2="BackgroundImageFix" result="shape"/>
<feColorMatrix in="SourceAlpha" type="matrix" values="0 0 0 0 0 0 0 0 0 0 0 0 0 0 0 0 0 0 127 0" result="hardAlpha"/>
<feOffset dy="4"/>
<feGaussianBlur stdDeviation="2"/>
<feComposite in2="hardAlpha" operator="arithmetic" k2="-1" k3="1"/>
<feColorMatrix type="matrix" values="0 0 0 0 0 0 0 0 0 0 0 0 0 0 0 0 0 0 0.25 0"/>
<feBlend mode="normal" in2="shape" result="effect1_innerShadow_4627_32737"/>
</filter>
<filter id="filter3_d_4627_32737" x="306.668" y="106" width="222" height="51" filterUnits="userSpaceOnUse" color-interpolation-filters="sRGB">
<feFlood flood-opacity="0" result="BackgroundImageFix"/>
<feColorMatrix in="SourceAlpha" type="matrix" values="0 0 0 0 0 0 0 0 0 0 0 0 0 0 0 0 0 0 127 0" result="hardAlpha"/>
<feOffset dy="4"/>
<feGaussianBlur stdDeviation="7.5"/>
<feComposite in2="hardAlpha" operator="out"/>
<feColorMatrix type="matrix" values="0 0 0 0 0 0 0 0 0 0 0 0 0 0 0 0 0 0 0.8 0"/>
<feBlend mode="normal" in2="BackgroundImageFix" result="effect1_dropShadow_4627_32737"/>
<feBlend mode="normal" in="SourceGraphic" in2="effect1_dropShadow_4627_32737" result="shape"/>
</filter>
<filter id="filter4_i_4627_32737" x="657.332" y="0" width="199" height="121" filterUnits="userSpaceOnUse" color-interpolation-filters="sRGB">
<feFlood flood-opacity="0" result="BackgroundImageFix"/>
<feBlend mode="normal" in="SourceGraphic" in2="BackgroundImageFix" result="shape"/>
<feColorMatrix in="SourceAlpha" type="matrix" values="0 0 0 0 0 0 0 0 0 0 0 0 0 0 0 0 0 0 127 0" result="hardAlpha"/>
<feOffset dy="4"/>
<feGaussianBlur stdDeviation="2"/>
<feComposite in2="hardAlpha" operator="arithmetic" k2="-1" k3="1"/>
<feColorMatrix type="matrix" values="0 0 0 0 0 0 0 0 0 0 0 0 0 0 0 0 0 0 0.25 0"/>
<feBlend mode="normal" in2="shape" result="effect1_innerShadow_4627_32737"/>
</filter>
<filter id="filter5_d_4627_32737" x="636.332" y="106" width="235" height="51" filterUnits="userSpaceOnUse" color-interpolation-filters="sRGB">
<feFlood flood-opacity="0" result="BackgroundImageFix"/>
<feColorMatrix in="SourceAlpha" type="matrix" values="0 0 0 0 0 0 0 0 0 0 0 0 0 0 0 0 0 0 127 0" result="hardAlpha"/>
<feOffset dy="4"/>
<feGaussianBlur stdDeviation="7.5"/>
<feComposite in2="hardAlpha" operator="out"/>
<feColorMatrix type="matrix" values="0 0 0 0 0 0 0 0 0 0 0 0 0 0 0 0 0 0 0.8 0"/>
<feBlend mode="normal" in2="BackgroundImageFix" result="effect1_dropShadow_4627_32737"/>
<feBlend mode="normal" in="SourceGraphic" in2="effect1_dropShadow_4627_32737" result="shape"/>
</filter>
<filter id="filter6_i_4627_32737" x="979" y="0" width="199" height="121" filterUnits="userSpaceOnUse" color-interpolation-filters="sRGB">
<feFlood flood-opacity="0" result="BackgroundImageFix"/>
<feBlend mode="normal" in="SourceGraphic" in2="BackgroundImageFix" result="shape"/>
<feColorMatrix in="SourceAlpha" type="matrix" values="0 0 0 0 0 0 0 0 0 0 0 0 0 0 0 0 0 0 127 0" result="hardAlpha"/>
<feOffset dy="4"/>
<feGaussianBlur stdDeviation="2"/>
<feComposite in2="hardAlpha" operator="arithmetic" k2="-1" k3="1"/>
<feColorMatrix type="matrix" values="0 0 0 0 0 0 0 0 0 0 0 0 0 0 0 0 0 0 0.25 0"/>
<feBlend mode="normal" in2="shape" result="effect1_innerShadow_4627_32737"/>
</filter>
<filter id="filter7_d_4627_32737" x="964" y="106" width="199" height="51" filterUnits="userSpaceOnUse" color-interpolation-filters="sRGB">
<feFlood flood-opacity="0" result="BackgroundImageFix"/>
<feColorMatrix in="SourceAlpha" type="matrix" values="0 0 0 0 0 0 0 0 0 0 0 0 0 0 0 0 0 0 127 0" result="hardAlpha"/>
<feOffset dy="4"/>
<feGaussianBlur stdDeviation="7.5"/>
<feComposite in2="hardAlpha" operator="out"/>
<feColorMatrix type="matrix" values="0 0 0 0 0 0 0 0 0 0 0 0 0 0 0 0 0 0 0.8 0"/>
<feBlend mode="normal" in2="BackgroundImageFix" result="effect1_dropShadow_4627_32737"/>
<feBlend mode="normal" in="SourceGraphic" in2="effect1_dropShadow_4627_32737" result="shape"/>
</filter>
<clipPath id="clip0_4627_32737">
<rect width="169" height="120" fill="white"/>
</clipPath>
<clipPath id="clip1_4627_32737">
<rect width="199" height="117" fill="white" transform="translate(321.668)"/>
</clipPath>
<clipPath id="clip2_4627_32737">
<rect width="199" height="117" fill="white" transform="translate(657.332)"/>
</clipPath>
<clipPath id="clip3_4627_32737">
<rect width="199" height="117" fill="white" transform="translate(979)"/>
</clipPath>
</defs>
</svg>
