<svg width="80" height="80" viewBox="0 0 80 80" fill="none" xmlns="http://www.w3.org/2000/svg">
<path d="M13.3327 73.3302C11.4993 73.3302 9.93046 72.6779 8.62602 71.3735C7.32157 70.0691 6.66824 68.4991 6.66602 66.6635V26.6635C6.66602 24.8302 7.31935 23.2613 8.62602 21.9568C9.93268 20.6524 11.5016 19.999 13.3327 19.9968H26.666L37.666 8.99683C38.3327 8.33016 39.1105 7.99683 39.9993 7.99683C40.8882 7.99683 41.666 8.33016 42.3327 8.99683L53.3327 19.9968H66.666C68.4993 19.9968 70.0693 20.6502 71.376 21.9568C72.6827 23.2635 73.3349 24.8324 73.3327 26.6635V66.6635C73.3327 68.4968 72.6805 70.0668 71.376 71.3735C70.0716 72.6802 68.5016 73.3324 66.666 73.3302H13.3327ZM37.4993 56.6635L31.3327 48.4135C30.9993 47.9691 30.5549 47.7468 29.9993 47.7468C29.4438 47.7468 28.9993 47.9691 28.666 48.4135L21.9993 57.3302C21.5549 57.8857 21.4993 58.4691 21.8327 59.0802C22.166 59.6913 22.666 59.9968 23.3327 59.9968H56.666C57.3327 59.9968 57.8327 59.6913 58.166 59.0802C58.4994 58.4691 58.4438 57.8857 57.9993 57.3302L48.8327 45.0802C48.4993 44.6357 48.0549 44.4135 47.4993 44.4135C46.9438 44.4135 46.4993 44.6357 46.166 45.0802L37.4993 56.6635ZM58.3327 43.3302C59.7216 43.3302 60.9027 42.8446 61.876 41.8735C62.8493 40.9024 63.3349 39.7213 63.3327 38.3302C63.3327 36.9413 62.8471 35.7613 61.876 34.7902C60.9049 33.819 59.7238 33.3324 58.3327 33.3302C56.9438 33.3302 55.7638 33.8168 54.7927 34.7902C53.8216 35.7635 53.3349 36.9435 53.3327 38.3302C53.3327 39.7191 53.8193 40.9002 54.7927 41.8735C55.766 42.8468 56.946 43.3324 58.3327 43.3302ZM33.666 19.9968H46.3327L39.9993 13.6635L33.666 19.9968Z" fill="url(#paint0_linear_3030_40214)"/>
<defs>
<linearGradient id="paint0_linear_3030_40214" x1="39.9994" y1="7.99683" x2="39.9994" y2="73.3302" gradientUnits="userSpaceOnUse">
<stop offset="0.442708" stop-color="#E22BCC"/>
<stop offset="1" stop-color="#FBB03B"/>
</linearGradient>
</defs>
</svg>
