<svg width="66" height="70" viewBox="0 0 66 70" fill="none" xmlns="http://www.w3.org/2000/svg">
<path d="M51.4026 14.7304C50.4347 14.7304 49.5064 14.3422 48.822 13.6513C48.1375 12.9604 47.753 12.0233 47.753 11.0462C47.753 10.069 48.1375 9.13196 48.822 8.44103C49.5064 7.75011 50.4347 7.36195 51.4026 7.36195C52.3705 7.36195 53.2988 7.75011 53.9832 8.44103C54.6677 9.13196 55.0522 10.069 55.0522 11.0462C55.0522 12.0233 54.6677 12.9604 53.9832 13.6513C53.2988 14.3422 52.3705 14.7304 51.4026 14.7304ZM51.4026 22.0988C54.3064 22.0988 57.0912 20.9343 59.1445 18.8616C61.1978 16.7888 62.3513 13.9775 62.3513 11.0462C62.3513 8.11482 61.1978 5.30354 59.1445 3.23077C57.0912 1.158 54.3064 -0.00646973 51.4026 -0.00646973C48.4988 -0.00646973 45.714 1.158 43.6607 3.23077C41.6074 5.30354 40.4539 8.11482 40.4539 11.0462C40.4539 13.9775 41.6074 16.7888 43.6607 18.8616C45.714 20.9343 48.4988 22.0988 51.4026 22.0988ZM14.9069 3.67774C11.0352 3.67774 7.32204 5.23037 4.58433 7.99406C1.84662 10.7578 0.308594 14.5061 0.308594 18.4146V25.783H7.60774V18.4146C7.60774 16.4604 8.37675 14.5862 9.74561 13.2043C11.1145 11.8225 12.971 11.0462 14.9069 11.0462H25.8556V3.67774H14.9069ZM51.4026 69.9935C55.2743 69.9935 58.9874 68.4409 61.7252 65.6772C64.4629 62.9135 66.0009 59.1651 66.0009 55.2567V47.8883H58.7018V55.2567C58.7018 57.2109 57.9327 59.0851 56.5639 60.4669C55.195 61.8488 53.3385 62.6251 51.4026 62.6251H40.4539V69.9935H51.4026ZM18.5565 40.5198C18.5565 39.5427 18.1719 38.6056 17.4875 37.9147C16.8031 37.2238 15.8748 36.8356 14.9069 36.8356C13.939 36.8356 13.0107 37.2238 12.3262 37.9147C11.6418 38.6056 11.2573 39.5427 11.2573 40.5198C11.2573 41.497 11.6418 42.4341 12.3262 43.125C13.0107 43.8159 13.939 44.2041 14.9069 44.2041C15.8748 44.2041 16.8031 43.8159 17.4875 43.125C18.1719 42.4341 18.5565 41.497 18.5565 40.5198ZM25.8556 40.5198C25.8556 41.9713 25.5724 43.4085 25.0222 44.7495C24.472 46.0905 23.6655 47.3089 22.6488 48.3352C21.6321 49.3616 20.4251 50.1757 19.0968 50.7311C17.7684 51.2866 16.3447 51.5725 14.9069 51.5725C13.4691 51.5725 12.0454 51.2866 10.717 50.7311C9.38863 50.1757 8.18165 49.3616 7.16497 48.3352C6.14829 47.3089 5.34181 46.0905 4.79159 44.7495C4.24136 43.4085 3.95817 41.9713 3.95817 40.5198C3.95817 37.5885 5.11169 34.7772 7.16497 32.7045C9.21825 30.6317 12.0031 29.4672 14.9069 29.4672C17.8107 29.4672 20.5955 30.6317 22.6488 32.7045C24.7021 34.7772 25.8556 37.5885 25.8556 40.5198ZM51.4026 33.1514C49.4668 33.1514 47.6102 33.9277 46.2413 35.3096C44.8725 36.6914 44.1035 38.5656 44.1035 40.5198H36.8043C36.8043 36.6114 38.3423 32.863 41.0801 30.0993C43.8178 27.3356 47.5309 25.783 51.4026 25.783C55.2743 25.783 58.9874 27.3356 61.7252 30.0993C64.4629 32.863 66.0009 36.6114 66.0009 40.5198H58.7018C58.7018 38.5656 57.9327 36.6914 56.5639 35.3096C55.195 33.9277 53.3385 33.1514 51.4026 33.1514ZM7.60774 69.9935C7.60774 68.0393 8.37675 66.1651 9.74561 64.7833C11.1145 63.4014 12.971 62.6251 14.9069 62.6251C16.8427 62.6251 18.6993 63.4014 20.0682 64.7833C21.437 66.1651 22.206 68.0393 22.206 69.9935H29.5052C29.5052 66.0851 27.9671 62.3367 25.2294 59.573C22.4917 56.8093 18.7786 55.2567 14.9069 55.2567C11.0352 55.2567 7.32204 56.8093 4.58433 59.573C1.84662 62.3367 0.308594 66.0851 0.308594 69.9935H7.60774Z" fill="url(#paint0_linear_3030_40234)"/>
<defs>
<linearGradient id="paint0_linear_3030_40234" x1="33.1547" y1="-0.00646973" x2="33.1547" y2="69.9935" gradientUnits="userSpaceOnUse">
<stop offset="0.442708" stop-color="#E22BCC"/>
<stop offset="1" stop-color="#FBB03B"/>
</linearGradient>
</defs>
</svg>
