<svg width="48" height="62" viewBox="0 0 48 62" fill="none" xmlns="http://www.w3.org/2000/svg">
<path d="M0.666016 7.63211C0.666016 4.3949 0.666016 2.7763 1.34098 1.88406C1.929 1.10676 2.82775 0.62576 3.80068 0.567669C4.91747 0.500988 6.26423 1.39883 8.95775 3.19451L44.0096 26.5624C46.2352 28.0462 47.348 28.788 47.7358 29.7231C48.0748 30.5406 48.0748 31.4594 47.7358 32.2769C47.348 33.212 46.2352 33.9539 44.0096 35.4376L8.95774 58.8055C6.26423 60.6012 4.91747 61.4991 3.80068 61.4324C2.82775 61.3743 1.929 60.8933 1.34098 60.116C0.666016 59.2237 0.666016 57.6051 0.666016 54.3679V7.63211Z" fill="url(#paint0_linear_3030_40175)"/>
<defs>
<linearGradient id="paint0_linear_3030_40175" x1="24.3281" y1="0.564209" x2="24.3281" y2="61.4358" gradientUnits="userSpaceOnUse">
<stop offset="0.442708" stop-color="#E22BCC"/>
<stop offset="1" stop-color="#FBB03B"/>
</linearGradient>
</defs>
</svg>
