<svg width="44" height="44" viewBox="0 0 44 44" fill="none" xmlns="http://www.w3.org/2000/svg">
<rect width="44" height="44" rx="8" fill="#F7EDEF"/>
<path d="M12 27.4V12.6C12 12.4409 12.0632 12.2883 12.1757 12.1757C12.2883 12.0632 12.4409 12 12.6 12H27.4C27.4788 12 27.5568 12.0155 27.6296 12.0457C27.7024 12.0758 27.7685 12.12 27.8243 12.1757C27.88 12.2315 27.9242 12.2976 27.9543 12.3704C27.9845 12.4432 28 12.5212 28 12.6V27.4C28 27.4788 27.9845 27.5568 27.9543 27.6296C27.9242 27.7024 27.88 27.7685 27.8243 27.8243C27.7685 27.88 27.7024 27.9242 27.6296 27.9543C27.5568 27.9845 27.4788 28 27.4 28H12.6C12.5212 28 12.4432 27.9845 12.3704 27.9543C12.2976 27.9242 12.2315 27.88 12.1757 27.8243C12.12 27.7685 12.0758 27.7024 12.0457 27.6296C12.0155 27.5568 12 27.4788 12 27.4Z" stroke="url(#paint0_linear_3620_25266)" stroke-width="1.5"/>
<path d="M18 32H31.4C31.4788 32 31.5568 31.9845 31.6296 31.9543C31.7024 31.9242 31.7685 31.88 31.8243 31.8243C31.88 31.7685 31.9242 31.7024 31.9543 31.6296C31.9845 31.5568 32 31.4788 32 31.4V18M21 22.5C21 22.8978 20.842 23.2794 20.5607 23.5607C20.2794 23.842 19.8978 24 19.5 24C19.1022 24 18.7206 23.842 18.4393 23.5607C18.158 23.2794 18 22.8978 18 22.5C18 22.1022 18.158 21.7206 18.4393 21.4393C18.7206 21.158 19.1022 21 19.5 21C19.8978 21 20.2794 21.158 20.5607 21.4393C20.842 21.7206 21 22.1022 21 22.5ZM21 22.5V16.6C21 16.4409 21.0632 16.2883 21.1757 16.1757C21.2883 16.0632 21.4409 16 21.6 16H23" stroke="url(#paint1_linear_3620_25266)" stroke-width="1.5" stroke-linecap="round"/>
<defs>
<linearGradient id="paint0_linear_3620_25266" x1="20" y1="12" x2="20" y2="28" gradientUnits="userSpaceOnUse">
<stop stop-color="#E22BCC"/>
<stop offset="1" stop-color="#FBB03B"/>
</linearGradient>
<linearGradient id="paint1_linear_3620_25266" x1="25" y1="16" x2="25" y2="32" gradientUnits="userSpaceOnUse">
<stop stop-color="#E22BCC"/>
<stop offset="1" stop-color="#FBB03B"/>
</linearGradient>
</defs>
</svg>
