<svg width="44" height="44" viewBox="0 0 44 44" fill="none" xmlns="http://www.w3.org/2000/svg">
<rect width="44" height="44" rx="8" fill="#F4EFDD"/>
<path d="M13 31V17H18.885L22 13.885L25.115 17H31V31H13ZM14 30H30V18H14V30ZM17.5 27.5H26.654L23.827 23.73L21.212 27.038L19.462 24.923L17.5 27.5ZM26.928 23C27.2387 23 27.5013 22.891 27.716 22.673C27.9307 22.4557 28.038 22.1913 28.038 21.88C28.038 21.5687 27.9293 21.3057 27.712 21.091C27.4947 20.8763 27.2303 20.769 26.919 20.769C26.6077 20.769 26.3443 20.878 26.129 21.096C25.915 21.3133 25.808 21.5777 25.808 21.889C25.808 22.2003 25.9167 22.4633 26.134 22.678C26.3513 22.8927 26.616 23 26.928 23ZM20.138 17H23.862L22 15.138L20.138 17Z" fill="url(#paint0_linear_3621_28434)"/>
<defs>
<linearGradient id="paint0_linear_3621_28434" x1="22" y1="13.885" x2="22" y2="31" gradientUnits="userSpaceOnUse">
<stop stop-color="#E22BCC"/>
<stop offset="1" stop-color="#FBB03B"/>
</linearGradient>
</defs>
</svg>
