<svg width="40" height="40" viewBox="0 0 40 40" fill="none" xmlns="http://www.w3.org/2000/svg">
<rect width="40" height="40" rx="8" fill="#FEF9EC"/>
<path d="M25 23.1974C26.2133 23.8069 27.2534 24.785 28.0127 26.008C28.1631 26.2502 28.2382 26.3713 28.2642 26.539C28.317 26.8798 28.084 27.2988 27.7666 27.4336C27.6104 27.5 27.4347 27.5 27.0833 27.5M23.3333 19.6102C24.5681 18.9966 25.4167 17.7224 25.4167 16.25C25.4167 14.7776 24.5681 13.5034 23.3333 12.8898M21.6667 16.25C21.6667 18.3211 19.9877 20 17.9167 20C15.8456 20 14.1667 18.3211 14.1667 16.25C14.1667 14.1789 15.8456 12.5 17.9167 12.5C19.9877 12.5 21.6667 14.1789 21.6667 16.25ZM12.1327 25.782C13.4613 23.7871 15.5578 22.5 17.9167 22.5C20.2755 22.5 22.3721 23.7871 23.7006 25.782C23.9917 26.219 24.1372 26.4375 24.1205 26.7166C24.1074 26.9339 23.965 27.2 23.7913 27.3313C23.5683 27.5 23.2615 27.5 22.648 27.5H13.1853C12.5718 27.5 12.2651 27.5 12.042 27.3313C11.8684 27.2 11.7259 26.9339 11.7129 26.7166C11.6961 26.4375 11.8416 26.219 12.1327 25.782Z" stroke="#DD9E0A" stroke-width="2" stroke-linecap="round" stroke-linejoin="round"/>
</svg>
