<svg width="40" height="40" viewBox="0 0 40 40" fill="none" xmlns="http://www.w3.org/2000/svg">
<rect width="40" height="40" rx="8" fill="#EFF1FB"/>
<path d="M20.5667 13.3C20.9667 13.8917 21.2 14.6 21.2 15.3667C21.1917 17.3667 19.6167 18.9917 17.6333 19.0583C17.55 19.05 17.45 19.05 17.3583 19.0583C15.375 18.9917 13.8 17.3667 13.8 15.3667C13.8 13.325 15.45 11.6667 17.5 11.6667" stroke="#2F4DC4" stroke-width="1.5" stroke-linecap="round" stroke-linejoin="round"/>
<path d="M23.675 13.3333C25.2917 13.3333 26.5917 14.6417 26.5917 16.25C26.5917 17.825 25.3417 19.1083 23.7833 19.1667C23.7167 19.1583 23.6417 19.1583 23.5667 19.1667" stroke="#2F4DC4" stroke-width="1.5" stroke-linecap="round" stroke-linejoin="round"/>
<path d="M13.4667 22.1333C11.45 23.4833 11.45 25.6833 13.4667 27.025C15.7583 28.5583 19.5167 28.5583 21.8083 27.025C23.825 25.675 23.825 23.475 21.8083 22.1333C19.525 20.6083 15.7667 20.6083 13.4667 22.1333Z" stroke="#2F4DC4" stroke-width="1.5" stroke-linecap="round" stroke-linejoin="round"/>
<path d="M25.2833 26.6667C25.8833 26.5417 26.45 26.3 26.9167 25.9417C28.2167 24.9667 28.2167 23.3583 26.9167 22.3833C26.4583 22.0333 25.9 21.8 25.3083 21.6667" stroke="#2F4DC4" stroke-width="1.5" stroke-linecap="round" stroke-linejoin="round"/>
</svg>
