<svg width="1220" height="994" viewBox="0 0 1220 994" fill="none" xmlns="http://www.w3.org/2000/svg">
<g opacity="0.02">
<path d="M569.476 982.503C549.079 982.503 526.892 981.284 502.729 978.874C244.055 952.939 258.187 841.444 273.178 723.41L273.625 719.78C280.225 667.718 287.72 608.729 265.869 557.193C238.387 492.634 182.453 433.894 128.347 377.094C47.5419 292.225 -22.2259 218.967 30.1279 152.192C91.0954 74.1948 196.959 39.2279 275.042 23.6285C365.953 5.45239 467.118 4.51033 539.086 21.1626C611.725 38.0087 638.834 80.5398 660.648 114.703C679.33 144.018 694.096 167.154 729.371 167.735C762.037 168.262 795.261 167.264 820.543 166.35C834.228 165.851 847.913 165.269 861.524 164.688C977.567 159.783 1087.23 155.156 1150.59 197.604C1184.11 220.075 1201.86 253.74 1204.81 300.565C1210.1 385.046 1196.27 440.987 1159.98 481.883C1125.72 520.48 1073.36 544.309 1007.06 574.482C972.496 590.22 933.305 608.036 891.094 630.59C809.729 674.174 793.061 744.163 776.989 811.825C765.094 861.782 753.87 908.995 716.88 941.191C684.96 968.982 637.342 982.503 569.513 982.503H569.476ZM420.879 10.6891C373.411 10.6891 323.07 15.4548 275.564 24.9585C197.779 40.5024 92.4005 75.3031 31.7313 152.884C-20.0258 218.884 49.4436 291.837 129.876 376.29C184.057 433.174 240.102 492.024 267.659 556.777C289.622 608.59 282.127 667.746 275.49 719.919L275.042 723.549C267.472 783.314 260.313 839.754 287.049 885.25C317.141 936.453 385.753 965.768 502.99 977.516C606.84 987.906 674.333 976.075 715.425 940.332C752.08 908.413 763.267 861.421 775.088 811.631C791.234 743.692 807.977 673.398 889.938 629.509C932.224 606.928 971.452 589.084 1006.02 573.346C1140.18 512.306 1214.05 478.697 1202.9 300.676C1199.96 254.238 1182.43 220.878 1149.28 198.685C1086.49 156.625 977.232 161.252 861.561 166.128C847.951 166.71 834.265 167.292 820.58 167.791C795.261 168.705 761.999 169.703 729.26 169.176C692.828 168.567 677.092 143.907 658.895 115.34C637.268 81.3988 610.345 39.1725 538.489 22.5202C504.444 14.6513 463.799 10.7168 420.805 10.7168L420.879 10.6891Z" fill="url(#paint0_linear_2669_197)"/>
</g>
<g opacity="0.05">
<path d="M568.99 971.032C549.003 971.032 527.301 969.84 503.622 967.485C250.244 942.161 263.631 832.827 277.838 717.065L278.21 714.017C284.512 663.007 291.635 605.182 270.38 554.698C243.681 491.719 189.463 434.365 137.034 378.922C58.3545 295.688 -9.66058 223.787 41.9847 158.315C101.722 82.1188 205.273 47.9277 281.604 32.6609C370.463 14.8726 469.428 13.9306 539.905 30.1395C610.866 46.5423 637.49 88.0205 658.894 121.353C677.24 149.975 691.745 172.556 726.275 173.166C758.157 173.72 790.673 172.778 815.433 171.919C828.671 171.448 841.908 170.894 855.109 170.367C968.654 165.712 1075.9 161.307 1137.95 202.868C1170.76 224.868 1188.17 257.812 1191.08 303.613C1196.34 386.209 1182.88 440.904 1147.45 480.969C1114.04 518.762 1062.88 542.147 998.112 571.766C964.515 587.144 926.405 604.544 885.387 626.516C806.185 669.214 789.629 737.513 773.632 803.568C761.774 852.554 750.587 898.854 714.119 930.44C682.61 957.76 635.737 971.004 569.027 971.004L568.99 971.032ZM424.533 19.9985C377.996 19.9985 328.663 24.6811 282.126 33.9908C206.094 49.2023 103.027 83.2271 43.5881 159.007C-7.46053 223.704 60.219 295.273 138.563 378.146C191.066 433.7 245.396 491.137 272.17 554.311C293.536 605.043 286.377 663.007 280.075 714.155L279.702 717.203C272.505 775.805 265.719 831.164 292.082 875.773C321.764 925.952 389.033 954.657 503.884 966.128C605.832 976.296 672.169 964.659 712.665 929.581C748.798 898.272 759.947 852.167 771.768 803.374C787.839 737.042 804.433 668.438 884.269 625.436C925.361 603.436 963.47 586.008 997.105 570.63C1128.1 510.727 1200.29 477.727 1189.22 303.696C1186.31 258.283 1169.12 225.644 1136.68 203.921C1075.19 162.72 968.355 167.098 855.183 171.753C842.02 172.307 828.745 172.833 815.508 173.304C790.71 174.191 758.194 175.105 726.238 174.579C690.552 173.942 675.115 149.864 657.216 121.962C635.998 88.8794 609.56 47.706 539.383 31.4694C506.121 23.8222 466.483 19.9985 424.533 19.9985Z" fill="url(#paint1_linear_2669_197)"/>
</g>
<g opacity="0.07">
<path d="M568.465 959.589C548.926 959.589 527.671 958.425 504.552 956.153C256.431 931.438 269.109 824.238 282.571 710.775L282.869 708.309C288.835 658.325 295.622 601.691 274.964 552.288C249.048 490.916 196.545 434.947 145.757 380.834C69.1284 299.152 2.94037 228.609 53.8772 164.438C112.384 90.0435 213.586 56.6282 288.164 41.6939C375.01 24.3212 471.775 23.3238 540.722 39.1171C610.005 55.1043 636.145 95.5296 657.139 128.003C675.187 155.932 689.431 177.959 723.215 178.597C754.351 179.151 786.121 178.292 810.322 177.461C823.112 177.017 835.902 176.519 848.655 175.992C959.664 171.559 1064.52 167.375 1125.26 208.105C1157.37 229.662 1174.41 261.886 1177.36 306.633C1182.54 387.179 1169.49 440.544 1135.03 479.722C1102.52 516.656 1052.78 539.57 989.757 568.58C956.942 583.681 919.728 600.832 879.642 622.471C802.379 664.171 785.972 730.863 770.124 795.366C758.304 843.384 747.154 888.741 711.245 919.746C680.183 946.566 634.057 959.589 568.465 959.589ZM428.184 29.3086C382.617 29.3086 334.253 33.908 288.649 43.0238C214.406 57.9028 113.651 91.1518 55.4806 165.131C5.14042 228.553 71.0301 298.737 147.286 380.031C198.148 434.226 250.726 490.279 276.754 551.873C297.524 601.524 290.737 658.325 284.733 708.42L284.435 710.886C277.648 768.352 271.197 822.631 297.188 866.298C326.422 915.451 392.387 943.546 504.813 954.768C604.822 964.687 669.966 953.272 709.828 918.831C745.402 888.131 756.514 842.94 768.297 795.117C784.22 730.365 800.701 663.395 878.561 621.363C918.684 599.696 955.936 582.545 988.787 567.417C1116.24 508.732 1186.42 476.397 1175.49 306.716C1172.58 262.357 1155.73 230.438 1124 209.13C1063.85 168.788 959.366 172.944 848.73 177.35C835.977 177.849 823.187 178.375 810.397 178.818C786.159 179.65 754.351 180.509 723.14 179.954C688.238 179.289 673.024 155.793 655.423 128.557C634.579 96.3331 608.663 56.2126 540.163 40.3916C507.722 32.966 469.053 29.2532 428.147 29.2532L428.184 29.3086Z" fill="url(#paint2_linear_2669_197)"/>
</g>
<g opacity="0.1">
<path d="M567.985 948.118C548.855 948.118 528.085 946.982 505.488 944.766C262.625 920.632 274.595 815.621 287.273 704.43L287.497 702.546C293.165 653.615 299.578 598.144 279.554 549.822C254.421 490.029 203.671 435.473 154.599 382.718C80.0951 302.671 15.7716 233.513 65.7762 170.562C123.313 98.0787 222.166 65.4392 294.917 50.8096C379.712 33.7695 474.203 32.7443 541.584 48.0943C609.189 63.6659 634.806 103.011 655.427 134.653C673.14 161.889 687.16 183.39 720.161 184.027C750.514 184.609 781.576 183.778 805.254 183.002C817.597 182.587 829.977 182.116 842.282 181.645C950.793 177.461 1053.26 173.499 1112.67 213.37C1144.1 234.455 1160.77 265.959 1163.71 309.681C1168.86 388.287 1156.18 440.405 1122.62 478.697C1090.96 514.828 1042.49 537.271 981.109 565.726C949.19 580.522 913.02 597.285 874.053 618.426C798.915 659.212 782.62 724.241 766.847 787.11C755.063 834.157 743.914 878.6 708.564 908.995C677.913 935.345 632.532 948.118 568.059 948.118H567.985ZM66.5592 170.894L67.3423 171.254C17.9717 233.458 81.9596 302.283 156.053 381.942C205.2 434.781 256.025 489.42 281.269 549.434C301.443 598.006 294.992 653.615 289.324 702.685L289.1 704.569C282.686 760.87 276.608 814.069 302.226 856.849C331.013 904.977 395.672 932.491 505.712 943.408C603.819 953.078 667.77 941.856 707.072 908.108C742.087 877.99 753.199 833.741 764.945 786.888C780.756 723.742 797.125 658.436 872.897 617.318C911.901 596.149 948.109 579.386 980.065 564.563C1104.24 507.042 1172.63 475.344 1161.81 309.764C1158.9 266.43 1142.42 235.231 1111.4 214.395C1052.55 174.912 950.458 178.846 842.357 183.002C830.052 183.473 817.709 183.944 805.329 184.36C781.613 185.136 750.514 185.967 720.124 185.385C685.967 184.72 671.051 161.778 653.749 135.207C633.315 103.814 607.884 64.7465 541.062 49.3689C474.016 34.0743 379.899 35.1272 295.439 52.0842C222.987 66.6306 124.656 99.1039 67.4169 171.199L66.6338 170.839L66.5592 170.894Z" fill="url(#paint3_linear_2669_197)"/>
</g>
<g opacity="0.12">
<path d="M567.498 936.675C548.816 936.675 528.493 935.594 506.418 933.433C268.813 909.909 280.074 807.031 291.969 698.113L292.118 696.839C297.749 646.438 303.566 594.321 284.101 547.412C259.863 489.004 210.679 435.723 163.173 384.214C90.8697 305.885 28.4852 238.279 77.6321 176.685C134.013 106.003 230.48 74.1393 301.478 59.8699C384.222 43.2177 476.512 42.1648 542.365 57.0992C608.329 72.2275 633.425 110.547 653.635 141.33C671.049 167.874 684.772 188.821 717.064 189.486C746.634 190.068 776.987 189.32 800.144 188.599C812.076 188.211 823.971 187.768 835.829 187.325C992.592 181.506 1140.63 175.964 1149.95 312.784C1155.02 389.423 1142.76 440.294 1110.09 477.727C1079.29 513.027 1032.08 535.026 972.307 562.9C941.283 577.364 906.156 593.739 868.308 614.409C795.259 654.252 779.075 717.619 763.414 778.908C751.668 824.986 740.556 868.514 705.728 898.3C675.524 924.151 630.852 936.703 567.498 936.703V936.675ZM78.4524 177.017L79.2355 177.378C30.6852 238.223 92.7714 305.497 164.665 383.411C212.283 435.03 261.504 488.395 285.854 546.996C305.431 594.154 299.613 646.411 293.946 696.949L293.796 698.224C287.756 753.39 282.088 805.507 307.295 847.401C335.672 894.504 398.989 921.408 506.642 932.075C602.81 941.496 665.642 930.496 704.311 897.413C738.803 867.905 749.878 824.57 761.587 778.659C777.286 717.12 793.544 653.476 867.189 613.3C905.075 592.63 940.276 576.228 971.3 561.737C1092.19 505.352 1158.79 474.319 1148.05 312.84C1138.8 177.433 991.66 182.891 835.867 188.71C824.009 189.153 812.076 189.597 800.181 189.985C777.024 190.705 746.634 191.453 716.989 190.871C683.578 190.178 668.924 167.818 651.957 141.94C631.933 111.406 607.024 73.3912 541.843 58.4291C476.326 43.5779 384.409 44.6308 302 61.2276C231.337 75.4416 135.318 107.139 79.2355 177.405L78.4524 177.045V177.017Z" fill="url(#paint4_linear_2669_197)"/>
</g>
<g opacity="0.15">
<path d="M566.976 925.232C548.705 925.232 528.867 924.179 507.314 922.073C274.966 899.159 285.482 798.414 296.631 691.768L296.706 691.103C302.001 641.756 307.482 590.746 288.614 544.973C265.159 488.118 217.69 436.221 171.825 386.015C101.722 309.321 41.1642 243.1 89.528 182.781C144.753 113.9 238.908 82.7841 308.153 68.8195C388.959 52.5275 479.049 51.4469 543.223 66.0487C607.584 80.6783 632.195 117.973 651.958 147.924C668.999 173.776 682.498 194.196 713.97 194.889C742.794 195.498 772.401 194.806 794.999 194.141C806.484 193.78 817.931 193.365 829.342 192.977C982.339 187.491 1126.91 182.31 1136.19 315.832C1141.23 390.532 1129.33 440.156 1097.56 476.702C1067.62 511.17 1021.68 532.754 963.508 560.046C933.415 574.177 899.296 590.192 862.566 610.335C791.605 649.265 775.534 710.969 760.022 770.651C748.276 815.759 737.201 858.373 702.932 887.549C673.138 912.902 629.249 925.204 566.976 925.204V925.232ZM90.3111 183.141L91.0941 183.501C43.3269 243.072 103.586 308.961 173.316 385.239C219.294 435.529 266.8 487.508 290.367 544.558C309.347 590.58 303.865 641.728 298.533 691.214L298.458 691.879C292.828 745.908 287.495 796.946 312.33 837.925C340.259 884.003 402.271 910.325 507.538 920.688C601.804 929.886 663.443 919.053 701.515 886.635C735.448 857.736 746.486 815.288 758.194 770.374C773.781 710.443 789.927 648.461 861.448 609.199C898.215 589.028 932.371 572.986 962.501 558.855C1080.11 503.634 1144.88 473.211 1134.29 315.86C1125.08 183.723 981.481 188.876 829.379 194.335C817.969 194.75 806.484 195.166 794.999 195.498C772.364 196.163 742.719 196.856 713.82 196.246C681.193 195.526 666.836 173.748 650.168 148.506C630.554 118.776 606.13 81.7866 542.552 67.351C478.676 52.8322 388.996 53.9128 308.526 70.1494C239.616 84.0586 145.946 114.98 91.0196 183.473L90.2365 183.113L90.3111 183.141Z" fill="url(#paint5_linear_2669_197)"/>
</g>
<g opacity="0.17">
<path d="M566.49 913.761C548.629 913.761 529.239 912.735 508.245 910.685C281.155 888.353 290.962 789.769 301.328 685.395C306.325 636.99 311.434 587.117 293.162 542.507C270.49 487.231 224.737 436.692 180.512 387.816C112.534 312.757 53.8411 247.921 101.422 188.904C155.491 121.824 247.296 91.512 314.752 77.8799C393.544 61.9481 481.397 60.8675 544.042 75.026C606.725 89.2123 630.851 125.454 650.204 154.574C666.276 178.735 680.147 199.599 710.911 200.319C738.952 200.929 767.851 200.319 789.926 199.682C800.964 199.35 811.964 198.99 822.927 198.602C972.232 193.476 1113.22 188.627 1122.51 318.852C1127.5 391.612 1115.98 439.99 1085.14 475.649C1056.06 509.314 1011.39 530.427 954.855 557.165C925.658 570.963 892.583 586.618 856.972 606.262C788.099 644.249 772.176 704.319 756.776 762.394C745.067 806.532 734.03 848.232 700.283 876.799C670.937 901.68 627.756 913.733 566.565 913.733L566.49 913.761ZM102.205 189.264L102.988 189.624C56.0038 247.893 114.398 312.396 182.003 387.068C226.34 436.027 272.168 486.621 294.914 542.12C313.298 586.978 308.152 636.99 303.155 685.367C297.898 738.4 292.901 788.356 317.362 828.449C344.844 873.529 405.588 899.214 508.431 909.327C600.796 918.277 661.279 907.665 698.754 875.912C732.165 847.595 743.166 806.089 754.837 762.145C770.312 703.821 786.309 643.501 855.741 605.182C891.389 585.509 924.539 569.855 953.737 556.029C1068.06 501.971 1131.05 472.186 1120.57 318.935C1111.39 190.095 971.3 194.889 822.927 199.987C811.964 200.375 800.926 200.735 789.889 201.068C767.814 201.677 738.84 202.314 710.761 201.705C678.917 200.957 664.784 179.733 648.452 155.184C629.248 126.313 605.345 90.3483 543.408 76.356C481.098 62.2528 393.618 63.3612 315.162 79.2099C248.005 92.7865 156.684 122.96 102.951 189.624L102.168 189.264H102.205Z" fill="url(#paint6_linear_2669_197)"/>
</g>
<g opacity="0.2">
<path d="M566.009 902.317C548.595 902.317 529.652 901.32 509.18 899.353C287.348 877.63 296.372 781.457 305.955 679.632L306.03 678.911C310.654 632.03 315.427 583.542 297.714 540.097C275.826 486.372 231.787 437.219 189.166 389.673C123.314 316.22 66.4853 252.797 113.283 195.055C166.196 129.804 255.615 100.24 321.356 86.94C398.134 71.3961 483.787 70.2878 544.866 84.0308C605.908 97.7737 629.512 132.962 648.455 161.252C664.228 184.748 677.839 205.03 707.819 205.778C735.115 206.415 763.305 205.833 784.783 205.279C795.374 204.974 805.926 204.642 816.479 204.281C962.055 199.516 1099.54 194.999 1108.75 321.928C1113.67 392.748 1102.52 439.851 1072.62 474.652C1044.39 507.485 1000.99 528.155 946.058 554.338C917.756 567.804 885.725 583.099 851.195 602.245C784.411 639.317 768.6 697.725 753.349 754.193C741.677 797.361 730.64 838.147 697.415 866.131C668.479 890.514 626.044 902.345 565.972 902.345L566.009 902.317ZM114.066 195.387L114.849 195.748C68.6481 252.742 125.215 315.832 190.695 388.897C233.391 436.526 277.504 485.762 299.467 539.681C317.254 583.376 312.481 631.975 307.857 678.995L307.782 679.715C298.274 780.875 289.287 876.411 509.367 897.967C599.83 906.695 659.119 896.277 695.998 865.189C728.887 837.482 739.85 796.89 751.484 753.888C766.847 697.171 782.695 638.514 850.039 601.109C884.606 581.935 916.675 566.641 944.977 553.147C1056.02 500.226 1117.21 471.077 1106.81 321.955C1097.68 196.413 961.086 200.873 816.479 205.611C805.964 205.944 795.374 206.304 784.783 206.609C763.268 207.163 735.04 207.745 707.67 207.108C676.571 206.332 662.736 185.69 646.702 161.806C627.909 133.766 604.491 98.8543 544.232 85.3053C483.451 71.6178 398.208 72.7538 321.766 88.2146C256.398 101.459 167.389 130.856 114.812 195.72L114.029 195.36L114.066 195.387Z" fill="url(#paint7_linear_2669_197)"/>
</g>
<g opacity="0.22">
<path d="M565.483 890.874C548.479 890.874 530.021 889.904 510.034 887.993C293.422 866.852 301.737 773.117 310.5 673.897L310.612 672.539C314.863 627.015 319.263 579.913 302.185 537.659C281.117 485.485 238.756 437.718 197.776 391.529C134.086 319.683 79.0475 257.646 125.099 201.178C176.857 137.728 263.926 108.968 327.877 95.9728C402.641 80.8168 486.057 79.6808 545.608 93.0081C604.972 106.308 628.091 140.443 646.661 167.902C662.098 190.733 675.448 210.46 704.682 211.208C731.008 211.846 757.334 211.375 779.633 210.821C789.776 210.543 799.881 210.239 809.987 209.934C951.834 205.528 1085.81 201.345 1094.99 324.976C1099.87 393.857 1089.09 439.712 1060.08 473.654C1032.71 505.684 990.577 525.911 937.254 551.512C909.884 564.673 878.822 579.552 845.448 598.2C780.752 634.358 765.091 691.075 749.951 745.936C738.28 788.135 727.28 828.006 694.614 855.381C666.088 879.292 624.399 890.874 565.445 890.874H565.483ZM125.957 201.511L126.74 201.871C81.3222 257.591 136.025 319.296 199.379 390.726C240.434 436.997 282.869 484.876 304.012 537.215C321.202 579.719 316.765 626.932 312.514 672.594L312.402 673.952C303.676 772.508 295.436 865.605 510.295 886.58C598.819 895.058 656.99 884.834 693.272 854.411C725.602 827.313 736.565 787.608 748.161 745.604C763.375 690.493 779.111 633.499 844.367 597.036C877.778 578.361 908.877 563.454 936.247 550.293C1044.05 498.536 1103.41 470.025 1093.12 325.003C1084.02 202.73 950.939 206.886 810.024 211.264C799.919 211.569 789.813 211.901 779.671 212.151C757.334 212.705 730.971 213.176 704.608 212.538C674.292 211.735 660.719 191.675 644.983 168.456C626.562 141.247 603.667 107.388 545.085 94.2827C485.833 81.0108 402.828 82.1468 328.362 97.2751C264.747 110.187 178.087 138.809 126.703 201.843L125.92 201.483L125.957 201.511Z" fill="url(#paint8_linear_2669_197)"/>
</g>
<g opacity="0.24">
<path d="M565 879.403C548.406 879.403 530.433 878.461 510.968 876.633C415.024 867.323 357.897 843.384 331.161 801.296C306.997 763.281 311.137 714.931 315.126 668.133L315.425 664.587C319.154 620.92 323.032 575.784 306.736 535.165C286.451 484.571 245.769 438.161 206.466 393.302C144.902 323.064 91.728 262.412 136.997 207.246C187.561 145.625 272.319 117.612 334.479 104.978C407.23 90.182 488.446 89.0183 546.43 101.958C604.154 114.814 626.751 147.924 644.91 174.524C660.05 196.69 673.101 215.836 701.59 216.611C727.133 217.249 752.788 216.833 774.49 216.362C784.185 216.113 793.843 215.836 803.501 215.559C941.619 211.513 1072.06 207.662 1081.23 327.996C1086.08 394.937 1075.67 439.519 1047.56 472.601C1021.01 503.8 980.176 523.583 928.456 548.631C901.981 561.459 871.963 575.978 839.708 594.127C777.1 629.343 761.588 684.425 746.56 737.679C734.926 778.908 723.963 817.865 691.82 844.63C663.741 868.043 622.761 879.403 564.888 879.403H565ZM137.855 207.634L138.638 207.994C93.9654 262.412 146.841 322.731 208.07 392.582C247.484 437.524 288.204 483.989 308.564 534.805C324.933 575.673 321.055 620.947 317.326 664.725L317.028 668.272C308.825 764.223 301.069 854.882 511.229 875.303C597.889 883.532 654.867 873.529 690.552 843.771C722.36 817.255 733.285 778.492 744.882 737.43C759.984 683.927 775.571 628.595 838.739 593.074C871.031 574.898 901.086 560.351 927.561 547.523C1032.08 496.929 1089.66 469.027 1079.48 328.134C1070.42 209.158 940.836 212.954 803.65 216.999C793.992 217.276 784.334 217.581 774.639 217.803C752.862 218.302 727.17 218.717 701.59 218.052C672.02 217.221 658.707 197.743 643.307 175.189C624.364 147.453 602.923 116.033 545.945 103.343C488.259 90.4868 407.417 91.6505 335.001 106.391C273.139 118.97 188.866 146.816 138.6 208.05L137.817 207.69L137.855 207.634Z" fill="url(#paint9_linear_2669_197)"/>
</g>
<g opacity="0.27">
<path d="M563.546 867.905C547.885 867.905 530.732 867.046 511.901 865.273C418.529 856.24 362.745 832.994 336.382 792.07C312.405 754.914 316.171 707.894 319.788 662.398L320.124 658.076C323.517 615.822 327.022 572.155 311.361 532.727C291.859 483.685 252.892 438.688 215.192 395.187C155.754 326.555 104.407 267.289 148.93 213.398C234.657 109.605 438.926 86.9406 547.325 110.935C603.371 123.348 625.483 155.406 643.233 181.146C658.074 202.647 670.864 221.211 698.57 222.015C723.367 222.68 748.313 222.32 769.456 221.876C778.704 221.655 787.914 221.405 797.125 221.156C931.514 217.443 1058.45 213.952 1067.58 331.016C1072.35 396.018 1062.36 439.353 1035.14 471.577C1009.45 501.972 969.885 521.284 919.768 545.777C894.225 558.273 865.252 572.404 834.115 590.054C773.595 624.328 758.195 677.748 743.316 729.395C722.845 800.409 703.417 867.85 563.509 867.877L563.546 867.905ZM457.012 103.565C349.358 103.565 215.603 135.318 150.496 214.118C106.607 267.261 157.618 326.195 216.721 394.439C254.495 438.05 293.537 483.131 313.113 532.339C328.887 571.989 325.344 615.794 321.951 658.159L321.615 662.481C317.998 707.783 314.269 754.609 338.022 791.46C364.087 831.913 419.424 854.91 512.087 863.887C596.845 871.895 652.667 862.059 687.756 832.966C719.041 807.059 729.93 769.183 741.489 729.118C756.442 677.222 771.917 623.552 832.959 588.946C864.133 571.268 893.144 557.11 918.724 544.614C1019.96 495.156 1075.75 467.919 1065.68 331.099C1056.66 215.393 930.619 218.856 797.125 222.541C787.914 222.791 778.704 223.04 769.456 223.262C748.276 223.705 723.292 224.065 698.458 223.4C669.633 222.541 656.62 203.645 641.517 181.756C623.022 154.907 602.028 124.484 546.729 112.238C521.223 106.585 490.311 103.537 456.974 103.537L457.012 103.565Z" fill="url(#paint10_linear_2669_197)"/>
</g>
<g opacity="0.29">
<path d="M563.1 856.434C547.849 856.434 531.144 855.63 512.797 853.912C421.961 845.157 367.557 822.575 341.566 782.843C317.776 746.518 321.281 698.806 324.413 656.69L324.786 651.564C327.807 610.723 330.939 568.497 315.911 530.289C297.192 482.826 259.941 439.214 223.882 397.043C166.569 330.018 117.086 272.137 160.864 219.521C244.54 118.887 442.992 96.7765 548.222 119.94C602.627 131.91 624.217 162.914 641.556 187.823C656.062 208.66 668.591 226.642 695.551 227.501C715.016 228.055 736.904 228.055 764.424 227.501C773.597 227.307 782.732 227.085 791.868 226.863C921.97 223.677 1044.87 220.685 1053.94 334.119C1058.67 397.182 1049.05 439.269 1022.72 470.607C997.89 500.17 959.594 519.067 911.118 542.979C886.47 555.142 858.541 568.913 828.523 586.036C770.091 619.396 754.84 671.154 740.111 721.193C719.677 790.545 700.249 856.461 563.175 856.461L563.1 856.434ZM460.966 112.902C356.333 112.902 226.008 143.768 162.393 220.241C119.249 272.11 168.433 329.658 225.411 396.295C261.544 438.549 298.908 482.244 317.664 529.901C332.803 568.331 329.671 610.668 326.613 651.62L326.24 656.746C323.145 698.695 319.678 746.241 343.207 782.233C368.936 821.522 422.894 843.855 513.021 852.527C595.877 860.285 650.506 850.671 685.035 822.243C715.761 796.918 726.65 759.984 738.172 720.861C752.976 670.572 768.302 618.565 827.293 584.9C857.348 567.749 885.314 553.951 910 541.787C1008 493.465 1061.95 466.866 1052 334.175C1043.01 222.07 921 225.062 791.831 228.221C782.695 228.443 773.559 228.664 764.386 228.858C736.83 229.412 714.941 229.412 695.402 228.858C667.36 227.999 654.607 209.657 639.804 188.433C621.719 162.471 601.21 133.046 547.588 121.242C522.94 115.812 493.146 112.875 460.928 112.875L460.966 112.902Z" fill="url(#paint11_linear_2669_197)"/>
</g>
<g opacity="0.32">
<path d="M562.651 844.991C547.809 844.991 531.551 844.215 513.727 842.552C425.464 834.102 372.402 812.185 346.747 773.616C323.143 738.15 326.275 691.823 328.998 650.955L329.408 645.053C332.093 605.625 334.852 564.84 320.421 527.878C302.522 481.994 266.911 439.768 232.494 398.955C177.343 333.537 129.688 277.014 172.682 225.672C254.308 128.224 446.98 106.64 548.965 128.945C601.692 140.471 622.76 170.451 639.727 194.529C653.934 214.7 666.202 232.128 692.416 232.959C716.207 233.707 740.631 233.402 759.238 233.07C768.001 232.904 776.727 232.71 785.452 232.516C911.937 229.689 1031.41 227.03 1040.17 337.167C1045.02 398.234 1035.85 439.048 1010.45 469.554C986.477 498.314 949.412 516.74 902.503 540.069C878.712 551.9 851.715 565.339 822.779 581.991C766.435 614.409 751.333 664.504 736.753 712.937C716.319 780.654 696.928 845.018 562.688 845.018L562.651 844.991ZM173.465 226.004L174.248 226.365C131.851 276.986 179.208 333.149 234.06 398.179C268.552 439.075 304.238 481.385 322.211 527.462C336.716 564.674 333.957 605.57 331.235 645.109L330.825 651.01C328.103 691.713 325.008 737.846 348.388 773.007C373.744 811.132 426.359 832.799 513.914 841.195C594.868 848.731 648.378 839.283 682.274 811.52C712.478 786.805 723.329 750.757 734.851 712.632C749.543 663.95 764.682 613.633 821.548 580.882C850.559 564.203 877.556 550.764 901.384 538.906C996.21 491.747 1048.45 465.758 1038.23 337.25C1029.58 228.443 911.004 231.103 785.452 233.901C776.727 234.095 768.001 234.289 759.238 234.455C740.594 234.788 716.132 235.092 692.267 234.344C664.972 233.485 652.48 215.725 638.012 195.166C620.374 170.063 600.35 141.635 548.369 130.275C446.943 108.081 255.352 129.554 174.211 226.42L173.428 226.06L173.465 226.004Z" fill="url(#paint12_linear_2669_197)"/>
</g>
<g opacity="0.34">
<path d="M562.725 833.603C548.108 833.603 532.148 832.827 514.622 831.192C323.479 813.265 328.625 727.843 333.621 645.219L334.032 638.542C336.381 600.527 338.805 561.21 324.97 525.44C307.855 481.135 273.922 440.294 241.145 400.839C188.12 337.001 142.329 281.863 184.577 231.795C264.152 137.534 451.007 116.449 549.786 137.922C600.834 149.033 621.418 177.932 637.974 201.178C651.846 220.684 663.853 237.558 689.321 238.39C712.328 239.138 736.044 238.916 754.129 238.639C762.445 238.5 770.798 238.334 779.076 238.168C901.794 235.73 1017.73 233.43 1026.41 340.243C1031.22 399.37 1022.46 438.937 997.925 468.556C974.806 496.485 939.008 514.467 893.702 537.243C870.807 548.742 844.854 561.792 817.036 577.945C762.78 609.449 747.828 657.909 733.359 704.818C712.962 770.873 693.609 833.658 562.688 833.658L562.725 833.603ZM468.869 131.577C370.314 131.577 246.813 160.642 186.181 232.516C144.529 281.863 190.059 336.641 242.748 400.091C275.6 439.657 309.607 480.553 326.797 525.052C340.706 561.044 338.282 600.472 335.933 638.597L335.523 645.275C330.564 727.289 325.492 812.074 514.92 829.835C593.973 837.232 646.29 828.061 679.626 800.991C709.308 776.885 720.159 741.725 731.644 704.486C746.187 657.355 761.214 608.645 815.992 576.837C843.884 560.656 869.837 547.606 892.77 536.079C984.352 490.057 1034.77 464.705 1024.66 340.298C1016.08 234.815 901.011 237.115 779.225 239.526C770.947 239.692 762.594 239.858 754.279 239.997C736.156 240.274 712.44 240.523 689.358 239.747C662.846 238.861 650.615 221.71 636.445 201.816C619.218 177.599 599.678 150.169 549.375 139.252C526.517 134.292 498.886 131.605 468.943 131.605L468.869 131.577Z" fill="url(#paint13_linear_2669_197)"/>
</g>
<g opacity="0.37">
<path d="M562.316 822.16C548.108 822.16 532.596 821.411 515.555 819.832C432.401 812.102 382.06 791.57 357.114 755.273C335.598 723.964 335.785 685.949 338.246 639.484L338.656 632.003C340.67 595.401 342.758 557.525 329.558 523.001C313.225 480.276 280.97 440.848 249.834 402.723C198.934 340.464 154.97 286.712 196.51 237.919C273.997 146.816 455.11 126.285 550.681 146.899C600.089 157.567 620.151 185.44 636.297 207.828C649.87 226.669 661.616 242.961 686.301 243.82C708.6 244.596 731.57 244.43 749.059 244.18C756.964 244.07 764.869 243.931 772.737 243.793C891.727 241.714 1004.12 239.775 1012.73 343.263C1017.5 400.451 1009.11 438.77 985.508 467.531C963.247 494.656 928.717 512.195 885.015 534.389C863.014 545.555 838.105 558.218 811.406 573.872C759.239 604.434 744.435 651.259 730.153 696.534C709.794 760.954 690.441 822.187 562.353 822.187L562.316 822.16ZM472.785 140.914C377.25 140.914 257.217 169.065 198.039 238.639C157.133 286.712 200.799 340.132 251.4 402.003C282.648 440.211 314.94 479.694 331.347 522.613C344.622 557.359 342.534 595.346 340.521 632.058L340.11 639.539C335.897 719.087 331.534 801.323 515.816 818.474C592.967 825.651 644.128 816.673 676.905 790.24C706.065 766.717 716.878 732.47 728.326 696.201C742.72 650.678 757.598 603.63 810.25 572.764C837.024 557.082 861.97 544.419 883.97 533.225C972.271 488.339 1020.93 463.624 1010.9 343.318C1002.36 241.133 890.869 243.072 772.812 245.123C764.944 245.261 757.039 245.4 749.133 245.51C731.608 245.76 708.6 245.926 686.227 245.15C660.46 244.264 648.49 227.667 634.656 208.438C617.839 185.108 598.821 158.675 550.159 148.174C528.159 143.436 501.609 140.887 472.859 140.887L472.785 140.914Z" fill="url(#paint14_linear_2669_197)"/>
</g>
<g opacity="0.39">
<path d="M561.904 810.717C548.107 810.717 533.005 809.996 516.486 808.472C435.867 801.047 386.907 781.208 362.296 746.047C341.004 715.569 340.892 677.166 342.869 633.749L343.242 625.464C344.92 590.248 346.672 553.868 334.068 520.536C318.519 479.39 287.979 441.375 258.409 404.607C209.635 343.928 167.536 291.533 208.33 244.015C251.884 193.282 322.509 169.925 374.117 159.257C434.749 146.733 502.689 145.431 551.426 155.849C599.156 166.073 618.733 192.894 634.469 214.451C647.744 232.627 659.191 248.337 683.131 249.224C704.684 250.027 726.908 249.889 743.875 249.722C751.37 249.639 758.828 249.528 766.285 249.417C881.508 247.727 990.355 246.12 998.932 346.311C1003.67 401.56 995.65 438.632 972.941 466.506C951.537 492.8 918.275 509.896 876.176 531.563C855.108 542.397 831.206 554.671 805.625 569.827C755.546 599.447 740.929 644.61 726.759 688.277C706.399 751.062 687.084 810.744 561.83 810.744L561.904 810.717ZM476.736 150.225C384.222 150.225 267.619 177.489 209.933 244.763C169.773 291.588 211.611 343.651 260.05 403.915C289.657 440.766 320.272 478.864 335.896 520.176C348.574 553.702 346.821 590.22 345.143 625.52L344.77 633.804C341.265 710.886 337.648 790.601 516.747 807.115C591.997 814.069 642.038 805.286 674.182 779.518C702.82 756.576 713.596 723.244 725.044 687.945C739.251 644.056 753.98 598.643 804.544 568.719C830.161 553.563 854.101 541.261 875.207 530.4C960.263 486.649 1007.14 462.572 997.179 346.366C988.714 247.478 880.725 249.085 766.397 250.775C758.94 250.886 751.444 250.997 743.987 251.08C726.983 251.274 704.721 251.385 683.131 250.581C658.147 249.667 646.439 233.652 632.903 215.088C616.533 192.645 597.963 167.209 550.979 157.151C529.873 152.635 504.405 150.197 476.774 150.197L476.736 150.225Z" fill="url(#paint15_linear_2669_197)"/>
</g>
<g opacity="0.41">
<path d="M561.456 799.273C548.032 799.273 533.415 798.58 517.381 797.112C439.335 789.963 391.717 770.818 367.479 736.82C346.336 707.146 345.889 669.99 347.455 628.013C347.567 624.993 347.679 621.973 347.828 618.925C349.207 585.122 350.587 550.182 338.617 518.097C323.851 478.558 294.952 441.957 267.023 406.547C220.411 347.446 180.139 296.409 220.188 250.138C262.548 201.206 330.861 178.624 380.679 168.29C439.298 156.126 505.038 154.824 552.209 164.826C598.298 174.607 617.353 200.403 632.678 221.1C645.618 238.611 656.842 253.74 680.035 254.654C700.694 255.457 721.314 255.402 738.766 255.263C745.813 255.208 752.861 255.125 759.909 255.042C871.403 253.712 976.669 252.465 985.246 349.358C989.944 402.667 982.337 438.493 960.523 465.508C939.94 490.999 907.983 507.651 867.45 528.737C847.277 539.238 824.419 551.124 799.957 565.754C751.966 594.431 737.498 637.932 723.514 679.992C703.192 741.17 683.839 799.273 561.419 799.273H561.456ZM221.008 250.498L221.791 250.886C182.339 296.437 222.35 347.142 268.663 405.854C296.667 441.319 325.604 478.004 340.445 517.737C352.489 550.016 351.072 585.066 349.73 618.98C349.618 622.028 349.468 625.048 349.357 628.068C347.79 669.851 348.238 706.813 369.157 736.211C393.059 769.765 440.267 788.689 517.642 795.782C591.027 802.487 639.875 793.926 671.459 768.823C699.575 746.49 710.351 714.045 721.762 679.715C735.82 637.433 750.363 593.711 798.838 564.729C823.337 550.072 846.233 538.157 866.406 527.656C948.218 485.042 993.3 461.574 983.419 349.497C974.992 253.933 870.582 255.153 759.983 256.483C752.935 256.566 745.888 256.649 738.84 256.704C721.389 256.843 700.731 256.898 679.998 256.095C655.76 255.153 644.35 239.72 631.112 221.848C615.153 200.292 597.067 175.854 551.761 166.239C463.163 147.426 294.691 166.766 221.791 250.969L221.008 250.581V250.498Z" fill="url(#paint16_linear_2669_197)"/>
</g>
<g opacity="0.44">
<path d="M561.047 787.83C548.033 787.83 533.826 787.165 518.314 785.752C442.803 778.908 396.528 760.427 372.7 727.594C351.706 698.695 350.961 662.786 352.117 622.25C352.228 618.953 352.303 615.655 352.415 612.331C353.459 579.94 354.578 546.47 343.204 515.631C329.221 477.672 302 442.483 275.711 408.458C231.226 350.938 192.818 301.258 232.158 256.233C273.325 209.103 339.289 187.297 387.355 177.294C443.959 165.519 507.5 164.161 553.142 173.776C597.553 183.113 615.377 206.831 631.076 227.722C643.717 244.568 654.642 259.115 677.09 260.029C697.04 260.833 716.915 260.86 733.769 260.777C740.407 260.75 747.044 260.694 753.645 260.611C861.372 259.641 963.134 258.755 971.636 352.351C976.297 403.72 969.063 438.299 948.144 464.455C928.418 489.143 897.692 505.352 858.799 525.883C839.558 536.052 817.744 547.55 794.401 561.653C748.499 589.389 734.217 631.227 720.383 671.68C700.06 731.224 680.745 787.775 561.121 787.775L561.047 787.83ZM232.866 256.621L233.649 257.009C194.906 301.313 233.09 350.661 277.277 407.793C303.641 441.901 330.936 477.173 344.957 515.271C356.405 546.303 355.286 579.913 354.242 612.386C354.13 615.711 354.018 619.008 353.944 622.305C351.483 708.254 361.849 770.18 518.537 784.394C533.863 785.78 547.921 786.445 560.786 786.445C679.253 786.445 698.382 730.392 718.518 671.403C732.39 630.728 746.746 588.668 793.134 560.628C816.514 546.497 838.365 534.971 857.644 524.802C936.212 483.324 979.504 460.493 969.697 352.489C961.307 260.223 860.403 261.11 753.57 262.052C746.97 262.107 740.332 262.163 733.695 262.218C716.803 262.301 696.891 262.301 676.904 261.47C653.449 260.5 642.3 245.649 629.36 228.443C613.848 207.773 596.248 184.332 552.545 175.133C467.153 157.151 304.424 175.965 233.612 257.009L232.829 256.621H232.866Z" fill="url(#paint17_linear_2669_197)"/>
</g>
<g opacity="0.46">
<path d="M560.6 776.387C547.996 776.387 534.237 775.75 519.209 774.392C447.279 767.936 401.041 749.622 377.847 718.367C357.04 690.3 355.958 654.169 356.667 616.515C356.741 612.94 356.816 609.366 356.928 605.764C357.673 574.787 358.457 542.785 347.717 513.166C334.517 476.813 308.974 443.065 284.251 410.398C241.891 354.429 205.348 306.107 243.979 262.329C283.99 217.027 347.568 195.997 393.881 186.327C449.33 174.746 509.141 173.416 553.888 182.753C596.659 191.675 613.961 214.367 629.249 234.4C641.592 250.581 652.257 264.546 673.921 265.488C690.813 266.208 709.197 266.513 728.587 266.347C733.584 266.291 738.581 266.264 743.577 266.208C849.366 265.128 949.263 264.102 957.84 355.427C967.647 460.106 925.846 482.493 849.963 523.113C831.617 532.921 810.847 544.059 788.622 557.636C744.808 584.429 730.713 624.605 717.065 663.451C696.742 721.36 677.427 776.387 560.6 776.387ZM244.762 262.745L245.545 263.133C207.548 306.19 243.83 354.207 285.892 409.761C310.652 442.484 336.27 476.314 349.507 512.833C360.321 542.619 359.538 574.759 358.792 605.82C358.718 609.421 358.606 612.996 358.531 616.57C357.823 654.031 358.867 689.967 379.487 717.73C402.681 748.957 447.13 766.551 519.433 773.034C671.908 786.722 692.976 726.68 715.275 663.119C728.96 624.079 743.13 583.681 787.429 556.583C809.691 542.979 830.498 531.84 848.844 522.004C924.168 481.662 965.671 459.441 955.975 355.537C947.548 265.516 848.471 266.541 743.615 267.621C738.618 267.677 733.621 267.732 728.624 267.76C709.197 267.926 690.776 267.621 673.847 266.901C651.138 265.903 640.25 251.634 627.646 235.12C612.544 215.337 595.428 192.894 553.403 184.139C471.181 167.015 314.269 185.275 245.545 263.16L244.762 262.773V262.745Z" fill="url(#paint18_linear_2669_197)"/>
</g>
<g opacity="0.49">
<path d="M560.19 764.943C547.959 764.943 534.684 764.334 520.142 763.032C450.71 756.853 405.888 739.231 383.067 709.168C362.372 681.904 360.992 647.076 361.328 610.806C361.328 606.955 361.44 603.104 361.477 599.225C361.924 569.689 362.409 539.127 352.267 510.755C339.849 476.037 315.947 443.702 292.865 412.421C252.668 358.003 217.952 311.011 255.874 268.48C294.692 224.979 355.958 204.725 400.481 195.387C453.879 184.194 511.528 182.836 554.746 191.758C595.838 200.236 612.693 221.931 627.534 241.077C639.578 256.593 649.945 269.976 670.864 270.946C687.308 271.694 705.021 272.027 723.479 271.943C727.991 271.943 732.503 271.888 736.977 271.86C839.112 271.112 935.579 270.447 944.118 358.502C953.85 459.08 913.839 480.83 841.2 520.341C823.786 529.817 804.023 540.54 782.955 553.618C741.191 579.469 727.319 617.983 713.858 655.194C693.536 711.496 674.22 764.971 560.153 764.971L560.19 764.943ZM256.658 268.868L257.441 269.256C220.114 311.094 254.607 357.754 294.506 411.756C317.662 443.093 341.602 475.511 354.094 510.394C364.311 538.933 363.826 569.578 363.379 599.225C363.304 603.104 363.267 606.955 363.23 610.806C362.894 646.882 364.274 681.516 384.745 708.475C407.268 738.15 451.642 755.551 520.44 761.646C534.759 762.921 547.922 763.53 560.004 763.53C672.877 763.53 692.007 710.554 712.143 654.806C725.641 617.373 739.625 578.666 781.836 552.538C802.942 539.46 822.742 528.709 840.156 519.233C912.273 480.027 951.986 458.415 942.328 358.613C933.938 271.833 838.292 272.525 737.089 273.246C732.577 273.273 728.103 273.301 723.591 273.329C705.095 273.44 687.346 273.107 670.827 272.331C648.901 271.334 638.273 257.619 625.968 241.77C611.313 222.846 594.682 201.428 554.298 193.088C473.269 176.38 325.046 193.531 257.478 269.256L256.695 268.868H256.658Z" fill="url(#paint19_linear_2669_197)"/>
</g>
<g opacity="0.51">
<path d="M559.744 753.5C547.923 753.5 535.058 752.918 521.075 751.672C454.178 745.798 410.737 728.868 388.251 699.942C367.705 673.481 365.953 639.955 365.915 605.071C365.915 600.943 365.915 596.786 365.953 592.603C366.139 564.48 366.326 535.387 356.78 508.289C345.145 475.178 322.884 444.312 301.405 414.416C263.333 361.522 230.482 315.86 267.733 274.576C333.66 201.539 477.223 184.748 555.53 200.707C594.982 208.743 611.314 229.44 625.745 247.699C637.454 262.551 647.597 275.351 667.77 276.321C685.482 277.18 703.269 277.374 718.371 277.43C723.703 277.43 729.036 277.457 734.331 277.485C830.835 277.651 922.006 277.817 930.359 361.494C940.017 458 901.758 479.14 832.364 517.515C815.845 526.631 797.163 536.994 777.213 549.517C737.538 574.427 723.853 611.25 710.615 646.854C690.292 701.521 670.977 753.473 559.706 753.473L559.744 753.5ZM268.516 274.991L269.3 275.379C232.644 315.971 265.272 361.3 303.083 413.806C324.636 443.758 346.935 474.707 358.607 507.956C368.19 535.22 368.004 564.396 367.854 592.603C367.854 596.786 367.817 600.943 367.817 605.043C367.892 679.687 379.265 737.79 521.299 750.286C665.607 762.976 686.638 706.397 708.9 646.494C722.212 610.696 735.971 573.651 776.094 548.465C796.081 535.913 814.8 525.55 831.357 516.407C900.23 478.309 938.19 457.335 928.606 361.605C920.366 279.203 830.052 279.037 734.405 278.87C729.11 278.87 723.778 278.87 718.446 278.815C703.344 278.759 685.482 278.566 667.733 277.707C646.59 276.681 636.223 263.576 624.216 248.392C609.972 230.354 593.826 209.934 555.12 202.037C477.372 186.189 334.779 202.841 269.337 275.351L268.554 274.964L268.516 274.991Z" fill="url(#paint20_linear_2669_197)"/>
</g>
<g opacity="0.54">
<path d="M559.296 742.057C547.885 742.057 535.468 741.503 521.969 740.339C457.571 734.743 415.546 718.534 393.434 690.743C373.037 665.113 370.949 631.532 370.539 599.364C370.501 594.958 370.464 590.525 370.464 586.036C370.389 559.326 370.278 531.729 361.366 505.878C350.477 474.403 329.894 444.977 309.981 416.521C274.072 365.152 243.048 320.82 279.628 280.755C343.43 210.904 481.362 194.64 556.387 209.74C594.198 217.36 610.046 237.032 624.029 254.432C635.44 268.591 645.284 280.838 664.712 281.835C681.641 282.722 698.756 282.943 713.299 283.082C718.184 283.11 723.069 283.137 727.954 283.193C820.729 283.747 908.358 284.246 916.711 364.625C926.294 457.03 887.662 478.78 823.637 514.828C808.05 523.611 790.375 533.558 771.582 545.528C733.995 569.495 720.533 604.628 707.519 638.625C687.197 691.685 667.881 742.085 559.333 742.113L559.296 742.057ZM281.194 281.503C245.21 320.875 276.011 364.902 311.659 415.856C331.609 444.395 352.267 473.904 363.193 505.518C372.179 531.535 372.254 559.215 372.366 586.008C372.366 590.469 372.366 594.903 372.44 599.308C373.335 671.126 384.932 727.012 522.23 738.926C662.474 751.09 683.505 696.229 705.729 638.182C718.818 603.991 732.354 568.664 770.389 544.419C789.257 532.394 806.932 522.447 822.519 513.664C888.185 476.702 924.355 456.337 914.846 364.681C906.643 285.576 819.834 285.049 727.954 284.523C723.069 284.495 718.184 284.467 713.299 284.412C698.756 284.301 681.603 284.052 664.6 283.165C644.203 282.112 634.135 269.588 622.463 255.097C608.666 237.946 593.005 218.496 555.94 211.042C481.473 196.025 344.548 212.178 281.231 281.503H281.194Z" fill="url(#paint21_linear_2669_197)"/>
</g>
<g opacity="0.56">
<path d="M558.848 730.614C547.81 730.614 535.878 730.087 522.864 728.979C389.071 717.536 376.803 660.902 375.125 593.628C375.013 588.918 374.939 584.18 374.864 579.386C374.528 554.117 374.156 527.989 365.84 503.44C355.735 473.627 336.792 445.642 318.446 418.599C284.662 368.754 255.502 325.696 291.449 286.85C353.125 220.186 485.389 204.448 557.133 218.69C593.266 225.866 608.629 244.568 622.202 261.054C633.314 274.548 642.897 286.213 661.542 287.238C677.725 288.125 694.17 288.429 708.079 288.596C712.516 288.651 716.953 288.706 721.391 288.734C810.437 289.649 894.561 290.535 902.839 367.618C912.348 455.949 875.581 477.062 814.725 512.001C800.071 520.425 783.44 529.956 765.765 541.399C730.266 564.396 717.028 597.867 704.238 630.23C683.878 681.682 664.562 730.558 558.773 730.586L558.848 730.614ZM502.169 215.254C430.947 215.254 340.745 236.118 293.015 287.654C257.702 325.807 286.638 368.532 320.161 417.99C338.545 445.115 357.525 473.128 367.667 503.107C376.057 527.822 376.393 554.034 376.729 579.386C376.803 584.152 376.84 588.918 376.99 593.6C377.735 624.272 380.159 656.275 400.183 680.796C421.587 707.035 461.785 722.357 523.051 727.594C535.878 728.702 547.699 729.201 558.587 729.201C663.257 729.201 682.349 680.823 702.523 629.869C715.387 597.313 728.699 563.648 764.609 540.402C782.321 528.931 798.952 519.372 813.644 510.949C876.066 475.095 910.483 455.34 901.049 367.756C892.883 291.921 809.617 291.062 721.428 290.147C716.991 290.092 712.553 290.064 708.116 290.009C694.17 289.842 677.688 289.538 661.467 288.651C641.853 287.57 632.046 275.629 620.673 261.83C607.286 245.566 592.11 227.113 556.685 220.075C540.949 216.944 522.342 215.282 502.169 215.282V215.254Z" fill="url(#paint22_linear_2669_197)"/>
</g>
<g opacity="0.59">
<path d="M558.401 719.171C547.774 719.171 536.289 718.672 523.797 717.619C394.74 706.73 382.21 652.423 379.749 587.892C379.563 582.877 379.451 577.835 379.302 572.736C378.743 548.908 378.109 524.276 370.427 501.002C361.105 472.851 343.766 446.362 327.023 420.761C295.402 372.411 268.069 330.628 303.382 293.001C362.932 229.551 489.528 214.312 557.991 227.722C592.483 234.483 607.362 252.16 620.487 267.76C631.264 280.588 640.586 291.644 658.522 292.696C673.96 293.611 689.696 293.943 703.045 294.193C707.035 294.248 711.025 294.331 715.015 294.387C800.332 295.689 880.951 296.908 889.192 370.721C898.626 454.979 863.761 475.455 805.963 509.342C792.24 517.404 776.654 526.52 760.135 537.437C726.686 559.492 713.71 591.273 701.181 622C680.821 671.874 661.468 719.226 558.364 719.226L558.401 719.171ZM304.165 293.361L304.91 293.749C270.232 330.711 297.303 372.134 328.701 420.096C345.481 445.781 362.858 472.324 372.254 500.614C380.01 524.027 380.607 548.769 381.204 572.653C381.316 577.751 381.465 582.794 381.651 587.782C384.075 651.675 396.492 705.4 524.021 716.178C536.326 717.204 547.699 717.702 558.177 717.702C660.125 717.702 679.255 670.821 699.428 621.474C712.069 590.552 725.12 558.578 758.941 536.301C775.498 525.384 791.084 516.241 804.844 508.15C864.059 473.405 896.687 454.259 887.365 370.748C879.236 298.21 799.474 296.991 714.978 295.689C710.988 295.633 706.998 295.578 703.008 295.495C689.621 295.273 673.885 294.913 658.373 293.999C639.542 292.89 629.959 281.558 618.921 268.425C605.982 253.047 591.29 235.591 557.506 228.969C489.566 215.669 363.976 230.77 304.873 293.722L304.127 293.334L304.165 293.361Z" fill="url(#paint23_linear_2669_197)"/>
</g>
<g opacity="0.61">
<path d="M557.951 707.7C547.734 707.7 536.697 707.229 524.727 706.231C400.442 695.924 387.615 643.917 384.408 582.129C384.147 576.809 383.923 571.434 383.737 566.031C382.954 543.643 382.096 520.508 375.011 498.536C366.435 472.047 350.736 447.083 335.522 422.922C306.027 376.041 280.558 335.532 315.274 299.097C372.699 238.833 493.628 224.12 558.846 236.672C591.66 242.989 606.091 259.697 618.807 274.409C629.285 286.545 638.346 297.046 655.499 298.099C670.117 299.014 685.181 299.429 698.009 299.706L708.599 299.928C790.224 301.618 867.338 303.198 875.542 373.713C884.901 453.926 851.9 473.737 797.235 506.571C784.445 514.273 769.902 522.974 754.539 533.309C723.179 554.394 710.463 584.484 698.158 613.577C677.761 661.844 658.371 707.7 557.989 707.7H557.951ZM316.057 299.485L316.803 299.873C282.721 335.643 307.966 375.791 337.2 422.312C352.452 446.529 368.188 471.576 376.801 498.203C383.961 520.314 384.781 543.533 385.601 566.003C385.788 571.406 385.974 576.782 386.273 582.102C389.48 643.252 402.121 694.677 524.95 704.874C653.15 715.513 674.144 665.806 696.368 613.162C708.748 583.875 721.538 553.618 753.271 532.283C768.709 521.921 783.214 513.193 796.042 505.49C852.087 471.853 882.925 453.317 873.677 373.824C865.586 304.555 789.292 302.976 708.524 301.313C704.982 301.23 701.477 301.175 697.934 301.092C685.107 300.815 670.005 300.399 655.35 299.485C637.265 298.349 627.98 287.598 617.241 275.157C604.712 260.639 590.505 244.18 558.399 238.002C493.702 225.533 373.781 240.135 316.841 299.9L316.095 299.512L316.057 299.485Z" fill="url(#paint24_linear_2669_197)"/>
</g>
<g opacity="0.63">
<path d="M557.506 696.257C547.699 696.257 537.108 695.813 525.661 694.871C406.261 685.146 392.912 633.277 389.034 576.394C388.661 570.769 388.363 564.923 388.102 559.271C387.095 538.351 386.088 516.684 379.562 496.042C371.769 471.271 357.636 447.803 343.989 425.111C316.656 379.67 293.052 340.409 327.171 305.165C358.792 272.498 405.963 256.926 439.933 249.583C481.1 240.689 525.884 239.221 559.668 245.594C590.842 251.495 604.751 267.178 617.056 281.032C627.236 292.502 635.999 302.394 652.406 303.502C666.315 304.417 680.671 304.888 692.865 305.248L702.075 305.497C780.009 307.575 853.58 309.515 861.784 376.733C871.069 452.901 839.932 472.075 788.362 503.855C776.504 511.17 763.043 519.455 748.798 529.236C719.526 549.351 707.109 577.724 695.065 605.182C674.63 651.869 655.203 696.229 557.468 696.229L557.506 696.257ZM514.213 243.211C452.127 243.211 371.918 261.387 328.7 306.024C295.177 340.63 318.595 379.532 345.704 424.584C359.389 447.332 373.522 470.856 381.39 495.765C387.952 516.546 388.959 538.241 389.966 559.243C390.227 564.867 390.525 570.714 390.898 576.338C393.061 608.008 398.132 633.194 415.807 653.061C436.13 675.892 472.114 689.108 525.884 693.486C650.094 703.599 671.125 655.61 693.349 604.766C705.431 577.142 717.923 548.575 747.568 528.238C761.849 518.43 775.311 510.145 787.206 502.803C840.044 470.246 869.167 452.319 859.957 376.872C851.902 310.845 779.114 308.933 702.038 306.883L692.827 306.633C680.597 306.301 666.203 305.83 652.257 304.888C634.955 303.752 625.931 293.583 615.49 281.807C603.408 268.175 589.686 252.714 559.221 246.951C546.244 244.485 530.881 243.183 514.213 243.183V243.211Z" fill="url(#paint25_linear_2669_197)"/>
</g>
<g opacity="0.66">
<path d="M557.021 684.814C547.624 684.814 537.481 684.398 526.556 683.511C411.855 674.34 398.244 624.91 393.62 570.659C393.098 564.674 392.725 558.467 392.39 552.483C391.234 533.032 390.003 512.916 384.112 493.632C377.064 470.579 364.535 448.662 352.416 427.466C327.246 383.439 305.469 345.396 339.104 311.316C369.532 280.45 414.316 265.654 446.533 258.644C485.687 250.138 528.308 248.642 560.526 254.599C590.022 260.057 603.483 274.77 615.341 287.737C625.222 298.515 633.724 307.853 649.386 308.961C662.474 309.903 675.6 310.402 687.831 310.817L695.624 311.067C769.866 313.533 839.97 315.832 848.136 379.781C857.346 451.904 828.075 470.44 779.599 501.196C768.673 508.123 756.256 515.992 743.205 525.163C715.984 544.281 703.902 570.963 692.156 596.787C671.684 641.922 652.22 684.786 557.058 684.786L557.021 684.814ZM516.898 252.438C459.212 252.438 383.59 268.508 340.558 312.147C307.557 345.59 329.148 383.3 354.094 426.94C366.25 448.191 378.817 470.163 385.901 493.327C391.83 512.75 393.061 532.921 394.254 552.427C394.627 558.412 395 564.618 395.485 570.576C400.034 624.19 413.533 673.093 526.779 682.126C647.111 691.768 668.105 645.414 690.366 596.344C702.15 570.382 714.343 543.505 741.862 524.165C754.988 514.939 767.405 507.07 778.331 500.143C828 468.667 855.333 451.322 846.234 379.92C838.217 317.162 768.897 314.863 695.475 312.452L687.681 312.203C676.01 311.815 662.325 311.288 649.162 310.346C632.643 309.183 623.88 299.596 613.775 288.541C602.103 275.767 588.866 261.304 560.041 255.984C547.81 253.712 533.044 252.465 516.898 252.465V252.438Z" fill="url(#paint26_linear_2669_197)"/>
</g>
<g opacity="0.68">
<path d="M556.535 673.37C547.548 673.37 537.89 672.982 527.45 672.179C478.153 668.327 444.519 656.302 424.607 635.411C405.776 615.655 400.779 589.887 398.206 564.978C397.535 558.633 397.05 552.039 396.602 545.666C395.26 527.712 393.918 509.148 388.623 491.221C382.321 469.941 371.358 449.604 360.73 429.932C338.655 389.035 317.811 350.411 350.923 317.467C399.213 269.422 497.73 252.133 561.271 263.631C589.126 268.674 602.102 282.361 613.513 294.47C623.059 304.583 631.337 313.311 646.215 314.447C658.558 315.389 671.012 315.943 682.609 316.442L688.948 316.691C759.499 319.545 826.135 322.205 834.301 382.912C843.474 450.989 816.029 468.944 770.648 498.646C760.655 505.185 749.319 512.583 737.424 521.2C712.291 539.321 700.508 564.286 689.135 588.447C668.588 632.03 649.086 673.425 556.498 673.425L556.535 673.37ZM519.954 261.553C461.112 261.553 390.785 280.145 352.415 318.27C319.936 350.605 339.625 387.124 362.446 429.378C373.073 449.078 384.111 469.47 390.412 490.888C395.745 508.898 397.124 527.545 398.43 545.555C398.914 551.928 399.399 558.522 400.033 564.84C405.328 615.822 419.05 662.315 527.599 670.793C644.015 679.909 665.046 635.217 687.345 587.948C698.793 563.648 710.65 538.518 736.082 520.175C748.051 511.558 759.387 504.132 769.381 497.593C815.88 467.171 841.498 450.408 832.436 383.023C824.419 323.507 758.567 320.847 688.836 318.049L682.497 317.799C670.863 317.328 658.371 316.747 645.991 315.804C630.255 314.613 621.791 305.636 611.946 295.245C600.723 283.359 587.97 269.893 560.786 264.961C548.294 262.689 534.423 261.553 519.88 261.553H519.954Z" fill="url(#paint27_linear_2669_197)"/>
</g>
<g opacity="0.71">
<path d="M556.051 661.927C547.475 661.927 538.301 661.567 528.383 660.819C423.19 652.811 408.685 606.235 402.831 559.243C402.01 552.51 401.414 545.805 400.78 538.684C399.325 522.253 397.834 505.241 393.135 488.755C387.579 469.249 378.145 450.546 369.009 432.453C348.985 392.832 330.117 355.399 362.782 323.563C409.021 278.538 502.243 262.024 562.092 272.581C588.306 277.208 600.761 289.898 611.761 301.12C621.008 310.54 628.988 318.686 643.121 319.85C654.606 320.792 666.426 321.429 677.501 321.956L682.349 322.177C749.245 325.419 812.413 328.467 820.579 385.905C829.678 449.992 804.097 467.309 761.774 496.042C752.75 502.165 742.496 509.12 731.72 517.1C708.675 534.223 697.264 557.47 686.264 579.941C665.643 622.001 646.104 661.927 556.014 661.927H556.051ZM524.02 270.891C468.31 270.891 401.19 288.457 364.274 324.422C332.205 355.648 350.067 391.031 370.762 431.982C379.935 450.131 389.406 468.861 394.963 488.478C399.698 505.075 401.19 522.115 402.607 538.601C403.241 545.722 403.8 552.427 404.658 559.132C410.437 605.57 424.756 651.564 528.532 659.461C641.145 668.05 662.213 625.021 684.512 579.497C695.587 556.86 707.072 533.475 730.414 516.158C741.191 508.15 751.483 501.196 760.507 495.045C803.836 465.647 827.739 449.466 818.752 386.099C810.772 329.825 748.35 326.805 682.274 323.59L677.427 323.369C666.352 322.815 654.494 322.205 642.972 321.263C628.019 320.044 619.815 311.676 610.307 301.979C599.493 290.951 587.225 278.483 561.682 273.966C550.197 271.944 537.444 270.918 524.02 270.918V270.891Z" fill="url(#paint28_linear_2669_197)"/>
</g>
<g opacity="0.73">
<path d="M555.567 650.484C547.4 650.484 538.675 650.151 529.315 649.458C438.591 642.726 415.434 607.759 407.455 553.507C406.41 546.359 405.665 539.155 404.882 531.563C403.353 516.684 401.787 501.306 397.685 486.317C392.875 468.667 384.932 451.654 377.25 435.168C359.314 396.738 342.348 360.441 374.678 329.686C418.865 287.654 506.792 271.971 562.912 281.558C587.486 285.769 599.456 297.462 610.046 307.797C618.995 316.525 626.714 324.089 640.063 325.253C650.169 326.139 660.311 326.777 672.43 327.497L675.749 327.691C738.991 331.321 798.728 334.756 806.894 388.952C815.956 449.05 792.203 465.785 752.9 493.52C744.808 499.228 735.635 505.684 726.089 513.027C705.133 529.097 694.132 550.598 683.542 571.406C662.847 611.97 643.196 650.456 555.567 650.456V650.484ZM528.122 280.228C475.582 280.228 411.631 296.797 376.169 330.545C344.473 360.718 360.47 395.02 379.003 434.725C386.722 451.239 394.702 468.307 399.512 486.039C403.614 501.14 405.217 516.545 406.709 531.452C407.492 539.044 408.238 546.22 409.282 553.369C417.15 606.927 440.008 641.479 529.464 648.101C538.712 648.794 547.326 649.126 555.343 649.126C641.891 649.126 661.318 611.056 681.753 570.963C692.417 550.044 703.455 528.404 724.709 512.112C734.33 504.742 743.503 498.258 751.595 492.551C791.83 464.178 813.979 448.551 805.03 389.146C797.05 336.086 738.059 332.706 675.6 329.104L672.281 328.91C660.125 328.217 649.982 327.552 639.84 326.666C625.67 325.419 617.727 317.661 608.554 308.656C598.188 298.515 586.405 287.016 562.502 282.916C551.987 281.115 540.353 280.228 528.122 280.228Z" fill="url(#paint29_linear_2669_197)"/>
</g>
<g opacity="0.76">
<path d="M555.044 639.04C547.325 639.04 539.084 638.736 530.21 638.098C443.997 631.92 420.617 597.535 412.078 547.772C410.773 540.152 409.878 532.422 408.908 524.248C407.342 511.004 405.739 497.316 402.271 483.851C398.206 468.113 391.681 452.846 385.416 438.078C369.531 400.783 354.541 365.539 386.61 335.782C429.306 296.187 510.223 281.669 563.77 290.507C586.702 294.303 598.187 305.026 608.33 314.474C616.944 322.51 624.402 329.464 637.043 330.683C647.297 331.653 657.663 332.374 667.359 333.038L669.037 333.149C728.662 337.167 785.005 340.991 793.172 391.972C802.158 448.108 780.27 464.261 743.95 491.055C736.828 496.319 728.774 502.248 720.384 508.954C701.515 523.971 691 543.727 680.857 562.817C660.05 601.912 640.324 639.013 555.044 639.013V639.04ZM388.027 336.668C356.555 365.844 370.762 399.121 387.169 437.662C393.471 452.458 399.996 467.78 404.098 483.574C407.603 497.095 409.207 510.81 410.773 524.11C411.742 532.283 412.637 539.986 413.942 547.578C422.37 596.648 445.414 630.59 530.433 636.685C635.588 644.249 656.768 604.434 679.179 562.291C689.396 543.089 699.949 523.223 719.078 508.012C727.506 501.306 735.597 495.349 742.72 490.085C779.822 462.682 800.294 447.609 791.382 392.139C783.402 342.265 727.767 338.497 668.925 334.535L667.247 334.424C657.514 333.759 647.148 333.039 636.856 332.069C623.507 330.794 615.452 323.313 606.95 315.361C596.994 306.079 585.696 295.55 563.434 291.893C510.409 283.165 430.35 297.517 388.138 336.668H388.027Z" fill="url(#paint30_linear_2669_197)"/>
</g>
<g opacity="0.78">
<path d="M553.74 627.542C546.655 627.542 539.16 627.265 531.143 626.711C449.107 621.031 426.063 588.751 416.703 542.036C415.062 533.835 413.944 525.467 412.788 516.629C411.259 505.102 409.693 493.16 406.821 481.385C403.465 467.669 398.357 454.259 393.435 441.292C379.601 404.995 366.549 370.721 398.506 341.905C439.076 305.331 514.81 291.616 564.591 299.512C585.883 302.893 596.883 312.618 606.616 321.207C614.931 328.55 622.128 334.895 633.986 336.114C643.383 337.084 652.742 337.832 662.288 338.608C718.334 343.041 771.284 347.225 779.488 395.02C788.474 447.221 768.338 462.848 735.039 488.727C728.588 493.742 721.951 498.896 714.754 504.881C697.974 518.818 688.018 536.744 678.397 554.117C658.336 590.248 637.64 627.514 553.777 627.514L553.74 627.542ZM535.17 298.737C488.857 298.737 432.737 313.2 399.886 342.792C368.563 371.026 381.465 404.967 395.15 440.932C400.109 453.926 405.218 467.365 408.574 481.163C411.445 492.994 413.049 504.936 414.578 516.518C415.734 525.356 416.852 533.696 418.493 541.87C427.703 587.948 450.45 619.784 531.255 625.381C632.867 632.391 654.085 594.127 676.57 553.646C686.265 536.19 696.296 518.125 713.263 504.022C720.497 498.037 727.171 492.856 733.585 487.841C767.63 461.38 786.386 446.806 777.549 395.242C769.532 348.527 717.29 344.399 661.99 340.021C652.407 339.273 643.01 338.497 633.613 337.527C621.047 336.225 613.291 329.381 605.087 322.122C595.541 313.699 584.765 304.167 564.106 300.898C555.157 299.485 545.387 298.764 535.096 298.764L535.17 298.737Z" fill="url(#paint31_linear_2669_197)"/>
</g>
<g opacity="0.8">
<path d="M553.254 616.099C546.617 616.099 539.569 615.849 532.074 615.378C449.591 609.92 430.089 574.177 421.326 536.329C419.275 527.435 417.933 518.263 416.516 508.566C415.099 498.896 413.644 488.866 411.37 478.946C408.722 467.365 404.956 455.949 401.265 444.922C389.481 409.456 378.369 375.985 410.363 348.028C448.808 314.447 519.396 301.563 565.373 308.49C585.025 311.454 595.578 320.21 604.863 327.94C612.88 334.59 619.778 340.326 630.853 341.572C639.616 342.57 648.528 343.373 657.142 344.177C706.475 348.749 757.449 353.459 765.727 398.096C774.677 446.445 756.368 461.546 725.977 486.594C720.57 491.027 715.014 495.626 709.011 500.863C694.356 513.636 684.997 529.762 675.973 545.334C655.799 580.162 634.955 616.099 553.18 616.099H553.254ZM411.817 348.915C380.42 376.318 391.42 409.484 403.092 444.589C406.783 455.644 410.549 467.088 413.234 478.725C415.509 488.699 416.963 498.73 418.38 508.427C419.797 518.097 421.14 527.268 423.19 536.107C431.841 573.401 451.045 608.645 532.261 614.021C630.48 620.504 651.772 583.736 674.332 544.807C683.43 529.125 692.79 512.916 707.668 499.976C713.672 494.74 719.265 490.14 724.672 485.679C755.696 460.105 772.775 446.002 763.975 398.29C755.92 354.706 705.617 350.051 656.992 345.562C648.379 344.759 639.467 343.928 630.666 342.958C618.92 341.628 611.463 335.449 603.557 328.882C594.459 321.318 584.13 312.757 565.075 309.875C519.583 303.031 449.852 315.777 411.855 348.943L411.817 348.915Z" fill="url(#paint32_linear_2669_197)"/>
</g>
<g opacity="0.83">
<path d="M552.694 604.656C546.504 604.656 539.941 604.434 533.005 604.018C454.698 599.114 434.935 564.147 425.948 530.621C423.338 520.84 421.697 510.616 419.982 499.81C418.789 492.218 417.521 484.349 415.917 476.536C413.978 467.282 411.406 458.083 408.907 449.189C399.137 414.333 389.927 381.416 422.257 354.179C459.956 322.454 524.54 311.593 566.192 317.495C584.24 320.044 594.308 327.83 603.183 334.701C610.864 340.63 617.502 345.756 627.794 347.031C635.289 347.945 643.008 348.776 650.465 349.58L652.069 349.746C694.988 354.401 743.688 359.666 752.003 401.144C760.953 445.67 744.396 460.327 716.914 484.627C712.589 488.45 708.114 492.412 703.341 496.818C690.812 508.372 682.198 522.614 673.883 536.357C653.523 569.993 632.529 604.683 552.656 604.683L552.694 604.656ZM542.775 317.301C503.472 317.301 454.474 329.104 423.674 355.066C391.941 381.804 401.076 414.388 410.734 448.884C413.233 457.806 415.806 467.005 417.745 476.287C419.385 484.128 420.616 491.997 421.846 499.616C423.562 510.422 425.165 520.619 427.775 530.344C436.613 563.399 456.078 597.812 533.154 602.633C628.166 608.562 650.577 571.573 672.242 535.747C680.595 521.921 689.246 507.624 701.924 495.904C706.697 491.498 711.172 487.536 715.535 483.712C743.613 458.914 759.051 445.254 750.213 401.338C742.084 360.885 694.131 355.676 651.845 351.104L650.242 350.938C642.784 350.134 635.028 349.303 627.533 348.361C616.607 347.003 609.447 341.489 601.878 335.615C593.189 328.91 583.345 321.291 565.894 318.825C558.809 317.827 551.016 317.301 542.812 317.301H542.775Z" fill="url(#paint33_linear_2669_197)"/>
</g>
<g opacity="0.85">
<path d="M552.099 593.212C546.357 593.212 540.316 593.018 533.902 592.658C459.51 588.28 439.598 554.145 430.574 524.885C427.181 513.886 425.242 502.11 423.154 489.669C422.296 484.571 421.438 479.307 420.469 474.042C419.238 467.42 417.71 460.77 416.255 454.37C408.425 419.735 401.041 387.04 434.154 360.247C469.616 331.598 529.054 321.457 567.015 326.444C583.459 328.605 593.042 335.421 601.544 341.406C608.592 346.394 615.229 351.132 624.775 352.406C630.481 353.182 636.223 353.902 641.966 354.623L647 355.26C692.343 361.023 730.49 368.67 738.32 404.136C747.344 444.949 732.466 459.246 707.781 482.909C704.574 485.984 701.218 489.198 697.713 492.689C687.346 502.941 679.628 515.16 672.17 527.019C651.661 559.603 630.481 593.212 552.099 593.212ZM434.862 360.718L435.534 361.189C403.018 387.484 410.326 419.846 418.082 454.12C419.537 460.549 421.028 467.198 422.296 473.848C423.266 479.113 424.161 484.377 425.018 489.475C427.069 501.888 429.008 513.609 432.401 524.553C441.313 553.341 460.89 586.95 534.089 591.245C626.267 596.648 648.752 560.933 670.529 526.409C678.024 514.523 685.78 502.221 696.258 491.858C699.764 488.367 703.157 485.125 706.364 482.077C731.534 457.916 745.405 444.589 736.531 404.385C728.886 369.751 692.94 362.519 646.739 356.645L641.705 356.008C635.962 355.288 630.182 354.567 624.477 353.791C614.409 352.434 607.548 347.557 600.314 342.431C591.625 336.28 582.639 329.908 566.754 327.829C529.278 322.898 470.585 332.928 435.571 361.217L434.9 360.746L434.862 360.718Z" fill="url(#paint34_linear_2669_197)"/>
</g>
<g opacity="0.88">
<path d="M551.463 581.769C546.168 581.769 540.649 581.603 534.832 581.298C480.912 578.361 449.253 558.634 435.195 519.178C430.572 506.239 428.297 491.969 425.873 476.869L425.016 471.604C424.456 468.141 423.86 464.705 423.263 461.269C417.148 426.219 411.405 393.081 446.084 366.371C479.644 340.52 532.743 331.238 567.87 335.422C582.748 337.195 591.884 343.041 599.976 348.223C606.688 352.517 613.027 356.562 621.752 357.865C625.332 358.391 628.949 358.945 632.566 359.472C635.698 359.943 638.831 360.386 641.963 360.857C680.967 366.703 716.653 374.628 724.633 407.212C733.769 444.478 721.239 457.723 698.53 481.773C696.442 483.962 694.317 486.234 692.079 488.644C683.95 497.4 677.35 507.485 670.974 517.266C650.241 548.991 628.837 581.769 551.537 581.769H551.463ZM446.718 366.842L447.389 367.313C413.344 393.552 419.049 426.358 425.09 461.075C425.687 464.511 426.283 467.947 426.843 471.41L427.7 476.675C430.124 491.72 432.399 505.934 436.985 518.79C451.006 558.135 481.247 576.976 534.981 579.885C624.773 584.762 647.37 550.127 669.259 516.629C675.672 506.793 682.31 496.652 690.513 487.813C692.751 485.43 694.913 483.13 696.964 480.942C719.412 457.196 731.755 444.118 722.768 407.406C714.975 375.681 679.923 367.895 641.553 362.159C638.421 361.688 635.288 361.217 632.156 360.774C628.539 360.248 624.922 359.721 621.342 359.167C612.169 357.782 605.644 353.625 598.745 349.22C590.467 343.928 581.928 338.469 567.571 336.752C532.93 332.623 480.539 341.794 447.426 367.285L446.755 366.814L446.718 366.842Z" fill="url(#paint35_linear_2669_197)"/>
</g>
<g opacity="0.9">
<path d="M550.755 570.326C545.982 570.326 540.985 570.215 535.765 569.938C485.872 567.5 454.475 549.019 439.82 513.47C434.19 499.838 431.579 484.128 429.566 469.166C425.203 436.748 420.244 400.008 457.98 372.494C485.984 352.074 531.514 340.547 568.654 344.426C582.003 345.812 590.393 350.522 598.485 355.066C604.824 358.64 610.79 361.993 618.658 363.323L620.075 363.572C625.631 364.514 631.262 365.456 636.855 366.454C669.819 372.3 702.67 380.529 710.874 410.287C720.234 444.257 709.121 457.501 688.948 481.551L686.375 484.626C680.558 491.553 675.636 498.951 670.415 506.793C649.496 538.102 627.943 570.381 550.792 570.381L550.755 570.326ZM458.614 372.993L459.248 373.492C422.145 400.534 427.067 436.914 431.393 469.027C433.407 483.906 436.017 499.561 441.61 513.082C456.004 548.021 486.842 566.17 535.877 568.58C624.103 572.903 646.774 538.961 668.737 506.128C673.771 498.619 678.955 490.861 684.809 483.851L687.382 480.775C707.332 457.03 718.295 443.952 709.084 410.537C701.104 381.582 668.812 373.547 636.445 367.784C630.852 366.786 625.259 365.844 619.702 364.902L618.285 364.653C610.045 363.267 603.892 359.804 597.404 356.147C589.498 351.713 581.332 347.114 568.467 345.756C531.812 341.905 486.954 353.32 459.36 373.436L458.726 372.937L458.614 372.993Z" fill="url(#paint36_linear_2669_197)"/>
</g>
<g opacity="0.93">
<path d="M549.45 558.855C545.348 558.855 541.097 558.772 536.659 558.578C490.608 556.611 459.583 539.515 444.406 507.735C439.111 496.652 435.718 483.213 434.04 466.672C431.057 437.191 432.996 403.693 469.8 378.562C496.126 360.608 536.137 350.494 569.399 353.348C581.332 354.373 589.386 358.225 597.179 361.938C603.071 364.736 608.59 367.396 615.526 368.698C621.79 369.89 626.936 370.915 631.709 371.94C660.832 378.146 688.91 387.456 697.077 413.224C706.511 442.954 697.934 456.725 680.632 480.443C677.314 484.987 674.256 489.642 670.974 494.573C650.95 524.775 628.428 558.827 549.375 558.827L549.45 558.855ZM470.471 379.088L471.105 379.587C434.86 404.302 432.996 437.413 435.942 466.561C437.62 482.992 440.939 496.291 446.196 507.264C461.075 538.462 491.577 555.253 536.771 557.165C625.072 560.961 647.557 526.88 669.371 493.964C672.652 489.032 675.71 484.377 679.066 479.805C696.145 456.392 704.609 442.816 695.324 413.584C687.382 388.509 659.825 379.421 631.262 373.298C626.489 372.272 621.343 371.247 615.116 370.056C607.919 368.698 602.251 365.983 596.247 363.129C588.64 359.499 580.772 355.731 569.25 354.734C536.51 351.907 497.096 361.882 471.143 379.587L470.509 379.088H470.471Z" fill="url(#paint37_linear_2669_197)"/>
</g>
<g opacity="0.95">
<path d="M548.553 547.412C545.011 547.412 541.356 547.356 537.628 547.218C495.342 545.722 464.728 530.095 449.103 502.027C443.025 491.138 439.52 478.42 438.663 464.206C437.246 441.181 443.622 408.68 481.806 384.685C506.342 369.28 541.058 360.497 570.293 362.353C581.107 363.046 589.086 366.094 596.842 369.058C602.026 371.053 606.873 372.91 612.616 374.156C617.65 375.237 622.274 376.345 626.786 377.537C648.562 383.217 674.702 392.721 683.502 416.272C692.563 440.488 688.014 454.952 675.112 476.37L673.658 478.752C654.305 511.004 632.453 547.412 548.591 547.412H548.553ZM562.35 363.489C535.39 363.489 505 371.884 482.999 385.738C445.375 409.373 439.147 441.43 440.527 464.151C441.385 478.198 444.853 490.75 450.819 501.5C466.145 529.042 496.199 544.364 537.702 545.832C541.394 545.971 545.011 546.026 548.479 546.026C631.223 546.026 652.776 510.062 671.905 478.198L673.36 475.788C686.075 454.675 690.55 440.433 681.638 416.632C673.061 393.69 647.444 384.381 626.114 378.839C621.64 377.675 617.016 376.567 612.019 375.486C606.127 374.212 600.944 372.217 595.948 370.277C588.378 367.368 580.547 364.376 570.106 363.711C567.571 363.545 564.96 363.461 562.35 363.461V363.489Z" fill="url(#paint38_linear_2669_197)"/>
</g>
<g opacity="0.98">
<path d="M546.84 535.969C544.118 535.969 541.359 535.941 538.562 535.858C500.416 534.86 469.503 520.452 453.73 496.347C446.869 485.873 443.326 474.236 443.214 461.768C442.916 435.833 462.269 408.625 493.704 390.809C516.674 377.786 545.61 370.527 571.041 371.358C581.892 371.718 590.469 374.212 599.567 376.872C602.774 377.814 606.093 378.784 609.486 379.643C613.625 380.695 617.727 381.859 621.68 383.161C646.216 391.113 662.362 403.277 669.708 419.348C678.098 437.718 678.023 453.068 669.409 472.324C656.06 502.165 629.958 536.024 546.84 536.024V535.969ZM494.263 391.335L494.822 391.889C463.835 409.456 444.78 436.221 445.041 461.74C445.191 473.987 448.659 485.43 455.371 495.737C470.808 519.399 501.161 533.503 538.562 534.472C626.975 536.772 653.972 502.193 667.582 471.826C676.047 452.874 676.159 437.801 667.881 419.735C660.721 404.081 644.911 392.166 620.896 384.381C617.018 383.106 612.954 381.942 608.852 380.917C605.384 380.03 602.066 379.061 598.859 378.119C589.909 375.514 581.445 373.048 570.929 372.688C545.871 371.857 517.419 379.033 494.785 391.862L494.226 391.307L494.263 391.335Z" fill="url(#paint39_linear_2669_197)"/>
</g>
<path d="M544.304 525.218C542.701 525.218 541.098 525.218 539.457 525.19C504.927 524.719 473.53 511.614 457.57 490.972C449.851 481.025 446.234 470.329 446.831 459.246C447.912 438.3 471.33 413.003 505.114 396.295C543.447 377.343 584.278 374.351 617.093 388.093C633.835 395.103 647.931 407.129 656.768 422.007C665.643 436.914 668.44 453.317 664.599 468.251C660.199 485.541 639.615 525.218 544.267 525.218H544.304ZM572.905 382.358C551.576 382.358 528.979 387.816 507.165 398.595C474.835 414.582 451.567 439.546 450.523 459.33C449.963 469.914 453.431 480.082 460.777 489.586C476.103 509.369 506.27 521.949 539.494 522.392C607.621 523.306 651.846 503.385 660.944 467.697C664.599 453.317 661.914 437.496 653.338 423.088C644.798 408.763 631.262 397.182 615.228 390.476C602.214 385.018 587.821 382.33 572.868 382.33L572.905 382.358Z" fill="url(#paint40_linear_2669_197)"/>
<defs>
<linearGradient id="paint0_linear_2669_197" x1="12.0054" y1="495.904" x2="1205.89" y2="495.904" gradientUnits="userSpaceOnUse">
<stop stop-color="#9232DD"/>
<stop offset="0.99" stop-color="#FAC434"/>
<stop offset="1" stop-color="#FAC434"/>
</linearGradient>
<linearGradient id="paint1_linear_2669_197" x1="23.9741" y1="494.823" x2="1192.16" y2="494.823" gradientUnits="userSpaceOnUse">
<stop stop-color="#9436D8"/>
<stop offset="0.99" stop-color="#F8C039"/>
<stop offset="1" stop-color="#F8C039"/>
</linearGradient>
<linearGradient id="paint2_linear_2669_197" x1="35.9784" y1="493.742" x2="1178.44" y2="493.742" gradientUnits="userSpaceOnUse">
<stop stop-color="#9739D4"/>
<stop offset="0.99" stop-color="#F5BD3D"/>
<stop offset="1" stop-color="#F5BD3D"/>
</linearGradient>
<linearGradient id="paint3_linear_2669_197" x1="48.0639" y1="492.689" x2="1164.76" y2="492.689" gradientUnits="userSpaceOnUse">
<stop stop-color="#9A3DD0"/>
<stop offset="0.99" stop-color="#F2B941"/>
<stop offset="1" stop-color="#F2B941"/>
</linearGradient>
<linearGradient id="paint4_linear_2669_197" x1="60.1062" y1="491.636" x2="1151.03" y2="491.636" gradientUnits="userSpaceOnUse">
<stop stop-color="#9C41CB"/>
<stop offset="0.99" stop-color="#F0B546"/>
<stop offset="1" stop-color="#EFB546"/>
</linearGradient>
<linearGradient id="paint5_linear_2669_197" x1="72.114" y1="490.528" x2="1137.31" y2="490.528" gradientUnits="userSpaceOnUse">
<stop stop-color="#9F45C7"/>
<stop offset="0.99" stop-color="#EDB14A"/>
<stop offset="1" stop-color="#EDB14A"/>
</linearGradient>
<linearGradient id="paint6_linear_2669_197" x1="84.1197" y1="489.448" x2="1123.59" y2="489.448" gradientUnits="userSpaceOnUse">
<stop stop-color="#A248C3"/>
<stop offset="0.99" stop-color="#EAAE4E"/>
<stop offset="1" stop-color="#EAAE4E"/>
</linearGradient>
<linearGradient id="paint7_linear_2669_197" x1="96.1301" y1="488.367" x2="1109.87" y2="488.367" gradientUnits="userSpaceOnUse">
<stop stop-color="#A44CBE"/>
<stop offset="0.99" stop-color="#E8AA53"/>
<stop offset="1" stop-color="#E7AA53"/>
</linearGradient>
<linearGradient id="paint8_linear_2669_197" x1="108.133" y1="487.314" x2="1096.18" y2="487.314" gradientUnits="userSpaceOnUse">
<stop stop-color="#A750BA"/>
<stop offset="0.99" stop-color="#E5A657"/>
<stop offset="1" stop-color="#E5A657"/>
</linearGradient>
<linearGradient id="paint9_linear_2669_197" x1="120.105" y1="486.233" x2="1082.46" y2="486.233" gradientUnits="userSpaceOnUse">
<stop stop-color="#AA54B6"/>
<stop offset="0.99" stop-color="#E2A25B"/>
<stop offset="1" stop-color="#E2A25B"/>
</linearGradient>
<linearGradient id="paint10_linear_2669_197" x1="132.112" y1="485.042" x2="1068.74" y2="485.042" gradientUnits="userSpaceOnUse">
<stop stop-color="#AD57B2"/>
<stop offset="0.99" stop-color="#DF9F5F"/>
<stop offset="1" stop-color="#DF9E60"/>
</linearGradient>
<linearGradient id="paint11_linear_2669_197" x1="144.084" y1="483.989" x2="1055.05" y2="483.989" gradientUnits="userSpaceOnUse">
<stop stop-color="#AF5BAD"/>
<stop offset="0.99" stop-color="#DD9B64"/>
<stop offset="1" stop-color="#DD9B64"/>
</linearGradient>
<linearGradient id="paint12_linear_2669_197" x1="156.051" y1="482.936" x2="1041.4" y2="482.936" gradientUnits="userSpaceOnUse">
<stop stop-color="#B25FA9"/>
<stop offset="0.99" stop-color="#DA9768"/>
<stop offset="1" stop-color="#DA9768"/>
</linearGradient>
<linearGradient id="paint13_linear_2669_197" x1="168.021" y1="481.911" x2="1027.72" y2="481.911" gradientUnits="userSpaceOnUse">
<stop stop-color="#B563A5"/>
<stop offset="0.99" stop-color="#D7936C"/>
<stop offset="1" stop-color="#D7936D"/>
</linearGradient>
<linearGradient id="paint14_linear_2669_197" x1="179.954" y1="480.858" x2="1014" y2="480.858" gradientUnits="userSpaceOnUse">
<stop stop-color="#B766A0"/>
<stop offset="0.99" stop-color="#D59071"/>
<stop offset="1" stop-color="#D48F71"/>
</linearGradient>
<linearGradient id="paint15_linear_2669_197" x1="191.886" y1="479.778" x2="1000.31" y2="479.778" gradientUnits="userSpaceOnUse">
<stop stop-color="#BA6A9C"/>
<stop offset="0.99" stop-color="#D28C75"/>
<stop offset="1" stop-color="#D28C75"/>
</linearGradient>
<linearGradient id="paint16_linear_2669_197" x1="203.818" y1="478.725" x2="986.626" y2="478.725" gradientUnits="userSpaceOnUse">
<stop stop-color="#BD6E98"/>
<stop offset="0.99" stop-color="#CF8879"/>
<stop offset="1" stop-color="#CF887A"/>
</linearGradient>
<linearGradient id="paint17_linear_2669_197" x1="215.751" y1="477.644" x2="972.904" y2="477.644" gradientUnits="userSpaceOnUse">
<stop stop-color="#BF7293"/>
<stop offset="0.99" stop-color="#CD847E"/>
<stop offset="1" stop-color="#CC847E"/>
</linearGradient>
<linearGradient id="paint18_linear_2669_197" x1="227.647" y1="476.508" x2="959.257" y2="476.508" gradientUnits="userSpaceOnUse">
<stop stop-color="#C2758F"/>
<stop offset="0.99" stop-color="#CA8182"/>
<stop offset="1" stop-color="#CA8082"/>
</linearGradient>
<linearGradient id="paint19_linear_2669_197" x1="239.542" y1="475.427" x2="945.572" y2="475.427" gradientUnits="userSpaceOnUse">
<stop stop-color="#C5798B"/>
<stop offset="0.99" stop-color="#C77D86"/>
<stop offset="1" stop-color="#C77C87"/>
</linearGradient>
<linearGradient id="paint20_linear_2669_197" x1="251.401" y1="474.347" x2="931.888" y2="474.347" gradientUnits="userSpaceOnUse">
<stop stop-color="#C77D86"/>
<stop offset="0.99" stop-color="#C5798B"/>
<stop offset="1" stop-color="#C4798B"/>
</linearGradient>
<linearGradient id="paint21_linear_2669_197" x1="263.221" y1="473.294" x2="918.128" y2="473.294" gradientUnits="userSpaceOnUse">
<stop stop-color="#CA8182"/>
<stop offset="0.99" stop-color="#C2758F"/>
<stop offset="1" stop-color="#C17590"/>
</linearGradient>
<linearGradient id="paint22_linear_2669_197" x1="275.041" y1="472.241" x2="904.442" y2="472.241" gradientUnits="userSpaceOnUse">
<stop stop-color="#CD847E"/>
<stop offset="0.99" stop-color="#BF7293"/>
<stop offset="1" stop-color="#BF7194"/>
</linearGradient>
<linearGradient id="paint23_linear_2669_197" x1="286.788" y1="471.188" x2="890.758" y2="471.188" gradientUnits="userSpaceOnUse">
<stop stop-color="#CF8879"/>
<stop offset="0.99" stop-color="#BD6E98"/>
<stop offset="1" stop-color="#BC6D98"/>
</linearGradient>
<linearGradient id="paint24_linear_2669_197" x1="298.532" y1="470.135" x2="877.108" y2="470.135" gradientUnits="userSpaceOnUse">
<stop stop-color="#D28C75"/>
<stop offset="0.99" stop-color="#BA6A9C"/>
<stop offset="1" stop-color="#B9699D"/>
</linearGradient>
<linearGradient id="paint25_linear_2669_197" x1="310.242" y1="468.999" x2="863.425" y2="468.999" gradientUnits="userSpaceOnUse">
<stop stop-color="#D59071"/>
<stop offset="0.99" stop-color="#B766A0"/>
<stop offset="1" stop-color="#B766A1"/>
</linearGradient>
<linearGradient id="paint26_linear_2669_197" x1="321.839" y1="467.919" x2="849.777" y2="467.919" gradientUnits="userSpaceOnUse">
<stop stop-color="#D7936C"/>
<stop offset="0.99" stop-color="#B563A5"/>
<stop offset="1" stop-color="#B462A5"/>
</linearGradient>
<linearGradient id="paint27_linear_2669_197" x1="333.659" y1="466.783" x2="836.128" y2="466.783" gradientUnits="userSpaceOnUse">
<stop stop-color="#DA9768"/>
<stop offset="0.99" stop-color="#B25FA9"/>
<stop offset="1" stop-color="#B15EAA"/>
</linearGradient>
<linearGradient id="paint28_linear_2669_197" x1="345.107" y1="465.702" x2="822.481" y2="465.702" gradientUnits="userSpaceOnUse">
<stop stop-color="#DD9B64"/>
<stop offset="0.99" stop-color="#AF5BAD"/>
<stop offset="1" stop-color="#AE5AAE"/>
</linearGradient>
<linearGradient id="paint29_linear_2669_197" x1="356.48" y1="464.649" x2="808.833" y2="464.649" gradientUnits="userSpaceOnUse">
<stop stop-color="#DF9F5F"/>
<stop offset="0.99" stop-color="#AD57B2"/>
<stop offset="1" stop-color="#AC57B2"/>
</linearGradient>
<linearGradient id="paint30_linear_2669_197" x1="367.667" y1="463.541" x2="795.223" y2="463.541" gradientUnits="userSpaceOnUse">
<stop stop-color="#E2A25B"/>
<stop offset="0.99" stop-color="#AA54B6"/>
<stop offset="1" stop-color="#A953B7"/>
</linearGradient>
<linearGradient id="paint31_linear_2669_197" x1="378.668" y1="462.46" x2="781.613" y2="462.46" gradientUnits="userSpaceOnUse">
<stop stop-color="#E5A657"/>
<stop offset="0.99" stop-color="#A750BA"/>
<stop offset="1" stop-color="#A64FBB"/>
</linearGradient>
<linearGradient id="paint32_linear_2669_197" x1="389.407" y1="461.408" x2="768.039" y2="461.408" gradientUnits="userSpaceOnUse">
<stop stop-color="#E8AA53"/>
<stop offset="0.99" stop-color="#A44CBE"/>
<stop offset="1" stop-color="#A44BBF"/>
</linearGradient>
<linearGradient id="paint33_linear_2669_197" x1="399.734" y1="460.299" x2="754.464" y2="460.299" gradientUnits="userSpaceOnUse">
<stop stop-color="#EAAE4E"/>
<stop offset="0.99" stop-color="#A248C3"/>
<stop offset="1" stop-color="#A147C4"/>
</linearGradient>
<linearGradient id="paint34_linear_2669_197" x1="409.581" y1="459.219" x2="740.968" y2="459.219" gradientUnits="userSpaceOnUse">
<stop stop-color="#EDB14A"/>
<stop offset="0.99" stop-color="#9F45C7"/>
<stop offset="1" stop-color="#9E44C8"/>
</linearGradient>
<linearGradient id="paint35_linear_2669_197" x1="418.639" y1="458.111" x2="727.616" y2="458.111" gradientUnits="userSpaceOnUse">
<stop stop-color="#F0B546"/>
<stop offset="0.99" stop-color="#9C41CB"/>
<stop offset="1" stop-color="#9C40CC"/>
</linearGradient>
<linearGradient id="paint36_linear_2669_197" x1="426.583" y1="457.002" x2="714.23" y2="457.002" gradientUnits="userSpaceOnUse">
<stop stop-color="#F2B941"/>
<stop offset="0.99" stop-color="#9A3DD0"/>
<stop offset="1" stop-color="#993CD1"/>
</linearGradient>
<linearGradient id="paint37_linear_2669_197" x1="433.108" y1="455.894" x2="701.029" y2="455.894" gradientUnits="userSpaceOnUse">
<stop stop-color="#F5BD3D"/>
<stop offset="0.99" stop-color="#9739D4"/>
<stop offset="1" stop-color="#9638D5"/>
</linearGradient>
<linearGradient id="paint38_linear_2669_197" x1="438.476" y1="454.758" x2="688.163" y2="454.758" gradientUnits="userSpaceOnUse">
<stop stop-color="#F8C039"/>
<stop offset="0.99" stop-color="#9436D8"/>
<stop offset="1" stop-color="#9335D9"/>
</linearGradient>
<linearGradient id="paint39_linear_2669_197" x1="443.177" y1="453.622" x2="675.898" y2="453.622" gradientUnits="userSpaceOnUse">
<stop stop-color="#FAC434"/>
<stop offset="0.99" stop-color="#9232DD"/>
<stop offset="1" stop-color="#9131DE"/>
</linearGradient>
<linearGradient id="paint40_linear_2669_197" x1="446.756" y1="452.403" x2="666.277" y2="452.403" gradientUnits="userSpaceOnUse">
<stop stop-color="#FDC830"/>
<stop offset="1" stop-color="#8E2DE2"/>
</linearGradient>
</defs>
</svg>
