<svg width="221" height="57" viewBox="0 0 221 57" fill="none" xmlns="http://www.w3.org/2000/svg">
<g id="A2_new 2" clip-path="url(#clip0_789_1879)">
<g id="Group">
<path id="Vector" opacity="0.968" fill-rule="evenodd" clip-rule="evenodd" d="M24.8754 -0.163818C25.7445 -0.163818 26.6136 -0.163818 27.4828 -0.163818C28.7772 0.356588 29.8094 1.23015 30.5791 2.45687C37.7546 16.8809 44.925 31.2946 52.0902 45.6982C52.4999 47.4426 52.1195 48.9715 50.9494 50.2845C48.2038 52.612 45.379 54.7956 42.4754 56.8362C41.2802 56.8362 40.0853 56.8362 38.8902 56.8362C35.758 54.8038 35.1606 52.1831 37.0976 48.9741C38.5936 47.8672 40.0602 46.7206 41.4976 45.5345C40.3128 43.0959 39.0091 40.7481 37.5865 38.4914C34.498 40.7763 31.4561 43.1241 28.4605 45.5345C26.7702 46.2637 25.1406 46.1546 23.5716 45.2069C20.6383 42.9685 17.705 40.7298 14.7717 38.4914C13.5093 40.8654 12.2056 43.2132 10.8605 45.5345C12.1642 46.5172 13.4679 47.5 14.7717 48.4827C16.7359 50.7002 16.8988 53.048 15.2605 55.5258C14.6699 56.0097 14.0724 56.4464 13.4679 56.8362C12.2729 56.8362 11.0778 56.8362 9.88276 56.8362C6.53403 54.453 3.38343 51.8323 0.430908 48.9741C0.430908 47.6638 0.430908 46.3534 0.430908 45.0431C7.65082 30.7482 14.8755 16.4436 22.105 2.12929C22.8925 1.17163 23.816 0.407263 24.8754 -0.163818ZM26.1791 15.2327C28.4712 19.9491 30.8613 24.6445 33.3494 29.3189C31.062 31.3985 28.6719 33.364 26.1791 35.2155C23.742 33.3669 21.3519 31.4559 19.0087 29.4827C21.4448 24.7495 23.8349 19.9995 26.1791 15.2327Z" fill="white"/>
</g>
<g id="Group_2">
<path id="Vector_2" opacity="0.941" fill-rule="evenodd" clip-rule="evenodd" d="M88.7568 12.2844C90.449 12.3421 91.6983 13.1065 92.505 14.5775C92.9075 17.1731 93.1249 19.7938 93.1568 22.4396C100.611 19.5502 106.586 21.4066 111.083 28.0086C112.681 31.5979 113.278 35.3652 112.875 39.3103C112.821 41.4396 112.767 43.5689 112.712 45.6982C111.851 48.1004 110.167 49.0285 107.661 48.4827C106.501 47.8629 105.686 46.9349 105.216 45.6982C105.198 41.1988 104.981 36.7217 104.564 32.2672C102.363 28.6696 99.3748 27.8507 95.6013 29.8103C94.4266 30.6973 93.6118 31.8438 93.1568 33.2499C93.1392 37.7493 92.9221 42.2265 92.505 46.681C90.0771 49.3855 87.7957 49.2761 85.6605 46.3534C85.1247 36.1091 85.0162 25.8447 85.3346 15.5603C85.8101 13.7164 86.9509 12.6245 88.7568 12.2844Z" fill="white"/>
</g>
<g id="Group_3">
<path id="Vector_3" opacity="0.956" fill-rule="evenodd" clip-rule="evenodd" d="M169.912 12.2846C171.944 11.9155 173.52 12.5707 174.638 14.2501C175.1 16.2859 175.263 18.3606 175.127 20.4742C178.714 20.4197 182.299 20.4743 185.883 20.638C189.359 23.1495 189.359 25.661 185.883 28.1725C182.299 28.3362 178.714 28.3908 175.127 28.3363C175.073 30.7411 175.127 33.1433 175.29 35.5432C176.532 39.7988 179.303 41.3821 183.601 40.2932C184.687 39.638 185.774 38.9828 186.86 38.3277C190.717 37.8363 192.401 39.5289 191.912 43.4052C189.335 46.7479 185.913 48.4949 181.646 48.6466C174.145 48.2575 169.419 44.4358 167.468 37.1811C167.25 29.6466 167.25 22.1121 167.468 14.5777C168.035 13.5144 168.85 12.7501 169.912 12.2846Z" fill="white"/>
</g>
<g id="Group_4">
<path id="Vector_4" opacity="0.91" fill-rule="evenodd" clip-rule="evenodd" d="M117.764 12.6121C121.273 12.3721 122.849 14.01 122.49 17.5259C121.123 20.2203 119.114 20.8208 116.46 19.3276C115.235 18.1014 114.855 16.6272 115.32 14.9052C115.887 13.842 116.702 13.0776 117.764 12.6121Z" fill="white"/>
</g>
<g id="Group_5">
<path id="Vector_5" opacity="0.912" fill-rule="evenodd" clip-rule="evenodd" d="M159.157 12.6121C162.666 12.3721 164.241 14.01 163.883 17.5259C162.516 20.2203 160.506 20.8208 157.853 19.3276C156.311 17.6782 156.148 15.8765 157.364 13.9225C157.955 13.4386 158.552 13.0018 159.157 12.6121Z" fill="white"/>
</g>
<g id="Group_6">
<path id="Vector_6" opacity="0.946" fill-rule="evenodd" clip-rule="evenodd" d="M65.942 20.8017C69.9632 20.7472 73.9829 20.8017 78.0012 20.9655C80.3215 21.973 81.1363 23.6655 80.4457 26.0431C79.9568 26.9712 79.2505 27.681 78.3272 28.1724C74.6334 28.2816 70.9394 28.3908 67.2457 28.5C66.4142 28.6383 65.9794 29.1297 65.942 29.9741C65.9713 30.6047 66.2972 30.9869 66.9197 31.1207C70.2028 31.1455 73.4621 31.3639 76.6975 31.7758C82.1731 34.9672 83.4227 39.3896 80.4457 45.0431C79.2932 46.5238 77.8265 47.5609 76.0457 48.1551C71.3895 48.6721 66.7177 48.7812 62.0309 48.4827C59.3081 47.4289 58.4933 45.5181 59.5864 42.75C60.2181 41.8963 61.0329 41.2958 62.0309 40.9482C66.0551 40.8935 70.0747 40.7297 74.0901 40.4569C74.5637 39.7545 74.4552 39.1541 73.7642 38.6551C70.5942 38.6198 67.4435 38.4013 64.3123 38C58.4864 34.8185 57.1283 30.287 60.2383 24.4051C61.7848 22.5666 63.6859 21.3654 65.942 20.8017Z" fill="white"/>
</g>
<g id="Group_7">
<path id="Vector_7" opacity="0.95" fill-rule="evenodd" clip-rule="evenodd" d="M137.646 20.8018C145.681 20.5299 150.841 24.2425 153.127 31.9397C153.344 36.5259 153.344 41.1121 153.127 45.6983C152.12 47.8696 150.436 48.6885 148.075 48.1552C147.273 47.6776 146.567 47.0771 145.957 46.3535C145.637 41.4351 145.311 36.5213 144.979 31.6121C142.393 28.2749 139.297 27.6744 135.69 29.8104C134.841 30.4454 134.243 31.2643 133.897 32.2673C133.583 37.0848 133.257 41.8895 132.92 46.6811C130.541 48.9398 128.259 48.8304 126.075 46.3535C125.858 41.5488 125.858 36.7444 126.075 31.9397C127.672 25.8025 131.529 22.0898 137.646 20.8018Z" fill="white"/>
</g>
<g id="Group_8">
<path id="Vector_8" opacity="0.958" fill-rule="evenodd" clip-rule="evenodd" d="M220.431 23.0948C220.431 33.6867 220.431 44.2789 220.431 54.8707C219.888 55.635 219.236 56.2901 218.475 56.8362C217.389 56.8362 216.302 56.8362 215.216 56.8362C214.356 56.2436 213.65 55.4794 213.098 54.5431C213.042 52.1334 212.879 49.7312 212.609 47.3362C205.499 49.9222 199.686 48.1752 195.172 42.0948C194.263 40.4458 193.611 38.6984 193.216 36.8535C192.999 32.3764 192.999 27.8994 193.216 23.4224C195.327 20.2301 197.717 20.0117 200.386 22.7672C200.712 27.681 201.038 32.5948 201.364 37.5086C203.554 40.717 206.434 41.536 210.001 39.9655C211.161 39.3457 211.976 38.4177 212.446 37.181C212.863 32.6172 213.081 28.031 213.098 23.4224C215.405 20.0782 217.849 19.969 220.431 23.0948Z" fill="white"/>
</g>
<g id="Group_9">
<path id="Vector_9" opacity="0.95" fill-rule="evenodd" clip-rule="evenodd" d="M117.764 21.1292C120.084 20.6837 121.659 21.5573 122.49 23.7499C122.708 31.1752 122.708 38.6004 122.49 46.0257C121.124 48.7201 119.114 49.3206 116.461 47.8275C115.958 47.3102 115.578 46.7094 115.32 46.0257C115.102 38.6004 115.102 31.1752 115.32 23.7499C115.761 22.4886 116.576 21.6151 117.764 21.1292Z" fill="white"/>
</g>
<g id="Group_10">
<path id="Vector_10" opacity="0.95" fill-rule="evenodd" clip-rule="evenodd" d="M159.157 21.1292C161.476 20.6837 163.052 21.5573 163.883 23.7499C164.1 31.1752 164.1 38.6004 163.883 46.0257C162.516 48.7201 160.506 49.3206 157.853 47.8275C157.351 47.3102 156.97 46.7094 156.712 46.0257C156.495 38.6004 156.495 31.1752 156.712 23.7499C157.153 22.4886 157.968 21.6151 159.157 21.1292Z" fill="white"/>
</g>
</g>
<defs>
<clipPath id="clip0_789_1879">
<rect width="220" height="57" fill="white" transform="translate(0.59375)"/>
</clipPath>
</defs>
</svg>
