<svg width="105" height="106" viewBox="0 0 105 106" fill="none" xmlns="http://www.w3.org/2000/svg">
<path d="M26.6628 49.626C26.3909 47.8735 26.2498 46.0781 26.2498 44.25C26.2498 24.92 42.023 9.25 61.4801 9.25C80.9372 9.25 96.7104 24.92 96.7104 44.25C96.7104 48.6166 95.9055 52.7964 94.4351 56.651C94.1297 57.4515 93.977 57.8518 93.9076 58.1643C93.8389 58.4739 93.8124 58.6918 93.805 59.0088C93.7974 59.3289 93.8408 59.6814 93.9276 60.3864L95.6889 74.6935C95.8796 76.2423 95.9749 77.0167 95.7173 77.5797C95.4916 78.073 95.0906 78.4648 94.5923 78.6791C94.0235 78.9237 93.2515 78.8105 91.7075 78.5842L77.772 76.5415C77.0444 76.4348 76.6805 76.3815 76.3492 76.3834C76.0214 76.3852 75.7946 76.4095 75.4738 76.4769C75.1495 76.5451 74.7353 76.7002 73.9068 77.0105C70.0423 78.458 65.8543 79.25 61.4801 79.25C59.6505 79.25 57.8535 79.1114 56.0991 78.8443M33.3882 96.75C46.3596 96.75 56.875 85.9769 56.875 72.6875C56.875 59.3981 46.3596 48.625 33.3882 48.625C20.4167 48.625 9.90132 59.3981 9.90132 72.6875C9.90132 75.3588 10.3262 77.9285 11.1105 80.3294C11.4421 81.3443 11.6078 81.8518 11.6622 82.1985C11.719 82.5604 11.729 82.7637 11.7078 83.1294C11.6876 83.4797 11.5999 83.8757 11.4246 84.6676L8.75 96.75L21.8523 94.9606C22.5674 94.8629 22.925 94.8141 23.2372 94.8162C23.566 94.8185 23.7405 94.8363 24.063 94.9006C24.3692 94.9616 24.8244 95.1223 25.7349 95.4436C28.1338 96.2903 30.7086 96.75 33.3882 96.75Z" stroke="#8A2BE2" stroke-width="3" stroke-linecap="round" stroke-linejoin="round"/>
</svg>
