<svg width="1440" height="394" viewBox="0 0 1440 394" fill="none" xmlns="http://www.w3.org/2000/svg">
<rect width="1953.92" height="184" transform="translate(-121 210.848) rotate(-6.19486)" fill="#8A2BE2"/>
<mask id="path-1-outside-1_744_6208" maskUnits="userSpaceOnUse" x="11.7161" y="193.625" width="380.488" height="147.404" fill="black">
<rect fill="white" x="11.7161" y="193.625" width="380.488" height="147.404"/>
<path d="M27.6699 334.527L17.3969 239.883L50.5223 236.287L75.8345 316.987L78.2682 316.723L85.6758 232.472L118.801 228.876L129.074 323.52L111.768 325.399L102.918 243.869L100.485 244.134L93.1096 327.424L63.6347 330.623L38.5605 250.855L36.1268 251.119L44.9763 332.648L27.6699 334.527ZM169.055 320.275C163.827 320.842 159.103 320.169 154.883 318.256C150.743 316.243 147.361 313.236 144.738 309.234C142.115 305.233 140.505 300.483 139.908 294.984L135.564 254.963L152.6 253.114L156.797 291.783C157.345 296.831 158.973 300.485 161.68 302.744C164.478 304.994 168.176 305.87 172.773 305.371C178.001 304.803 181.871 302.65 184.384 298.912C186.886 295.084 187.8 290.06 187.125 283.84L183.427 249.768L200.463 247.919L207.742 314.981L190.976 316.801L190.022 308.013L187.589 308.277C186.752 310.648 184.963 313.076 182.224 315.562C179.484 318.048 175.094 319.619 169.055 320.275ZM250.701 312.233C241.958 313.182 234.586 312.067 228.587 308.888C222.587 305.709 218.62 300.668 216.685 293.764L231.929 288.006C232.902 291.092 234.208 293.458 235.846 295.104C237.574 296.741 239.564 297.847 241.815 298.424C244.147 298.9 246.619 298.997 249.233 298.713C253.199 298.282 256.056 297.288 257.802 295.731C259.538 294.083 260.294 292.223 260.069 290.15C259.844 288.076 258.771 286.597 256.851 285.711C254.921 284.735 251.934 284.101 247.889 283.811L244.03 283.546C239.245 283.153 234.832 282.401 230.79 281.289C226.738 280.088 223.388 278.217 220.741 275.677C218.094 273.137 216.531 269.659 216.052 265.242C215.328 258.572 217.209 253.215 221.695 249.171C226.171 245.037 232.375 242.54 240.307 241.679C247.788 240.867 254.189 241.859 259.508 244.656C264.828 247.453 268.547 251.473 270.667 256.715L255.376 263.299C254.283 259.952 252.531 257.68 250.121 256.482C247.802 255.275 245.019 254.847 241.774 255.2C238.529 255.552 236.114 256.407 234.529 257.765C232.934 259.032 232.244 260.657 232.459 262.64C232.694 264.804 233.771 266.328 235.691 267.214C237.602 268.01 240.119 268.512 243.242 268.72L247.101 268.985C252.247 269.339 256.931 270.062 261.153 271.154C265.456 272.146 268.931 273.912 271.578 276.452C274.305 278.892 275.923 282.455 276.432 287.142C277.195 294.173 275.218 299.905 270.501 304.339C265.864 308.672 259.264 311.304 250.701 312.233ZM289.491 306.108L282.212 239.046L299.248 237.197L306.527 304.259L289.491 306.108ZM289.878 230.279C286.814 230.612 284.092 229.904 281.714 228.156C279.425 226.398 278.105 223.896 277.753 220.652C277.4 217.407 278.153 214.68 280.011 212.472C281.959 210.254 284.466 208.979 287.53 208.646C290.685 208.304 293.407 209.012 295.695 210.77C297.983 212.528 299.304 215.029 299.656 218.274C300.008 221.519 299.255 224.245 297.397 226.454C295.54 228.662 293.033 229.937 289.878 230.279ZM353.057 301.123C346.567 301.828 340.516 301.117 334.905 298.99C329.383 296.853 324.811 293.382 321.189 288.577C317.567 283.772 315.359 277.719 314.567 270.417L314.361 268.525C313.569 261.223 314.426 254.838 316.933 249.367C319.44 243.897 323.161 239.526 328.095 236.254C333.12 232.973 338.877 230.98 345.367 230.275C351.767 229.581 357.387 230.111 362.229 231.865C367.071 233.62 371.104 236.328 374.328 239.991C377.634 243.554 380.006 247.765 381.445 252.625L365.332 257.931C364.678 255.266 363.602 252.92 362.106 250.894C360.609 248.867 358.62 247.35 356.14 246.343C353.749 245.325 350.841 245.003 347.416 245.374C343.991 245.746 340.964 246.85 338.337 248.686C335.789 250.421 333.865 252.864 332.566 256.015C331.347 259.066 330.967 262.709 331.427 266.946L331.573 268.298C332.033 272.534 333.191 276.057 335.046 278.865C336.982 281.573 339.385 283.547 342.255 284.786C345.206 285.924 348.394 286.308 351.819 285.936C356.957 285.379 360.691 283.651 363.021 280.753C365.432 277.755 366.763 274.054 367.014 269.649L383.935 271.78C383.282 276.684 381.728 281.276 379.274 285.555C376.901 289.734 373.538 293.2 369.185 295.953C364.833 298.705 359.457 300.429 353.057 301.123Z"/>
</mask>
<path d="M27.6699 334.527L23.6933 334.959L24.1249 338.935L28.1016 338.504L27.6699 334.527ZM17.3969 239.883L16.9652 235.906L12.9886 236.338L13.4202 240.315L17.3969 239.883ZM50.5223 236.287L54.339 235.09L53.356 231.956L50.0907 232.311L50.5223 236.287ZM75.8345 316.987L72.0178 318.184L73.0008 321.318L76.2661 320.964L75.8345 316.987ZM78.2682 316.723L78.6998 320.7L81.9651 320.345L82.2528 317.073L78.2682 316.723ZM85.6758 232.472L85.2442 228.495L81.9789 228.849L81.6912 232.121L85.6758 232.472ZM118.801 228.876L122.778 228.444L122.346 224.468L118.37 224.899L118.801 228.876ZM129.074 323.52L129.506 327.497L133.483 327.065L133.051 323.088L129.074 323.52ZM111.768 325.399L107.791 325.83L108.223 329.807L112.2 329.375L111.768 325.399ZM102.918 243.869L106.895 243.438L106.463 239.461L102.487 239.893L102.918 243.869ZM100.485 244.134L100.053 240.157L96.7899 240.511L96.5004 243.781L100.485 244.134ZM93.1096 327.424L93.5412 331.401L96.8045 331.046L97.094 327.777L93.1096 327.424ZM63.6347 330.623L59.8188 331.823L60.8031 334.954L64.0663 334.6L63.6347 330.623ZM38.5605 250.855L42.3764 249.656L41.3921 246.524L38.1288 246.879L38.5605 250.855ZM36.1268 251.119L35.6951 247.143L31.7185 247.574L32.1501 251.551L36.1268 251.119ZM44.9763 332.648L45.4079 336.625L49.3846 336.193L48.9529 332.217L44.9763 332.648ZM31.6466 334.095L21.3735 239.451L13.4202 240.315L23.6933 334.959L31.6466 334.095ZM17.8285 243.86L50.954 240.264L50.0907 232.311L16.9652 235.906L17.8285 243.86ZM46.7057 237.484L72.0178 318.184L79.6511 315.79L54.339 235.09L46.7057 237.484ZM76.2661 320.964L78.6998 320.7L77.8365 312.746L75.4028 313.01L76.2661 320.964ZM82.2528 317.073L89.6605 232.822L81.6912 232.121L74.2835 316.373L82.2528 317.073ZM86.1075 236.448L119.233 232.853L118.37 224.899L85.2442 228.495L86.1075 236.448ZM114.825 229.308L125.098 323.952L133.051 323.088L122.778 228.444L114.825 229.308ZM128.643 319.543L111.336 321.422L112.2 329.375L129.506 327.497L128.643 319.543ZM115.745 324.967L106.895 243.438L98.9418 244.301L107.791 325.83L115.745 324.967ZM102.487 239.893L100.053 240.157L100.916 248.11L103.35 247.846L102.487 239.893ZM96.5004 243.781L89.1252 327.071L97.094 327.777L104.469 244.486L96.5004 243.781ZM92.6779 323.447L63.203 326.647L64.0663 334.6L93.5412 331.401L92.6779 323.447ZM67.4506 329.424L42.3764 249.656L34.7446 252.055L59.8188 331.823L67.4506 329.424ZM38.1288 246.879L35.6951 247.143L36.5584 255.096L38.9921 254.832L38.1288 246.879ZM32.1501 251.551L40.9996 333.08L48.9529 332.217L40.1034 250.688L32.1501 251.551ZM44.5446 328.672L27.2383 330.55L28.1016 338.504L45.4079 336.625L44.5446 328.672ZM154.883 318.256L153.134 321.854L153.182 321.877L153.231 321.9L154.883 318.256ZM135.564 254.963L135.132 250.987L131.156 251.418L131.587 255.395L135.564 254.963ZM152.6 253.114L156.577 252.683L156.145 248.706L152.168 249.138L152.6 253.114ZM161.68 302.744L159.118 305.815L159.145 305.839L159.174 305.861L161.68 302.744ZM184.384 298.912L187.703 301.143L187.718 301.122L187.732 301.101L184.384 298.912ZM183.427 249.768L182.995 245.792L179.019 246.223L179.45 250.2L183.427 249.768ZM200.463 247.919L204.439 247.487L204.008 243.511L200.031 243.942L200.463 247.919ZM207.742 314.981L208.174 318.958L212.15 318.526L211.719 314.55L207.742 314.981ZM190.976 316.801L187 317.233L187.431 321.209L191.408 320.778L190.976 316.801ZM190.022 308.013L193.999 307.581L193.567 303.604L189.591 304.036L190.022 308.013ZM187.589 308.277L187.157 304.3L184.655 304.572L183.817 306.945L187.589 308.277ZM182.224 315.562L184.912 318.524L182.224 315.562ZM168.624 316.298C164.009 316.799 160.018 316.193 156.534 314.613L153.231 321.9C158.188 324.146 163.645 324.886 169.487 324.251L168.624 316.298ZM156.632 314.659C153.167 312.974 150.327 310.464 148.083 307.042L141.393 311.427C144.395 316.008 148.318 319.512 153.134 321.854L156.632 314.659ZM148.083 307.042C145.857 303.646 144.424 299.521 143.885 294.553L135.931 295.416C136.586 301.445 138.372 306.82 141.393 311.427L148.083 307.042ZM143.885 294.553L139.541 254.532L131.587 255.395L135.931 295.416L143.885 294.553ZM135.996 258.94L153.032 257.091L152.168 249.138L135.132 250.987L135.996 258.94ZM148.623 253.546L152.821 292.215L160.774 291.352L156.577 252.683L148.623 253.546ZM152.821 292.215C153.431 297.84 155.323 302.649 159.118 305.815L164.243 299.673C162.622 298.32 161.259 295.822 160.774 291.352L152.821 292.215ZM159.174 305.861C163.018 308.953 167.87 309.926 173.204 309.347L172.341 301.394C168.481 301.813 165.939 301.036 164.187 299.627L159.174 305.861ZM173.204 309.347C179.387 308.676 184.419 306.03 187.703 301.143L181.064 296.681C179.323 299.271 176.614 300.93 172.341 301.394L173.204 309.347ZM187.732 301.101C190.899 296.255 191.84 290.211 191.102 283.408L183.148 284.272C183.76 289.908 182.873 293.912 181.035 296.723L187.732 301.101ZM191.102 283.408L187.403 249.337L179.45 250.2L183.148 284.272L191.102 283.408ZM183.858 253.745L200.894 251.896L200.031 243.942L182.995 245.792L183.858 253.745ZM196.486 248.351L203.765 315.413L211.719 314.55L204.439 247.487L196.486 248.351ZM207.31 311.005L190.545 312.824L191.408 320.778L208.174 318.958L207.31 311.005ZM194.953 316.369L193.999 307.581L186.046 308.444L187 317.233L194.953 316.369ZM189.591 304.036L187.157 304.3L188.02 312.253L190.454 311.989L189.591 304.036ZM183.817 306.945C183.28 308.465 181.999 310.365 179.536 312.6L184.912 318.524C187.928 315.788 190.223 312.83 191.361 309.608L183.817 306.945ZM179.536 312.6C177.709 314.257 174.315 315.68 168.624 316.298L169.487 324.251C175.874 323.558 181.258 321.84 184.912 318.524L179.536 312.6ZM228.587 308.888L230.46 305.354L228.587 308.888ZM216.685 293.764L215.272 290.022L211.845 291.317L212.834 294.844L216.685 293.764ZM231.929 288.006L235.744 286.803L234.472 282.769L230.515 284.264L231.929 288.006ZM235.846 295.104L233.01 297.926L233.052 297.968L233.095 298.009L235.846 295.104ZM241.815 298.424L240.823 302.299L240.918 302.323L241.014 302.343L241.815 298.424ZM257.802 295.731L260.464 298.716L260.51 298.675L260.555 298.632L257.802 295.731ZM256.851 285.711L255.046 289.28L255.11 289.313L255.175 289.343L256.851 285.711ZM247.889 283.811L248.176 279.821L248.164 279.82L247.889 283.811ZM244.03 283.546L243.703 287.532L243.73 287.535L243.756 287.536L244.03 283.546ZM230.79 281.289L229.652 285.124L229.69 285.136L229.729 285.146L230.79 281.289ZM220.741 275.677L217.972 278.563L220.741 275.677ZM221.695 249.171L224.373 252.142L224.391 252.126L224.408 252.11L221.695 249.171ZM259.508 244.656L257.647 248.197L257.647 248.197L259.508 244.656ZM270.667 256.715L272.249 260.389L275.841 258.842L274.375 255.215L270.667 256.715ZM255.376 263.299L251.573 264.541L252.933 268.706L256.958 266.973L255.376 263.299ZM250.121 256.482L248.275 260.031L248.308 260.048L248.341 260.065L250.121 256.482ZM234.529 257.765L237.017 260.896L237.075 260.851L237.131 260.803L234.529 257.765ZM235.691 267.214L234.015 270.846L234.084 270.878L234.153 270.907L235.691 267.214ZM243.242 268.72L243.516 264.73L243.508 264.729L243.242 268.72ZM261.153 271.154L260.152 275.026L260.203 275.04L260.254 275.051L261.153 271.154ZM271.578 276.452L268.808 279.338L268.859 279.386L268.911 279.433L271.578 276.452ZM270.501 304.339L273.232 307.261L273.24 307.253L270.501 304.339ZM250.269 308.257C242.088 309.145 235.571 308.062 230.46 305.354L226.714 312.423C233.602 316.073 241.827 317.22 251.133 316.21L250.269 308.257ZM230.46 305.354C225.487 302.719 222.195 298.6 220.537 292.685L212.834 294.844C215.046 302.736 219.688 308.699 226.714 312.423L230.46 305.354ZM218.099 297.506L233.343 291.748L230.515 284.264L215.272 290.022L218.099 297.506ZM228.114 289.209C229.208 292.679 230.779 295.683 233.01 297.926L238.681 292.283C237.637 291.233 236.596 289.505 235.744 286.803L228.114 289.209ZM233.095 298.009C235.305 300.101 237.896 301.549 240.823 302.299L242.807 294.549C241.231 294.145 239.843 293.38 238.596 292.2L233.095 298.009ZM241.014 302.343C243.791 302.91 246.682 303.013 249.665 302.69L248.802 294.736C246.556 294.98 244.502 294.89 242.616 294.505L241.014 302.343ZM249.665 302.69C253.936 302.226 257.793 301.098 260.464 298.716L255.139 292.746C254.318 293.478 252.463 294.339 248.802 294.736L249.665 302.69ZM260.555 298.632C263.045 296.27 264.426 293.227 264.045 289.718L256.092 290.581C256.161 291.219 256.031 291.897 255.048 292.829L260.555 298.632ZM264.045 289.718C263.666 286.224 261.701 283.543 258.527 282.079L255.175 289.343C255.841 289.65 256.021 289.929 256.092 290.581L264.045 289.718ZM258.656 282.142C256.002 280.799 252.368 280.122 248.176 279.821L247.603 287.801C251.499 288.081 253.84 288.671 255.046 289.28L258.656 282.142ZM248.164 279.82L244.304 279.555L243.756 287.536L247.615 287.801L248.164 279.82ZM244.357 279.559C239.786 279.184 235.621 278.47 231.85 277.433L229.729 285.146C234.043 286.333 238.705 287.122 243.703 287.532L244.357 279.559ZM231.927 277.455C228.393 276.407 225.631 274.826 223.511 272.791L217.972 278.563C221.145 281.608 225.082 283.769 229.652 285.124L231.927 277.455ZM223.511 272.791C221.678 271.032 220.429 268.498 220.028 264.81L212.075 265.674C212.634 270.82 214.511 275.242 217.972 278.563L223.511 272.791ZM220.028 264.81C219.425 259.253 220.957 255.221 224.373 252.142L219.016 246.2C213.46 251.209 211.23 257.891 212.075 265.674L220.028 264.81ZM224.408 252.11C228.085 248.715 233.395 246.453 240.738 245.656L239.875 237.702C231.354 238.627 224.257 241.36 218.981 246.233L224.408 252.11ZM240.738 245.656C247.629 244.908 253.19 245.854 257.647 248.197L261.37 241.116C255.187 237.865 247.947 236.826 239.875 237.702L240.738 245.656ZM257.647 248.197C262.186 250.583 265.217 253.908 266.958 258.214L274.375 255.215C271.877 249.038 267.47 244.323 261.37 241.116L257.647 248.197ZM269.084 253.041L253.794 259.625L256.958 266.973L272.249 260.389L269.084 253.041ZM259.178 262.058C257.859 258.019 255.542 254.71 251.902 252.9L248.341 260.065C249.52 260.65 250.706 261.886 251.573 264.541L259.178 262.058ZM251.968 252.934C248.792 251.281 245.178 250.807 241.343 251.223L242.206 259.176C244.861 258.888 246.811 259.269 248.275 260.031L251.968 252.934ZM241.343 251.223C237.714 251.617 234.381 252.625 231.927 254.726L237.131 260.803C237.848 260.189 239.344 259.487 242.206 259.176L241.343 251.223ZM232.04 254.633C229.399 256.732 228.115 259.689 228.482 263.072L236.435 262.209C236.372 261.625 236.469 261.332 237.017 260.896L232.04 254.633ZM228.482 263.072C228.863 266.583 230.775 269.351 234.015 270.846L237.367 263.582C236.767 263.306 236.524 263.025 236.435 262.209L228.482 263.072ZM234.153 270.907C236.62 271.934 239.616 272.487 242.976 272.711L243.508 264.729C240.621 264.537 238.584 264.086 237.229 263.522L234.153 270.907ZM242.968 272.711L246.827 272.976L247.375 264.995L243.516 264.73L242.968 272.711ZM246.827 272.976C251.77 273.316 256.206 274.006 260.152 275.026L262.155 267.281C257.655 266.117 252.723 265.362 247.375 264.995L246.827 272.976ZM260.254 275.051C263.998 275.914 266.779 277.391 268.808 279.338L274.347 273.566C271.082 270.433 266.914 268.377 262.052 267.256L260.254 275.051ZM268.911 279.433C270.709 281.041 272.021 283.578 272.455 287.574L280.408 286.711C279.825 281.333 277.901 276.742 274.245 273.471L268.911 279.433ZM272.455 287.574C273.097 293.49 271.47 297.938 267.761 301.424L273.24 307.253C278.965 301.872 281.292 294.856 280.408 286.711L272.455 287.574ZM267.769 301.416C263.956 304.98 258.275 307.388 250.269 308.257L251.133 316.21C260.253 315.22 267.771 312.365 273.232 307.261L267.769 301.416ZM289.491 306.108L285.514 306.54L285.946 310.516L289.922 310.085L289.491 306.108ZM282.212 239.046L281.78 235.069L277.803 235.501L278.235 239.477L282.212 239.046ZM299.248 237.197L303.224 236.765L302.793 232.788L298.816 233.22L299.248 237.197ZM306.527 304.259L306.958 308.235L310.935 307.804L310.503 303.827L306.527 304.259ZM281.714 228.156L279.277 231.328L279.31 231.354L279.345 231.379L281.714 228.156ZM280.011 212.472L277.006 209.832L276.978 209.864L276.951 209.897L280.011 212.472ZM293.467 305.676L286.188 238.614L278.235 239.477L285.514 306.54L293.467 305.676ZM282.643 243.022L299.679 241.173L298.816 233.22L281.78 235.069L282.643 243.022ZM295.271 237.628L302.55 304.69L310.503 303.827L303.224 236.765L295.271 237.628ZM306.095 300.282L289.059 302.131L289.922 310.085L306.958 308.235L306.095 300.282ZM289.447 226.303C287.329 226.533 285.616 226.06 284.082 224.933L279.345 231.379C282.568 233.748 286.299 234.691 290.31 234.256L289.447 226.303ZM284.15 224.984C282.845 223.981 281.981 222.536 281.729 220.22L273.776 221.083C274.229 225.257 276.005 228.815 279.277 231.328L284.15 224.984ZM281.729 220.22C281.478 217.904 282.012 216.307 283.072 215.047L276.951 209.897C274.295 213.053 273.323 216.909 273.776 221.083L281.729 220.22ZM283.016 215.112C284.273 213.682 285.844 212.853 287.962 212.623L287.099 204.67C283.087 205.105 279.646 206.827 277.006 209.832L283.016 215.112ZM287.962 212.623C290.204 212.38 291.871 212.876 293.258 213.942L298.132 207.598C294.942 205.147 291.166 204.228 287.099 204.67L287.962 212.623ZM293.258 213.942C294.564 214.945 295.428 216.39 295.679 218.706L303.633 217.842C303.18 213.668 301.403 210.111 298.132 207.598L293.258 213.942ZM295.679 218.706C295.931 221.021 295.397 222.618 294.337 223.878L300.458 229.029C303.114 225.872 304.086 222.016 303.633 217.842L295.679 218.706ZM294.337 223.878C293.211 225.216 291.689 226.059 289.447 226.303L290.31 234.256C294.378 233.814 297.868 232.107 300.458 229.029L294.337 223.878ZM334.905 298.99L333.461 302.72L333.474 302.725L333.487 302.73L334.905 298.99ZM316.933 249.367L320.569 251.034L316.933 249.367ZM328.095 236.254L325.908 232.905L325.896 232.913L325.885 232.92L328.095 236.254ZM362.229 231.865L360.866 235.626L362.229 231.865ZM374.328 239.991L371.326 242.634L371.361 242.673L371.396 242.711L374.328 239.991ZM381.445 252.625L382.696 256.424L386.383 255.21L385.281 251.489L381.445 252.625ZM365.332 257.931L361.447 258.884L362.477 263.082L366.583 261.73L365.332 257.931ZM356.14 246.343L354.573 250.023L354.604 250.036L354.634 250.049L356.14 246.343ZM338.337 248.686L340.589 251.991L340.608 251.978L340.627 251.965L338.337 248.686ZM332.566 256.015L328.868 254.49L328.86 254.51L328.851 254.531L332.566 256.015ZM335.046 278.865L331.709 281.07L331.749 281.131L331.792 281.191L335.046 278.865ZM342.255 284.786L340.67 288.458L340.742 288.489L340.815 288.517L342.255 284.786ZM363.021 280.753L366.138 283.26L363.021 280.753ZM367.014 269.649L367.514 265.681L363.265 265.146L363.021 269.421L367.014 269.649ZM383.935 271.78L387.9 272.308L388.432 268.315L384.435 267.811L383.935 271.78ZM379.274 285.555L375.804 283.565L375.8 283.573L375.796 283.58L379.274 285.555ZM352.625 297.147C346.706 297.789 341.294 297.134 336.322 295.249L333.487 302.73C339.739 305.099 346.429 305.866 353.489 305.1L352.625 297.147ZM336.348 295.259C331.534 293.396 327.564 290.389 324.383 286.169L317.995 290.985C322.058 296.375 327.232 300.31 333.461 302.72L336.348 295.259ZM324.383 286.169C321.282 282.055 319.275 276.728 318.543 269.986L310.59 270.849C311.443 278.71 313.852 285.489 317.995 290.985L324.383 286.169ZM318.543 269.986L318.338 268.093L310.385 268.956L310.59 270.849L318.543 269.986ZM318.338 268.093C317.606 261.351 318.423 255.718 320.569 251.034L313.297 247.701C310.429 253.958 309.532 261.096 310.385 268.956L318.338 268.093ZM320.569 251.034C322.771 246.229 326.003 242.44 330.306 239.588L325.885 232.92C320.318 236.611 316.109 241.564 313.297 247.701L320.569 251.034ZM330.282 239.603C334.734 236.696 339.879 234.895 345.799 234.252L344.935 226.299C337.875 227.065 331.506 229.25 325.908 232.905L330.282 239.603ZM345.799 234.252C351.74 233.607 356.724 234.125 360.866 235.626L363.592 228.104C358.051 226.097 351.794 225.554 344.935 226.299L345.799 234.252ZM360.866 235.626C365.112 237.164 368.57 239.504 371.326 242.634L377.331 237.348C373.637 233.153 369.029 230.075 363.592 228.104L360.866 235.626ZM371.396 242.711C374.264 245.803 376.338 249.466 377.61 253.761L385.281 251.489C383.674 246.065 381.003 241.304 377.261 237.271L371.396 242.711ZM380.194 248.825L364.081 254.131L366.583 261.73L382.696 256.424L380.194 248.825ZM369.217 256.977C368.448 253.844 367.161 251.006 365.323 248.517L358.888 253.27C360.043 254.834 360.908 256.687 361.447 258.884L369.217 256.977ZM365.323 248.517C363.361 245.861 360.763 243.903 357.645 242.637L354.634 250.049C356.477 250.797 357.857 251.874 358.888 253.27L365.323 248.517ZM357.706 242.662C354.514 241.304 350.876 240.975 346.985 241.398L347.848 249.351C350.807 249.03 352.985 249.347 354.573 250.023L357.706 242.662ZM346.985 241.398C342.942 241.837 339.266 243.157 336.046 245.406L340.627 251.965C342.663 250.543 345.04 249.656 347.848 249.351L346.985 241.398ZM336.084 245.38C332.824 247.601 330.433 250.697 328.868 254.49L336.264 257.54C337.298 255.032 338.754 253.241 340.589 251.991L336.084 245.38ZM328.851 254.531C327.328 258.343 326.94 262.678 327.45 267.378L335.403 266.514C334.994 262.741 335.365 259.789 336.28 257.5L328.851 254.531ZM327.45 267.378L327.597 268.73L335.55 267.866L335.403 266.514L327.45 267.378ZM327.597 268.73C328.108 273.435 329.421 277.607 331.709 281.07L338.383 276.66C336.961 274.506 335.959 271.634 335.55 267.866L327.597 268.73ZM331.792 281.191C334.122 284.452 337.087 286.912 340.67 288.458L343.84 281.113C341.682 280.182 339.841 278.695 338.3 276.539L331.792 281.191ZM340.815 288.517C344.413 289.906 348.249 290.347 352.251 289.913L351.387 281.96C348.539 282.269 345.999 281.943 343.695 281.054L340.815 288.517ZM352.251 289.913C358.025 289.286 362.919 287.263 366.138 283.26L359.904 278.246C358.463 280.039 355.889 281.471 351.387 281.96L352.251 289.913ZM366.138 283.26C369.146 279.52 370.716 274.988 371.008 269.877L363.021 269.421C362.81 273.121 361.718 275.991 359.904 278.246L366.138 283.26ZM366.515 273.618L383.435 275.749L384.435 267.811L367.514 265.681L366.515 273.618ZM379.97 271.252C379.385 275.643 377.999 279.738 375.804 283.565L382.744 287.545C385.457 282.814 387.178 277.726 387.9 272.308L379.97 271.252ZM375.796 283.58C373.77 287.147 370.885 290.145 367.047 292.572L371.323 299.333C376.19 296.256 380.031 292.322 382.752 287.531L375.796 283.58ZM367.047 292.572C363.323 294.927 358.566 296.502 352.625 297.147L353.489 305.1C360.347 304.355 366.342 302.483 371.323 299.333L367.047 292.572Z" fill="white" mask="url(#path-1-outside-1_744_6208)"/>
<path d="M463.466 231.341L463.644 231.618L463.97 231.563L496.854 225.976L468.8 244.018L468.522 244.197L468.577 244.523L474.165 277.406L456.122 249.352L455.943 249.074L455.618 249.13L422.734 254.717L450.788 236.675L451.066 236.496L451.011 236.17L445.423 203.287L463.466 231.341Z" fill="white" stroke="white"/>
<mask id="path-4-outside-2_744_6208" maskUnits="userSpaceOnUse" x="524.401" y="153.369" width="256.78" height="130.047" fill="black">
<rect fill="white" x="524.401" y="153.369" width="256.78" height="130.047"/>
<path d="M540.609 278.851L555.213 181.506L586.311 178.131L621.462 270.074L603.074 272.07L595.676 251.806L561.874 255.475L558.997 276.855L540.609 278.851ZM564.275 238.525L589.694 235.766L573.197 190.908L570.763 191.173L564.275 238.525ZM628.734 269.285L618.461 174.641L659.564 170.179C665.513 169.534 670.808 170.008 675.45 171.601C680.092 173.195 683.835 175.753 686.68 179.275C689.524 182.796 691.225 187.126 691.783 192.264L691.959 193.886C692.575 199.565 691.722 204.309 689.4 208.117C687.077 211.926 684.021 214.857 680.231 216.91L680.495 219.344C684.12 219.133 687.052 220.091 689.289 222.22C691.517 224.258 692.836 227.17 693.247 230.956L696.608 261.918L678.76 263.855L675.678 235.462C675.444 233.298 674.667 231.604 673.348 230.38C672.12 229.145 670.199 228.669 667.585 228.953L642.707 231.653L646.581 267.348L628.734 269.285ZM640.946 215.429L662.308 213.11C666.545 212.65 669.713 211.166 671.812 208.659C673.991 206.051 674.875 202.854 674.464 199.068L674.317 197.716C673.906 193.93 672.407 191.038 669.819 189.039C667.221 186.95 663.759 186.14 659.432 186.61L638.069 188.928L640.946 215.429ZM730.425 258.247L721.913 179.828L694.331 182.822L692.57 166.597L765.581 158.672L767.342 174.897L739.76 177.891L748.272 256.31L730.425 258.247Z"/>
</mask>
<path d="M540.609 278.851L536.653 278.257L535.883 283.387L541.04 282.827L540.609 278.851ZM555.213 181.506L554.782 177.529L551.715 177.862L551.258 180.913L555.213 181.506ZM586.311 178.131L590.047 176.702L588.945 173.821L585.879 174.154L586.311 178.131ZM621.462 270.074L621.893 274.051L627.05 273.491L625.198 268.646L621.462 270.074ZM603.074 272.07L599.316 273.442L600.391 276.385L603.505 276.047L603.074 272.07ZM595.676 251.806L599.433 250.435L598.359 247.492L595.244 247.83L595.676 251.806ZM561.874 255.475L561.443 251.499L558.328 251.837L557.91 254.942L561.874 255.475ZM558.997 276.855L559.428 280.831L562.543 280.493L562.961 277.388L558.997 276.855ZM564.275 238.525L560.312 237.982L559.617 243.054L564.707 242.502L564.275 238.525ZM589.694 235.766L590.126 239.743L595.215 239.19L593.448 234.386L589.694 235.766ZM573.197 190.908L576.951 189.528L575.872 186.594L572.765 186.932L573.197 190.908ZM570.763 191.173L570.332 187.196L567.225 187.533L566.8 190.63L570.763 191.173ZM544.564 279.444L559.169 182.1L551.258 180.913L536.653 278.257L544.564 279.444ZM555.645 185.483L586.742 182.107L585.879 174.154L554.782 177.529L555.645 185.483ZM582.574 179.559L617.725 271.503L625.198 268.646L590.047 176.702L582.574 179.559ZM621.03 266.098L602.642 268.094L603.505 276.047L621.893 274.051L621.03 266.098ZM606.831 270.699L599.433 250.435L591.918 253.178L599.316 273.442L606.831 270.699ZM595.244 247.83L561.443 251.499L562.306 259.452L596.107 255.783L595.244 247.83ZM557.91 254.942L555.032 276.321L562.961 277.388L565.839 256.009L557.91 254.942ZM558.565 272.878L540.177 274.874L541.04 282.827L559.428 280.831L558.565 272.878ZM564.707 242.502L590.126 239.743L589.262 231.789L563.844 234.549L564.707 242.502ZM593.448 234.386L576.951 189.528L569.443 192.289L585.94 237.147L593.448 234.386ZM572.765 186.932L570.332 187.196L571.195 195.149L573.629 194.885L572.765 186.932ZM566.8 190.63L560.312 237.982L568.238 239.068L574.726 191.716L566.8 190.63ZM628.734 269.285L624.758 269.717L625.189 273.693L629.166 273.262L628.734 269.285ZM618.461 174.641L618.03 170.664L614.053 171.096L614.485 175.073L618.461 174.641ZM675.45 171.601L674.151 175.385L674.151 175.385L675.45 171.601ZM686.68 179.275L689.791 176.761L689.791 176.761L686.68 179.275ZM689.4 208.117L692.815 210.2L692.815 210.2L689.4 208.117ZM680.231 216.91L678.326 213.393L675.965 214.672L676.254 217.342L680.231 216.91ZM680.495 219.344L676.519 219.775L676.929 223.558L680.728 223.337L680.495 219.344ZM689.289 222.22L686.532 225.118L686.56 225.145L686.589 225.171L689.289 222.22ZM696.608 261.918L697.039 265.894L701.016 265.463L700.584 261.486L696.608 261.918ZM678.76 263.855L674.784 264.287L675.215 268.263L679.192 267.832L678.76 263.855ZM673.348 230.38L670.513 233.201L670.568 233.257L670.626 233.31L673.348 230.38ZM642.707 231.653L642.275 227.677L638.299 228.108L638.73 232.085L642.707 231.653ZM646.581 267.348L647.013 271.324L650.99 270.893L650.558 266.916L646.581 267.348ZM640.946 215.429L636.969 215.86L637.401 219.837L641.378 219.405L640.946 215.429ZM671.812 208.659L674.879 211.226L674.881 211.224L671.812 208.659ZM669.819 189.039L667.312 192.156L667.343 192.181L667.374 192.205L669.819 189.039ZM638.069 188.928L637.638 184.952L633.661 185.383L634.093 189.36L638.069 188.928ZM632.711 268.853L622.438 174.209L614.485 175.073L624.758 269.717L632.711 268.853ZM618.893 178.618L659.995 174.156L659.132 166.203L618.03 170.664L618.893 178.618ZM659.995 174.156C665.486 173.56 670.173 174.019 674.151 175.385L676.749 167.818C671.443 165.997 665.54 165.507 659.132 166.203L659.995 174.156ZM674.151 175.385C678.143 176.755 681.236 178.901 683.568 181.788L689.791 176.761C686.434 172.605 682.04 169.635 676.749 167.818L674.151 175.385ZM683.568 181.788C685.865 184.632 687.319 188.209 687.806 192.695L695.76 191.832C695.131 186.043 693.183 180.96 689.791 176.761L683.568 181.788ZM687.806 192.695L687.982 194.318L695.936 193.454L695.76 191.832L687.806 192.695ZM687.982 194.318C688.531 199.368 687.733 203.168 685.985 206.035L692.815 210.2C695.712 205.449 696.62 199.762 695.936 193.454L687.982 194.318ZM685.985 206.035C684.016 209.263 681.472 211.689 678.326 213.393L682.136 220.427C686.57 218.026 690.138 214.59 692.815 210.2L685.985 206.035ZM676.254 217.342L676.519 219.775L684.472 218.912L684.208 216.478L676.254 217.342ZM680.728 223.337C683.459 223.178 685.238 223.887 686.532 225.118L692.046 219.322C688.865 216.296 684.781 215.088 680.263 215.351L680.728 223.337ZM686.589 225.171C687.926 226.394 688.936 228.308 689.27 231.387L697.223 230.524C696.736 226.032 695.107 222.121 691.989 219.269L686.589 225.171ZM689.27 231.387L692.631 262.349L700.584 261.486L697.223 230.524L689.27 231.387ZM696.176 257.941L678.329 259.878L679.192 267.832L697.039 265.894L696.176 257.941ZM682.737 263.423L679.655 235.03L671.702 235.893L674.784 264.287L682.737 263.423ZM679.655 235.03C679.339 232.119 678.235 229.459 676.071 227.449L670.626 233.31C671.099 233.75 671.548 234.478 671.702 235.893L679.655 235.03ZM676.184 227.558C673.734 225.096 670.346 224.63 667.153 224.976L668.017 232.93C670.052 232.709 670.506 233.194 670.513 233.201L676.184 227.558ZM667.153 224.976L642.275 227.677L643.139 235.63L668.017 232.93L667.153 224.976ZM638.73 232.085L642.605 267.779L650.558 266.916L646.684 231.222L638.73 232.085ZM646.15 263.371L628.303 265.308L629.166 273.262L647.013 271.324L646.15 263.371ZM641.378 219.405L662.74 217.087L661.877 209.133L640.514 211.452L641.378 219.405ZM662.74 217.087C667.682 216.55 671.934 214.744 674.879 211.226L668.744 206.091C667.491 207.588 665.408 208.75 661.877 209.133L662.74 217.087ZM674.881 211.224C677.844 207.677 678.953 203.36 678.441 198.637L670.488 199.5C670.797 202.348 670.137 204.424 668.742 206.093L674.881 211.224ZM678.441 198.637L678.294 197.285L670.341 198.148L670.488 199.5L678.441 198.637ZM678.294 197.285C677.787 192.61 675.856 188.648 672.264 185.873L667.374 192.205C668.958 193.428 670.026 195.25 670.341 198.148L678.294 197.285ZM672.325 185.922C668.671 182.983 664.046 182.085 659 182.633L659.864 190.586C663.471 190.195 665.771 190.917 667.312 192.156L672.325 185.922ZM659 182.633L637.638 184.952L638.501 192.905L659.864 190.586L659 182.633ZM634.093 189.36L636.969 215.86L644.923 214.997L642.046 188.497L634.093 189.36ZM730.425 258.247L726.448 258.679L726.88 262.655L730.856 262.224L730.425 258.247ZM721.913 179.828L725.89 179.396L725.458 175.419L721.481 175.851L721.913 179.828ZM694.331 182.822L690.354 183.253L690.786 187.23L694.763 186.798L694.331 182.822ZM692.57 166.597L692.138 162.62L688.162 163.052L688.593 167.029L692.57 166.597ZM765.581 158.672L769.558 158.24L769.126 154.264L765.149 154.695L765.581 158.672ZM767.342 174.897L767.774 178.873L771.75 178.442L771.319 174.465L767.342 174.897ZM739.76 177.891L739.328 173.914L735.352 174.346L735.783 178.322L739.76 177.891ZM748.272 256.31L748.704 260.287L752.68 259.855L752.249 255.878L748.272 256.31ZM734.401 257.815L725.89 179.396L717.936 180.259L726.448 258.679L734.401 257.815ZM721.481 175.851L693.899 178.845L694.763 186.798L722.345 183.804L721.481 175.851ZM698.308 182.39L696.546 166.165L688.593 167.029L690.354 183.253L698.308 182.39ZM693.001 170.574L766.013 162.649L765.149 154.695L692.138 162.62L693.001 170.574ZM761.604 159.104L763.365 175.328L771.319 174.465L769.558 158.24L761.604 159.104ZM766.91 170.92L739.328 173.914L740.192 181.867L767.774 178.873L766.91 170.92ZM735.783 178.322L744.295 256.742L752.249 255.878L743.737 177.459L735.783 178.322ZM747.84 252.333L729.993 254.27L730.856 262.224L748.704 260.287L747.84 252.333Z" fill="white" mask="url(#path-4-outside-2_744_6208)"/>
<path d="M851.665 189.204L851.844 189.482L852.169 189.426L885.053 183.839L856.999 201.882L856.721 202.06L856.776 202.386L862.364 235.269L844.321 207.216L844.143 206.938L843.817 206.993L810.933 212.58L838.987 194.538L839.265 194.359L839.21 194.034L833.622 161.15L851.665 189.204Z" fill="white" stroke="white"/>
<mask id="path-7-outside-3_744_6208" maskUnits="userSpaceOnUse" x="919.344" y="50.8641" width="788.094" height="191.647" fill="black">
<rect fill="white" x="919.344" y="50.8641" width="788.094" height="191.647"/>
<path d="M935.298 236.009L925.025 141.365L942.872 139.428L951.384 217.847L994.65 213.151L996.411 229.376L935.298 236.009ZM1004.52 228.495L994.249 133.851L1012.1 131.914L1022.37 226.558L1004.52 228.495ZM1053.69 223.158L1019.35 131.127L1037.74 129.131L1066.78 210.11L1068.67 209.905L1079.65 124.581L1098.04 122.585L1084.25 219.842L1053.69 223.158ZM1115.64 216.434L1105.37 121.79L1166.21 115.186L1167.97 131.411L1124.97 136.078L1127.43 158.657L1166.63 154.401L1168.4 170.626L1129.19 174.882L1131.73 198.272L1175.53 193.518L1177.29 209.742L1115.64 216.434ZM1249.78 203.789C1242.48 204.582 1235.89 203.974 1230.02 201.967C1224.15 199.959 1219.37 196.693 1215.69 192.168C1212.01 187.643 1209.79 181.956 1209.05 175.105L1208.64 171.319L1226.21 169.412L1226.63 173.197C1227.24 178.876 1229.46 182.967 1233.29 185.47C1237.11 187.882 1242.04 188.761 1248.08 188.105C1254.21 187.44 1258.63 185.729 1261.34 182.972C1264.14 180.206 1265.33 176.93 1264.92 173.144C1264.64 170.53 1263.64 168.495 1261.93 167.039C1260.32 165.573 1258.01 164.501 1255.02 163.823C1252.11 163.044 1248.57 162.425 1244.42 161.963L1241.24 161.625C1234.59 160.887 1228.81 159.691 1223.89 158.037C1219.04 156.282 1215.17 153.739 1212.25 150.408C1209.43 147.066 1207.7 142.511 1207.07 136.742C1206.45 130.974 1207.27 125.914 1209.53 121.565C1211.87 117.115 1215.41 113.54 1220.13 110.838C1224.93 108.037 1230.71 106.269 1237.48 105.535C1244.24 104.802 1250.36 105.323 1255.84 107.099C1261.4 108.775 1265.92 111.75 1269.39 116.024C1272.95 120.199 1275.1 125.711 1275.84 132.561L1276.28 136.618L1258.7 138.525L1258.26 134.469C1257.87 130.864 1256.84 128.058 1255.16 126.051C1253.56 123.944 1251.4 122.537 1248.68 121.829C1245.95 121.031 1242.78 120.828 1239.18 121.219C1233.77 121.806 1229.87 123.278 1227.48 125.635C1225.17 127.892 1224.21 130.778 1224.59 134.294C1224.85 136.637 1225.65 138.557 1226.99 140.052C1228.43 141.537 1230.43 142.689 1232.98 143.506C1235.53 144.324 1238.74 144.933 1242.62 145.333L1245.8 145.672C1252.72 146.38 1258.78 147.592 1263.98 149.307C1269.27 151.013 1273.51 153.562 1276.71 156.954C1279.9 160.346 1281.82 164.927 1282.44 170.696C1283.07 176.464 1282.13 181.719 1279.64 186.458C1277.22 191.098 1273.45 194.973 1268.31 198.084C1263.26 201.095 1257.08 202.997 1249.78 203.789ZM1313.53 194.955L1305.01 116.535L1277.43 119.529L1275.67 103.305L1348.68 95.3797L1350.44 111.604L1322.86 114.598L1331.37 193.018L1313.53 194.955ZM1367.05 189.145L1356.78 94.5008L1397.88 90.0393C1403.83 89.3936 1409.13 89.8676 1413.77 91.4614C1418.41 93.0551 1422.15 95.6128 1425 99.1344C1427.84 102.656 1429.54 106.986 1430.1 112.124L1430.28 113.746C1430.89 119.425 1430.04 124.168 1427.72 127.977C1425.4 131.786 1422.34 134.717 1418.55 136.77L1418.81 139.204C1422.44 138.993 1425.37 139.951 1427.61 142.08C1429.84 144.118 1431.15 147.03 1431.57 150.815L1434.93 181.778L1417.08 183.715L1414 155.322C1413.76 153.158 1412.99 151.464 1411.67 150.239C1410.44 149.005 1408.52 148.529 1405.9 148.813L1381.03 151.513L1384.9 187.208L1367.05 189.145ZM1379.26 135.289L1400.63 132.97C1404.86 132.51 1408.03 131.026 1410.13 128.518C1412.31 125.911 1413.19 122.714 1412.78 118.928L1412.64 117.576C1412.23 113.79 1410.73 110.898 1408.14 108.899C1405.54 106.81 1402.08 106 1397.75 106.469L1376.39 108.788L1379.26 135.289ZM1448.42 180.312L1438.15 85.6684L1498.99 79.0643L1500.76 95.289L1457.76 99.9559L1460.21 122.535L1499.42 118.279L1501.18 134.504L1461.97 138.76L1464.51 162.151L1508.32 157.396L1510.08 173.62L1448.42 180.312ZM1512.74 173.331L1527.35 75.9866L1558.45 72.6111L1593.6 164.555L1575.21 166.551L1567.81 146.287L1534.01 149.956L1531.13 171.335L1512.74 173.331ZM1536.41 133.006L1561.83 130.247L1545.33 85.3889L1542.9 85.653L1536.41 133.006ZM1600.87 163.765L1590.6 69.1214L1623.72 65.5258L1649.03 146.226L1651.47 145.961L1658.88 61.7101L1692 58.1146L1702.27 152.759L1684.97 154.637L1676.12 73.108L1673.68 73.3722L1666.31 156.662L1636.83 159.862L1611.76 80.0937L1609.33 80.3579L1618.18 161.887L1600.87 163.765Z"/>
</mask>
<path d="M935.298 236.009L931.321 236.441L931.753 240.418L935.729 239.986L935.298 236.009ZM925.025 141.365L924.593 137.389L920.616 137.82L921.048 141.797L925.025 141.365ZM942.872 139.428L946.848 138.996L946.417 135.02L942.44 135.451L942.872 139.428ZM951.384 217.847L947.407 218.279L947.839 222.256L951.815 221.824L951.384 217.847ZM994.65 213.151L998.626 212.72L998.195 208.743L994.218 209.175L994.65 213.151ZM996.411 229.376L996.842 233.353L1000.82 232.921L1000.39 228.944L996.411 229.376ZM939.274 235.578L929.001 140.934L921.048 141.797L931.321 236.441L939.274 235.578ZM925.456 145.342L943.303 143.405L942.44 135.451L924.593 137.389L925.456 145.342ZM938.895 139.86L947.407 218.279L955.36 217.416L946.848 138.996L938.895 139.86ZM951.815 221.824L995.081 217.128L994.218 209.175L950.952 213.871L951.815 221.824ZM990.673 213.583L992.434 229.808L1000.39 228.944L998.626 212.72L990.673 213.583ZM995.979 225.399L934.866 232.033L935.729 239.986L996.842 233.353L995.979 225.399ZM1004.52 228.495L1000.55 228.927L1000.98 232.904L1004.95 232.472L1004.52 228.495ZM994.249 133.851L993.817 129.875L989.841 130.306L990.272 134.283L994.249 133.851ZM1012.1 131.914L1016.07 131.483L1015.64 127.506L1011.66 127.938L1012.1 131.914ZM1022.37 226.558L1022.8 230.535L1026.78 230.103L1026.35 226.127L1022.37 226.558ZM1008.5 228.064L998.226 133.42L990.272 134.283L1000.55 228.927L1008.5 228.064ZM994.681 137.828L1012.53 135.891L1011.66 127.938L993.817 129.875L994.681 137.828ZM1008.12 132.346L1018.39 226.99L1026.35 226.127L1016.07 131.483L1008.12 132.346ZM1021.94 222.582L1004.09 224.519L1004.95 232.472L1022.8 230.535L1021.94 222.582ZM1053.69 223.158L1049.94 224.557L1051.03 227.471L1054.12 227.135L1053.69 223.158ZM1019.35 131.127L1018.92 127.15L1013.81 127.705L1015.61 132.525L1019.35 131.127ZM1037.74 129.131L1041.51 127.781L1040.44 124.814L1037.31 125.154L1037.74 129.131ZM1066.78 210.11L1063.01 211.46L1064.08 214.427L1067.21 214.087L1066.78 210.11ZM1068.67 209.905L1069.1 213.881L1072.23 213.541L1072.64 210.415L1068.67 209.905ZM1079.65 124.581L1079.22 120.604L1076.09 120.945L1075.69 124.07L1079.65 124.581ZM1098.04 122.585L1102 123.147L1102.73 118.053L1097.61 118.609L1098.04 122.585ZM1084.25 219.842L1084.68 223.818L1087.77 223.483L1088.21 220.403L1084.25 219.842ZM1057.44 221.76L1023.1 129.728L1015.61 132.525L1049.94 224.557L1057.44 221.76ZM1019.78 135.103L1038.17 133.107L1037.31 125.154L1018.92 127.15L1019.78 135.103ZM1033.98 130.481L1063.01 211.46L1070.54 208.76L1041.51 127.781L1033.98 130.481ZM1067.21 214.087L1069.1 213.881L1068.24 205.928L1066.35 206.134L1067.21 214.087ZM1072.64 210.415L1083.62 125.092L1075.69 124.07L1064.7 209.394L1072.64 210.415ZM1080.09 128.558L1098.47 126.562L1097.61 118.609L1079.22 120.604L1080.09 128.558ZM1094.08 122.024L1080.29 219.28L1088.21 220.403L1102 123.147L1094.08 122.024ZM1083.82 215.865L1053.26 219.182L1054.12 227.135L1084.68 223.818L1083.82 215.865ZM1115.64 216.434L1111.66 216.866L1112.09 220.843L1116.07 220.411L1115.64 216.434ZM1105.37 121.79L1104.93 117.814L1100.96 118.245L1101.39 122.222L1105.37 121.79ZM1166.21 115.186L1170.19 114.755L1169.75 110.778L1165.78 111.21L1166.21 115.186ZM1167.97 131.411L1168.4 135.388L1172.38 134.956L1171.95 130.979L1167.97 131.411ZM1124.97 136.078L1124.54 132.101L1120.57 132.533L1121 136.509L1124.97 136.078ZM1127.43 158.657L1123.45 159.089L1123.88 163.065L1127.86 162.634L1127.43 158.657ZM1166.63 154.401L1170.61 153.97L1170.18 149.993L1166.2 150.425L1166.63 154.401ZM1168.4 170.626L1168.83 174.603L1172.8 174.171L1172.37 170.194L1168.4 170.626ZM1129.19 174.882L1128.75 170.905L1124.78 171.337L1125.21 175.314L1129.19 174.882ZM1131.73 198.272L1127.75 198.704L1128.18 202.681L1132.16 202.249L1131.73 198.272ZM1175.53 193.518L1179.51 193.086L1179.08 189.109L1175.1 189.541L1175.53 193.518ZM1177.29 209.742L1177.72 213.719L1181.7 213.287L1181.27 209.311L1177.29 209.742ZM1119.62 216.003L1109.34 121.359L1101.39 122.222L1111.66 216.866L1119.62 216.003ZM1105.8 125.767L1166.64 119.163L1165.78 111.21L1104.93 117.814L1105.8 125.767ZM1162.23 115.618L1163.99 131.843L1171.95 130.979L1170.19 114.755L1162.23 115.618ZM1167.54 127.434L1124.54 132.101L1125.41 140.054L1168.4 135.388L1167.54 127.434ZM1121 136.509L1123.45 159.089L1131.4 158.226L1128.95 135.646L1121 136.509ZM1127.86 162.634L1167.07 158.378L1166.2 150.425L1126.99 154.681L1127.86 162.634ZM1162.66 154.833L1164.42 171.058L1172.37 170.194L1170.61 153.97L1162.66 154.833ZM1167.96 166.649L1128.75 170.905L1129.62 178.859L1168.83 174.603L1167.96 166.649ZM1125.21 175.314L1127.75 198.704L1135.7 197.841L1133.16 174.45L1125.21 175.314ZM1132.16 202.249L1175.96 197.494L1175.1 189.541L1131.29 194.296L1132.16 202.249ZM1171.56 193.949L1173.32 210.174L1181.27 209.311L1179.51 193.086L1171.56 193.949ZM1176.86 205.766L1115.21 212.458L1116.07 220.411L1177.72 213.719L1176.86 205.766ZM1230.02 201.967L1228.73 205.752L1230.02 201.967ZM1215.69 192.168L1218.79 189.643L1215.69 192.168ZM1208.64 171.319L1208.21 167.343L1204.23 167.774L1204.66 171.751L1208.64 171.319ZM1226.21 169.412L1230.19 168.98L1229.76 165.003L1225.78 165.435L1226.21 169.412ZM1233.29 185.47L1231.1 188.818L1231.13 188.835L1231.16 188.851L1233.29 185.47ZM1261.34 182.972L1258.53 180.127L1258.51 180.147L1258.49 180.168L1261.34 182.972ZM1261.93 167.039L1259.25 170.004L1259.29 170.044L1259.34 170.083L1261.93 167.039ZM1255.02 163.823L1253.99 167.687L1254.06 167.707L1254.13 167.724L1255.02 163.823ZM1244.42 161.963L1244.86 157.988L1244.85 157.987L1244.84 157.986L1244.42 161.963ZM1241.24 161.625L1240.8 165.601L1240.81 165.602L1240.81 165.603L1241.24 161.625ZM1223.89 158.037L1222.52 161.797L1222.57 161.813L1222.61 161.828L1223.89 158.037ZM1212.25 150.408L1209.2 152.99L1209.22 153.016L1209.24 153.042L1212.25 150.408ZM1209.53 121.565L1205.99 119.7L1205.99 119.709L1205.98 119.718L1209.53 121.565ZM1220.13 110.838L1222.12 114.31L1222.13 114.302L1222.15 114.293L1220.13 110.838ZM1255.84 107.099L1254.61 110.904L1254.65 110.917L1254.69 110.929L1255.84 107.099ZM1269.39 116.024L1266.29 118.547L1266.32 118.583L1266.35 118.617L1269.39 116.024ZM1276.28 136.618L1276.71 140.594L1280.69 140.163L1280.26 136.186L1276.28 136.618ZM1258.7 138.525L1254.73 138.957L1255.16 142.934L1259.13 142.502L1258.7 138.525ZM1255.16 126.051L1251.97 128.467L1252.03 128.543L1252.09 128.616L1255.16 126.051ZM1248.68 121.829L1247.56 125.669L1247.62 125.685L1247.68 125.7L1248.68 121.829ZM1227.48 125.635L1230.28 128.495L1230.28 128.489L1230.29 128.483L1227.48 125.635ZM1226.99 140.052L1224.02 142.73L1224.07 142.783L1224.12 142.834L1226.99 140.052ZM1232.98 143.506L1234.2 139.697L1232.98 143.506ZM1242.62 145.333L1243.04 141.356L1243.03 141.354L1242.62 145.333ZM1245.8 145.672L1245.38 149.649L1245.38 149.65L1245.39 149.651L1245.8 145.672ZM1263.98 149.307L1262.72 153.106L1262.74 153.11L1262.75 153.114L1263.98 149.307ZM1276.71 156.954L1279.62 154.211L1279.62 154.211L1276.71 156.954ZM1279.64 186.458L1276.1 184.595L1276.09 184.603L1276.09 184.612L1279.64 186.458ZM1268.31 198.084L1270.36 201.52L1270.37 201.513L1270.39 201.505L1268.31 198.084ZM1249.35 199.813C1242.53 200.553 1236.54 199.968 1231.32 198.182L1228.73 205.752C1235.25 207.98 1242.44 208.61 1250.21 207.766L1249.35 199.813ZM1231.32 198.182C1226.11 196.401 1221.97 193.55 1218.79 189.643L1212.59 194.693C1216.77 199.837 1222.19 203.518 1228.73 205.752L1231.32 198.182ZM1218.79 189.643C1215.68 185.819 1213.7 180.898 1213.03 174.674L1205.07 175.537C1205.88 183.014 1208.33 189.468 1212.59 194.693L1218.79 189.643ZM1213.03 174.674L1212.61 170.888L1204.66 171.751L1205.07 175.537L1213.03 174.674ZM1209.07 175.296L1226.65 173.388L1225.78 165.435L1208.21 167.343L1209.07 175.296ZM1222.24 169.843L1222.65 173.629L1230.6 172.766L1230.19 168.98L1222.24 169.843ZM1222.65 173.629C1223.36 180.175 1226.03 185.5 1231.1 188.818L1235.48 182.122C1232.9 180.434 1231.12 177.577 1230.6 172.766L1222.65 173.629ZM1231.16 188.851C1235.97 191.89 1241.88 192.801 1248.51 192.082L1247.65 184.129C1242.2 184.72 1238.26 183.874 1235.43 182.088L1231.16 188.851ZM1248.51 192.082C1255.05 191.373 1260.55 189.484 1264.19 185.777L1258.49 180.168C1256.71 181.975 1253.37 183.507 1247.65 184.129L1248.51 192.082ZM1264.15 185.818C1267.78 182.228 1269.45 177.758 1268.9 172.713L1260.95 173.576C1261.22 176.102 1260.49 178.184 1258.53 180.127L1264.15 185.818ZM1268.9 172.713C1268.53 169.269 1267.15 166.226 1264.53 163.995L1259.34 170.083C1260.14 170.765 1260.75 171.791 1260.95 173.576L1268.9 172.713ZM1264.62 164.075C1262.33 161.997 1259.31 160.694 1255.9 159.922L1254.13 167.724C1256.71 168.308 1258.31 169.149 1259.25 170.004L1264.62 164.075ZM1256.05 159.958C1252.89 159.113 1249.15 158.463 1244.86 157.988L1243.98 165.939C1248 166.386 1251.33 166.976 1253.99 167.687L1256.05 159.958ZM1244.84 157.986L1241.66 157.647L1240.81 165.603L1244 165.941L1244.84 157.986ZM1241.68 157.649C1235.24 156.935 1229.75 155.787 1225.16 154.245L1222.61 161.828C1227.87 163.595 1233.94 164.84 1240.8 165.601L1241.68 157.649ZM1225.25 154.276C1220.94 152.714 1217.66 150.519 1215.26 147.773L1209.24 153.042C1212.67 156.959 1217.15 159.85 1222.52 161.797L1225.25 154.276ZM1215.3 147.825C1213.14 145.262 1211.62 141.541 1211.05 136.311L1203.1 137.174C1203.78 143.481 1205.71 148.87 1209.2 152.99L1215.3 147.825ZM1211.05 136.311C1210.49 131.18 1211.24 126.94 1213.08 123.411L1205.98 119.718C1203.29 124.889 1202.4 130.767 1203.1 137.174L1211.05 136.311ZM1213.07 123.429C1215.03 119.707 1218 116.666 1222.12 114.31L1218.14 107.366C1212.82 110.413 1208.72 114.523 1205.99 119.7L1213.07 123.429ZM1222.15 114.293C1226.37 111.831 1231.58 110.198 1237.91 109.512L1237.04 101.559C1229.85 102.34 1223.5 104.243 1218.11 107.383L1222.15 114.293ZM1237.91 109.512C1244.21 108.828 1249.75 109.33 1254.61 110.904L1257.07 103.294C1250.97 101.315 1244.26 100.775 1237.04 101.559L1237.91 109.512ZM1254.69 110.929C1259.53 112.388 1263.35 114.929 1266.29 118.547L1272.5 113.502C1268.49 108.572 1263.28 105.163 1256.99 103.269L1254.69 110.929ZM1266.35 118.617C1269.26 122.04 1271.18 126.735 1271.86 132.993L1279.82 132.13C1279.01 124.687 1276.63 118.357 1272.44 113.431L1266.35 118.617ZM1271.86 132.993L1272.3 137.049L1280.26 136.186L1279.82 132.13L1271.86 132.993ZM1275.85 132.641L1258.27 134.549L1259.13 142.502L1276.71 140.594L1275.85 132.641ZM1262.68 138.094L1262.24 134.038L1254.29 134.901L1254.73 138.957L1262.68 138.094ZM1262.24 134.038C1261.79 129.94 1260.57 126.291 1258.23 123.486L1252.09 128.616C1253.1 129.824 1253.95 131.787 1254.29 134.901L1262.24 134.038ZM1258.35 123.635C1256.17 120.764 1253.22 118.876 1249.69 117.958L1247.68 125.7C1249.59 126.197 1250.95 127.124 1251.97 128.467L1258.35 123.635ZM1249.8 117.99C1246.45 117.01 1242.74 116.81 1238.75 117.243L1239.61 125.196C1242.83 124.846 1245.45 125.052 1247.56 125.669L1249.8 117.99ZM1238.75 117.243C1232.96 117.871 1228 119.509 1224.67 122.788L1230.29 128.483C1231.75 127.047 1234.58 125.742 1239.61 125.196L1238.75 117.243ZM1224.69 122.775C1221.41 125.979 1220.12 130.123 1220.61 134.725L1228.57 133.862C1228.3 131.434 1228.94 129.805 1230.28 128.495L1224.69 122.775ZM1220.61 134.725C1220.94 137.757 1222.02 140.509 1224.02 142.73L1229.97 137.374C1229.27 136.605 1228.75 135.517 1228.57 133.862L1220.61 134.725ZM1224.12 142.834C1226.13 144.912 1228.76 146.355 1231.76 147.316L1234.2 139.697C1232.1 139.023 1230.73 138.163 1229.87 137.27L1224.12 142.834ZM1231.76 147.316C1234.66 148.246 1238.17 148.895 1242.2 149.312L1243.03 141.354C1239.32 140.971 1236.4 140.402 1234.2 139.697L1231.76 147.316ZM1242.19 149.311L1245.38 149.649L1246.22 141.694L1243.04 141.356L1242.19 149.311ZM1245.39 149.651C1252.09 150.337 1257.86 151.502 1262.72 153.106L1265.23 145.508C1259.69 143.682 1253.34 142.423 1246.21 141.692L1245.39 149.651ZM1262.75 153.114C1267.52 154.653 1271.15 156.882 1273.8 159.697L1279.62 154.211C1275.88 150.241 1271.02 147.373 1265.2 145.5L1262.75 153.114ZM1273.8 159.697C1276.26 162.313 1277.91 166.008 1278.46 171.127L1286.42 170.264C1285.72 163.845 1283.55 158.379 1279.62 154.211L1273.8 159.697ZM1278.46 171.127C1279.01 176.174 1278.19 180.619 1276.1 184.595L1283.18 188.322C1286.07 182.818 1287.12 176.755 1286.42 170.264L1278.46 171.127ZM1276.09 184.612C1274.06 188.51 1270.84 191.875 1266.24 194.663L1270.39 201.505C1276.05 198.072 1280.39 193.686 1283.19 188.305L1276.09 184.612ZM1266.27 194.648C1261.81 197.301 1256.22 199.067 1249.35 199.813L1250.21 207.766C1257.95 206.926 1264.71 204.889 1270.36 201.52L1266.27 194.648ZM1313.53 194.955L1309.55 195.387L1309.98 199.363L1313.96 198.932L1313.53 194.955ZM1305.01 116.535L1308.99 116.104L1308.56 112.127L1304.58 112.559L1305.01 116.535ZM1277.43 119.529L1273.46 119.961L1273.89 123.938L1277.86 123.506L1277.43 119.529ZM1275.67 103.305L1275.24 99.328L1271.26 99.7596L1271.69 103.736L1275.67 103.305ZM1348.68 95.3797L1352.66 94.9481L1352.23 90.9714L1348.25 91.4031L1348.68 95.3797ZM1350.44 111.604L1350.88 115.581L1354.85 115.149L1354.42 111.173L1350.44 111.604ZM1322.86 114.598L1322.43 110.622L1318.45 111.053L1318.89 115.03L1322.86 114.598ZM1331.37 193.018L1331.81 196.994L1335.78 196.563L1335.35 192.586L1331.37 193.018ZM1317.5 194.523L1308.99 116.104L1301.04 116.967L1309.55 195.387L1317.5 194.523ZM1304.58 112.559L1277 115.553L1277.86 123.506L1305.45 120.512L1304.58 112.559ZM1281.41 119.098L1279.65 102.873L1271.69 103.736L1273.46 119.961L1281.41 119.098ZM1276.1 107.281L1349.11 99.3564L1348.25 91.4031L1275.24 99.328L1276.1 107.281ZM1344.71 95.8114L1346.47 112.036L1354.42 111.173L1352.66 94.9481L1344.71 95.8114ZM1350.01 107.628L1322.43 110.622L1323.29 118.575L1350.88 115.581L1350.01 107.628ZM1318.89 115.03L1327.4 193.449L1335.35 192.586L1326.84 114.167L1318.89 115.03ZM1330.94 189.041L1313.09 190.978L1313.96 198.932L1331.81 196.994L1330.94 189.041ZM1367.05 189.145L1363.08 189.577L1363.51 193.553L1367.48 193.122L1367.05 189.145ZM1356.78 94.5008L1356.35 90.5241L1352.37 90.9558L1352.8 94.9324L1356.78 94.5008ZM1413.77 91.4614L1412.47 95.2446L1412.47 95.2446L1413.77 91.4614ZM1425 99.1344L1428.11 96.6209L1428.11 96.6209L1425 99.1344ZM1427.72 127.977L1431.13 130.06L1431.13 130.06L1427.72 127.977ZM1418.55 136.77L1416.64 133.253L1414.28 134.532L1414.57 137.202L1418.55 136.77ZM1418.81 139.204L1414.84 139.635L1415.25 143.418L1419.05 143.197L1418.81 139.204ZM1427.61 142.08L1424.85 144.978L1424.88 145.004L1424.91 145.031L1427.61 142.08ZM1434.93 181.778L1435.36 185.754L1439.33 185.323L1438.9 181.346L1434.93 181.778ZM1417.08 183.715L1413.1 184.146L1413.53 188.123L1417.51 187.691L1417.08 183.715ZM1411.67 150.239L1408.83 153.061L1408.89 153.116L1408.95 153.17L1411.67 150.239ZM1381.03 151.513L1380.59 147.537L1376.62 147.968L1377.05 151.945L1381.03 151.513ZM1384.9 187.208L1385.33 191.184L1389.31 190.753L1388.88 186.776L1384.9 187.208ZM1379.26 135.289L1375.29 135.72L1375.72 139.697L1379.7 139.265L1379.26 135.289ZM1410.13 128.518L1413.2 131.086L1413.2 131.083L1410.13 128.518ZM1408.14 108.899L1405.63 112.016L1405.66 112.041L1405.69 112.065L1408.14 108.899ZM1376.39 108.788L1375.96 104.812L1371.98 105.243L1372.41 109.22L1376.39 108.788ZM1371.03 188.713L1360.76 94.0691L1352.8 94.9324L1363.08 189.577L1371.03 188.713ZM1357.21 98.4774L1398.31 94.016L1397.45 86.0627L1356.35 90.5241L1357.21 98.4774ZM1398.31 94.016C1403.8 93.42 1408.49 93.8788 1412.47 95.2446L1415.07 87.6781C1409.76 85.8564 1403.86 85.3672 1397.45 86.0627L1398.31 94.016ZM1412.47 95.2446C1416.46 96.6153 1419.55 98.7607 1421.89 101.648L1428.11 96.6209C1424.75 92.4648 1420.36 89.4949 1415.07 87.6781L1412.47 95.2446ZM1421.89 101.648C1424.18 104.492 1425.64 108.069 1426.13 112.555L1434.08 111.692C1433.45 105.902 1431.5 100.82 1428.11 96.6209L1421.89 101.648ZM1426.13 112.555L1426.3 114.178L1434.25 113.314L1434.08 111.692L1426.13 112.555ZM1426.3 114.178C1426.85 119.228 1426.05 123.028 1424.3 125.895L1431.13 130.06C1434.03 125.309 1434.94 119.622 1434.25 113.314L1426.3 114.178ZM1424.3 125.895C1422.34 129.123 1419.79 131.548 1416.64 133.253L1420.46 140.287C1424.89 137.886 1428.46 134.45 1431.13 130.06L1424.3 125.895ZM1414.57 137.202L1414.84 139.635L1422.79 138.772L1422.53 136.338L1414.57 137.202ZM1419.05 143.197C1421.78 143.038 1423.56 143.747 1424.85 144.978L1430.36 139.181C1427.18 136.155 1423.1 134.947 1418.58 135.21L1419.05 143.197ZM1424.91 145.031C1426.25 146.254 1427.25 148.167 1427.59 151.247L1435.54 150.384C1435.05 145.892 1433.43 141.981 1430.31 139.128L1424.91 145.031ZM1427.59 151.247L1430.95 182.209L1438.9 181.346L1435.54 150.384L1427.59 151.247ZM1434.49 177.801L1416.65 179.738L1417.51 187.691L1435.36 185.754L1434.49 177.801ZM1421.06 183.283L1417.97 154.89L1410.02 155.753L1413.1 184.146L1421.06 183.283ZM1417.97 154.89C1417.66 151.979 1416.55 149.319 1414.39 147.309L1408.95 153.17C1409.42 153.61 1409.87 154.338 1410.02 155.753L1417.97 154.89ZM1414.5 147.418C1412.05 144.956 1408.66 144.49 1405.47 144.836L1406.34 152.79C1408.37 152.569 1408.82 153.054 1408.83 153.061L1414.5 147.418ZM1405.47 144.836L1380.59 147.537L1381.46 155.49L1406.34 152.79L1405.47 144.836ZM1377.05 151.945L1380.92 187.639L1388.88 186.776L1385 151.082L1377.05 151.945ZM1384.47 183.231L1366.62 185.168L1367.48 193.122L1385.33 191.184L1384.47 183.231ZM1379.7 139.265L1401.06 136.946L1400.2 128.993L1378.83 131.312L1379.7 139.265ZM1401.06 136.946C1406 136.41 1410.25 134.604 1413.2 131.086L1407.06 125.951C1405.81 127.448 1403.73 128.61 1400.2 128.993L1401.06 136.946ZM1413.2 131.083C1416.16 127.537 1417.27 123.22 1416.76 118.496L1408.81 119.36C1409.12 122.208 1408.46 124.284 1407.06 125.953L1413.2 131.083ZM1416.76 118.496L1416.61 117.144L1408.66 118.008L1408.81 119.36L1416.76 118.496ZM1416.61 117.144C1416.11 112.47 1414.17 108.508 1410.58 105.733L1405.69 112.065C1407.28 113.288 1408.35 115.11 1408.66 118.008L1416.61 117.144ZM1410.64 105.782C1406.99 102.843 1402.37 101.945 1397.32 102.493L1398.18 110.446C1401.79 110.055 1404.09 110.777 1405.63 112.016L1410.64 105.782ZM1397.32 102.493L1375.96 104.812L1376.82 112.765L1398.18 110.446L1397.32 102.493ZM1372.41 109.22L1375.29 135.72L1383.24 134.857L1380.37 108.357L1372.41 109.22ZM1448.42 180.312L1444.45 180.744L1444.88 184.721L1448.86 184.289L1448.42 180.312ZM1438.15 85.6684L1437.72 81.6917L1433.74 82.1234L1434.18 86.1L1438.15 85.6684ZM1498.99 79.0642L1502.97 78.6326L1502.54 74.656L1498.56 75.0876L1498.99 79.0642ZM1500.76 95.289L1501.19 99.2656L1505.16 98.834L1504.73 94.8573L1500.76 95.289ZM1457.76 99.9559L1457.33 95.9792L1453.35 96.4109L1453.78 100.388L1457.76 99.9559ZM1460.21 122.535L1456.23 122.967L1456.67 126.944L1460.64 126.512L1460.21 122.535ZM1499.42 118.279L1503.4 117.848L1502.97 113.871L1498.99 114.303L1499.42 118.279ZM1501.18 134.504L1501.61 138.481L1505.59 138.049L1505.16 134.072L1501.18 134.504ZM1461.97 138.76L1461.54 134.783L1457.56 135.215L1458 139.192L1461.97 138.76ZM1464.51 162.151L1460.53 162.582L1460.97 166.559L1464.94 166.127L1464.51 162.151ZM1508.32 157.396L1512.29 156.964L1511.86 152.987L1507.89 153.419L1508.32 157.396ZM1510.08 173.62L1510.51 177.597L1514.49 177.165L1514.06 173.189L1510.08 173.62ZM1452.4 179.881L1442.13 85.2367L1434.18 86.1L1444.45 180.744L1452.4 179.881ZM1438.58 89.645L1499.43 83.0409L1498.56 75.0876L1437.72 81.6917L1438.58 89.645ZM1495.02 79.4959L1496.78 95.7206L1504.73 94.8573L1502.97 78.6326L1495.02 79.4959ZM1500.32 91.3123L1457.33 95.9792L1458.19 103.933L1501.19 99.2656L1500.32 91.3123ZM1453.78 100.388L1456.23 122.967L1464.19 122.104L1461.74 99.5242L1453.78 100.388ZM1460.64 126.512L1499.85 122.256L1498.99 114.303L1459.78 118.559L1460.64 126.512ZM1495.44 118.711L1497.21 134.936L1505.16 134.072L1503.4 117.848L1495.44 118.711ZM1500.75 130.527L1461.54 134.783L1462.4 142.737L1501.61 138.481L1500.75 130.527ZM1458 139.192L1460.53 162.582L1468.49 161.719L1465.95 138.328L1458 139.192ZM1464.94 166.127L1508.75 161.372L1507.89 153.419L1464.08 158.174L1464.94 166.127ZM1504.34 157.827L1506.1 174.052L1514.06 173.189L1512.29 156.964L1504.34 157.827ZM1509.65 169.644L1447.99 176.336L1448.86 184.289L1510.51 177.597L1509.65 169.644ZM1512.74 173.331L1508.79 172.738L1508.02 177.867L1513.18 177.308L1512.74 173.331ZM1527.35 75.9866L1526.92 72.0099L1523.85 72.3428L1523.39 75.3931L1527.35 75.9866ZM1558.45 72.6111L1562.18 71.1827L1561.08 68.3017L1558.01 68.6345L1558.45 72.6111ZM1593.6 164.555L1594.03 168.532L1599.19 167.972L1597.33 163.126L1593.6 164.555ZM1575.21 166.551L1571.45 167.923L1572.53 170.866L1575.64 170.527L1575.21 166.551ZM1567.81 146.287L1571.57 144.915L1570.49 141.972L1567.38 142.31L1567.81 146.287ZM1534.01 149.956L1533.58 145.979L1530.46 146.317L1530.05 149.422L1534.01 149.956ZM1531.13 171.335L1531.56 175.312L1534.68 174.974L1535.1 171.869L1531.13 171.335ZM1536.41 133.006L1532.45 132.463L1531.75 137.535L1536.84 136.982L1536.41 133.006ZM1561.83 130.247L1562.26 134.223L1567.35 133.671L1565.58 128.866L1561.83 130.247ZM1545.33 85.3889L1549.09 84.0082L1548.01 81.075L1544.9 81.4122L1545.33 85.3889ZM1542.9 85.653L1542.47 81.6764L1539.36 82.0136L1538.94 85.11L1542.9 85.653ZM1516.7 173.925L1531.3 76.5801L1523.39 75.3931L1508.79 172.738L1516.7 173.925ZM1527.78 79.9632L1558.88 76.5878L1558.01 68.6345L1526.92 72.0099L1527.78 79.9632ZM1554.71 74.0395L1589.86 165.983L1597.33 163.126L1562.18 71.1827L1554.71 74.0395ZM1593.17 160.578L1574.78 162.574L1575.64 170.527L1594.03 168.532L1593.17 160.578ZM1578.97 165.179L1571.57 144.915L1564.05 147.659L1571.45 167.923L1578.97 165.179ZM1567.38 142.31L1533.58 145.979L1534.44 153.932L1568.24 150.263L1567.38 142.31ZM1530.05 149.422L1527.17 170.802L1535.1 171.869L1537.97 150.489L1530.05 149.422ZM1530.7 167.358L1512.31 169.354L1513.18 177.308L1531.56 175.312L1530.7 167.358ZM1536.84 136.982L1562.26 134.223L1561.4 126.27L1535.98 129.029L1536.84 136.982ZM1565.58 128.866L1549.09 84.0082L1541.58 86.7695L1558.08 131.627L1565.58 128.866ZM1544.9 81.4122L1542.47 81.6764L1543.33 89.6297L1545.76 89.3655L1544.9 81.4122ZM1538.94 85.11L1532.45 132.463L1540.37 133.549L1546.86 86.196L1538.94 85.11ZM1600.87 163.765L1596.89 164.197L1597.32 168.174L1601.3 167.742L1600.87 163.765ZM1590.6 69.1214L1590.16 65.1448L1586.19 65.5764L1586.62 69.553L1590.6 69.1214ZM1623.72 65.5258L1627.54 64.3287L1626.56 61.1948L1623.29 61.5492L1623.72 65.5258ZM1649.03 146.226L1645.22 147.423L1646.2 150.557L1649.47 150.202L1649.03 146.226ZM1651.47 145.961L1651.9 149.938L1655.16 149.584L1655.45 146.312L1651.47 145.961ZM1658.88 61.7101L1658.44 57.7335L1655.18 58.0879L1654.89 61.3598L1658.88 61.7101ZM1692 58.1146L1695.98 57.6829L1695.55 53.7063L1691.57 54.1379L1692 58.1146ZM1702.27 152.759L1702.71 156.735L1706.68 156.304L1706.25 152.327L1702.27 152.759ZM1684.97 154.637L1680.99 155.069L1681.42 159.045L1685.4 158.614L1684.97 154.637ZM1676.12 73.108L1680.09 72.6764L1679.66 68.6997L1675.69 69.1314L1676.12 73.108ZM1673.68 73.3722L1673.25 69.3955L1669.99 69.7497L1669.7 73.0194L1673.68 73.3722ZM1666.31 156.662L1666.74 160.639L1670 160.285L1670.29 157.015L1666.31 156.662ZM1636.83 159.862L1633.02 161.061L1634 164.193L1637.27 163.838L1636.83 159.862ZM1611.76 80.0937L1615.58 78.8942L1614.59 75.7628L1611.33 76.1171L1611.76 80.0937ZM1609.33 80.3579L1608.89 76.3812L1604.92 76.8129L1605.35 80.7895L1609.33 80.3579ZM1618.18 161.887L1618.61 165.864L1622.58 165.432L1622.15 161.455L1618.18 161.887ZM1604.85 163.334L1594.57 68.6898L1586.62 69.553L1596.89 164.197L1604.85 163.334ZM1591.03 73.098L1624.15 69.5025L1623.29 61.5492L1590.16 65.1448L1591.03 73.098ZM1619.91 66.723L1645.22 147.423L1652.85 145.029L1627.54 64.3287L1619.91 66.723ZM1649.47 150.202L1651.9 149.938L1651.04 141.985L1648.6 142.249L1649.47 150.202ZM1655.45 146.312L1662.86 62.0605L1654.89 61.3598L1647.48 145.611L1655.45 146.312ZM1659.31 65.6868L1692.43 62.0912L1691.57 54.1379L1658.44 57.7335L1659.31 65.6868ZM1688.02 58.5462L1698.3 153.19L1706.25 152.327L1695.98 57.6829L1688.02 58.5462ZM1701.84 148.782L1684.54 150.661L1685.4 158.614L1702.71 156.735L1701.84 148.782ZM1688.94 154.206L1680.09 72.6764L1672.14 73.5397L1680.99 155.069L1688.94 154.206ZM1675.69 69.1314L1673.25 69.3955L1674.12 77.3488L1676.55 77.0847L1675.69 69.1314ZM1669.7 73.0194L1662.32 156.31L1670.29 157.015L1677.67 73.725L1669.7 73.0194ZM1665.88 152.686L1636.4 155.885L1637.27 163.838L1666.74 160.639L1665.88 152.686ZM1640.65 158.662L1615.58 78.8942L1607.94 81.2932L1633.02 161.061L1640.65 158.662ZM1611.33 76.1171L1608.89 76.3812L1609.76 84.3345L1612.19 84.0703L1611.33 76.1171ZM1605.35 80.7895L1614.2 162.319L1622.15 161.455L1613.3 79.9262L1605.35 80.7895ZM1617.74 157.91L1600.44 159.789L1601.3 167.742L1618.61 165.864L1617.74 157.91Z" fill="white" mask="url(#path-7-outside-3_744_6208)"/>
</svg>
