<svg width="198" height="181" viewBox="0 0 198 181" fill="none" xmlns="http://www.w3.org/2000/svg">
<path d="M180.68 174.76C164.32 185.02 142.74 180.08 132.47 163.72L90.11 96.24C77.18 108.09 70.48 120.42 67.31 131.65C69.04 135.79 70 140.34 70 145.11C70 164.44 54.33 180.11 35 180.11C15.67 180.11 0 164.44 0 145.11C0 125.78 15.67 110.11 35 110.11C39.3 110.11 43.42 110.89 47.23 112.31C63.77 101.9 73.99 91.95 81.07 81.84L63.33 53.57C53.06 37.21 58 15.62 74.36 5.36C80.14 1.73 86.57 0 92.92 0C104.56 0 115.93 5.81 122.57 16.39L131.04 29.88C163.05 32.2 205.84 39.52 151.65 62.72L191.71 126.54C201.98 142.9 197.04 164.49 180.68 174.76Z" fill="#8A2BE2"/>
</svg>
